G75*
%MOIN*%
%OFA0B0*%
%FSLAX24Y24*%
%IPPOS*%
%LPD*%
%AMOC8*
5,1,8,0,0,1.08239X$1,22.5*
%
%ADD10R,0.0470X0.0200*%
%ADD11R,0.0513X0.0474*%
%ADD12C,0.0820*%
D10*
X001991Y004123D03*
X001991Y004379D03*
X001991Y004635D03*
X001991Y004891D03*
X001991Y005147D03*
X001991Y005403D03*
X001991Y005659D03*
X001991Y005915D03*
X001991Y006171D03*
X001991Y006427D03*
X004289Y006427D03*
X004289Y006171D03*
X004289Y005915D03*
X004289Y005659D03*
X004289Y005403D03*
X004289Y005147D03*
X004289Y004891D03*
X004289Y004635D03*
X004289Y004379D03*
X004289Y004123D03*
D11*
X004244Y007275D03*
X003536Y007275D03*
X002744Y007275D03*
X002036Y007275D03*
X002786Y000875D03*
X003494Y000875D03*
D12*
X000640Y000775D03*
X000640Y001775D03*
X000640Y002775D03*
X000640Y003775D03*
X000640Y004775D03*
X000640Y005775D03*
X000640Y006775D03*
X000640Y007775D03*
X000640Y008775D03*
X000640Y009775D03*
X005640Y009775D03*
X005640Y008775D03*
X005640Y007775D03*
X005640Y006775D03*
X005640Y005775D03*
X005640Y004775D03*
X005640Y003775D03*
X005640Y002775D03*
X005640Y001775D03*
X005640Y000775D03*
M02*
