G75*
%MOIN*%
%OFA0B0*%
%FSLAX24Y24*%
%IPPOS*%
%LPD*%
%AMOC8*
5,1,8,0,0,1.08239X$1,22.5*
%
%ADD10C,0.0010*%
%ADD11R,0.0390X0.0120*%
%ADD12R,0.0433X0.0394*%
%ADD13R,0.0740X0.0740*%
%ADD14C,0.0740*%
%ADD15C,0.0120*%
%ADD16C,0.0080*%
D10*
X000105Y007333D02*
X002467Y007333D01*
X002467Y037885D01*
X000105Y037885D01*
X000105Y007333D01*
X002743Y007583D02*
X002743Y017083D01*
X002745Y017113D01*
X002750Y017143D01*
X002759Y017172D01*
X002772Y017199D01*
X002787Y017225D01*
X002806Y017249D01*
X002827Y017270D01*
X002851Y017289D01*
X002877Y017304D01*
X002904Y017317D01*
X002933Y017326D01*
X002963Y017331D01*
X002993Y017333D01*
X008493Y017333D01*
X008523Y017331D01*
X008553Y017326D01*
X008582Y017317D01*
X008609Y017304D01*
X008635Y017289D01*
X008659Y017270D01*
X008680Y017249D01*
X008699Y017225D01*
X008714Y017199D01*
X008727Y017172D01*
X008736Y017143D01*
X008741Y017113D01*
X008743Y017083D01*
X008743Y007583D01*
X008741Y007553D01*
X008736Y007523D01*
X008727Y007494D01*
X008714Y007467D01*
X008699Y007441D01*
X008680Y007417D01*
X008659Y007396D01*
X008635Y007377D01*
X008609Y007362D01*
X008582Y007349D01*
X008553Y007340D01*
X008523Y007335D01*
X008493Y007333D01*
X002993Y007333D01*
X002963Y007335D01*
X002933Y007340D01*
X002904Y007349D01*
X002877Y007362D01*
X002851Y007377D01*
X002827Y007396D01*
X002806Y007417D01*
X002787Y007441D01*
X002772Y007467D01*
X002759Y007494D01*
X002750Y007523D01*
X002745Y007553D01*
X002743Y007583D01*
X009018Y007583D02*
X009018Y017083D01*
X009020Y017113D01*
X009025Y017143D01*
X009034Y017172D01*
X009047Y017199D01*
X009062Y017225D01*
X009081Y017249D01*
X009102Y017270D01*
X009126Y017289D01*
X009152Y017304D01*
X009179Y017317D01*
X009208Y017326D01*
X009238Y017331D01*
X009268Y017333D01*
X014768Y017333D01*
X014798Y017331D01*
X014828Y017326D01*
X014857Y017317D01*
X014884Y017304D01*
X014910Y017289D01*
X014934Y017270D01*
X014955Y017249D01*
X014974Y017225D01*
X014989Y017199D01*
X015002Y017172D01*
X015011Y017143D01*
X015016Y017113D01*
X015018Y017083D01*
X015018Y007583D01*
X015016Y007553D01*
X015011Y007523D01*
X015002Y007494D01*
X014989Y007467D01*
X014974Y007441D01*
X014955Y007417D01*
X014934Y007396D01*
X014910Y007377D01*
X014884Y007362D01*
X014857Y007349D01*
X014828Y007340D01*
X014798Y007335D01*
X014768Y007333D01*
X009268Y007333D01*
X009238Y007335D01*
X009208Y007340D01*
X009179Y007349D01*
X009152Y007362D01*
X009126Y007377D01*
X009102Y007396D01*
X009081Y007417D01*
X009062Y007441D01*
X009047Y007467D01*
X009034Y007494D01*
X009025Y007523D01*
X009020Y007553D01*
X009018Y007583D01*
X015294Y007583D02*
X015294Y017083D01*
X015296Y017113D01*
X015301Y017143D01*
X015310Y017172D01*
X015323Y017199D01*
X015338Y017225D01*
X015357Y017249D01*
X015378Y017270D01*
X015402Y017289D01*
X015428Y017304D01*
X015455Y017317D01*
X015484Y017326D01*
X015514Y017331D01*
X015544Y017333D01*
X021044Y017333D01*
X021074Y017331D01*
X021104Y017326D01*
X021133Y017317D01*
X021160Y017304D01*
X021186Y017289D01*
X021210Y017270D01*
X021231Y017249D01*
X021250Y017225D01*
X021265Y017199D01*
X021278Y017172D01*
X021287Y017143D01*
X021292Y017113D01*
X021294Y017083D01*
X021294Y007583D01*
X021292Y007553D01*
X021287Y007523D01*
X021278Y007494D01*
X021265Y007467D01*
X021250Y007441D01*
X021231Y007417D01*
X021210Y007396D01*
X021186Y007377D01*
X021160Y007362D01*
X021133Y007349D01*
X021104Y007340D01*
X021074Y007335D01*
X021044Y007333D01*
X015544Y007333D01*
X015514Y007335D01*
X015484Y007340D01*
X015455Y007349D01*
X015428Y007362D01*
X015402Y007377D01*
X015378Y007396D01*
X015357Y007417D01*
X015338Y007441D01*
X015323Y007467D01*
X015310Y007494D01*
X015301Y007523D01*
X015296Y007553D01*
X015294Y007583D01*
X021570Y007583D02*
X021570Y017083D01*
X021572Y017113D01*
X021577Y017143D01*
X021586Y017172D01*
X021599Y017199D01*
X021614Y017225D01*
X021633Y017249D01*
X021654Y017270D01*
X021678Y017289D01*
X021704Y017304D01*
X021731Y017317D01*
X021760Y017326D01*
X021790Y017331D01*
X021820Y017333D01*
X027320Y017333D01*
X027350Y017331D01*
X027380Y017326D01*
X027409Y017317D01*
X027436Y017304D01*
X027462Y017289D01*
X027486Y017270D01*
X027507Y017249D01*
X027526Y017225D01*
X027541Y017199D01*
X027554Y017172D01*
X027563Y017143D01*
X027568Y017113D01*
X027570Y017083D01*
X027570Y007583D01*
X027568Y007553D01*
X027563Y007523D01*
X027554Y007494D01*
X027541Y007467D01*
X027526Y007441D01*
X027507Y007417D01*
X027486Y007396D01*
X027462Y007377D01*
X027436Y007362D01*
X027409Y007349D01*
X027380Y007340D01*
X027350Y007335D01*
X027320Y007333D01*
X021820Y007333D01*
X021790Y007335D01*
X021760Y007340D01*
X021731Y007349D01*
X021704Y007362D01*
X021678Y007377D01*
X021654Y007396D01*
X021633Y007417D01*
X021614Y007441D01*
X021599Y007467D01*
X021586Y007494D01*
X021577Y007523D01*
X021572Y007553D01*
X021570Y007583D01*
X027845Y007583D02*
X027845Y017083D01*
X027847Y017113D01*
X027852Y017143D01*
X027861Y017172D01*
X027874Y017199D01*
X027889Y017225D01*
X027908Y017249D01*
X027929Y017270D01*
X027953Y017289D01*
X027979Y017304D01*
X028006Y017317D01*
X028035Y017326D01*
X028065Y017331D01*
X028095Y017333D01*
X033595Y017333D01*
X033625Y017331D01*
X033655Y017326D01*
X033684Y017317D01*
X033711Y017304D01*
X033737Y017289D01*
X033761Y017270D01*
X033782Y017249D01*
X033801Y017225D01*
X033816Y017199D01*
X033829Y017172D01*
X033838Y017143D01*
X033843Y017113D01*
X033845Y017083D01*
X033845Y007583D01*
X033843Y007553D01*
X033838Y007523D01*
X033829Y007494D01*
X033816Y007467D01*
X033801Y007441D01*
X033782Y007417D01*
X033761Y007396D01*
X033737Y007377D01*
X033711Y007362D01*
X033684Y007349D01*
X033655Y007340D01*
X033625Y007335D01*
X033595Y007333D01*
X028095Y007333D01*
X028065Y007335D01*
X028035Y007340D01*
X028006Y007349D01*
X027979Y007362D01*
X027953Y007377D01*
X027929Y007396D01*
X027908Y007417D01*
X027889Y007441D01*
X027874Y007467D01*
X027861Y007494D01*
X027852Y007523D01*
X027847Y007553D01*
X027845Y007583D01*
X034121Y007333D02*
X036483Y007333D01*
X036483Y037885D01*
X034121Y037885D01*
X034121Y007333D01*
X033595Y017609D02*
X028095Y017609D01*
X028065Y017611D01*
X028035Y017616D01*
X028006Y017625D01*
X027979Y017638D01*
X027953Y017653D01*
X027929Y017672D01*
X027908Y017693D01*
X027889Y017717D01*
X027874Y017743D01*
X027861Y017770D01*
X027852Y017799D01*
X027847Y017829D01*
X027845Y017859D01*
X027845Y027359D01*
X027847Y027389D01*
X027852Y027419D01*
X027861Y027448D01*
X027874Y027475D01*
X027889Y027501D01*
X027908Y027525D01*
X027929Y027546D01*
X027953Y027565D01*
X027979Y027580D01*
X028006Y027593D01*
X028035Y027602D01*
X028065Y027607D01*
X028095Y027609D01*
X033595Y027609D01*
X033625Y027607D01*
X033655Y027602D01*
X033684Y027593D01*
X033711Y027580D01*
X033737Y027565D01*
X033761Y027546D01*
X033782Y027525D01*
X033801Y027501D01*
X033816Y027475D01*
X033829Y027448D01*
X033838Y027419D01*
X033843Y027389D01*
X033845Y027359D01*
X033845Y017859D01*
X033843Y017829D01*
X033838Y017799D01*
X033829Y017770D01*
X033816Y017743D01*
X033801Y017717D01*
X033782Y017693D01*
X033761Y017672D01*
X033737Y017653D01*
X033711Y017638D01*
X033684Y017625D01*
X033655Y017616D01*
X033625Y017611D01*
X033595Y017609D01*
X027570Y017859D02*
X027570Y027359D01*
X027568Y027389D01*
X027563Y027419D01*
X027554Y027448D01*
X027541Y027475D01*
X027526Y027501D01*
X027507Y027525D01*
X027486Y027546D01*
X027462Y027565D01*
X027436Y027580D01*
X027409Y027593D01*
X027380Y027602D01*
X027350Y027607D01*
X027320Y027609D01*
X021820Y027609D01*
X021790Y027607D01*
X021760Y027602D01*
X021731Y027593D01*
X021704Y027580D01*
X021678Y027565D01*
X021654Y027546D01*
X021633Y027525D01*
X021614Y027501D01*
X021599Y027475D01*
X021586Y027448D01*
X021577Y027419D01*
X021572Y027389D01*
X021570Y027359D01*
X021570Y017859D01*
X021572Y017829D01*
X021577Y017799D01*
X021586Y017770D01*
X021599Y017743D01*
X021614Y017717D01*
X021633Y017693D01*
X021654Y017672D01*
X021678Y017653D01*
X021704Y017638D01*
X021731Y017625D01*
X021760Y017616D01*
X021790Y017611D01*
X021820Y017609D01*
X027320Y017609D01*
X027350Y017611D01*
X027380Y017616D01*
X027409Y017625D01*
X027436Y017638D01*
X027462Y017653D01*
X027486Y017672D01*
X027507Y017693D01*
X027526Y017717D01*
X027541Y017743D01*
X027554Y017770D01*
X027563Y017799D01*
X027568Y017829D01*
X027570Y017859D01*
X021294Y017859D02*
X021294Y027359D01*
X021292Y027389D01*
X021287Y027419D01*
X021278Y027448D01*
X021265Y027475D01*
X021250Y027501D01*
X021231Y027525D01*
X021210Y027546D01*
X021186Y027565D01*
X021160Y027580D01*
X021133Y027593D01*
X021104Y027602D01*
X021074Y027607D01*
X021044Y027609D01*
X015544Y027609D01*
X015514Y027607D01*
X015484Y027602D01*
X015455Y027593D01*
X015428Y027580D01*
X015402Y027565D01*
X015378Y027546D01*
X015357Y027525D01*
X015338Y027501D01*
X015323Y027475D01*
X015310Y027448D01*
X015301Y027419D01*
X015296Y027389D01*
X015294Y027359D01*
X015294Y017859D01*
X015296Y017829D01*
X015301Y017799D01*
X015310Y017770D01*
X015323Y017743D01*
X015338Y017717D01*
X015357Y017693D01*
X015378Y017672D01*
X015402Y017653D01*
X015428Y017638D01*
X015455Y017625D01*
X015484Y017616D01*
X015514Y017611D01*
X015544Y017609D01*
X021044Y017609D01*
X021074Y017611D01*
X021104Y017616D01*
X021133Y017625D01*
X021160Y017638D01*
X021186Y017653D01*
X021210Y017672D01*
X021231Y017693D01*
X021250Y017717D01*
X021265Y017743D01*
X021278Y017770D01*
X021287Y017799D01*
X021292Y017829D01*
X021294Y017859D01*
X015018Y017859D02*
X015018Y027359D01*
X015016Y027389D01*
X015011Y027419D01*
X015002Y027448D01*
X014989Y027475D01*
X014974Y027501D01*
X014955Y027525D01*
X014934Y027546D01*
X014910Y027565D01*
X014884Y027580D01*
X014857Y027593D01*
X014828Y027602D01*
X014798Y027607D01*
X014768Y027609D01*
X009268Y027609D01*
X009238Y027607D01*
X009208Y027602D01*
X009179Y027593D01*
X009152Y027580D01*
X009126Y027565D01*
X009102Y027546D01*
X009081Y027525D01*
X009062Y027501D01*
X009047Y027475D01*
X009034Y027448D01*
X009025Y027419D01*
X009020Y027389D01*
X009018Y027359D01*
X009018Y017859D01*
X009020Y017829D01*
X009025Y017799D01*
X009034Y017770D01*
X009047Y017743D01*
X009062Y017717D01*
X009081Y017693D01*
X009102Y017672D01*
X009126Y017653D01*
X009152Y017638D01*
X009179Y017625D01*
X009208Y017616D01*
X009238Y017611D01*
X009268Y017609D01*
X014768Y017609D01*
X014798Y017611D01*
X014828Y017616D01*
X014857Y017625D01*
X014884Y017638D01*
X014910Y017653D01*
X014934Y017672D01*
X014955Y017693D01*
X014974Y017717D01*
X014989Y017743D01*
X015002Y017770D01*
X015011Y017799D01*
X015016Y017829D01*
X015018Y017859D01*
X008743Y017859D02*
X008743Y027359D01*
X008741Y027389D01*
X008736Y027419D01*
X008727Y027448D01*
X008714Y027475D01*
X008699Y027501D01*
X008680Y027525D01*
X008659Y027546D01*
X008635Y027565D01*
X008609Y027580D01*
X008582Y027593D01*
X008553Y027602D01*
X008523Y027607D01*
X008493Y027609D01*
X002993Y027609D01*
X002963Y027607D01*
X002933Y027602D01*
X002904Y027593D01*
X002877Y027580D01*
X002851Y027565D01*
X002827Y027546D01*
X002806Y027525D01*
X002787Y027501D01*
X002772Y027475D01*
X002759Y027448D01*
X002750Y027419D01*
X002745Y027389D01*
X002743Y027359D01*
X002743Y017859D01*
X002745Y017829D01*
X002750Y017799D01*
X002759Y017770D01*
X002772Y017743D01*
X002787Y017717D01*
X002806Y017693D01*
X002827Y017672D01*
X002851Y017653D01*
X002877Y017638D01*
X002904Y017625D01*
X002933Y017616D01*
X002963Y017611D01*
X002993Y017609D01*
X008493Y017609D01*
X008523Y017611D01*
X008553Y017616D01*
X008582Y017625D01*
X008609Y017638D01*
X008635Y017653D01*
X008659Y017672D01*
X008680Y017693D01*
X008699Y017717D01*
X008714Y017743D01*
X008727Y017770D01*
X008736Y017799D01*
X008741Y017829D01*
X008743Y017859D01*
X008493Y027885D02*
X002993Y027885D01*
X002963Y027887D01*
X002933Y027892D01*
X002904Y027901D01*
X002877Y027914D01*
X002851Y027929D01*
X002827Y027948D01*
X002806Y027969D01*
X002787Y027993D01*
X002772Y028019D01*
X002759Y028046D01*
X002750Y028075D01*
X002745Y028105D01*
X002743Y028135D01*
X002743Y037635D01*
X002745Y037665D01*
X002750Y037695D01*
X002759Y037724D01*
X002772Y037751D01*
X002787Y037777D01*
X002806Y037801D01*
X002827Y037822D01*
X002851Y037841D01*
X002877Y037856D01*
X002904Y037869D01*
X002933Y037878D01*
X002963Y037883D01*
X002993Y037885D01*
X008493Y037885D01*
X008523Y037883D01*
X008553Y037878D01*
X008582Y037869D01*
X008609Y037856D01*
X008635Y037841D01*
X008659Y037822D01*
X008680Y037801D01*
X008699Y037777D01*
X008714Y037751D01*
X008727Y037724D01*
X008736Y037695D01*
X008741Y037665D01*
X008743Y037635D01*
X008743Y028135D01*
X008741Y028105D01*
X008736Y028075D01*
X008727Y028046D01*
X008714Y028019D01*
X008699Y027993D01*
X008680Y027969D01*
X008659Y027948D01*
X008635Y027929D01*
X008609Y027914D01*
X008582Y027901D01*
X008553Y027892D01*
X008523Y027887D01*
X008493Y027885D01*
X009018Y028135D02*
X009018Y037635D01*
X009020Y037665D01*
X009025Y037695D01*
X009034Y037724D01*
X009047Y037751D01*
X009062Y037777D01*
X009081Y037801D01*
X009102Y037822D01*
X009126Y037841D01*
X009152Y037856D01*
X009179Y037869D01*
X009208Y037878D01*
X009238Y037883D01*
X009268Y037885D01*
X014768Y037885D01*
X014798Y037883D01*
X014828Y037878D01*
X014857Y037869D01*
X014884Y037856D01*
X014910Y037841D01*
X014934Y037822D01*
X014955Y037801D01*
X014974Y037777D01*
X014989Y037751D01*
X015002Y037724D01*
X015011Y037695D01*
X015016Y037665D01*
X015018Y037635D01*
X015018Y028135D01*
X015016Y028105D01*
X015011Y028075D01*
X015002Y028046D01*
X014989Y028019D01*
X014974Y027993D01*
X014955Y027969D01*
X014934Y027948D01*
X014910Y027929D01*
X014884Y027914D01*
X014857Y027901D01*
X014828Y027892D01*
X014798Y027887D01*
X014768Y027885D01*
X009268Y027885D01*
X009238Y027887D01*
X009208Y027892D01*
X009179Y027901D01*
X009152Y027914D01*
X009126Y027929D01*
X009102Y027948D01*
X009081Y027969D01*
X009062Y027993D01*
X009047Y028019D01*
X009034Y028046D01*
X009025Y028075D01*
X009020Y028105D01*
X009018Y028135D01*
X015294Y028135D02*
X015294Y037635D01*
X015296Y037665D01*
X015301Y037695D01*
X015310Y037724D01*
X015323Y037751D01*
X015338Y037777D01*
X015357Y037801D01*
X015378Y037822D01*
X015402Y037841D01*
X015428Y037856D01*
X015455Y037869D01*
X015484Y037878D01*
X015514Y037883D01*
X015544Y037885D01*
X021044Y037885D01*
X021074Y037883D01*
X021104Y037878D01*
X021133Y037869D01*
X021160Y037856D01*
X021186Y037841D01*
X021210Y037822D01*
X021231Y037801D01*
X021250Y037777D01*
X021265Y037751D01*
X021278Y037724D01*
X021287Y037695D01*
X021292Y037665D01*
X021294Y037635D01*
X021294Y028135D01*
X021292Y028105D01*
X021287Y028075D01*
X021278Y028046D01*
X021265Y028019D01*
X021250Y027993D01*
X021231Y027969D01*
X021210Y027948D01*
X021186Y027929D01*
X021160Y027914D01*
X021133Y027901D01*
X021104Y027892D01*
X021074Y027887D01*
X021044Y027885D01*
X015544Y027885D01*
X015514Y027887D01*
X015484Y027892D01*
X015455Y027901D01*
X015428Y027914D01*
X015402Y027929D01*
X015378Y027948D01*
X015357Y027969D01*
X015338Y027993D01*
X015323Y028019D01*
X015310Y028046D01*
X015301Y028075D01*
X015296Y028105D01*
X015294Y028135D01*
X021570Y028135D02*
X021570Y037635D01*
X021572Y037665D01*
X021577Y037695D01*
X021586Y037724D01*
X021599Y037751D01*
X021614Y037777D01*
X021633Y037801D01*
X021654Y037822D01*
X021678Y037841D01*
X021704Y037856D01*
X021731Y037869D01*
X021760Y037878D01*
X021790Y037883D01*
X021820Y037885D01*
X027320Y037885D01*
X027350Y037883D01*
X027380Y037878D01*
X027409Y037869D01*
X027436Y037856D01*
X027462Y037841D01*
X027486Y037822D01*
X027507Y037801D01*
X027526Y037777D01*
X027541Y037751D01*
X027554Y037724D01*
X027563Y037695D01*
X027568Y037665D01*
X027570Y037635D01*
X027570Y028135D01*
X027568Y028105D01*
X027563Y028075D01*
X027554Y028046D01*
X027541Y028019D01*
X027526Y027993D01*
X027507Y027969D01*
X027486Y027948D01*
X027462Y027929D01*
X027436Y027914D01*
X027409Y027901D01*
X027380Y027892D01*
X027350Y027887D01*
X027320Y027885D01*
X021820Y027885D01*
X021790Y027887D01*
X021760Y027892D01*
X021731Y027901D01*
X021704Y027914D01*
X021678Y027929D01*
X021654Y027948D01*
X021633Y027969D01*
X021614Y027993D01*
X021599Y028019D01*
X021586Y028046D01*
X021577Y028075D01*
X021572Y028105D01*
X021570Y028135D01*
X027845Y028135D02*
X027845Y037635D01*
X027847Y037665D01*
X027852Y037695D01*
X027861Y037724D01*
X027874Y037751D01*
X027889Y037777D01*
X027908Y037801D01*
X027929Y037822D01*
X027953Y037841D01*
X027979Y037856D01*
X028006Y037869D01*
X028035Y037878D01*
X028065Y037883D01*
X028095Y037885D01*
X033595Y037885D01*
X033625Y037883D01*
X033655Y037878D01*
X033684Y037869D01*
X033711Y037856D01*
X033737Y037841D01*
X033761Y037822D01*
X033782Y037801D01*
X033801Y037777D01*
X033816Y037751D01*
X033829Y037724D01*
X033838Y037695D01*
X033843Y037665D01*
X033845Y037635D01*
X033845Y028135D01*
X033843Y028105D01*
X033838Y028075D01*
X033829Y028046D01*
X033816Y028019D01*
X033801Y027993D01*
X033782Y027969D01*
X033761Y027948D01*
X033737Y027929D01*
X033711Y027914D01*
X033684Y027901D01*
X033655Y027892D01*
X033625Y027887D01*
X033595Y027885D01*
X028095Y027885D01*
X028065Y027887D01*
X028035Y027892D01*
X028006Y027901D01*
X027979Y027914D01*
X027953Y027929D01*
X027929Y027948D01*
X027908Y027969D01*
X027889Y027993D01*
X027874Y028019D01*
X027861Y028046D01*
X027852Y028075D01*
X027847Y028105D01*
X027845Y028135D01*
D11*
X029696Y031733D03*
X029696Y031989D03*
X029696Y032245D03*
X029696Y032501D03*
X029696Y032757D03*
X029696Y033012D03*
X029696Y033268D03*
X029696Y033524D03*
X029696Y033780D03*
X029696Y034036D03*
X031994Y034036D03*
X031994Y033780D03*
X031994Y033524D03*
X031994Y033268D03*
X031994Y033012D03*
X031994Y032757D03*
X031994Y032501D03*
X031994Y032245D03*
X031994Y031989D03*
X031994Y031733D03*
X025718Y031733D03*
X025718Y031989D03*
X025718Y032245D03*
X025718Y032501D03*
X025718Y032757D03*
X025718Y033012D03*
X025718Y033268D03*
X025718Y033524D03*
X025718Y033780D03*
X025718Y034036D03*
X023421Y034036D03*
X023421Y033780D03*
X023421Y033524D03*
X023421Y033268D03*
X023421Y033012D03*
X023421Y032757D03*
X023421Y032501D03*
X023421Y032245D03*
X023421Y031989D03*
X023421Y031733D03*
X019443Y031733D03*
X019443Y031989D03*
X019443Y032245D03*
X019443Y032501D03*
X019443Y032757D03*
X019443Y033012D03*
X019443Y033268D03*
X019443Y033524D03*
X019443Y033780D03*
X019443Y034036D03*
X017145Y034036D03*
X017145Y033780D03*
X017145Y033524D03*
X017145Y033268D03*
X017145Y033012D03*
X017145Y032757D03*
X017145Y032501D03*
X017145Y032245D03*
X017145Y031989D03*
X017145Y031733D03*
X013167Y031733D03*
X013167Y031989D03*
X013167Y032245D03*
X013167Y032501D03*
X013167Y032757D03*
X013167Y033012D03*
X013167Y033268D03*
X013167Y033524D03*
X013167Y033780D03*
X013167Y034036D03*
X010870Y034036D03*
X010870Y033780D03*
X010870Y033524D03*
X010870Y033268D03*
X010870Y033012D03*
X010870Y032757D03*
X010870Y032501D03*
X010870Y032245D03*
X010870Y031989D03*
X010870Y031733D03*
X006892Y031733D03*
X006892Y031989D03*
X006892Y032245D03*
X006892Y032501D03*
X006892Y032757D03*
X006892Y033012D03*
X006892Y033268D03*
X006892Y033524D03*
X006892Y033780D03*
X006892Y034036D03*
X004594Y034036D03*
X004594Y033780D03*
X004594Y033524D03*
X004594Y033268D03*
X004594Y033012D03*
X004594Y032757D03*
X004594Y032501D03*
X004594Y032245D03*
X004594Y031989D03*
X004594Y031733D03*
X004594Y023760D03*
X004594Y023505D03*
X004594Y023249D03*
X004594Y022993D03*
X004594Y022737D03*
X004594Y022481D03*
X004594Y022225D03*
X004594Y021969D03*
X004594Y021713D03*
X004594Y021457D03*
X006892Y021457D03*
X006892Y021713D03*
X006892Y021969D03*
X006892Y022225D03*
X006892Y022481D03*
X006892Y022737D03*
X006892Y022993D03*
X006892Y023249D03*
X006892Y023505D03*
X006892Y023760D03*
X010870Y023760D03*
X010870Y023505D03*
X010870Y023249D03*
X010870Y022993D03*
X010870Y022737D03*
X010870Y022481D03*
X010870Y022225D03*
X010870Y021969D03*
X010870Y021713D03*
X010870Y021457D03*
X013167Y021457D03*
X013167Y021713D03*
X013167Y021969D03*
X013167Y022225D03*
X013167Y022481D03*
X013167Y022737D03*
X013167Y022993D03*
X013167Y023249D03*
X013167Y023505D03*
X013167Y023760D03*
X017145Y023760D03*
X017145Y023505D03*
X017145Y023249D03*
X017145Y022993D03*
X017145Y022737D03*
X017145Y022481D03*
X017145Y022225D03*
X017145Y021969D03*
X017145Y021713D03*
X017145Y021457D03*
X019443Y021457D03*
X019443Y021713D03*
X019443Y021969D03*
X019443Y022225D03*
X019443Y022481D03*
X019443Y022737D03*
X019443Y022993D03*
X019443Y023249D03*
X019443Y023505D03*
X019443Y023760D03*
X023421Y023760D03*
X023421Y023505D03*
X023421Y023249D03*
X023421Y022993D03*
X023421Y022737D03*
X023421Y022481D03*
X023421Y022225D03*
X023421Y021969D03*
X023421Y021713D03*
X023421Y021457D03*
X025718Y021457D03*
X025718Y021713D03*
X025718Y021969D03*
X025718Y022225D03*
X025718Y022481D03*
X025718Y022737D03*
X025718Y022993D03*
X025718Y023249D03*
X025718Y023505D03*
X025718Y023760D03*
X029696Y023760D03*
X029696Y023505D03*
X029696Y023249D03*
X029696Y022993D03*
X029696Y022737D03*
X029696Y022481D03*
X029696Y022225D03*
X029696Y021969D03*
X029696Y021713D03*
X029696Y021457D03*
X031994Y021457D03*
X031994Y021713D03*
X031994Y021969D03*
X031994Y022225D03*
X031994Y022481D03*
X031994Y022737D03*
X031994Y022993D03*
X031994Y023249D03*
X031994Y023505D03*
X031994Y023760D03*
X031994Y013485D03*
X031994Y013229D03*
X031994Y012973D03*
X031994Y012717D03*
X031994Y012461D03*
X031994Y012205D03*
X031994Y011949D03*
X031994Y011694D03*
X031994Y011438D03*
X031994Y011182D03*
X029696Y011182D03*
X029696Y011438D03*
X029696Y011694D03*
X029696Y011949D03*
X029696Y012205D03*
X029696Y012461D03*
X029696Y012717D03*
X029696Y012973D03*
X029696Y013229D03*
X029696Y013485D03*
X025718Y013485D03*
X025718Y013229D03*
X025718Y012973D03*
X025718Y012717D03*
X025718Y012461D03*
X025718Y012205D03*
X025718Y011949D03*
X025718Y011694D03*
X025718Y011438D03*
X025718Y011182D03*
X023421Y011182D03*
X023421Y011438D03*
X023421Y011694D03*
X023421Y011949D03*
X023421Y012205D03*
X023421Y012461D03*
X023421Y012717D03*
X023421Y012973D03*
X023421Y013229D03*
X023421Y013485D03*
X019443Y013485D03*
X019443Y013229D03*
X019443Y012973D03*
X019443Y012717D03*
X019443Y012461D03*
X019443Y012205D03*
X019443Y011949D03*
X019443Y011694D03*
X019443Y011438D03*
X019443Y011182D03*
X017145Y011182D03*
X017145Y011438D03*
X017145Y011694D03*
X017145Y011949D03*
X017145Y012205D03*
X017145Y012461D03*
X017145Y012717D03*
X017145Y012973D03*
X017145Y013229D03*
X017145Y013485D03*
X013167Y013485D03*
X013167Y013229D03*
X013167Y012973D03*
X013167Y012717D03*
X013167Y012461D03*
X013167Y012205D03*
X013167Y011949D03*
X013167Y011694D03*
X013167Y011438D03*
X013167Y011182D03*
X010870Y011182D03*
X010870Y011438D03*
X010870Y011694D03*
X010870Y011949D03*
X010870Y012205D03*
X010870Y012461D03*
X010870Y012717D03*
X010870Y012973D03*
X010870Y013229D03*
X010870Y013485D03*
X006892Y013485D03*
X006892Y013229D03*
X006892Y012973D03*
X006892Y012717D03*
X006892Y012461D03*
X006892Y012205D03*
X006892Y011949D03*
X006892Y011694D03*
X006892Y011438D03*
X006892Y011182D03*
X004594Y011182D03*
X004594Y011438D03*
X004594Y011694D03*
X004594Y011949D03*
X004594Y012205D03*
X004594Y012461D03*
X004594Y012717D03*
X004594Y012973D03*
X004594Y013229D03*
X004594Y013485D03*
D12*
X004638Y014333D03*
X005347Y014333D03*
X006138Y014333D03*
X006847Y014333D03*
X006097Y018209D03*
X005388Y018209D03*
X010914Y014333D03*
X011623Y014333D03*
X012414Y014333D03*
X013123Y014333D03*
X012373Y018209D03*
X011664Y018209D03*
X017190Y014333D03*
X017898Y014333D03*
X018690Y014333D03*
X019398Y014333D03*
X018648Y018209D03*
X017940Y018209D03*
X023465Y014333D03*
X024174Y014333D03*
X024965Y014333D03*
X025674Y014333D03*
X024924Y018209D03*
X024215Y018209D03*
X029741Y014333D03*
X030449Y014333D03*
X031241Y014333D03*
X031949Y014333D03*
X031199Y018209D03*
X030491Y018209D03*
X030449Y024609D03*
X029741Y024609D03*
X031241Y024609D03*
X031949Y024609D03*
X031199Y028485D03*
X030491Y028485D03*
X025674Y024609D03*
X024965Y024609D03*
X024174Y024609D03*
X023465Y024609D03*
X024215Y028485D03*
X024924Y028485D03*
X019398Y024609D03*
X018690Y024609D03*
X017898Y024609D03*
X017190Y024609D03*
X017940Y028485D03*
X018648Y028485D03*
X013123Y024609D03*
X012414Y024609D03*
X011623Y024609D03*
X010914Y024609D03*
X011664Y028485D03*
X012373Y028485D03*
X006847Y024609D03*
X006138Y024609D03*
X005347Y024609D03*
X004638Y024609D03*
X005388Y028485D03*
X006097Y028485D03*
X006138Y034885D03*
X006847Y034885D03*
X005347Y034885D03*
X004638Y034885D03*
X010914Y034885D03*
X011623Y034885D03*
X012414Y034885D03*
X013123Y034885D03*
X017190Y034885D03*
X017898Y034885D03*
X018690Y034885D03*
X019398Y034885D03*
X023465Y034885D03*
X024174Y034885D03*
X024965Y034885D03*
X025674Y034885D03*
X029741Y034885D03*
X030449Y034885D03*
X031241Y034885D03*
X031949Y034885D03*
X031199Y007933D03*
X030491Y007933D03*
X024924Y007933D03*
X024215Y007933D03*
X018648Y007933D03*
X017940Y007933D03*
X012373Y007933D03*
X011664Y007933D03*
X006097Y007933D03*
X005388Y007933D03*
D13*
X008243Y007833D03*
X014518Y007833D03*
X020794Y007833D03*
X027070Y007833D03*
X033345Y007833D03*
X033345Y018109D03*
X027070Y018109D03*
X020794Y018109D03*
X014518Y018109D03*
X008243Y018109D03*
X008243Y028385D03*
X014518Y028385D03*
X020794Y028385D03*
X027070Y028385D03*
X033345Y028385D03*
D14*
X033345Y029385D03*
X033345Y030385D03*
X033345Y031385D03*
X033345Y032385D03*
X033345Y033385D03*
X033345Y034385D03*
X033345Y035385D03*
X033345Y036385D03*
X033345Y037385D03*
X028345Y037385D03*
X028345Y036385D03*
X028345Y035385D03*
X028345Y034385D03*
X028345Y033385D03*
X028345Y032385D03*
X028345Y031385D03*
X028345Y030385D03*
X028345Y029385D03*
X028345Y028385D03*
X028345Y027109D03*
X028345Y026109D03*
X028345Y025109D03*
X028345Y024109D03*
X028345Y023109D03*
X028345Y022109D03*
X028345Y021109D03*
X028345Y020109D03*
X028345Y019109D03*
X028345Y018109D03*
X028345Y016833D03*
X028345Y015833D03*
X028345Y014833D03*
X028345Y013833D03*
X028345Y012833D03*
X028345Y011833D03*
X028345Y010833D03*
X028345Y009833D03*
X028345Y008833D03*
X028345Y007833D03*
X027070Y008833D03*
X027070Y009833D03*
X027070Y010833D03*
X027070Y011833D03*
X027070Y012833D03*
X027070Y013833D03*
X027070Y014833D03*
X027070Y015833D03*
X027070Y016833D03*
X027070Y019109D03*
X027070Y020109D03*
X027070Y021109D03*
X027070Y022109D03*
X027070Y023109D03*
X027070Y024109D03*
X027070Y025109D03*
X027070Y026109D03*
X027070Y027109D03*
X027070Y029385D03*
X027070Y030385D03*
X027070Y031385D03*
X027070Y032385D03*
X027070Y033385D03*
X027070Y034385D03*
X027070Y035385D03*
X027070Y036385D03*
X027070Y037385D03*
X022070Y037385D03*
X022070Y036385D03*
X022070Y035385D03*
X022070Y034385D03*
X022070Y033385D03*
X022070Y032385D03*
X022070Y031385D03*
X022070Y030385D03*
X022070Y029385D03*
X022070Y028385D03*
X022070Y027109D03*
X022070Y026109D03*
X022070Y025109D03*
X022070Y024109D03*
X022070Y023109D03*
X022070Y022109D03*
X022070Y021109D03*
X022070Y020109D03*
X022070Y019109D03*
X022070Y018109D03*
X022070Y016833D03*
X022070Y015833D03*
X022070Y014833D03*
X022070Y013833D03*
X022070Y012833D03*
X022070Y011833D03*
X022070Y010833D03*
X022070Y009833D03*
X022070Y008833D03*
X022070Y007833D03*
X020794Y008833D03*
X020794Y009833D03*
X020794Y010833D03*
X020794Y011833D03*
X020794Y012833D03*
X020794Y013833D03*
X020794Y014833D03*
X020794Y015833D03*
X020794Y016833D03*
X020794Y019109D03*
X020794Y020109D03*
X020794Y021109D03*
X020794Y022109D03*
X020794Y023109D03*
X020794Y024109D03*
X020794Y025109D03*
X020794Y026109D03*
X020794Y027109D03*
X020794Y029385D03*
X020794Y030385D03*
X020794Y031385D03*
X020794Y032385D03*
X020794Y033385D03*
X020794Y034385D03*
X020794Y035385D03*
X020794Y036385D03*
X020794Y037385D03*
X015794Y037385D03*
X015794Y036385D03*
X015794Y035385D03*
X015794Y034385D03*
X015794Y033385D03*
X015794Y032385D03*
X015794Y031385D03*
X015794Y030385D03*
X015794Y029385D03*
X015794Y028385D03*
X015794Y027109D03*
X015794Y026109D03*
X015794Y025109D03*
X015794Y024109D03*
X015794Y023109D03*
X015794Y022109D03*
X015794Y021109D03*
X015794Y020109D03*
X015794Y019109D03*
X015794Y018109D03*
X015794Y016833D03*
X015794Y015833D03*
X015794Y014833D03*
X015794Y013833D03*
X015794Y012833D03*
X015794Y011833D03*
X015794Y010833D03*
X015794Y009833D03*
X015794Y008833D03*
X015794Y007833D03*
X014518Y008833D03*
X014518Y009833D03*
X014518Y010833D03*
X014518Y011833D03*
X014518Y012833D03*
X014518Y013833D03*
X014518Y014833D03*
X014518Y015833D03*
X014518Y016833D03*
X014518Y019109D03*
X014518Y020109D03*
X014518Y021109D03*
X014518Y022109D03*
X014518Y023109D03*
X014518Y024109D03*
X014518Y025109D03*
X014518Y026109D03*
X014518Y027109D03*
X014518Y029385D03*
X014518Y030385D03*
X014518Y031385D03*
X014518Y032385D03*
X014518Y033385D03*
X014518Y034385D03*
X014518Y035385D03*
X014518Y036385D03*
X014518Y037385D03*
X009518Y037385D03*
X009518Y036385D03*
X009518Y035385D03*
X009518Y034385D03*
X009518Y033385D03*
X009518Y032385D03*
X009518Y031385D03*
X009518Y030385D03*
X009518Y029385D03*
X009518Y028385D03*
X009518Y027109D03*
X009518Y026109D03*
X009518Y025109D03*
X009518Y024109D03*
X009518Y023109D03*
X009518Y022109D03*
X009518Y021109D03*
X009518Y020109D03*
X009518Y019109D03*
X009518Y018109D03*
X009518Y016833D03*
X009518Y015833D03*
X009518Y014833D03*
X009518Y013833D03*
X009518Y012833D03*
X009518Y011833D03*
X009518Y010833D03*
X009518Y009833D03*
X009518Y008833D03*
X009518Y007833D03*
X008243Y008833D03*
X008243Y009833D03*
X008243Y010833D03*
X008243Y011833D03*
X008243Y012833D03*
X008243Y013833D03*
X008243Y014833D03*
X008243Y015833D03*
X008243Y016833D03*
X008243Y019109D03*
X008243Y020109D03*
X008243Y021109D03*
X008243Y022109D03*
X008243Y023109D03*
X008243Y024109D03*
X008243Y025109D03*
X008243Y026109D03*
X008243Y027109D03*
X008243Y029385D03*
X008243Y030385D03*
X008243Y031385D03*
X008243Y032385D03*
X008243Y033385D03*
X008243Y034385D03*
X008243Y035385D03*
X008243Y036385D03*
X008243Y037385D03*
X003243Y037385D03*
X003243Y036385D03*
X003243Y035385D03*
X003243Y034385D03*
X003243Y033385D03*
X003243Y032385D03*
X003243Y031385D03*
X003243Y030385D03*
X003243Y029385D03*
X003243Y028385D03*
X003243Y027109D03*
X003243Y026109D03*
X003243Y025109D03*
X003243Y024109D03*
X003243Y023109D03*
X003243Y022109D03*
X003243Y021109D03*
X003243Y020109D03*
X003243Y019109D03*
X003243Y018109D03*
X003243Y016833D03*
X003243Y015833D03*
X003243Y014833D03*
X003243Y013833D03*
X003243Y012833D03*
X003243Y011833D03*
X003243Y010833D03*
X003243Y009833D03*
X003243Y008833D03*
X003243Y007833D03*
X033345Y008833D03*
X033345Y009833D03*
X033345Y010833D03*
X033345Y011833D03*
X033345Y012833D03*
X033345Y013833D03*
X033345Y014833D03*
X033345Y015833D03*
X033345Y016833D03*
X033345Y019109D03*
X033345Y020109D03*
X033345Y021109D03*
X033345Y022109D03*
X033345Y023109D03*
X033345Y024109D03*
X033345Y025109D03*
X033345Y026109D03*
X033345Y027109D03*
D15*
X032095Y025859D01*
X032095Y024774D01*
X031949Y024609D01*
X031930Y024569D01*
X031345Y023984D01*
X031345Y023609D01*
X031449Y023505D01*
X031994Y023505D01*
X031994Y023760D02*
X032247Y023760D01*
X032470Y023984D01*
X032470Y025234D01*
X033345Y026109D01*
X033345Y025109D02*
X032795Y024559D01*
X032795Y023809D01*
X032235Y023249D01*
X031994Y023249D01*
X031994Y022993D02*
X032479Y022993D01*
X033095Y023609D01*
X033095Y023859D01*
X033345Y024109D01*
X033345Y023109D02*
X032973Y022737D01*
X031994Y022737D01*
X031994Y022481D02*
X032973Y022481D01*
X033345Y022109D01*
X032815Y022109D02*
X032815Y021639D01*
X033345Y021109D01*
X032595Y020859D02*
X032595Y021859D01*
X032485Y021969D01*
X031994Y021969D01*
X031994Y021713D02*
X032241Y021713D01*
X032345Y021609D01*
X032345Y020109D01*
X033345Y019109D01*
X033345Y020109D02*
X032595Y020859D01*
X031994Y021457D02*
X031247Y021457D01*
X031095Y021609D01*
X031095Y024444D01*
X031241Y024609D01*
X030449Y024609D01*
X029761Y024569D02*
X030470Y023859D01*
X030470Y023484D01*
X030845Y023109D01*
X030845Y018859D01*
X031095Y018609D01*
X031095Y018194D01*
X031199Y018209D01*
X030595Y018194D02*
X030491Y018209D01*
X030391Y018109D01*
X028345Y018109D01*
X028345Y019109D02*
X029355Y020119D01*
X029355Y021609D01*
X029449Y021713D01*
X029696Y021713D01*
X029696Y021457D02*
X030497Y021457D01*
X030595Y021359D01*
X030595Y018194D01*
X030491Y018209D02*
X030445Y018109D01*
X031095Y020359D02*
X033345Y018109D01*
X033345Y016833D02*
X032095Y015583D01*
X032095Y014499D01*
X031949Y014333D01*
X031930Y014293D01*
X031345Y013708D01*
X031345Y013333D01*
X031449Y013229D01*
X031994Y013229D01*
X031994Y012973D02*
X032235Y012973D01*
X032795Y013533D01*
X032795Y014283D01*
X033345Y014833D01*
X033345Y013833D02*
X033095Y013583D01*
X033095Y013333D01*
X032479Y012717D01*
X031994Y012717D01*
X031994Y012461D02*
X032973Y012461D01*
X033345Y012833D01*
X032973Y012205D02*
X033345Y011833D01*
X032973Y012205D02*
X031994Y012205D01*
X031994Y011949D02*
X032699Y011949D01*
X032815Y011833D01*
X032815Y011363D01*
X033345Y010833D01*
X032595Y010583D02*
X032595Y011583D01*
X032485Y011694D01*
X031994Y011694D01*
X031994Y011438D02*
X032241Y011438D01*
X032345Y011333D01*
X032345Y009833D01*
X033345Y008833D01*
X033345Y009833D02*
X032595Y010583D01*
X031994Y011182D02*
X031247Y011182D01*
X031095Y011333D01*
X031095Y014168D01*
X031241Y014333D01*
X030449Y014333D01*
X029761Y014293D02*
X030470Y013583D01*
X030470Y013208D01*
X030845Y012833D01*
X030845Y008583D01*
X031095Y008333D01*
X031095Y007918D01*
X031199Y007933D01*
X030595Y007918D02*
X030491Y007933D01*
X030391Y007833D01*
X028345Y007833D01*
X028345Y008833D02*
X029355Y009843D01*
X029355Y011333D01*
X029449Y011438D01*
X029696Y011438D01*
X029696Y011694D02*
X029245Y011694D01*
X029135Y011583D01*
X029135Y010623D01*
X028345Y009833D01*
X028345Y010833D02*
X028355Y010833D01*
X028875Y011353D01*
X028875Y011833D01*
X028991Y011949D01*
X029696Y011949D01*
X029696Y012205D02*
X028717Y012205D01*
X028345Y011833D01*
X028717Y012461D02*
X028345Y012833D01*
X028717Y012461D02*
X029696Y012461D01*
X029696Y012717D02*
X029211Y012717D01*
X028595Y013333D01*
X028595Y013583D01*
X028345Y013833D01*
X028895Y013533D02*
X028895Y014283D01*
X028345Y014833D01*
X029220Y014958D02*
X028345Y015833D01*
X029220Y014958D02*
X029220Y013708D01*
X029444Y013485D01*
X029696Y013485D01*
X029696Y013229D02*
X030449Y013229D01*
X030470Y013208D01*
X030449Y013229D02*
X030491Y013229D01*
X029696Y012973D02*
X029455Y012973D01*
X028895Y013533D01*
X029761Y014293D02*
X029741Y014333D01*
X029595Y014499D01*
X029595Y015583D01*
X028345Y016833D01*
X027070Y016833D02*
X025820Y015583D01*
X025820Y014499D01*
X025674Y014333D01*
X025654Y014293D01*
X025070Y013708D01*
X025070Y013333D01*
X025174Y013229D01*
X025718Y013229D01*
X025718Y012973D02*
X025959Y012973D01*
X026520Y013533D01*
X026520Y014283D01*
X027070Y014833D01*
X026195Y014958D02*
X027070Y015833D01*
X026195Y014958D02*
X026195Y013708D01*
X025971Y013485D01*
X025718Y013485D01*
X025718Y012717D02*
X026203Y012717D01*
X026820Y013333D01*
X026820Y013583D01*
X027070Y013833D01*
X027070Y012833D02*
X026698Y012461D01*
X025718Y012461D01*
X025718Y012205D02*
X026698Y012205D01*
X027070Y011833D01*
X026540Y011833D02*
X026540Y011363D01*
X027070Y010833D01*
X026320Y010583D02*
X026320Y011583D01*
X026209Y011694D01*
X025718Y011694D01*
X025718Y011949D02*
X026423Y011949D01*
X026540Y011833D01*
X026070Y011333D02*
X026070Y009833D01*
X027070Y008833D01*
X027070Y009833D02*
X026320Y010583D01*
X026070Y011333D02*
X025965Y011438D01*
X025718Y011438D01*
X025718Y011182D02*
X024971Y011182D01*
X024820Y011333D01*
X024820Y014168D01*
X024965Y014333D01*
X024174Y014333D01*
X023485Y014293D02*
X024195Y013583D01*
X024195Y013208D01*
X024570Y012833D01*
X024570Y008583D01*
X024820Y008333D01*
X024820Y007918D01*
X024924Y007933D01*
X024320Y007918D02*
X024215Y007933D01*
X024115Y007833D01*
X022070Y007833D01*
X022070Y008833D02*
X023080Y009843D01*
X023080Y011333D01*
X023174Y011438D01*
X023421Y011438D01*
X023421Y011694D02*
X022970Y011694D01*
X022860Y011583D01*
X022860Y010623D01*
X022070Y009833D01*
X022070Y010833D02*
X022080Y010833D01*
X022600Y011353D01*
X022600Y011833D01*
X022716Y011949D01*
X023421Y011949D01*
X023421Y012205D02*
X022442Y012205D01*
X022070Y011833D01*
X022442Y012461D02*
X022070Y012833D01*
X022442Y012461D02*
X023421Y012461D01*
X023421Y012717D02*
X022936Y012717D01*
X022320Y013333D01*
X022320Y013583D01*
X022070Y013833D01*
X022620Y013533D02*
X022620Y014283D01*
X022070Y014833D01*
X022945Y014958D02*
X022070Y015833D01*
X022945Y014958D02*
X022945Y013708D01*
X023168Y013485D01*
X023421Y013485D01*
X023421Y013229D02*
X024174Y013229D01*
X024195Y013208D01*
X024174Y013229D02*
X024215Y013229D01*
X023421Y012973D02*
X023180Y012973D01*
X022620Y013533D01*
X023485Y014293D02*
X023465Y014333D01*
X023320Y014499D01*
X023320Y015583D01*
X022070Y016833D01*
X022070Y018109D02*
X024115Y018109D01*
X024215Y018209D01*
X024320Y018194D01*
X024320Y021359D01*
X024221Y021457D01*
X023421Y021457D01*
X023421Y021713D02*
X023174Y021713D01*
X023080Y021609D01*
X023080Y020119D01*
X022070Y019109D01*
X022070Y020109D02*
X022860Y020899D01*
X022860Y021859D01*
X022970Y021969D01*
X023421Y021969D01*
X023421Y022225D02*
X022716Y022225D01*
X022600Y022109D01*
X022600Y021629D01*
X022080Y021109D01*
X022070Y021109D01*
X022070Y022109D02*
X022442Y022481D01*
X023421Y022481D01*
X023421Y022737D02*
X022442Y022737D01*
X022070Y023109D01*
X022320Y023609D02*
X022320Y023859D01*
X022070Y024109D01*
X022620Y023809D02*
X022620Y024559D01*
X022070Y025109D01*
X022945Y025234D02*
X022070Y026109D01*
X022945Y025234D02*
X022945Y023984D01*
X023168Y023760D01*
X023421Y023760D01*
X023421Y023505D02*
X024174Y023505D01*
X024195Y023484D01*
X024195Y023859D01*
X023485Y024569D01*
X023465Y024609D01*
X023320Y024774D01*
X023320Y025859D01*
X022070Y027109D01*
X022070Y028385D02*
X024115Y028385D01*
X024215Y028485D01*
X024320Y028469D01*
X024320Y031635D01*
X024221Y031733D01*
X023421Y031733D01*
X023421Y031989D02*
X023174Y031989D01*
X023080Y031885D01*
X023080Y030395D01*
X022070Y029385D01*
X022070Y030385D02*
X022860Y031175D01*
X022860Y032135D01*
X022970Y032245D01*
X023421Y032245D01*
X023421Y032501D02*
X022716Y032501D01*
X022600Y032385D01*
X022600Y031905D01*
X022080Y031385D01*
X022070Y031385D01*
X022070Y032385D02*
X022442Y032757D01*
X023421Y032757D01*
X023421Y033012D02*
X022442Y033012D01*
X022070Y033385D01*
X022320Y033885D02*
X022320Y034135D01*
X022070Y034385D01*
X022620Y034085D02*
X022620Y034835D01*
X022070Y035385D01*
X022945Y035510D02*
X022070Y036385D01*
X022945Y035510D02*
X022945Y034260D01*
X023168Y034036D01*
X023421Y034036D01*
X023421Y033780D02*
X024174Y033780D01*
X024195Y033760D01*
X024195Y034135D01*
X023485Y034844D01*
X023465Y034885D01*
X023320Y035050D01*
X023320Y036135D01*
X022070Y037385D01*
X020794Y037385D02*
X019544Y036135D01*
X019544Y035050D01*
X019398Y034885D01*
X019379Y034844D01*
X018794Y034260D01*
X018794Y033885D01*
X018898Y033780D01*
X019443Y033780D01*
X019443Y033524D02*
X019684Y033524D01*
X020244Y034085D01*
X020244Y034835D01*
X020794Y035385D01*
X019919Y035510D02*
X020794Y036385D01*
X019919Y035510D02*
X019919Y034260D01*
X019696Y034036D01*
X019443Y034036D01*
X019443Y033268D02*
X019928Y033268D01*
X020544Y033885D01*
X020544Y034135D01*
X020794Y034385D01*
X020794Y033385D02*
X020422Y033012D01*
X019443Y033012D01*
X019443Y032757D02*
X020422Y032757D01*
X020794Y032385D01*
X020264Y032385D02*
X020264Y031915D01*
X020794Y031385D01*
X020044Y031135D02*
X020044Y032135D01*
X019934Y032245D01*
X019443Y032245D01*
X019443Y032501D02*
X020148Y032501D01*
X020264Y032385D01*
X019794Y031885D02*
X019794Y030385D01*
X020794Y029385D01*
X020794Y030385D02*
X020044Y031135D01*
X019794Y031885D02*
X019690Y031989D01*
X019443Y031989D01*
X019443Y031733D02*
X018696Y031733D01*
X018544Y031885D01*
X018544Y034719D01*
X018690Y034885D01*
X017898Y034885D01*
X017209Y034844D02*
X017919Y034135D01*
X017919Y033760D01*
X018294Y033385D01*
X018294Y029135D01*
X018544Y028885D01*
X018544Y028469D01*
X018648Y028485D01*
X018044Y028469D02*
X017940Y028485D01*
X017840Y028385D01*
X015794Y028385D01*
X015794Y029385D02*
X016804Y030395D01*
X016804Y031885D01*
X016898Y031989D01*
X017145Y031989D01*
X017145Y032245D02*
X016694Y032245D01*
X016584Y032135D01*
X016584Y031175D01*
X015794Y030385D01*
X015794Y031385D02*
X015804Y031385D01*
X016324Y031905D01*
X016324Y032385D01*
X016440Y032501D01*
X017145Y032501D01*
X017145Y032757D02*
X016166Y032757D01*
X015794Y032385D01*
X016166Y033012D02*
X015794Y033385D01*
X016166Y033012D02*
X017145Y033012D01*
X017145Y033268D02*
X016660Y033268D01*
X016044Y033885D01*
X016044Y034135D01*
X015794Y034385D01*
X016344Y034085D02*
X016344Y034835D01*
X015794Y035385D01*
X016669Y035510D02*
X015794Y036385D01*
X016669Y035510D02*
X016669Y034260D01*
X016892Y034036D01*
X017145Y034036D01*
X017145Y033780D02*
X017898Y033780D01*
X017919Y033760D01*
X017898Y033780D02*
X017940Y033780D01*
X017145Y033524D02*
X016904Y033524D01*
X016344Y034085D01*
X017209Y034844D02*
X017190Y034885D01*
X017044Y035050D01*
X017044Y036135D01*
X015794Y037385D01*
X014518Y037385D02*
X013268Y036135D01*
X013268Y035050D01*
X013123Y034885D01*
X013103Y034844D01*
X012518Y034260D01*
X012518Y033885D01*
X012623Y033780D01*
X013167Y033780D01*
X013167Y033524D02*
X013408Y033524D01*
X013968Y034085D01*
X013968Y034835D01*
X014518Y035385D01*
X013643Y035510D02*
X014518Y036385D01*
X013643Y035510D02*
X013643Y034260D01*
X013420Y034036D01*
X013167Y034036D01*
X013167Y033268D02*
X013652Y033268D01*
X014268Y033885D01*
X014268Y034135D01*
X014518Y034385D01*
X014518Y033385D02*
X014146Y033012D01*
X013167Y033012D01*
X013167Y032757D02*
X014146Y032757D01*
X014518Y032385D01*
X013988Y032385D02*
X013988Y031915D01*
X014518Y031385D01*
X013768Y031135D02*
X013768Y032135D01*
X013658Y032245D01*
X013167Y032245D01*
X013167Y032501D02*
X013872Y032501D01*
X013988Y032385D01*
X013518Y031885D02*
X013518Y030385D01*
X014518Y029385D01*
X014518Y030385D02*
X013768Y031135D01*
X013518Y031885D02*
X013414Y031989D01*
X013167Y031989D01*
X013167Y031733D02*
X012420Y031733D01*
X012268Y031885D01*
X012268Y034719D01*
X012414Y034885D01*
X011623Y034885D01*
X010934Y034844D02*
X011643Y034135D01*
X011643Y033760D01*
X012018Y033385D01*
X012018Y029135D01*
X012268Y028885D01*
X012268Y028469D01*
X012373Y028485D01*
X011768Y028469D02*
X011664Y028485D01*
X011564Y028385D01*
X009518Y028385D01*
X009518Y029385D02*
X010528Y030395D01*
X010528Y031885D01*
X010623Y031989D01*
X010870Y031989D01*
X010870Y032245D02*
X010419Y032245D01*
X010308Y032135D01*
X010308Y031175D01*
X009518Y030385D01*
X009518Y031385D02*
X009528Y031385D01*
X010048Y031905D01*
X010048Y032385D01*
X010165Y032501D01*
X010870Y032501D01*
X010870Y032757D02*
X009890Y032757D01*
X009518Y032385D01*
X009890Y033012D02*
X009518Y033385D01*
X009890Y033012D02*
X010870Y033012D01*
X010870Y033268D02*
X010385Y033268D01*
X009768Y033885D01*
X009768Y034135D01*
X009518Y034385D01*
X010068Y034085D02*
X010068Y034835D01*
X009518Y035385D01*
X010393Y035510D02*
X009518Y036385D01*
X010393Y035510D02*
X010393Y034260D01*
X010617Y034036D01*
X010870Y034036D01*
X010870Y033780D02*
X011623Y033780D01*
X011643Y033760D01*
X011623Y033780D02*
X011664Y033780D01*
X010870Y033524D02*
X010629Y033524D01*
X010068Y034085D01*
X010934Y034844D02*
X010914Y034885D01*
X010768Y035050D01*
X010768Y036135D01*
X009518Y037385D01*
X008243Y037385D02*
X006993Y036135D01*
X006993Y035050D01*
X006847Y034885D01*
X006827Y034844D01*
X006243Y034260D01*
X006243Y033885D01*
X006347Y033780D01*
X006892Y033780D01*
X006892Y033524D02*
X007133Y033524D01*
X007693Y034085D01*
X007693Y034835D01*
X008243Y035385D01*
X007368Y035510D02*
X008243Y036385D01*
X007368Y035510D02*
X007368Y034260D01*
X007144Y034036D01*
X006892Y034036D01*
X006892Y033268D02*
X007377Y033268D01*
X007993Y033885D01*
X007993Y034135D01*
X008243Y034385D01*
X008243Y033385D02*
X007871Y033012D01*
X006892Y033012D01*
X006892Y032757D02*
X007871Y032757D01*
X008243Y032385D01*
X007713Y032385D02*
X007713Y031915D01*
X008243Y031385D01*
X007493Y031135D02*
X007493Y032135D01*
X007383Y032245D01*
X006892Y032245D01*
X006892Y032501D02*
X007597Y032501D01*
X007713Y032385D01*
X007243Y031885D02*
X007243Y030385D01*
X008243Y029385D01*
X008243Y030385D02*
X007493Y031135D01*
X007243Y031885D02*
X007138Y031989D01*
X006892Y031989D01*
X006892Y031733D02*
X006144Y031733D01*
X005993Y031885D01*
X005993Y034719D01*
X006138Y034885D01*
X005347Y034885D01*
X004658Y034844D02*
X005368Y034135D01*
X005368Y033760D01*
X005743Y033385D01*
X005743Y029135D01*
X005993Y028885D01*
X005993Y028469D01*
X006097Y028485D01*
X005493Y028469D02*
X005388Y028485D01*
X005288Y028385D01*
X003243Y028385D01*
X003243Y029385D02*
X004253Y030395D01*
X004253Y031885D01*
X004347Y031989D01*
X004594Y031989D01*
X004594Y032245D02*
X004143Y032245D01*
X004033Y032135D01*
X004033Y031175D01*
X003243Y030385D01*
X003243Y031385D02*
X003253Y031385D01*
X003773Y031905D01*
X003773Y032385D01*
X003889Y032501D01*
X004594Y032501D01*
X004594Y032757D02*
X003615Y032757D01*
X003243Y032385D01*
X003615Y033012D02*
X003243Y033385D01*
X003615Y033012D02*
X004594Y033012D01*
X004594Y033268D02*
X004109Y033268D01*
X003493Y033885D01*
X003493Y034135D01*
X003243Y034385D01*
X003793Y034085D02*
X003793Y034835D01*
X003243Y035385D01*
X004118Y035510D02*
X003243Y036385D01*
X003243Y037385D02*
X004493Y036135D01*
X004493Y035050D01*
X004638Y034885D01*
X004658Y034844D01*
X004118Y034260D02*
X004118Y035510D01*
X004118Y034260D02*
X004341Y034036D01*
X004594Y034036D01*
X004594Y033780D02*
X005347Y033780D01*
X005368Y033760D01*
X005388Y033780D02*
X005347Y033780D01*
X004594Y033524D02*
X004353Y033524D01*
X003793Y034085D01*
X004594Y031733D02*
X005394Y031733D01*
X005493Y031635D01*
X005493Y028469D01*
X005388Y028485D02*
X005343Y028385D01*
X005993Y030635D02*
X008243Y028385D01*
X008243Y027109D02*
X006993Y025859D01*
X006993Y024774D01*
X006847Y024609D01*
X006827Y024569D01*
X006243Y023984D01*
X006243Y023609D01*
X006347Y023505D01*
X006892Y023505D01*
X006892Y023760D02*
X007144Y023760D01*
X007368Y023984D01*
X007368Y025234D01*
X008243Y026109D01*
X008243Y025109D02*
X007693Y024559D01*
X007693Y023809D01*
X007133Y023249D01*
X006892Y023249D01*
X006892Y022993D02*
X007377Y022993D01*
X007993Y023609D01*
X007993Y023859D01*
X008243Y024109D01*
X008243Y023109D02*
X007871Y022737D01*
X006892Y022737D01*
X006892Y022481D02*
X007871Y022481D01*
X008243Y022109D01*
X007713Y022109D02*
X007713Y021639D01*
X008243Y021109D01*
X007493Y020859D02*
X007493Y021859D01*
X007383Y021969D01*
X006892Y021969D01*
X006892Y021713D02*
X007138Y021713D01*
X007243Y021609D01*
X007243Y020109D01*
X008243Y019109D01*
X008243Y020109D02*
X007493Y020859D01*
X006892Y021457D02*
X006144Y021457D01*
X005993Y021609D01*
X005993Y024444D01*
X006138Y024609D01*
X005347Y024609D01*
X004658Y024569D02*
X005368Y023859D01*
X005368Y023484D01*
X005743Y023109D01*
X005743Y018859D01*
X005993Y018609D01*
X005993Y018194D01*
X006097Y018209D01*
X005493Y018194D02*
X005388Y018209D01*
X005288Y018109D01*
X003243Y018109D01*
X003243Y019109D02*
X004253Y020119D01*
X004253Y021609D01*
X004347Y021713D01*
X004594Y021713D01*
X004594Y021457D02*
X005394Y021457D01*
X005493Y021359D01*
X005493Y018194D01*
X005388Y018209D02*
X005343Y018109D01*
X005993Y020359D02*
X008243Y018109D01*
X008243Y016833D02*
X006993Y015583D01*
X006993Y014499D01*
X006847Y014333D01*
X006827Y014293D01*
X006243Y013708D01*
X006243Y013333D01*
X006347Y013229D01*
X006892Y013229D01*
X006892Y012973D02*
X007133Y012973D01*
X007693Y013533D01*
X007693Y014283D01*
X008243Y014833D01*
X007368Y014958D02*
X008243Y015833D01*
X007368Y014958D02*
X007368Y013708D01*
X007144Y013485D01*
X006892Y013485D01*
X006892Y012717D02*
X007377Y012717D01*
X007993Y013333D01*
X007993Y013583D01*
X008243Y013833D01*
X008243Y012833D02*
X007871Y012461D01*
X006892Y012461D01*
X006892Y012205D02*
X007871Y012205D01*
X008243Y011833D01*
X007713Y011833D02*
X007713Y011363D01*
X008243Y010833D01*
X007493Y010583D02*
X007493Y011583D01*
X007383Y011694D01*
X006892Y011694D01*
X006892Y011949D02*
X007597Y011949D01*
X007713Y011833D01*
X007243Y011333D02*
X007243Y009833D01*
X008243Y008833D01*
X008243Y009833D02*
X007493Y010583D01*
X007243Y011333D02*
X007138Y011438D01*
X006892Y011438D01*
X006892Y011182D02*
X006144Y011182D01*
X005993Y011333D01*
X005993Y014168D01*
X006138Y014333D01*
X005347Y014333D01*
X004658Y014293D02*
X005368Y013583D01*
X005368Y013208D01*
X005743Y012833D01*
X005743Y008583D01*
X005993Y008333D01*
X005993Y007918D01*
X006097Y007933D01*
X005493Y007918D02*
X005388Y007933D01*
X005288Y007833D01*
X003243Y007833D01*
X003243Y008833D02*
X004253Y009843D01*
X004253Y011333D01*
X004347Y011438D01*
X004594Y011438D01*
X004594Y011694D02*
X004143Y011694D01*
X004033Y011583D01*
X004033Y010623D01*
X003243Y009833D01*
X003243Y010833D02*
X003253Y010833D01*
X003773Y011353D01*
X003773Y011833D01*
X003889Y011949D01*
X004594Y011949D01*
X004594Y012205D02*
X003615Y012205D01*
X003243Y011833D01*
X003615Y012461D02*
X003243Y012833D01*
X003615Y012461D02*
X004594Y012461D01*
X004594Y012717D02*
X004109Y012717D01*
X003493Y013333D01*
X003493Y013583D01*
X003243Y013833D01*
X003793Y013533D02*
X003793Y014283D01*
X003243Y014833D01*
X004118Y014958D02*
X003243Y015833D01*
X003243Y016833D02*
X004493Y015583D01*
X004493Y014499D01*
X004638Y014333D01*
X004658Y014293D01*
X004118Y013708D02*
X004118Y014958D01*
X004118Y013708D02*
X004341Y013485D01*
X004594Y013485D01*
X004594Y013229D02*
X005347Y013229D01*
X005368Y013208D01*
X005347Y013229D02*
X005388Y013229D01*
X004594Y012973D02*
X004353Y012973D01*
X003793Y013533D01*
X004594Y011182D02*
X005394Y011182D01*
X005493Y011083D01*
X005493Y007918D01*
X005388Y007933D02*
X005343Y007833D01*
X005993Y010083D02*
X008243Y007833D01*
X009518Y007833D02*
X011564Y007833D01*
X011664Y007933D01*
X011768Y007918D01*
X011768Y011083D01*
X011670Y011182D01*
X010870Y011182D01*
X010870Y011438D02*
X010623Y011438D01*
X010528Y011333D01*
X010528Y009843D01*
X009518Y008833D01*
X009518Y009833D02*
X010308Y010623D01*
X010308Y011583D01*
X010419Y011694D01*
X010870Y011694D01*
X010870Y011949D02*
X010165Y011949D01*
X010048Y011833D01*
X010048Y011353D01*
X009528Y010833D01*
X009518Y010833D01*
X009518Y011833D02*
X009890Y012205D01*
X010870Y012205D01*
X010870Y012461D02*
X009890Y012461D01*
X009518Y012833D01*
X009768Y013333D02*
X009768Y013583D01*
X009518Y013833D01*
X010068Y013533D02*
X010068Y014283D01*
X009518Y014833D01*
X010393Y014958D02*
X009518Y015833D01*
X010393Y014958D02*
X010393Y013708D01*
X010617Y013485D01*
X010870Y013485D01*
X010870Y013229D02*
X011623Y013229D01*
X011643Y013208D01*
X011643Y013583D01*
X010934Y014293D01*
X010914Y014333D01*
X010768Y014499D01*
X010768Y015583D01*
X009518Y016833D01*
X009518Y018109D02*
X011564Y018109D01*
X011664Y018209D01*
X011768Y018194D01*
X011768Y021359D01*
X011670Y021457D01*
X010870Y021457D01*
X010870Y021713D02*
X010623Y021713D01*
X010528Y021609D01*
X010528Y020119D01*
X009518Y019109D01*
X009518Y020109D02*
X010308Y020899D01*
X010308Y021859D01*
X010419Y021969D01*
X010870Y021969D01*
X010870Y022225D02*
X010165Y022225D01*
X010048Y022109D01*
X010048Y021629D01*
X009528Y021109D01*
X009518Y021109D01*
X009518Y022109D02*
X009890Y022481D01*
X010870Y022481D01*
X010870Y022737D02*
X009890Y022737D01*
X009518Y023109D01*
X009768Y023609D02*
X009768Y023859D01*
X009518Y024109D01*
X010068Y023809D02*
X010068Y024559D01*
X009518Y025109D01*
X010393Y025234D02*
X009518Y026109D01*
X010393Y025234D02*
X010393Y023984D01*
X010617Y023760D01*
X010870Y023760D01*
X010870Y023505D02*
X011623Y023505D01*
X011643Y023484D01*
X011643Y023859D01*
X010934Y024569D01*
X010914Y024609D01*
X010768Y024774D01*
X010768Y025859D01*
X009518Y027109D01*
X011618Y028385D02*
X011664Y028485D01*
X011768Y028469D02*
X011768Y031635D01*
X011670Y031733D01*
X010870Y031733D01*
X012268Y031635D02*
X012268Y030635D01*
X014518Y028385D01*
X014518Y027109D02*
X013268Y025859D01*
X013268Y024774D01*
X013123Y024609D01*
X013103Y024569D01*
X012518Y023984D01*
X012518Y023609D01*
X012623Y023505D01*
X013167Y023505D01*
X013167Y023760D02*
X013420Y023760D01*
X013643Y023984D01*
X013643Y025234D01*
X014518Y026109D01*
X014518Y025109D02*
X013968Y024559D01*
X013968Y023809D01*
X013408Y023249D01*
X013167Y023249D01*
X013167Y022993D02*
X013652Y022993D01*
X014268Y023609D01*
X014268Y023859D01*
X014518Y024109D01*
X014518Y023109D02*
X014146Y022737D01*
X013167Y022737D01*
X013167Y022481D02*
X014146Y022481D01*
X014518Y022109D01*
X013988Y022109D02*
X013988Y021639D01*
X014518Y021109D01*
X013768Y020859D02*
X013768Y021859D01*
X013658Y021969D01*
X013167Y021969D01*
X013167Y021713D02*
X013414Y021713D01*
X013518Y021609D01*
X013518Y020109D01*
X014518Y019109D01*
X014518Y020109D02*
X013768Y020859D01*
X013167Y021457D02*
X012420Y021457D01*
X012268Y021609D01*
X012268Y024444D01*
X012414Y024609D01*
X011623Y024609D01*
X011623Y023505D02*
X011664Y023505D01*
X011643Y023484D02*
X012018Y023109D01*
X012018Y018859D01*
X012268Y018609D01*
X012268Y018194D01*
X012373Y018209D01*
X011664Y018209D02*
X011618Y018109D01*
X012268Y020359D02*
X014518Y018109D01*
X014518Y016833D02*
X013268Y015583D01*
X013268Y014499D01*
X013123Y014333D01*
X013103Y014293D01*
X012518Y013708D01*
X012518Y013333D01*
X012623Y013229D01*
X013167Y013229D01*
X013167Y012973D02*
X013408Y012973D01*
X013968Y013533D01*
X013968Y014283D01*
X014518Y014833D01*
X013643Y014958D02*
X014518Y015833D01*
X013643Y014958D02*
X013643Y013708D01*
X013420Y013485D01*
X013167Y013485D01*
X013167Y012717D02*
X013652Y012717D01*
X014268Y013333D01*
X014268Y013583D01*
X014518Y013833D01*
X014518Y012833D02*
X014146Y012461D01*
X013167Y012461D01*
X013167Y012205D02*
X014146Y012205D01*
X014518Y011833D01*
X013988Y011833D02*
X013988Y011363D01*
X014518Y010833D01*
X013768Y010583D02*
X013768Y011583D01*
X013658Y011694D01*
X013167Y011694D01*
X013167Y011949D02*
X013872Y011949D01*
X013988Y011833D01*
X013518Y011333D02*
X013518Y009833D01*
X014518Y008833D01*
X014518Y009833D02*
X013768Y010583D01*
X013518Y011333D02*
X013414Y011438D01*
X013167Y011438D01*
X013167Y011182D02*
X012420Y011182D01*
X012268Y011333D01*
X012268Y014168D01*
X012414Y014333D01*
X011623Y014333D01*
X011623Y013229D02*
X011664Y013229D01*
X011643Y013208D02*
X012018Y012833D01*
X012018Y008583D01*
X012268Y008333D01*
X012268Y007918D01*
X012373Y007933D01*
X011664Y007933D02*
X011618Y007833D01*
X012268Y010083D02*
X014518Y007833D01*
X015794Y007833D02*
X017840Y007833D01*
X017940Y007933D01*
X018044Y007918D01*
X018044Y011083D01*
X017946Y011182D01*
X017145Y011182D01*
X017145Y011438D02*
X016898Y011438D01*
X016804Y011333D01*
X016804Y009843D01*
X015794Y008833D01*
X015794Y009833D02*
X016584Y010623D01*
X016584Y011583D01*
X016694Y011694D01*
X017145Y011694D01*
X017145Y011949D02*
X016440Y011949D01*
X016324Y011833D01*
X016324Y011353D01*
X015804Y010833D01*
X015794Y010833D01*
X015794Y011833D02*
X016166Y012205D01*
X017145Y012205D01*
X017145Y012461D02*
X016166Y012461D01*
X015794Y012833D01*
X016044Y013333D02*
X016044Y013583D01*
X015794Y013833D01*
X016344Y013533D02*
X016344Y014283D01*
X015794Y014833D01*
X016669Y014958D02*
X015794Y015833D01*
X016669Y014958D02*
X016669Y013708D01*
X016892Y013485D01*
X017145Y013485D01*
X017145Y013229D02*
X017898Y013229D01*
X017919Y013208D01*
X017919Y013583D01*
X017209Y014293D01*
X017190Y014333D01*
X017044Y014499D01*
X017044Y015583D01*
X015794Y016833D01*
X015794Y018109D02*
X017840Y018109D01*
X017940Y018209D01*
X018044Y018194D01*
X018044Y021359D01*
X017946Y021457D01*
X017145Y021457D01*
X017145Y021713D02*
X016898Y021713D01*
X016804Y021609D01*
X016804Y020119D01*
X015794Y019109D01*
X015794Y020109D02*
X016584Y020899D01*
X016584Y021859D01*
X016694Y021969D01*
X017145Y021969D01*
X017145Y022225D02*
X016440Y022225D01*
X016324Y022109D01*
X016324Y021629D01*
X015804Y021109D01*
X015794Y021109D01*
X015794Y022109D02*
X016166Y022481D01*
X017145Y022481D01*
X017145Y022737D02*
X016166Y022737D01*
X015794Y023109D01*
X016044Y023609D02*
X016044Y023859D01*
X015794Y024109D01*
X016344Y023809D02*
X016344Y024559D01*
X015794Y025109D01*
X016669Y025234D02*
X015794Y026109D01*
X016669Y025234D02*
X016669Y023984D01*
X016892Y023760D01*
X017145Y023760D01*
X017145Y023505D02*
X017898Y023505D01*
X017919Y023484D01*
X017919Y023859D01*
X017209Y024569D01*
X017190Y024609D01*
X017044Y024774D01*
X017044Y025859D01*
X015794Y027109D01*
X017894Y028385D02*
X017940Y028485D01*
X018044Y028469D02*
X018044Y031635D01*
X017946Y031733D01*
X017145Y031733D01*
X018544Y031635D02*
X018544Y030635D01*
X020794Y028385D01*
X020794Y027109D02*
X019544Y025859D01*
X019544Y024774D01*
X019398Y024609D01*
X019379Y024569D01*
X018794Y023984D01*
X018794Y023609D01*
X018898Y023505D01*
X019443Y023505D01*
X019443Y023760D02*
X019696Y023760D01*
X019919Y023984D01*
X019919Y025234D01*
X020794Y026109D01*
X020794Y025109D02*
X020244Y024559D01*
X020244Y023809D01*
X019684Y023249D01*
X019443Y023249D01*
X019443Y022993D02*
X019928Y022993D01*
X020544Y023609D01*
X020544Y023859D01*
X020794Y024109D01*
X020794Y023109D02*
X020422Y022737D01*
X019443Y022737D01*
X019443Y022481D02*
X020422Y022481D01*
X020794Y022109D01*
X020264Y022109D02*
X020264Y021639D01*
X020794Y021109D01*
X020044Y020859D02*
X020044Y021859D01*
X019934Y021969D01*
X019443Y021969D01*
X019443Y021713D02*
X019690Y021713D01*
X019794Y021609D01*
X019794Y020109D01*
X020794Y019109D01*
X020794Y020109D02*
X020044Y020859D01*
X019443Y021457D02*
X018696Y021457D01*
X018544Y021609D01*
X018544Y024444D01*
X018690Y024609D01*
X017898Y024609D01*
X017898Y023505D02*
X017940Y023505D01*
X017919Y023484D02*
X018294Y023109D01*
X018294Y018859D01*
X018544Y018609D01*
X018544Y018194D01*
X018648Y018209D01*
X017940Y018209D02*
X017894Y018109D01*
X018544Y020359D02*
X020794Y018109D01*
X020794Y016833D02*
X019544Y015583D01*
X019544Y014499D01*
X019398Y014333D01*
X019379Y014293D01*
X018794Y013708D01*
X018794Y013333D01*
X018898Y013229D01*
X019443Y013229D01*
X019443Y012973D02*
X019684Y012973D01*
X020244Y013533D01*
X020244Y014283D01*
X020794Y014833D01*
X019919Y014958D02*
X020794Y015833D01*
X019919Y014958D02*
X019919Y013708D01*
X019696Y013485D01*
X019443Y013485D01*
X019443Y012717D02*
X019928Y012717D01*
X020544Y013333D01*
X020544Y013583D01*
X020794Y013833D01*
X020794Y012833D02*
X020422Y012461D01*
X019443Y012461D01*
X019443Y012205D02*
X020422Y012205D01*
X020794Y011833D01*
X020264Y011833D02*
X020264Y011363D01*
X020794Y010833D01*
X020044Y010583D02*
X020044Y011583D01*
X019934Y011694D01*
X019443Y011694D01*
X019443Y011949D02*
X020148Y011949D01*
X020264Y011833D01*
X019794Y011333D02*
X019794Y009833D01*
X020794Y008833D01*
X020794Y009833D02*
X020044Y010583D01*
X019794Y011333D02*
X019690Y011438D01*
X019443Y011438D01*
X019443Y011182D02*
X018696Y011182D01*
X018544Y011333D01*
X018544Y014168D01*
X018690Y014333D01*
X017898Y014333D01*
X017898Y013229D02*
X017940Y013229D01*
X017919Y013208D02*
X018294Y012833D01*
X018294Y008583D01*
X018544Y008333D01*
X018544Y007918D01*
X018648Y007933D01*
X017940Y007933D02*
X017894Y007833D01*
X018544Y010083D02*
X020794Y007833D01*
X018544Y010083D02*
X018544Y011083D01*
X018642Y011182D01*
X018696Y011182D01*
X017145Y012717D02*
X016660Y012717D01*
X016044Y013333D01*
X016344Y013533D02*
X016904Y012973D01*
X017145Y012973D01*
X012420Y011182D02*
X012367Y011182D01*
X012268Y011083D01*
X012268Y010083D01*
X010870Y012717D02*
X010385Y012717D01*
X009768Y013333D01*
X010068Y013533D02*
X010629Y012973D01*
X010870Y012973D01*
X006144Y011182D02*
X006091Y011182D01*
X005993Y011083D01*
X005993Y010083D01*
X003243Y020109D02*
X004033Y020899D01*
X004033Y021859D01*
X004143Y021969D01*
X004594Y021969D01*
X004594Y022225D02*
X003889Y022225D01*
X003773Y022109D01*
X003773Y021629D01*
X003253Y021109D01*
X003243Y021109D01*
X003243Y022109D02*
X003615Y022481D01*
X004594Y022481D01*
X004594Y022737D02*
X003615Y022737D01*
X003243Y023109D01*
X003493Y023609D02*
X003493Y023859D01*
X003243Y024109D01*
X003493Y023609D02*
X004109Y022993D01*
X004594Y022993D01*
X004594Y023249D02*
X004353Y023249D01*
X003793Y023809D01*
X003793Y024559D01*
X003243Y025109D01*
X004118Y025234D02*
X003243Y026109D01*
X003243Y027109D02*
X004493Y025859D01*
X004493Y024774D01*
X004638Y024609D01*
X004658Y024569D01*
X004118Y023984D02*
X004118Y025234D01*
X004118Y023984D02*
X004341Y023760D01*
X004594Y023760D01*
X004594Y023505D02*
X005347Y023505D01*
X005368Y023484D01*
X005347Y023505D02*
X005388Y023505D01*
X006892Y022225D02*
X007597Y022225D01*
X007713Y022109D01*
X006144Y021457D02*
X006091Y021457D01*
X005993Y021359D01*
X005993Y020359D01*
X009768Y023609D02*
X010385Y022993D01*
X010870Y022993D01*
X010870Y023249D02*
X010629Y023249D01*
X010068Y023809D01*
X012367Y021457D02*
X012268Y021359D01*
X012268Y020359D01*
X012367Y021457D02*
X012420Y021457D01*
X013167Y022225D02*
X013872Y022225D01*
X013988Y022109D01*
X016044Y023609D02*
X016660Y022993D01*
X017145Y022993D01*
X017145Y023249D02*
X016904Y023249D01*
X016344Y023809D01*
X018642Y021457D02*
X018544Y021359D01*
X018544Y020359D01*
X018642Y021457D02*
X018696Y021457D01*
X019443Y022225D02*
X020148Y022225D01*
X020264Y022109D01*
X022320Y023609D02*
X022936Y022993D01*
X023421Y022993D01*
X023421Y023249D02*
X023180Y023249D01*
X022620Y023809D01*
X024174Y023505D02*
X024215Y023505D01*
X024195Y023484D02*
X024570Y023109D01*
X024570Y018859D01*
X024820Y018609D01*
X024820Y018194D01*
X024924Y018209D01*
X024215Y018209D02*
X024170Y018109D01*
X026070Y020109D02*
X027070Y019109D01*
X027070Y020109D02*
X026320Y020859D01*
X026320Y021859D01*
X026209Y021969D01*
X025718Y021969D01*
X025718Y021713D02*
X025965Y021713D01*
X026070Y021609D01*
X026070Y020109D01*
X027070Y021109D02*
X026540Y021639D01*
X026540Y022109D01*
X026423Y022225D01*
X025718Y022225D01*
X025718Y022481D02*
X026698Y022481D01*
X027070Y022109D01*
X026698Y022737D02*
X027070Y023109D01*
X026698Y022737D02*
X025718Y022737D01*
X025718Y022993D02*
X026203Y022993D01*
X026820Y023609D01*
X026820Y023859D01*
X027070Y024109D01*
X026520Y023809D02*
X026520Y024559D01*
X027070Y025109D01*
X026195Y025234D02*
X027070Y026109D01*
X026195Y025234D02*
X026195Y023984D01*
X025971Y023760D01*
X025718Y023760D01*
X025718Y023505D02*
X025174Y023505D01*
X025070Y023609D01*
X025070Y023984D01*
X025654Y024569D01*
X025674Y024609D01*
X025820Y024774D01*
X025820Y025859D01*
X027070Y027109D01*
X027070Y028385D02*
X024820Y030635D01*
X024820Y031635D01*
X024918Y031733D01*
X024971Y031733D01*
X024820Y031885D01*
X024820Y034719D01*
X024965Y034885D01*
X024174Y034885D01*
X025070Y034260D02*
X025070Y033885D01*
X025174Y033780D01*
X025718Y033780D01*
X025718Y033524D02*
X025959Y033524D01*
X026520Y034085D01*
X026520Y034835D01*
X027070Y035385D01*
X026195Y035510D02*
X027070Y036385D01*
X026195Y035510D02*
X026195Y034260D01*
X025971Y034036D01*
X025718Y034036D01*
X025070Y034260D02*
X025654Y034844D01*
X025674Y034885D01*
X025820Y035050D01*
X025820Y036135D01*
X027070Y037385D01*
X028345Y037385D02*
X029595Y036135D01*
X029595Y035050D01*
X029741Y034885D01*
X029761Y034844D01*
X030470Y034135D01*
X030470Y033760D01*
X030845Y033385D01*
X030845Y029135D01*
X031095Y028885D01*
X031095Y028469D01*
X031199Y028485D01*
X030595Y028469D02*
X030491Y028485D01*
X030391Y028385D01*
X028345Y028385D01*
X028345Y029385D02*
X029355Y030395D01*
X029355Y031885D01*
X029449Y031989D01*
X029696Y031989D01*
X029696Y032245D02*
X029245Y032245D01*
X029135Y032135D01*
X029135Y031175D01*
X028345Y030385D01*
X028345Y031385D02*
X028355Y031385D01*
X028875Y031905D01*
X028875Y032385D01*
X028991Y032501D01*
X029696Y032501D01*
X029696Y032757D02*
X028717Y032757D01*
X028345Y032385D01*
X028717Y033012D02*
X028345Y033385D01*
X028717Y033012D02*
X029696Y033012D01*
X029696Y033268D02*
X029211Y033268D01*
X028595Y033885D01*
X028595Y034135D01*
X028345Y034385D01*
X028895Y034085D02*
X028895Y034835D01*
X028345Y035385D01*
X029220Y035510D02*
X028345Y036385D01*
X029220Y035510D02*
X029220Y034260D01*
X029444Y034036D01*
X029696Y034036D01*
X029696Y033780D02*
X030449Y033780D01*
X030470Y033760D01*
X030449Y033780D02*
X030491Y033780D01*
X029696Y033524D02*
X029455Y033524D01*
X028895Y034085D01*
X030449Y034885D02*
X031241Y034885D01*
X031095Y034719D01*
X031095Y031885D01*
X031247Y031733D01*
X031994Y031733D01*
X031994Y031989D02*
X032241Y031989D01*
X032345Y031885D01*
X032345Y030385D01*
X033345Y029385D01*
X033345Y030385D02*
X032595Y031135D01*
X032595Y032135D01*
X032485Y032245D01*
X031994Y032245D01*
X031994Y032501D02*
X032699Y032501D01*
X032815Y032385D01*
X032815Y031915D01*
X033345Y031385D01*
X033345Y032385D02*
X032973Y032757D01*
X031994Y032757D01*
X031994Y033012D02*
X032973Y033012D01*
X033345Y033385D01*
X033095Y033885D02*
X033095Y034135D01*
X033345Y034385D01*
X033095Y033885D02*
X032479Y033268D01*
X031994Y033268D01*
X031994Y033524D02*
X032235Y033524D01*
X032795Y034085D01*
X032795Y034835D01*
X033345Y035385D01*
X032470Y035510D02*
X032470Y034260D01*
X032247Y034036D01*
X031994Y034036D01*
X031994Y033780D02*
X031449Y033780D01*
X031345Y033885D01*
X031345Y034260D01*
X031930Y034844D01*
X031949Y034885D01*
X032095Y035050D01*
X032095Y036135D01*
X033345Y037385D01*
X033345Y036385D02*
X032470Y035510D01*
X031247Y031733D02*
X031194Y031733D01*
X031095Y031635D01*
X031095Y030635D01*
X033345Y028385D01*
X030595Y028469D02*
X030595Y031635D01*
X030497Y031733D01*
X029696Y031733D01*
X027070Y031385D02*
X026540Y031915D01*
X026540Y032385D01*
X026423Y032501D01*
X025718Y032501D01*
X025718Y032757D02*
X026698Y032757D01*
X027070Y032385D01*
X026698Y033012D02*
X027070Y033385D01*
X026698Y033012D02*
X025718Y033012D01*
X025718Y033268D02*
X026203Y033268D01*
X026820Y033885D01*
X026820Y034135D01*
X027070Y034385D01*
X026209Y032245D02*
X025718Y032245D01*
X025718Y031989D02*
X025965Y031989D01*
X026070Y031885D01*
X026070Y030385D01*
X027070Y029385D01*
X027070Y030385D02*
X026320Y031135D01*
X026320Y032135D01*
X026209Y032245D01*
X025718Y031733D02*
X024971Y031733D01*
X024570Y033385D02*
X024570Y029135D01*
X024820Y028885D01*
X024820Y028469D01*
X024924Y028485D01*
X024215Y028485D02*
X024170Y028385D01*
X024174Y024609D02*
X024965Y024609D01*
X024820Y024444D01*
X024820Y021609D01*
X024971Y021457D01*
X025718Y021457D01*
X024971Y021457D02*
X024918Y021457D01*
X024820Y021359D01*
X024820Y020359D01*
X027070Y018109D01*
X028345Y020109D02*
X029135Y020899D01*
X029135Y021859D01*
X029245Y021969D01*
X029696Y021969D01*
X029696Y022225D02*
X028991Y022225D01*
X028875Y022109D01*
X028875Y021629D01*
X028355Y021109D01*
X028345Y021109D01*
X028345Y022109D02*
X028717Y022481D01*
X029696Y022481D01*
X029696Y022737D02*
X028717Y022737D01*
X028345Y023109D01*
X028595Y023609D02*
X028595Y023859D01*
X028345Y024109D01*
X028895Y023809D02*
X028895Y024559D01*
X028345Y025109D01*
X029220Y025234D02*
X028345Y026109D01*
X029220Y025234D02*
X029220Y023984D01*
X029444Y023760D01*
X029696Y023760D01*
X029696Y023505D02*
X030449Y023505D01*
X030470Y023484D01*
X030449Y023505D02*
X030491Y023505D01*
X029696Y023249D02*
X029455Y023249D01*
X028895Y023809D01*
X028595Y023609D02*
X029211Y022993D01*
X029696Y022993D01*
X029761Y024569D02*
X029741Y024609D01*
X029595Y024774D01*
X029595Y025859D01*
X028345Y027109D01*
X030445Y028385D02*
X030491Y028485D01*
X026520Y023809D02*
X025959Y023249D01*
X025718Y023249D01*
X031095Y021359D02*
X031095Y020359D01*
X031095Y021359D02*
X031194Y021457D01*
X031247Y021457D01*
X031994Y022225D02*
X032699Y022225D01*
X032815Y022109D01*
X033345Y015833D02*
X032470Y014958D01*
X032470Y013708D01*
X032247Y013485D01*
X031994Y013485D01*
X031247Y011182D02*
X031194Y011182D01*
X031095Y011083D01*
X031095Y010083D01*
X033345Y007833D01*
X030595Y007918D02*
X030595Y011083D01*
X030497Y011182D01*
X029696Y011182D01*
X030491Y007933D02*
X030445Y007833D01*
X027070Y007833D02*
X024820Y010083D01*
X024820Y011083D01*
X024918Y011182D01*
X024971Y011182D01*
X024320Y011083D02*
X024320Y007918D01*
X024215Y007933D02*
X024170Y007833D01*
X024320Y011083D02*
X024221Y011182D01*
X023421Y011182D01*
X005993Y030635D02*
X005993Y031635D01*
X006091Y031733D01*
X006144Y031733D01*
X012268Y031635D02*
X012367Y031733D01*
X012420Y031733D01*
X018544Y031635D02*
X018642Y031733D01*
X018696Y031733D01*
X022320Y033885D02*
X022936Y033268D01*
X023421Y033268D01*
X023421Y033524D02*
X023180Y033524D01*
X022620Y034085D01*
X024174Y033780D02*
X024215Y033780D01*
X024195Y033760D02*
X024570Y033385D01*
D16*
X024750Y033395D02*
X025421Y033395D01*
X025422Y033396D02*
X025403Y033378D01*
X025403Y033159D01*
X025422Y033140D01*
X025403Y033122D01*
X025403Y032903D01*
X025422Y032885D01*
X025403Y032866D01*
X025403Y032647D01*
X025422Y032629D01*
X025403Y032610D01*
X025403Y032391D01*
X025422Y032373D01*
X025403Y032354D01*
X025403Y032135D01*
X025422Y032117D01*
X025403Y032099D01*
X025403Y031879D01*
X025474Y031809D01*
X025890Y031809D01*
X025890Y030310D01*
X026620Y029580D01*
X026580Y029482D01*
X026580Y029287D01*
X026654Y029107D01*
X026792Y028969D01*
X026972Y028895D01*
X027167Y028895D01*
X027347Y028969D01*
X027445Y029067D01*
X027445Y028135D01*
X027440Y028102D01*
X027408Y028046D01*
X027352Y028014D01*
X027320Y028010D01*
X022388Y028010D01*
X022485Y028107D01*
X022525Y028205D01*
X023912Y028205D01*
X023949Y028168D01*
X024481Y028168D01*
X024552Y028238D01*
X024552Y028731D01*
X024500Y028783D01*
X024500Y028950D01*
X024640Y028810D01*
X024640Y028783D01*
X024587Y028731D01*
X024587Y028238D01*
X024658Y028168D01*
X025190Y028168D01*
X025260Y028238D01*
X025260Y028731D01*
X025190Y028801D01*
X025000Y028801D01*
X025000Y028959D01*
X024894Y029065D01*
X024750Y029209D01*
X024750Y033459D01*
X024644Y033565D01*
X024395Y033813D01*
X024395Y033855D01*
X024375Y033875D01*
X024375Y034209D01*
X024269Y034315D01*
X023802Y034782D01*
X023802Y035131D01*
X023731Y035201D01*
X023500Y035201D01*
X023500Y036209D01*
X022519Y037189D01*
X022560Y037287D01*
X022560Y037482D01*
X022485Y037662D01*
X022388Y037760D01*
X026752Y037760D01*
X026654Y037662D01*
X026580Y037482D01*
X026580Y037287D01*
X026620Y037189D01*
X025640Y036209D01*
X025640Y035201D01*
X025408Y035201D01*
X025337Y035131D01*
X025337Y034782D01*
X024995Y034440D01*
X024890Y034334D01*
X024890Y033810D01*
X024995Y033705D01*
X025099Y033600D01*
X025403Y033600D01*
X025403Y033415D01*
X025422Y033396D01*
X025403Y033474D02*
X024735Y033474D01*
X024656Y033552D02*
X025403Y033552D01*
X025403Y033317D02*
X024750Y033317D01*
X024750Y033238D02*
X025403Y033238D01*
X025403Y033160D02*
X024750Y033160D01*
X024750Y033081D02*
X025403Y033081D01*
X025403Y033003D02*
X024750Y033003D01*
X024750Y032924D02*
X025403Y032924D01*
X025403Y032846D02*
X024750Y032846D01*
X024750Y032767D02*
X025403Y032767D01*
X025403Y032689D02*
X024750Y032689D01*
X024750Y032610D02*
X025403Y032610D01*
X025403Y032532D02*
X024750Y032532D01*
X024750Y032453D02*
X025403Y032453D01*
X025419Y032375D02*
X024750Y032375D01*
X024750Y032296D02*
X025403Y032296D01*
X025403Y032218D02*
X024750Y032218D01*
X024750Y032139D02*
X025403Y032139D01*
X025403Y032061D02*
X024750Y032061D01*
X024750Y031982D02*
X025403Y031982D01*
X025403Y031904D02*
X024750Y031904D01*
X024750Y031825D02*
X025457Y031825D01*
X025890Y031747D02*
X024750Y031747D01*
X024750Y031668D02*
X025890Y031668D01*
X025890Y031590D02*
X024750Y031590D01*
X024750Y031511D02*
X025890Y031511D01*
X025890Y031433D02*
X024750Y031433D01*
X024750Y031354D02*
X025890Y031354D01*
X025890Y031276D02*
X024750Y031276D01*
X024750Y031197D02*
X025890Y031197D01*
X025890Y031119D02*
X024750Y031119D01*
X024750Y031040D02*
X025890Y031040D01*
X025890Y030962D02*
X024750Y030962D01*
X024750Y030883D02*
X025890Y030883D01*
X025890Y030805D02*
X024750Y030805D01*
X024750Y030726D02*
X025890Y030726D01*
X025890Y030648D02*
X024750Y030648D01*
X024750Y030569D02*
X025890Y030569D01*
X025890Y030491D02*
X024750Y030491D01*
X024750Y030412D02*
X025890Y030412D01*
X025890Y030334D02*
X024750Y030334D01*
X024750Y030255D02*
X025944Y030255D01*
X026023Y030177D02*
X024750Y030177D01*
X024750Y030098D02*
X026101Y030098D01*
X026180Y030020D02*
X024750Y030020D01*
X024750Y029941D02*
X026258Y029941D01*
X026337Y029863D02*
X024750Y029863D01*
X024750Y029784D02*
X026415Y029784D01*
X026494Y029706D02*
X024750Y029706D01*
X024750Y029627D02*
X026572Y029627D01*
X026607Y029549D02*
X024750Y029549D01*
X024750Y029470D02*
X026580Y029470D01*
X026580Y029392D02*
X024750Y029392D01*
X024750Y029313D02*
X026580Y029313D01*
X026601Y029235D02*
X024750Y029235D01*
X024802Y029156D02*
X026634Y029156D01*
X026683Y029078D02*
X024881Y029078D01*
X024959Y028999D02*
X026762Y028999D01*
X026908Y028921D02*
X025000Y028921D01*
X025000Y028842D02*
X027445Y028842D01*
X027445Y028764D02*
X025228Y028764D01*
X025260Y028685D02*
X027445Y028685D01*
X027445Y028607D02*
X025260Y028607D01*
X025260Y028528D02*
X027445Y028528D01*
X027445Y028450D02*
X025260Y028450D01*
X025260Y028371D02*
X027445Y028371D01*
X027445Y028293D02*
X025260Y028293D01*
X025237Y028214D02*
X027445Y028214D01*
X027445Y028136D02*
X022497Y028136D01*
X022435Y028057D02*
X027414Y028057D01*
X026752Y027484D02*
X026654Y027386D01*
X026580Y027206D01*
X026580Y027011D01*
X026620Y026914D01*
X025640Y025933D01*
X025640Y024926D01*
X025408Y024926D01*
X025337Y024855D01*
X025337Y024506D01*
X024995Y024164D01*
X024890Y024058D01*
X024890Y023534D01*
X024995Y023429D01*
X025099Y023325D01*
X025403Y023325D01*
X025403Y023139D01*
X025422Y023121D01*
X025403Y023102D01*
X025403Y022883D01*
X025422Y022865D01*
X025403Y022847D01*
X025403Y022627D01*
X025422Y022609D01*
X025403Y022591D01*
X025403Y022371D01*
X025422Y022353D01*
X025403Y022335D01*
X025403Y022115D01*
X025422Y022097D01*
X025403Y022079D01*
X025403Y021859D01*
X025422Y021841D01*
X025403Y021823D01*
X025403Y021604D01*
X025474Y021533D01*
X025890Y021533D01*
X025890Y020034D01*
X025995Y019929D01*
X026620Y019304D01*
X026580Y019206D01*
X026580Y019011D01*
X026654Y018831D01*
X026792Y018694D01*
X026972Y018619D01*
X027167Y018619D01*
X027347Y018694D01*
X027445Y018791D01*
X027445Y017859D01*
X027440Y017827D01*
X027408Y017771D01*
X027352Y017738D01*
X027320Y017734D01*
X022388Y017734D01*
X022485Y017831D01*
X022525Y017929D01*
X023912Y017929D01*
X023949Y017892D01*
X024481Y017892D01*
X024552Y017962D01*
X024552Y018455D01*
X024500Y018508D01*
X024500Y018674D01*
X024640Y018534D01*
X024640Y018508D01*
X024587Y018455D01*
X024587Y017962D01*
X024658Y017892D01*
X025190Y017892D01*
X025260Y017962D01*
X025260Y018455D01*
X025190Y018526D01*
X025000Y018526D01*
X025000Y018683D01*
X024894Y018789D01*
X024750Y018933D01*
X024750Y023183D01*
X024644Y023289D01*
X024395Y023538D01*
X024395Y023579D01*
X024375Y023600D01*
X024375Y023933D01*
X024269Y024039D01*
X023802Y024506D01*
X023802Y024855D01*
X023731Y024926D01*
X023500Y024926D01*
X023500Y025933D01*
X022519Y026914D01*
X022560Y027011D01*
X022560Y027206D01*
X022485Y027386D01*
X022388Y027484D01*
X026752Y027484D01*
X026697Y027429D02*
X022442Y027429D01*
X022500Y027351D02*
X026639Y027351D01*
X026607Y027272D02*
X022532Y027272D01*
X022560Y027194D02*
X026580Y027194D01*
X026580Y027115D02*
X022560Y027115D01*
X022560Y027037D02*
X026580Y027037D01*
X026602Y026958D02*
X022538Y026958D01*
X022553Y026880D02*
X026586Y026880D01*
X026507Y026801D02*
X022632Y026801D01*
X022710Y026723D02*
X026429Y026723D01*
X026350Y026644D02*
X022789Y026644D01*
X022867Y026566D02*
X026272Y026566D01*
X026193Y026487D02*
X022946Y026487D01*
X023024Y026409D02*
X026115Y026409D01*
X026036Y026330D02*
X023103Y026330D01*
X023181Y026252D02*
X025958Y026252D01*
X025879Y026173D02*
X023260Y026173D01*
X023338Y026095D02*
X025801Y026095D01*
X025722Y026016D02*
X023417Y026016D01*
X023495Y025938D02*
X025644Y025938D01*
X025640Y025859D02*
X023500Y025859D01*
X023500Y025781D02*
X025640Y025781D01*
X025640Y025702D02*
X023500Y025702D01*
X023500Y025624D02*
X025640Y025624D01*
X025640Y025545D02*
X023500Y025545D01*
X023500Y025467D02*
X025640Y025467D01*
X025640Y025388D02*
X023500Y025388D01*
X023500Y025310D02*
X025640Y025310D01*
X025640Y025231D02*
X023500Y025231D01*
X023500Y025153D02*
X025640Y025153D01*
X025640Y025074D02*
X023500Y025074D01*
X023500Y024996D02*
X025640Y024996D01*
X025399Y024917D02*
X023740Y024917D01*
X023802Y024839D02*
X025337Y024839D01*
X025337Y024760D02*
X023802Y024760D01*
X023802Y024682D02*
X025337Y024682D01*
X025337Y024603D02*
X023802Y024603D01*
X023802Y024525D02*
X025337Y024525D01*
X025277Y024446D02*
X023862Y024446D01*
X023940Y024368D02*
X025199Y024368D01*
X025120Y024289D02*
X024019Y024289D01*
X024097Y024211D02*
X025042Y024211D01*
X024963Y024132D02*
X024176Y024132D01*
X024254Y024054D02*
X024890Y024054D01*
X024890Y023975D02*
X024333Y023975D01*
X024375Y023897D02*
X024890Y023897D01*
X024890Y023818D02*
X024375Y023818D01*
X024375Y023740D02*
X024890Y023740D01*
X024890Y023661D02*
X024375Y023661D01*
X024392Y023583D02*
X024890Y023583D01*
X024920Y023504D02*
X024429Y023504D01*
X024507Y023426D02*
X024998Y023426D01*
X025077Y023347D02*
X024586Y023347D01*
X024664Y023269D02*
X025403Y023269D01*
X025403Y023190D02*
X024743Y023190D01*
X024750Y023112D02*
X025413Y023112D01*
X025403Y023033D02*
X024750Y023033D01*
X024750Y022955D02*
X025403Y022955D01*
X025410Y022876D02*
X024750Y022876D01*
X024750Y022798D02*
X025403Y022798D01*
X025403Y022719D02*
X024750Y022719D01*
X024750Y022641D02*
X025403Y022641D01*
X025403Y022562D02*
X024750Y022562D01*
X024750Y022484D02*
X025403Y022484D01*
X025403Y022405D02*
X024750Y022405D01*
X024750Y022327D02*
X025403Y022327D01*
X025403Y022248D02*
X024750Y022248D01*
X024750Y022170D02*
X025403Y022170D01*
X025416Y022091D02*
X024750Y022091D01*
X024750Y022013D02*
X025403Y022013D01*
X025403Y021934D02*
X024750Y021934D01*
X024750Y021856D02*
X025407Y021856D01*
X025403Y021777D02*
X024750Y021777D01*
X024750Y021699D02*
X025403Y021699D01*
X025403Y021620D02*
X024750Y021620D01*
X024750Y021542D02*
X025465Y021542D01*
X025890Y021463D02*
X024750Y021463D01*
X024750Y021385D02*
X025890Y021385D01*
X025890Y021306D02*
X024750Y021306D01*
X024750Y021228D02*
X025890Y021228D01*
X025890Y021149D02*
X024750Y021149D01*
X024750Y021071D02*
X025890Y021071D01*
X025890Y020992D02*
X024750Y020992D01*
X024750Y020914D02*
X025890Y020914D01*
X025890Y020835D02*
X024750Y020835D01*
X024750Y020757D02*
X025890Y020757D01*
X025890Y020678D02*
X024750Y020678D01*
X024750Y020600D02*
X025890Y020600D01*
X025890Y020521D02*
X024750Y020521D01*
X024750Y020443D02*
X025890Y020443D01*
X025890Y020364D02*
X024750Y020364D01*
X024750Y020286D02*
X025890Y020286D01*
X025890Y020207D02*
X024750Y020207D01*
X024750Y020129D02*
X025890Y020129D01*
X025890Y020050D02*
X024750Y020050D01*
X024750Y019972D02*
X025952Y019972D01*
X025995Y019929D02*
X025995Y019929D01*
X026031Y019893D02*
X024750Y019893D01*
X024750Y019815D02*
X026109Y019815D01*
X026188Y019736D02*
X024750Y019736D01*
X024750Y019658D02*
X026266Y019658D01*
X026345Y019579D02*
X024750Y019579D01*
X024750Y019501D02*
X026423Y019501D01*
X026502Y019422D02*
X024750Y019422D01*
X024750Y019344D02*
X026580Y019344D01*
X026604Y019265D02*
X024750Y019265D01*
X024750Y019187D02*
X026580Y019187D01*
X026580Y019108D02*
X024750Y019108D01*
X024750Y019030D02*
X026580Y019030D01*
X026604Y018951D02*
X024750Y018951D01*
X024810Y018873D02*
X026637Y018873D01*
X026691Y018794D02*
X024889Y018794D01*
X024967Y018716D02*
X026770Y018716D01*
X026928Y018637D02*
X025000Y018637D01*
X025000Y018559D02*
X027445Y018559D01*
X027445Y018637D02*
X027212Y018637D01*
X027369Y018716D02*
X027445Y018716D01*
X027445Y018480D02*
X025236Y018480D01*
X025260Y018402D02*
X027445Y018402D01*
X027445Y018323D02*
X025260Y018323D01*
X025260Y018245D02*
X027445Y018245D01*
X027445Y018166D02*
X025260Y018166D01*
X025260Y018088D02*
X027445Y018088D01*
X027445Y018009D02*
X025260Y018009D01*
X025229Y017931D02*
X027445Y017931D01*
X027444Y017852D02*
X022494Y017852D01*
X022427Y017774D02*
X027410Y017774D01*
X026752Y017208D02*
X026654Y017111D01*
X026580Y016931D01*
X026580Y016736D01*
X026620Y016638D01*
X025640Y015658D01*
X025640Y014650D01*
X025408Y014650D01*
X025337Y014580D01*
X025337Y014231D01*
X024995Y013888D01*
X024890Y013783D01*
X024890Y013259D01*
X024995Y013153D01*
X025099Y013049D01*
X025403Y013049D01*
X025403Y012863D01*
X025422Y012845D01*
X025403Y012827D01*
X025403Y012607D01*
X025422Y012589D01*
X025403Y012571D01*
X025403Y012352D01*
X025422Y012333D01*
X025403Y012315D01*
X025403Y012096D01*
X025422Y012077D01*
X025403Y012059D01*
X025403Y011840D01*
X025422Y011822D01*
X025403Y011803D01*
X025403Y011584D01*
X025422Y011566D01*
X025403Y011547D01*
X025403Y011328D01*
X025474Y011258D01*
X025890Y011258D01*
X025890Y009759D01*
X026620Y009028D01*
X026580Y008931D01*
X026580Y008736D01*
X026654Y008556D01*
X026792Y008418D01*
X026972Y008343D01*
X027167Y008343D01*
X027347Y008418D01*
X027445Y008515D01*
X027445Y007583D01*
X027440Y007551D01*
X027408Y007495D01*
X027352Y007463D01*
X027320Y007458D01*
X022388Y007458D01*
X022485Y007556D01*
X022525Y007653D01*
X023912Y007653D01*
X023949Y007616D01*
X024481Y007616D01*
X024552Y007687D01*
X024552Y008180D01*
X024500Y008232D01*
X024500Y008399D01*
X024640Y008259D01*
X024640Y008232D01*
X024587Y008180D01*
X024587Y007687D01*
X024658Y007616D01*
X025190Y007616D01*
X025260Y007687D01*
X025260Y008180D01*
X025190Y008250D01*
X025000Y008250D01*
X025000Y008408D01*
X024894Y008513D01*
X024750Y008658D01*
X024750Y012908D01*
X024644Y013013D01*
X024395Y013262D01*
X024395Y013304D01*
X024375Y013324D01*
X024375Y013658D01*
X024269Y013763D01*
X023802Y014231D01*
X023802Y014580D01*
X023731Y014650D01*
X023500Y014650D01*
X023500Y015658D01*
X023394Y015763D01*
X022519Y016638D01*
X022560Y016736D01*
X022560Y016931D01*
X022485Y017111D01*
X022388Y017208D01*
X026752Y017208D01*
X026689Y017146D02*
X022450Y017146D01*
X022503Y017067D02*
X026636Y017067D01*
X026604Y016989D02*
X022536Y016989D01*
X022560Y016910D02*
X026580Y016910D01*
X026580Y016832D02*
X022560Y016832D01*
X022560Y016753D02*
X026580Y016753D01*
X026605Y016675D02*
X022534Y016675D01*
X022561Y016596D02*
X026578Y016596D01*
X026500Y016518D02*
X022640Y016518D01*
X022718Y016439D02*
X026421Y016439D01*
X026343Y016361D02*
X022797Y016361D01*
X022875Y016282D02*
X026264Y016282D01*
X026186Y016204D02*
X022954Y016204D01*
X023032Y016125D02*
X026107Y016125D01*
X026029Y016047D02*
X023111Y016047D01*
X023189Y015968D02*
X025950Y015968D01*
X025872Y015890D02*
X023268Y015890D01*
X023346Y015811D02*
X025793Y015811D01*
X025715Y015733D02*
X023425Y015733D01*
X023394Y015763D02*
X023394Y015763D01*
X023500Y015654D02*
X025640Y015654D01*
X025640Y015576D02*
X023500Y015576D01*
X023500Y015497D02*
X025640Y015497D01*
X025640Y015419D02*
X023500Y015419D01*
X023500Y015340D02*
X025640Y015340D01*
X025640Y015262D02*
X023500Y015262D01*
X023500Y015183D02*
X025640Y015183D01*
X025640Y015105D02*
X023500Y015105D01*
X023500Y015026D02*
X025640Y015026D01*
X025640Y014948D02*
X023500Y014948D01*
X023500Y014869D02*
X025640Y014869D01*
X025640Y014791D02*
X023500Y014791D01*
X023500Y014712D02*
X025640Y014712D01*
X025391Y014634D02*
X023748Y014634D01*
X023802Y014555D02*
X025337Y014555D01*
X025337Y014477D02*
X023802Y014477D01*
X023802Y014398D02*
X025337Y014398D01*
X025337Y014320D02*
X023802Y014320D01*
X023802Y014241D02*
X025337Y014241D01*
X025270Y014163D02*
X023870Y014163D01*
X023948Y014084D02*
X025191Y014084D01*
X025113Y014006D02*
X024027Y014006D01*
X024105Y013927D02*
X025034Y013927D01*
X024956Y013849D02*
X024184Y013849D01*
X024262Y013770D02*
X024890Y013770D01*
X024890Y013692D02*
X024341Y013692D01*
X024375Y013613D02*
X024890Y013613D01*
X024890Y013535D02*
X024375Y013535D01*
X024375Y013456D02*
X024890Y013456D01*
X024890Y013378D02*
X024375Y013378D01*
X024395Y013299D02*
X024890Y013299D01*
X024927Y013221D02*
X024437Y013221D01*
X024515Y013142D02*
X025006Y013142D01*
X024995Y013153D02*
X024995Y013153D01*
X025084Y013064D02*
X024594Y013064D01*
X024672Y012985D02*
X025403Y012985D01*
X025403Y012907D02*
X024750Y012907D01*
X024750Y012828D02*
X025405Y012828D01*
X025403Y012750D02*
X024750Y012750D01*
X024750Y012671D02*
X025403Y012671D01*
X025418Y012593D02*
X024750Y012593D01*
X024750Y012514D02*
X025403Y012514D01*
X025403Y012436D02*
X024750Y012436D01*
X024750Y012357D02*
X025403Y012357D01*
X025403Y012279D02*
X024750Y012279D01*
X024750Y012200D02*
X025403Y012200D01*
X025403Y012122D02*
X024750Y012122D01*
X024750Y012043D02*
X025403Y012043D01*
X025403Y011965D02*
X024750Y011965D01*
X024750Y011886D02*
X025403Y011886D01*
X025408Y011808D02*
X024750Y011808D01*
X024750Y011729D02*
X025403Y011729D01*
X025403Y011651D02*
X024750Y011651D01*
X024750Y011572D02*
X025415Y011572D01*
X025403Y011494D02*
X024750Y011494D01*
X024750Y011415D02*
X025403Y011415D01*
X025403Y011337D02*
X024750Y011337D01*
X024750Y011258D02*
X025473Y011258D01*
X025890Y011180D02*
X024750Y011180D01*
X024750Y011101D02*
X025890Y011101D01*
X025890Y011023D02*
X024750Y011023D01*
X024750Y010944D02*
X025890Y010944D01*
X025890Y010866D02*
X024750Y010866D01*
X024750Y010787D02*
X025890Y010787D01*
X025890Y010709D02*
X024750Y010709D01*
X024750Y010630D02*
X025890Y010630D01*
X025890Y010552D02*
X024750Y010552D01*
X024750Y010473D02*
X025890Y010473D01*
X025890Y010395D02*
X024750Y010395D01*
X024750Y010316D02*
X025890Y010316D01*
X025890Y010238D02*
X024750Y010238D01*
X024750Y010159D02*
X025890Y010159D01*
X025890Y010081D02*
X024750Y010081D01*
X024750Y010002D02*
X025890Y010002D01*
X025890Y009924D02*
X024750Y009924D01*
X024750Y009845D02*
X025890Y009845D01*
X025890Y009767D02*
X024750Y009767D01*
X024750Y009688D02*
X025960Y009688D01*
X026039Y009610D02*
X024750Y009610D01*
X024750Y009531D02*
X026117Y009531D01*
X026196Y009453D02*
X024750Y009453D01*
X024750Y009374D02*
X026274Y009374D01*
X026353Y009296D02*
X024750Y009296D01*
X024750Y009217D02*
X026431Y009217D01*
X026510Y009139D02*
X024750Y009139D01*
X024750Y009060D02*
X026588Y009060D01*
X026601Y008982D02*
X024750Y008982D01*
X024750Y008903D02*
X026580Y008903D01*
X026580Y008825D02*
X024750Y008825D01*
X024750Y008746D02*
X026580Y008746D01*
X026608Y008668D02*
X024750Y008668D01*
X024818Y008589D02*
X026640Y008589D01*
X026699Y008511D02*
X024897Y008511D01*
X024975Y008432D02*
X026778Y008432D01*
X026947Y008354D02*
X025000Y008354D01*
X025000Y008275D02*
X027445Y008275D01*
X027445Y008197D02*
X025243Y008197D01*
X025260Y008118D02*
X027445Y008118D01*
X027445Y008040D02*
X025260Y008040D01*
X025260Y007961D02*
X027445Y007961D01*
X027445Y007883D02*
X025260Y007883D01*
X025260Y007804D02*
X027445Y007804D01*
X027445Y007726D02*
X025260Y007726D01*
X025221Y007647D02*
X027445Y007647D01*
X027443Y007569D02*
X022490Y007569D01*
X022523Y007647D02*
X023918Y007647D01*
X024512Y007647D02*
X024627Y007647D01*
X024587Y007726D02*
X024552Y007726D01*
X024552Y007804D02*
X024587Y007804D01*
X024587Y007883D02*
X024552Y007883D01*
X024552Y007961D02*
X024587Y007961D01*
X024587Y008040D02*
X024552Y008040D01*
X024552Y008118D02*
X024587Y008118D01*
X024604Y008197D02*
X024535Y008197D01*
X024500Y008275D02*
X024623Y008275D01*
X024545Y008354D02*
X024500Y008354D01*
X022420Y007490D02*
X027400Y007490D01*
X027445Y008354D02*
X027192Y008354D01*
X027362Y008432D02*
X027445Y008432D01*
X027440Y008511D02*
X027445Y008511D01*
X028801Y007653D02*
X028761Y007556D01*
X028663Y007458D01*
X033595Y007458D01*
X033628Y007463D01*
X033684Y007495D01*
X033716Y007551D01*
X033720Y007583D01*
X033720Y008515D01*
X033623Y008418D01*
X033443Y008343D01*
X033248Y008343D01*
X033068Y008418D01*
X032930Y008556D01*
X032855Y008736D01*
X032855Y008931D01*
X032896Y009028D01*
X032165Y009759D01*
X032165Y011258D01*
X031749Y011258D01*
X031679Y011328D01*
X031679Y011547D01*
X031697Y011566D01*
X031679Y011584D01*
X031679Y011803D01*
X031697Y011822D01*
X031679Y011840D01*
X031679Y012059D01*
X031697Y012077D01*
X031679Y012096D01*
X031679Y012315D01*
X031697Y012333D01*
X031679Y012352D01*
X031679Y012571D01*
X031697Y012589D01*
X031679Y012607D01*
X031679Y012827D01*
X031697Y012845D01*
X031679Y012863D01*
X031679Y013049D01*
X031375Y013049D01*
X031269Y013154D01*
X031269Y013154D01*
X031165Y013259D01*
X031165Y013783D01*
X031271Y013888D01*
X031613Y014231D01*
X031613Y014580D01*
X031683Y014650D01*
X031915Y014650D01*
X031915Y015658D01*
X032896Y016638D01*
X032855Y016736D01*
X032855Y016931D01*
X032930Y017111D01*
X033027Y017208D01*
X028663Y017208D01*
X028761Y017111D01*
X028835Y016931D01*
X028835Y016736D01*
X028795Y016638D01*
X029775Y015658D01*
X029775Y014650D01*
X030007Y014650D01*
X030077Y014580D01*
X030077Y014231D01*
X030545Y013763D01*
X030650Y013658D01*
X030650Y013324D01*
X030671Y013304D01*
X030671Y013262D01*
X030920Y013013D01*
X031025Y012908D01*
X031025Y008658D01*
X031170Y008513D01*
X031275Y008408D01*
X031275Y008250D01*
X031466Y008250D01*
X031536Y008180D01*
X031536Y007687D01*
X031466Y007616D01*
X030933Y007616D01*
X030863Y007687D01*
X030863Y008180D01*
X030915Y008232D01*
X030915Y008259D01*
X030775Y008399D01*
X030775Y008232D01*
X030827Y008180D01*
X030827Y007687D01*
X030757Y007616D01*
X030225Y007616D01*
X030188Y007653D01*
X028801Y007653D01*
X028798Y007647D02*
X030194Y007647D01*
X030788Y007647D02*
X030902Y007647D01*
X030863Y007726D02*
X030827Y007726D01*
X030827Y007804D02*
X030863Y007804D01*
X030863Y007883D02*
X030827Y007883D01*
X030827Y007961D02*
X030863Y007961D01*
X030863Y008040D02*
X030827Y008040D01*
X030827Y008118D02*
X030863Y008118D01*
X030880Y008197D02*
X030810Y008197D01*
X030775Y008275D02*
X030899Y008275D01*
X030820Y008354D02*
X030775Y008354D01*
X031094Y008589D02*
X032916Y008589D01*
X032883Y008668D02*
X031025Y008668D01*
X031025Y008746D02*
X032855Y008746D01*
X032855Y008825D02*
X031025Y008825D01*
X031025Y008903D02*
X032855Y008903D01*
X032876Y008982D02*
X031025Y008982D01*
X031025Y009060D02*
X032864Y009060D01*
X032785Y009139D02*
X031025Y009139D01*
X031025Y009217D02*
X032707Y009217D01*
X032628Y009296D02*
X031025Y009296D01*
X031025Y009374D02*
X032550Y009374D01*
X032471Y009453D02*
X031025Y009453D01*
X031025Y009531D02*
X032393Y009531D01*
X032314Y009610D02*
X031025Y009610D01*
X031025Y009688D02*
X032236Y009688D01*
X032165Y009767D02*
X031025Y009767D01*
X031025Y009845D02*
X032165Y009845D01*
X032165Y009924D02*
X031025Y009924D01*
X031025Y010002D02*
X032165Y010002D01*
X032165Y010081D02*
X031025Y010081D01*
X031025Y010159D02*
X032165Y010159D01*
X032165Y010238D02*
X031025Y010238D01*
X031025Y010316D02*
X032165Y010316D01*
X032165Y010395D02*
X031025Y010395D01*
X031025Y010473D02*
X032165Y010473D01*
X032165Y010552D02*
X031025Y010552D01*
X031025Y010630D02*
X032165Y010630D01*
X032165Y010709D02*
X031025Y010709D01*
X031025Y010787D02*
X032165Y010787D01*
X032165Y010866D02*
X031025Y010866D01*
X031025Y010944D02*
X032165Y010944D01*
X032165Y011023D02*
X031025Y011023D01*
X031025Y011101D02*
X032165Y011101D01*
X032165Y011180D02*
X031025Y011180D01*
X031025Y011258D02*
X031749Y011258D01*
X031679Y011337D02*
X031025Y011337D01*
X031025Y011415D02*
X031679Y011415D01*
X031679Y011494D02*
X031025Y011494D01*
X031025Y011572D02*
X031690Y011572D01*
X031679Y011651D02*
X031025Y011651D01*
X031025Y011729D02*
X031679Y011729D01*
X031683Y011808D02*
X031025Y011808D01*
X031025Y011886D02*
X031679Y011886D01*
X031679Y011965D02*
X031025Y011965D01*
X031025Y012043D02*
X031679Y012043D01*
X031679Y012122D02*
X031025Y012122D01*
X031025Y012200D02*
X031679Y012200D01*
X031679Y012279D02*
X031025Y012279D01*
X031025Y012357D02*
X031679Y012357D01*
X031679Y012436D02*
X031025Y012436D01*
X031025Y012514D02*
X031679Y012514D01*
X031694Y012593D02*
X031025Y012593D01*
X031025Y012671D02*
X031679Y012671D01*
X031679Y012750D02*
X031025Y012750D01*
X031025Y012828D02*
X031680Y012828D01*
X031679Y012907D02*
X031025Y012907D01*
X030948Y012985D02*
X031679Y012985D01*
X031360Y013064D02*
X030869Y013064D01*
X030791Y013142D02*
X031282Y013142D01*
X031203Y013221D02*
X030712Y013221D01*
X030671Y013299D02*
X031165Y013299D01*
X031165Y013378D02*
X030650Y013378D01*
X030650Y013456D02*
X031165Y013456D01*
X031165Y013535D02*
X030650Y013535D01*
X030650Y013613D02*
X031165Y013613D01*
X031165Y013692D02*
X030616Y013692D01*
X030538Y013770D02*
X031165Y013770D01*
X031231Y013849D02*
X030459Y013849D01*
X030381Y013927D02*
X031310Y013927D01*
X031388Y014006D02*
X030302Y014006D01*
X030224Y014084D02*
X031467Y014084D01*
X031545Y014163D02*
X030145Y014163D01*
X030077Y014241D02*
X031613Y014241D01*
X031613Y014320D02*
X030077Y014320D01*
X030077Y014398D02*
X031613Y014398D01*
X031613Y014477D02*
X030077Y014477D01*
X030077Y014555D02*
X031613Y014555D01*
X031667Y014634D02*
X030023Y014634D01*
X029775Y014712D02*
X031915Y014712D01*
X031915Y014791D02*
X029775Y014791D01*
X029775Y014869D02*
X031915Y014869D01*
X031915Y014948D02*
X029775Y014948D01*
X029775Y015026D02*
X031915Y015026D01*
X031915Y015105D02*
X029775Y015105D01*
X029775Y015183D02*
X031915Y015183D01*
X031915Y015262D02*
X029775Y015262D01*
X029775Y015340D02*
X031915Y015340D01*
X031915Y015419D02*
X029775Y015419D01*
X029775Y015497D02*
X031915Y015497D01*
X031915Y015576D02*
X029775Y015576D01*
X029775Y015654D02*
X031915Y015654D01*
X031990Y015733D02*
X029700Y015733D01*
X029622Y015811D02*
X032069Y015811D01*
X032147Y015890D02*
X029543Y015890D01*
X029465Y015968D02*
X032226Y015968D01*
X032304Y016047D02*
X029386Y016047D01*
X029308Y016125D02*
X032383Y016125D01*
X032461Y016204D02*
X029229Y016204D01*
X029151Y016282D02*
X032540Y016282D01*
X032618Y016361D02*
X029072Y016361D01*
X028994Y016439D02*
X032697Y016439D01*
X032775Y016518D02*
X028915Y016518D01*
X028837Y016596D02*
X032854Y016596D01*
X032880Y016675D02*
X028810Y016675D01*
X028835Y016753D02*
X032855Y016753D01*
X032855Y016832D02*
X028835Y016832D01*
X028835Y016910D02*
X032855Y016910D01*
X032879Y016989D02*
X028811Y016989D01*
X028779Y017067D02*
X032912Y017067D01*
X032965Y017146D02*
X028726Y017146D01*
X028663Y017734D02*
X028761Y017831D01*
X028801Y017929D01*
X030188Y017929D01*
X030225Y017892D01*
X030757Y017892D01*
X030827Y017962D01*
X030827Y018455D01*
X030775Y018508D01*
X030775Y018674D01*
X030915Y018534D01*
X030915Y018508D01*
X030863Y018455D01*
X030863Y017962D01*
X030933Y017892D01*
X031466Y017892D01*
X031536Y017962D01*
X031536Y018455D01*
X031466Y018526D01*
X031275Y018526D01*
X031275Y018683D01*
X031170Y018789D01*
X031025Y018933D01*
X031025Y023183D01*
X030920Y023289D01*
X030671Y023538D01*
X030671Y023579D01*
X030650Y023600D01*
X030650Y023933D01*
X030545Y024039D01*
X030077Y024506D01*
X030077Y024855D01*
X030007Y024926D01*
X029775Y024926D01*
X029775Y025933D01*
X028795Y026914D01*
X028835Y027011D01*
X028835Y027206D01*
X028761Y027386D01*
X028663Y027484D01*
X033027Y027484D01*
X032930Y027386D01*
X032855Y027206D01*
X032855Y027011D01*
X032896Y026914D01*
X031915Y025933D01*
X031915Y024926D01*
X031683Y024926D01*
X031613Y024855D01*
X031613Y024506D01*
X031271Y024164D01*
X031165Y024058D01*
X031165Y023534D01*
X031271Y023429D01*
X031375Y023325D01*
X031679Y023325D01*
X031679Y023139D01*
X031697Y023121D01*
X031679Y023102D01*
X031679Y022883D01*
X031697Y022865D01*
X031679Y022847D01*
X031679Y022627D01*
X031697Y022609D01*
X031679Y022591D01*
X031679Y022371D01*
X031697Y022353D01*
X031679Y022335D01*
X031679Y022115D01*
X031697Y022097D01*
X031679Y022079D01*
X031679Y021859D01*
X031697Y021841D01*
X031679Y021823D01*
X031679Y021604D01*
X031749Y021533D01*
X032165Y021533D01*
X032165Y020034D01*
X032896Y019304D01*
X032855Y019206D01*
X032855Y019011D01*
X032930Y018831D01*
X033068Y018694D01*
X033248Y018619D01*
X033443Y018619D01*
X033623Y018694D01*
X033720Y018791D01*
X033720Y017859D01*
X033716Y017827D01*
X033684Y017771D01*
X033628Y017738D01*
X033595Y017734D01*
X028663Y017734D01*
X028703Y017774D02*
X033685Y017774D01*
X033719Y017852D02*
X028769Y017852D01*
X030796Y017931D02*
X030894Y017931D01*
X030863Y018009D02*
X030827Y018009D01*
X030827Y018088D02*
X030863Y018088D01*
X030863Y018166D02*
X030827Y018166D01*
X030827Y018245D02*
X030863Y018245D01*
X030863Y018323D02*
X030827Y018323D01*
X030827Y018402D02*
X030863Y018402D01*
X030888Y018480D02*
X030802Y018480D01*
X030775Y018559D02*
X030891Y018559D01*
X030812Y018637D02*
X030775Y018637D01*
X031086Y018873D02*
X032913Y018873D01*
X032880Y018951D02*
X031025Y018951D01*
X031025Y019030D02*
X032855Y019030D01*
X032855Y019108D02*
X031025Y019108D01*
X031025Y019187D02*
X032855Y019187D01*
X032880Y019265D02*
X031025Y019265D01*
X031025Y019344D02*
X032856Y019344D01*
X032777Y019422D02*
X031025Y019422D01*
X031025Y019501D02*
X032699Y019501D01*
X032620Y019579D02*
X031025Y019579D01*
X031025Y019658D02*
X032542Y019658D01*
X032463Y019736D02*
X031025Y019736D01*
X031025Y019815D02*
X032385Y019815D01*
X032306Y019893D02*
X031025Y019893D01*
X031025Y019972D02*
X032228Y019972D01*
X032165Y020050D02*
X031025Y020050D01*
X031025Y020129D02*
X032165Y020129D01*
X032165Y020207D02*
X031025Y020207D01*
X031025Y020286D02*
X032165Y020286D01*
X032165Y020364D02*
X031025Y020364D01*
X031025Y020443D02*
X032165Y020443D01*
X032165Y020521D02*
X031025Y020521D01*
X031025Y020600D02*
X032165Y020600D01*
X032165Y020678D02*
X031025Y020678D01*
X031025Y020757D02*
X032165Y020757D01*
X032165Y020835D02*
X031025Y020835D01*
X031025Y020914D02*
X032165Y020914D01*
X032165Y020992D02*
X031025Y020992D01*
X031025Y021071D02*
X032165Y021071D01*
X032165Y021149D02*
X031025Y021149D01*
X031025Y021228D02*
X032165Y021228D01*
X032165Y021306D02*
X031025Y021306D01*
X031025Y021385D02*
X032165Y021385D01*
X032165Y021463D02*
X031025Y021463D01*
X031025Y021542D02*
X031741Y021542D01*
X031679Y021620D02*
X031025Y021620D01*
X031025Y021699D02*
X031679Y021699D01*
X031679Y021777D02*
X031025Y021777D01*
X031025Y021856D02*
X031682Y021856D01*
X031679Y021934D02*
X031025Y021934D01*
X031025Y022013D02*
X031679Y022013D01*
X031691Y022091D02*
X031025Y022091D01*
X031025Y022170D02*
X031679Y022170D01*
X031679Y022248D02*
X031025Y022248D01*
X031025Y022327D02*
X031679Y022327D01*
X031679Y022405D02*
X031025Y022405D01*
X031025Y022484D02*
X031679Y022484D01*
X031679Y022562D02*
X031025Y022562D01*
X031025Y022641D02*
X031679Y022641D01*
X031679Y022719D02*
X031025Y022719D01*
X031025Y022798D02*
X031679Y022798D01*
X031686Y022876D02*
X031025Y022876D01*
X031025Y022955D02*
X031679Y022955D01*
X031679Y023033D02*
X031025Y023033D01*
X031025Y023112D02*
X031688Y023112D01*
X031679Y023190D02*
X031018Y023190D01*
X030940Y023269D02*
X031679Y023269D01*
X031352Y023347D02*
X030861Y023347D01*
X030783Y023426D02*
X031274Y023426D01*
X031195Y023504D02*
X030704Y023504D01*
X030667Y023583D02*
X031165Y023583D01*
X031165Y023661D02*
X030650Y023661D01*
X030650Y023740D02*
X031165Y023740D01*
X031165Y023818D02*
X030650Y023818D01*
X030650Y023897D02*
X031165Y023897D01*
X031165Y023975D02*
X030608Y023975D01*
X030530Y024054D02*
X031165Y024054D01*
X031239Y024132D02*
X030451Y024132D01*
X030373Y024211D02*
X031318Y024211D01*
X031396Y024289D02*
X030294Y024289D01*
X030216Y024368D02*
X031475Y024368D01*
X031553Y024446D02*
X030137Y024446D01*
X030077Y024525D02*
X031613Y024525D01*
X031613Y024603D02*
X030077Y024603D01*
X030077Y024682D02*
X031613Y024682D01*
X031613Y024760D02*
X030077Y024760D01*
X030077Y024839D02*
X031613Y024839D01*
X031675Y024917D02*
X030015Y024917D01*
X029775Y024996D02*
X031915Y024996D01*
X031915Y025074D02*
X029775Y025074D01*
X029775Y025153D02*
X031915Y025153D01*
X031915Y025231D02*
X029775Y025231D01*
X029775Y025310D02*
X031915Y025310D01*
X031915Y025388D02*
X029775Y025388D01*
X029775Y025467D02*
X031915Y025467D01*
X031915Y025545D02*
X029775Y025545D01*
X029775Y025624D02*
X031915Y025624D01*
X031915Y025702D02*
X029775Y025702D01*
X029775Y025781D02*
X031915Y025781D01*
X031915Y025859D02*
X029775Y025859D01*
X029771Y025938D02*
X031920Y025938D01*
X031998Y026016D02*
X029692Y026016D01*
X029614Y026095D02*
X032077Y026095D01*
X032155Y026173D02*
X029535Y026173D01*
X029457Y026252D02*
X032234Y026252D01*
X032312Y026330D02*
X029378Y026330D01*
X029300Y026409D02*
X032391Y026409D01*
X032469Y026487D02*
X029221Y026487D01*
X029143Y026566D02*
X032548Y026566D01*
X032626Y026644D02*
X029064Y026644D01*
X028986Y026723D02*
X032705Y026723D01*
X032783Y026801D02*
X028907Y026801D01*
X028829Y026880D02*
X032862Y026880D01*
X032877Y026958D02*
X028813Y026958D01*
X028835Y027037D02*
X032855Y027037D01*
X032855Y027115D02*
X028835Y027115D01*
X028835Y027194D02*
X032855Y027194D01*
X032882Y027272D02*
X028808Y027272D01*
X028775Y027351D02*
X032915Y027351D01*
X032973Y027429D02*
X028718Y027429D01*
X028663Y028010D02*
X028761Y028107D01*
X028801Y028205D01*
X030188Y028205D01*
X030225Y028168D01*
X030757Y028168D01*
X030827Y028238D01*
X030827Y028731D01*
X030775Y028783D01*
X030775Y028950D01*
X030915Y028810D01*
X030915Y028783D01*
X030863Y028731D01*
X030863Y028238D01*
X030933Y028168D01*
X031466Y028168D01*
X031536Y028238D01*
X031536Y028731D01*
X031466Y028801D01*
X031275Y028801D01*
X031275Y028959D01*
X031170Y029065D01*
X031025Y029209D01*
X031025Y033459D01*
X030920Y033565D01*
X030671Y033813D01*
X030671Y033855D01*
X030650Y033875D01*
X030650Y034209D01*
X030545Y034315D01*
X030077Y034782D01*
X030077Y035131D01*
X030007Y035201D01*
X029775Y035201D01*
X029775Y036209D01*
X028795Y037189D01*
X028835Y037287D01*
X028835Y037482D01*
X028761Y037662D01*
X028663Y037760D01*
X033027Y037760D01*
X032930Y037662D01*
X032855Y037482D01*
X032855Y037287D01*
X032896Y037189D01*
X031915Y036209D01*
X031915Y035201D01*
X031683Y035201D01*
X030008Y035201D01*
X030077Y035122D02*
X031613Y035122D01*
X031613Y035131D02*
X031613Y034782D01*
X031271Y034440D01*
X031165Y034334D01*
X031165Y033810D01*
X031271Y033705D01*
X031375Y033600D01*
X031679Y033600D01*
X031679Y033415D01*
X031697Y033396D01*
X031679Y033378D01*
X031679Y033159D01*
X031697Y033140D01*
X031679Y033122D01*
X031679Y032903D01*
X031697Y032885D01*
X031679Y032866D01*
X031679Y032647D01*
X031697Y032629D01*
X031679Y032610D01*
X031679Y032391D01*
X031697Y032373D01*
X031679Y032354D01*
X031679Y032135D01*
X031697Y032117D01*
X031679Y032099D01*
X031679Y031879D01*
X031749Y031809D01*
X032165Y031809D01*
X032165Y030310D01*
X032896Y029580D01*
X032855Y029482D01*
X032855Y029287D01*
X032930Y029107D01*
X033068Y028969D01*
X033248Y028895D01*
X033443Y028895D01*
X033623Y028969D01*
X033720Y029067D01*
X033720Y028135D01*
X033716Y028102D01*
X033684Y028046D01*
X033628Y028014D01*
X033595Y028010D01*
X028663Y028010D01*
X028711Y028057D02*
X033690Y028057D01*
X033720Y028136D02*
X028773Y028136D01*
X027445Y028921D02*
X027231Y028921D01*
X027377Y028999D02*
X027445Y028999D01*
X024620Y028764D02*
X024519Y028764D01*
X024500Y028842D02*
X024607Y028842D01*
X024529Y028921D02*
X024500Y028921D01*
X024552Y028685D02*
X024587Y028685D01*
X024587Y028607D02*
X024552Y028607D01*
X024552Y028528D02*
X024587Y028528D01*
X024587Y028450D02*
X024552Y028450D01*
X024552Y028371D02*
X024587Y028371D01*
X024587Y028293D02*
X024552Y028293D01*
X024528Y028214D02*
X024611Y028214D01*
X021169Y028214D02*
X018961Y028214D01*
X018985Y028238D02*
X018985Y028731D01*
X018915Y028801D01*
X018724Y028801D01*
X018724Y028959D01*
X018619Y029065D01*
X018474Y029209D01*
X018474Y033459D01*
X018369Y033565D01*
X018120Y033813D01*
X018120Y033855D01*
X018099Y033875D01*
X018099Y034209D01*
X017994Y034315D01*
X017526Y034782D01*
X017526Y035131D01*
X017456Y035201D01*
X019132Y035201D01*
X019062Y035131D01*
X019062Y034782D01*
X018719Y034440D01*
X018614Y034334D01*
X018614Y033810D01*
X018719Y033705D01*
X018824Y033600D01*
X019128Y033600D01*
X019128Y033415D01*
X019146Y033396D01*
X019128Y033378D01*
X019128Y033159D01*
X019146Y033140D01*
X019128Y033122D01*
X019128Y032903D01*
X019146Y032885D01*
X019128Y032866D01*
X019128Y032647D01*
X019146Y032629D01*
X019128Y032610D01*
X019128Y032391D01*
X019146Y032373D01*
X019128Y032354D01*
X019128Y032135D01*
X019146Y032117D01*
X019128Y032099D01*
X019128Y031879D01*
X019198Y031809D01*
X019614Y031809D01*
X019614Y030310D01*
X020344Y029580D01*
X020304Y029482D01*
X020304Y029287D01*
X020379Y029107D01*
X020516Y028969D01*
X020697Y028895D01*
X020891Y028895D01*
X021072Y028969D01*
X021169Y029067D01*
X021169Y028135D01*
X021165Y028102D01*
X021132Y028046D01*
X021076Y028014D01*
X021044Y028010D01*
X016112Y028010D01*
X016209Y028107D01*
X016250Y028205D01*
X017637Y028205D01*
X017673Y028168D01*
X018206Y028168D01*
X018276Y028238D01*
X018276Y028731D01*
X018224Y028783D01*
X018224Y028950D01*
X018364Y028810D01*
X018364Y028783D01*
X018312Y028731D01*
X018312Y028238D01*
X018382Y028168D01*
X018915Y028168D01*
X018985Y028238D01*
X018985Y028293D02*
X021169Y028293D01*
X021169Y028371D02*
X018985Y028371D01*
X018985Y028450D02*
X021169Y028450D01*
X021169Y028528D02*
X018985Y028528D01*
X018985Y028607D02*
X021169Y028607D01*
X021169Y028685D02*
X018985Y028685D01*
X018952Y028764D02*
X021169Y028764D01*
X021169Y028842D02*
X018724Y028842D01*
X018724Y028921D02*
X020633Y028921D01*
X020486Y028999D02*
X018684Y028999D01*
X018605Y029078D02*
X020408Y029078D01*
X020358Y029156D02*
X018527Y029156D01*
X018474Y029235D02*
X020326Y029235D01*
X020304Y029313D02*
X018474Y029313D01*
X018474Y029392D02*
X020304Y029392D01*
X020304Y029470D02*
X018474Y029470D01*
X018474Y029549D02*
X020332Y029549D01*
X020297Y029627D02*
X018474Y029627D01*
X018474Y029706D02*
X020218Y029706D01*
X020140Y029784D02*
X018474Y029784D01*
X018474Y029863D02*
X020061Y029863D01*
X019983Y029941D02*
X018474Y029941D01*
X018474Y030020D02*
X019904Y030020D01*
X019826Y030098D02*
X018474Y030098D01*
X018474Y030177D02*
X019747Y030177D01*
X019669Y030255D02*
X018474Y030255D01*
X018474Y030334D02*
X019614Y030334D01*
X019614Y030412D02*
X018474Y030412D01*
X018474Y030491D02*
X019614Y030491D01*
X019614Y030569D02*
X018474Y030569D01*
X018474Y030648D02*
X019614Y030648D01*
X019614Y030726D02*
X018474Y030726D01*
X018474Y030805D02*
X019614Y030805D01*
X019614Y030883D02*
X018474Y030883D01*
X018474Y030962D02*
X019614Y030962D01*
X019614Y031040D02*
X018474Y031040D01*
X018474Y031119D02*
X019614Y031119D01*
X019614Y031197D02*
X018474Y031197D01*
X018474Y031276D02*
X019614Y031276D01*
X019614Y031354D02*
X018474Y031354D01*
X018474Y031433D02*
X019614Y031433D01*
X019614Y031511D02*
X018474Y031511D01*
X018474Y031590D02*
X019614Y031590D01*
X019614Y031668D02*
X018474Y031668D01*
X018474Y031747D02*
X019614Y031747D01*
X019181Y031825D02*
X018474Y031825D01*
X018474Y031904D02*
X019128Y031904D01*
X019128Y031982D02*
X018474Y031982D01*
X018474Y032061D02*
X019128Y032061D01*
X019128Y032139D02*
X018474Y032139D01*
X018474Y032218D02*
X019128Y032218D01*
X019128Y032296D02*
X018474Y032296D01*
X018474Y032375D02*
X019144Y032375D01*
X019128Y032453D02*
X018474Y032453D01*
X018474Y032532D02*
X019128Y032532D01*
X019128Y032610D02*
X018474Y032610D01*
X018474Y032689D02*
X019128Y032689D01*
X019128Y032767D02*
X018474Y032767D01*
X018474Y032846D02*
X019128Y032846D01*
X019128Y032924D02*
X018474Y032924D01*
X018474Y033003D02*
X019128Y033003D01*
X019128Y033081D02*
X018474Y033081D01*
X018474Y033160D02*
X019128Y033160D01*
X019128Y033238D02*
X018474Y033238D01*
X018474Y033317D02*
X019128Y033317D01*
X019145Y033395D02*
X018474Y033395D01*
X018459Y033474D02*
X019128Y033474D01*
X019128Y033552D02*
X018381Y033552D01*
X018302Y033631D02*
X018793Y033631D01*
X018715Y033709D02*
X018224Y033709D01*
X018145Y033788D02*
X018636Y033788D01*
X018614Y033866D02*
X018108Y033866D01*
X018099Y033945D02*
X018614Y033945D01*
X018614Y034023D02*
X018099Y034023D01*
X018099Y034102D02*
X018614Y034102D01*
X018614Y034180D02*
X018099Y034180D01*
X018049Y034259D02*
X018614Y034259D01*
X018617Y034337D02*
X017971Y034337D01*
X017892Y034416D02*
X018696Y034416D01*
X018774Y034494D02*
X017814Y034494D01*
X017735Y034573D02*
X018853Y034573D01*
X018931Y034651D02*
X017657Y034651D01*
X017578Y034730D02*
X019010Y034730D01*
X019062Y034808D02*
X017526Y034808D01*
X017526Y034887D02*
X019062Y034887D01*
X019062Y034965D02*
X017526Y034965D01*
X017526Y035044D02*
X019062Y035044D01*
X019062Y035122D02*
X017526Y035122D01*
X017456Y035201D02*
X017224Y035201D01*
X017224Y036209D01*
X016244Y037189D01*
X016284Y037287D01*
X016284Y037482D01*
X016209Y037662D01*
X016112Y037760D01*
X020476Y037760D01*
X020379Y037662D01*
X020304Y037482D01*
X020304Y037287D01*
X020344Y037189D01*
X019364Y036209D01*
X019364Y035201D01*
X019132Y035201D01*
X019364Y035279D02*
X017224Y035279D01*
X017224Y035358D02*
X019364Y035358D01*
X019364Y035436D02*
X017224Y035436D01*
X017224Y035515D02*
X019364Y035515D01*
X019364Y035593D02*
X017224Y035593D01*
X017224Y035672D02*
X019364Y035672D01*
X019364Y035750D02*
X017224Y035750D01*
X017224Y035829D02*
X019364Y035829D01*
X019364Y035907D02*
X017224Y035907D01*
X017224Y035986D02*
X019364Y035986D01*
X019364Y036064D02*
X017224Y036064D01*
X017224Y036143D02*
X019364Y036143D01*
X019376Y036221D02*
X017212Y036221D01*
X017133Y036300D02*
X019455Y036300D01*
X019533Y036378D02*
X017055Y036378D01*
X016976Y036457D02*
X019612Y036457D01*
X019690Y036535D02*
X016898Y036535D01*
X016819Y036614D02*
X019769Y036614D01*
X019847Y036692D02*
X016741Y036692D01*
X016662Y036771D02*
X019926Y036771D01*
X020004Y036849D02*
X016584Y036849D01*
X016505Y036928D02*
X020083Y036928D01*
X020161Y037006D02*
X016427Y037006D01*
X016348Y037085D02*
X020240Y037085D01*
X020318Y037163D02*
X016270Y037163D01*
X016265Y037242D02*
X020323Y037242D01*
X020304Y037320D02*
X016284Y037320D01*
X016284Y037399D02*
X020304Y037399D01*
X020304Y037477D02*
X016284Y037477D01*
X016253Y037556D02*
X020335Y037556D01*
X020367Y037634D02*
X016221Y037634D01*
X016159Y037713D02*
X020429Y037713D01*
X022434Y037713D02*
X026705Y037713D01*
X026643Y037634D02*
X022496Y037634D01*
X022529Y037556D02*
X026610Y037556D01*
X026580Y037477D02*
X022560Y037477D01*
X022560Y037399D02*
X026580Y037399D01*
X026580Y037320D02*
X022560Y037320D01*
X022541Y037242D02*
X026598Y037242D01*
X026594Y037163D02*
X022545Y037163D01*
X022624Y037085D02*
X026515Y037085D01*
X026437Y037006D02*
X022702Y037006D01*
X022781Y036928D02*
X026358Y036928D01*
X026280Y036849D02*
X022859Y036849D01*
X022938Y036771D02*
X026201Y036771D01*
X026123Y036692D02*
X023016Y036692D01*
X023095Y036614D02*
X026044Y036614D01*
X025966Y036535D02*
X023173Y036535D01*
X023252Y036457D02*
X025887Y036457D01*
X025809Y036378D02*
X023330Y036378D01*
X023409Y036300D02*
X025730Y036300D01*
X025652Y036221D02*
X023487Y036221D01*
X023500Y036143D02*
X025640Y036143D01*
X025640Y036064D02*
X023500Y036064D01*
X023500Y035986D02*
X025640Y035986D01*
X025640Y035907D02*
X023500Y035907D01*
X023500Y035829D02*
X025640Y035829D01*
X025640Y035750D02*
X023500Y035750D01*
X023500Y035672D02*
X025640Y035672D01*
X025640Y035593D02*
X023500Y035593D01*
X023500Y035515D02*
X025640Y035515D01*
X025640Y035436D02*
X023500Y035436D01*
X023500Y035358D02*
X025640Y035358D01*
X025640Y035279D02*
X023500Y035279D01*
X023732Y035201D02*
X025407Y035201D01*
X025337Y035122D02*
X023802Y035122D01*
X023802Y035044D02*
X025337Y035044D01*
X025337Y034965D02*
X023802Y034965D01*
X023802Y034887D02*
X025337Y034887D01*
X025337Y034808D02*
X023802Y034808D01*
X023854Y034730D02*
X025285Y034730D01*
X025207Y034651D02*
X023932Y034651D01*
X024011Y034573D02*
X025128Y034573D01*
X025050Y034494D02*
X024089Y034494D01*
X024168Y034416D02*
X024971Y034416D01*
X024893Y034337D02*
X024246Y034337D01*
X024325Y034259D02*
X024890Y034259D01*
X024890Y034180D02*
X024375Y034180D01*
X024375Y034102D02*
X024890Y034102D01*
X024890Y034023D02*
X024375Y034023D01*
X024375Y033945D02*
X024890Y033945D01*
X024890Y033866D02*
X024384Y033866D01*
X024421Y033788D02*
X024912Y033788D01*
X024990Y033709D02*
X024499Y033709D01*
X024578Y033631D02*
X025069Y033631D01*
X024644Y033565D02*
X024644Y033565D01*
X028821Y037163D02*
X032870Y037163D01*
X032874Y037242D02*
X028816Y037242D01*
X028835Y037320D02*
X032855Y037320D01*
X032855Y037399D02*
X028835Y037399D01*
X028835Y037477D02*
X032855Y037477D01*
X032886Y037556D02*
X028805Y037556D01*
X028772Y037634D02*
X032918Y037634D01*
X032981Y037713D02*
X028710Y037713D01*
X028899Y037085D02*
X032791Y037085D01*
X032713Y037006D02*
X028978Y037006D01*
X029056Y036928D02*
X032634Y036928D01*
X032556Y036849D02*
X029135Y036849D01*
X029213Y036771D02*
X032477Y036771D01*
X032399Y036692D02*
X029292Y036692D01*
X029370Y036614D02*
X032320Y036614D01*
X032242Y036535D02*
X029449Y036535D01*
X029527Y036457D02*
X032163Y036457D01*
X032085Y036378D02*
X029606Y036378D01*
X029684Y036300D02*
X032006Y036300D01*
X031928Y036221D02*
X029763Y036221D01*
X029775Y036143D02*
X031915Y036143D01*
X031915Y036064D02*
X029775Y036064D01*
X029775Y035986D02*
X031915Y035986D01*
X031915Y035907D02*
X029775Y035907D01*
X029775Y035829D02*
X031915Y035829D01*
X031915Y035750D02*
X029775Y035750D01*
X029775Y035672D02*
X031915Y035672D01*
X031915Y035593D02*
X029775Y035593D01*
X029775Y035515D02*
X031915Y035515D01*
X031915Y035436D02*
X029775Y035436D01*
X029775Y035358D02*
X031915Y035358D01*
X031915Y035279D02*
X029775Y035279D01*
X030077Y035044D02*
X031613Y035044D01*
X031613Y034965D02*
X030077Y034965D01*
X030077Y034887D02*
X031613Y034887D01*
X031613Y034808D02*
X030077Y034808D01*
X030129Y034730D02*
X031561Y034730D01*
X031483Y034651D02*
X030208Y034651D01*
X030286Y034573D02*
X031404Y034573D01*
X031326Y034494D02*
X030365Y034494D01*
X030443Y034416D02*
X031247Y034416D01*
X031169Y034337D02*
X030522Y034337D01*
X030600Y034259D02*
X031165Y034259D01*
X031165Y034180D02*
X030650Y034180D01*
X030650Y034102D02*
X031165Y034102D01*
X031165Y034023D02*
X030650Y034023D01*
X030650Y033945D02*
X031165Y033945D01*
X031165Y033866D02*
X030659Y033866D01*
X030696Y033788D02*
X031187Y033788D01*
X031266Y033709D02*
X030775Y033709D01*
X030853Y033631D02*
X031344Y033631D01*
X031679Y033552D02*
X030932Y033552D01*
X031010Y033474D02*
X031679Y033474D01*
X031696Y033395D02*
X031025Y033395D01*
X031025Y033317D02*
X031679Y033317D01*
X031679Y033238D02*
X031025Y033238D01*
X031025Y033160D02*
X031679Y033160D01*
X031679Y033081D02*
X031025Y033081D01*
X031025Y033003D02*
X031679Y033003D01*
X031679Y032924D02*
X031025Y032924D01*
X031025Y032846D02*
X031679Y032846D01*
X031679Y032767D02*
X031025Y032767D01*
X031025Y032689D02*
X031679Y032689D01*
X031679Y032610D02*
X031025Y032610D01*
X031025Y032532D02*
X031679Y032532D01*
X031679Y032453D02*
X031025Y032453D01*
X031025Y032375D02*
X031695Y032375D01*
X031679Y032296D02*
X031025Y032296D01*
X031025Y032218D02*
X031679Y032218D01*
X031679Y032139D02*
X031025Y032139D01*
X031025Y032061D02*
X031679Y032061D01*
X031679Y031982D02*
X031025Y031982D01*
X031025Y031904D02*
X031679Y031904D01*
X031733Y031825D02*
X031025Y031825D01*
X031025Y031747D02*
X032165Y031747D01*
X032165Y031668D02*
X031025Y031668D01*
X031025Y031590D02*
X032165Y031590D01*
X032165Y031511D02*
X031025Y031511D01*
X031025Y031433D02*
X032165Y031433D01*
X032165Y031354D02*
X031025Y031354D01*
X031025Y031276D02*
X032165Y031276D01*
X032165Y031197D02*
X031025Y031197D01*
X031025Y031119D02*
X032165Y031119D01*
X032165Y031040D02*
X031025Y031040D01*
X031025Y030962D02*
X032165Y030962D01*
X032165Y030883D02*
X031025Y030883D01*
X031025Y030805D02*
X032165Y030805D01*
X032165Y030726D02*
X031025Y030726D01*
X031025Y030648D02*
X032165Y030648D01*
X032165Y030569D02*
X031025Y030569D01*
X031025Y030491D02*
X032165Y030491D01*
X032165Y030412D02*
X031025Y030412D01*
X031025Y030334D02*
X032165Y030334D01*
X032220Y030255D02*
X031025Y030255D01*
X031025Y030177D02*
X032298Y030177D01*
X032377Y030098D02*
X031025Y030098D01*
X031025Y030020D02*
X032455Y030020D01*
X032534Y029941D02*
X031025Y029941D01*
X031025Y029863D02*
X032612Y029863D01*
X032691Y029784D02*
X031025Y029784D01*
X031025Y029706D02*
X032769Y029706D01*
X032848Y029627D02*
X031025Y029627D01*
X031025Y029549D02*
X032883Y029549D01*
X032855Y029470D02*
X031025Y029470D01*
X031025Y029392D02*
X032855Y029392D01*
X032855Y029313D02*
X031025Y029313D01*
X031025Y029235D02*
X032877Y029235D01*
X032909Y029156D02*
X031078Y029156D01*
X031156Y029078D02*
X032959Y029078D01*
X033037Y028999D02*
X031235Y028999D01*
X031275Y028921D02*
X033184Y028921D01*
X033506Y028921D02*
X033720Y028921D01*
X033720Y028999D02*
X033653Y028999D01*
X033720Y028842D02*
X031275Y028842D01*
X031503Y028764D02*
X033720Y028764D01*
X033720Y028685D02*
X031536Y028685D01*
X031536Y028607D02*
X033720Y028607D01*
X033720Y028528D02*
X031536Y028528D01*
X031536Y028450D02*
X033720Y028450D01*
X033720Y028371D02*
X031536Y028371D01*
X031536Y028293D02*
X033720Y028293D01*
X033720Y028214D02*
X031512Y028214D01*
X030887Y028214D02*
X030804Y028214D01*
X030827Y028293D02*
X030863Y028293D01*
X030863Y028371D02*
X030827Y028371D01*
X030827Y028450D02*
X030863Y028450D01*
X030863Y028528D02*
X030827Y028528D01*
X030827Y028607D02*
X030863Y028607D01*
X030863Y028685D02*
X030827Y028685D01*
X030795Y028764D02*
X030896Y028764D01*
X030883Y028842D02*
X030775Y028842D01*
X030775Y028921D02*
X030804Y028921D01*
X031170Y029065D02*
X031170Y029065D01*
X031613Y035131D02*
X031683Y035201D01*
X021169Y028999D02*
X021102Y028999D01*
X021169Y028921D02*
X020955Y028921D01*
X021169Y028136D02*
X016221Y028136D01*
X016160Y028057D02*
X021139Y028057D01*
X020476Y027484D02*
X020379Y027386D01*
X020304Y027206D01*
X020304Y027011D01*
X020344Y026914D01*
X019364Y025933D01*
X019364Y024926D01*
X019132Y024926D01*
X019062Y024855D01*
X019062Y024506D01*
X018719Y024164D01*
X018614Y024058D01*
X018614Y023534D01*
X018719Y023429D01*
X018824Y023325D01*
X019128Y023325D01*
X019128Y023139D01*
X019146Y023121D01*
X019128Y023102D01*
X019128Y022883D01*
X019146Y022865D01*
X019128Y022847D01*
X019128Y022627D01*
X019146Y022609D01*
X019128Y022591D01*
X019128Y022371D01*
X019146Y022353D01*
X019128Y022335D01*
X019128Y022115D01*
X019146Y022097D01*
X019128Y022079D01*
X019128Y021859D01*
X019146Y021841D01*
X019128Y021823D01*
X019128Y021604D01*
X019198Y021533D01*
X019614Y021533D01*
X019614Y020034D01*
X020344Y019304D01*
X020304Y019206D01*
X020304Y019011D01*
X020379Y018831D01*
X020516Y018694D01*
X020697Y018619D01*
X020891Y018619D01*
X021072Y018694D01*
X021169Y018791D01*
X021169Y017859D01*
X021165Y017827D01*
X021132Y017771D01*
X021076Y017738D01*
X021044Y017734D01*
X016112Y017734D01*
X016209Y017831D01*
X016250Y017929D01*
X017637Y017929D01*
X017673Y017892D01*
X018206Y017892D01*
X018276Y017962D01*
X018276Y018455D01*
X018224Y018508D01*
X018224Y018674D01*
X018364Y018534D01*
X018364Y018508D01*
X018312Y018455D01*
X018312Y017962D01*
X018382Y017892D01*
X018915Y017892D01*
X018985Y017962D01*
X018985Y018455D01*
X018915Y018526D01*
X018724Y018526D01*
X018724Y018683D01*
X018619Y018789D01*
X018474Y018933D01*
X018474Y023183D01*
X018369Y023289D01*
X018120Y023538D01*
X018120Y023579D01*
X018099Y023600D01*
X018099Y023933D01*
X017994Y024039D01*
X017526Y024506D01*
X017526Y024855D01*
X017456Y024926D01*
X017224Y024926D01*
X017224Y025933D01*
X016244Y026914D01*
X016284Y027011D01*
X016284Y027206D01*
X016209Y027386D01*
X016112Y027484D01*
X020476Y027484D01*
X020421Y027429D02*
X016166Y027429D01*
X016224Y027351D02*
X020364Y027351D01*
X020331Y027272D02*
X016257Y027272D01*
X016284Y027194D02*
X020304Y027194D01*
X020304Y027115D02*
X016284Y027115D01*
X016284Y027037D02*
X020304Y027037D01*
X020326Y026958D02*
X016262Y026958D01*
X016278Y026880D02*
X020310Y026880D01*
X020232Y026801D02*
X016356Y026801D01*
X016435Y026723D02*
X020153Y026723D01*
X020075Y026644D02*
X016513Y026644D01*
X016592Y026566D02*
X019996Y026566D01*
X019918Y026487D02*
X016670Y026487D01*
X016749Y026409D02*
X019839Y026409D01*
X019761Y026330D02*
X016827Y026330D01*
X016906Y026252D02*
X019682Y026252D01*
X019604Y026173D02*
X016984Y026173D01*
X017063Y026095D02*
X019525Y026095D01*
X019447Y026016D02*
X017141Y026016D01*
X017220Y025938D02*
X019368Y025938D01*
X019364Y025859D02*
X017224Y025859D01*
X017224Y025781D02*
X019364Y025781D01*
X019364Y025702D02*
X017224Y025702D01*
X017224Y025624D02*
X019364Y025624D01*
X019364Y025545D02*
X017224Y025545D01*
X017224Y025467D02*
X019364Y025467D01*
X019364Y025388D02*
X017224Y025388D01*
X017224Y025310D02*
X019364Y025310D01*
X019364Y025231D02*
X017224Y025231D01*
X017224Y025153D02*
X019364Y025153D01*
X019364Y025074D02*
X017224Y025074D01*
X017224Y024996D02*
X019364Y024996D01*
X019124Y024917D02*
X017464Y024917D01*
X017526Y024839D02*
X019062Y024839D01*
X019062Y024760D02*
X017526Y024760D01*
X017526Y024682D02*
X019062Y024682D01*
X019062Y024603D02*
X017526Y024603D01*
X017526Y024525D02*
X019062Y024525D01*
X019002Y024446D02*
X017586Y024446D01*
X017665Y024368D02*
X018923Y024368D01*
X018845Y024289D02*
X017743Y024289D01*
X017822Y024211D02*
X018766Y024211D01*
X018688Y024132D02*
X017900Y024132D01*
X017979Y024054D02*
X018614Y024054D01*
X018614Y023975D02*
X018057Y023975D01*
X018099Y023897D02*
X018614Y023897D01*
X018614Y023818D02*
X018099Y023818D01*
X018099Y023740D02*
X018614Y023740D01*
X018614Y023661D02*
X018099Y023661D01*
X018116Y023583D02*
X018614Y023583D01*
X018644Y023504D02*
X018153Y023504D01*
X018232Y023426D02*
X018722Y023426D01*
X018801Y023347D02*
X018310Y023347D01*
X018389Y023269D02*
X019128Y023269D01*
X019128Y023190D02*
X018467Y023190D01*
X018474Y023112D02*
X019137Y023112D01*
X019128Y023033D02*
X018474Y023033D01*
X018474Y022955D02*
X019128Y022955D01*
X019134Y022876D02*
X018474Y022876D01*
X018474Y022798D02*
X019128Y022798D01*
X019128Y022719D02*
X018474Y022719D01*
X018474Y022641D02*
X019128Y022641D01*
X019128Y022562D02*
X018474Y022562D01*
X018474Y022484D02*
X019128Y022484D01*
X019128Y022405D02*
X018474Y022405D01*
X018474Y022327D02*
X019128Y022327D01*
X019128Y022248D02*
X018474Y022248D01*
X018474Y022170D02*
X019128Y022170D01*
X019140Y022091D02*
X018474Y022091D01*
X018474Y022013D02*
X019128Y022013D01*
X019128Y021934D02*
X018474Y021934D01*
X018474Y021856D02*
X019131Y021856D01*
X019128Y021777D02*
X018474Y021777D01*
X018474Y021699D02*
X019128Y021699D01*
X019128Y021620D02*
X018474Y021620D01*
X018474Y021542D02*
X019189Y021542D01*
X019614Y021463D02*
X018474Y021463D01*
X018474Y021385D02*
X019614Y021385D01*
X019614Y021306D02*
X018474Y021306D01*
X018474Y021228D02*
X019614Y021228D01*
X019614Y021149D02*
X018474Y021149D01*
X018474Y021071D02*
X019614Y021071D01*
X019614Y020992D02*
X018474Y020992D01*
X018474Y020914D02*
X019614Y020914D01*
X019614Y020835D02*
X018474Y020835D01*
X018474Y020757D02*
X019614Y020757D01*
X019614Y020678D02*
X018474Y020678D01*
X018474Y020600D02*
X019614Y020600D01*
X019614Y020521D02*
X018474Y020521D01*
X018474Y020443D02*
X019614Y020443D01*
X019614Y020364D02*
X018474Y020364D01*
X018474Y020286D02*
X019614Y020286D01*
X019614Y020207D02*
X018474Y020207D01*
X018474Y020129D02*
X019614Y020129D01*
X019614Y020050D02*
X018474Y020050D01*
X018474Y019972D02*
X019676Y019972D01*
X019755Y019893D02*
X018474Y019893D01*
X018474Y019815D02*
X019833Y019815D01*
X019912Y019736D02*
X018474Y019736D01*
X018474Y019658D02*
X019990Y019658D01*
X020069Y019579D02*
X018474Y019579D01*
X018474Y019501D02*
X020147Y019501D01*
X020226Y019422D02*
X018474Y019422D01*
X018474Y019344D02*
X020304Y019344D01*
X020328Y019265D02*
X018474Y019265D01*
X018474Y019187D02*
X020304Y019187D01*
X020304Y019108D02*
X018474Y019108D01*
X018474Y019030D02*
X020304Y019030D01*
X020329Y018951D02*
X018474Y018951D01*
X018535Y018873D02*
X020361Y018873D01*
X020416Y018794D02*
X018613Y018794D01*
X018692Y018716D02*
X020494Y018716D01*
X020652Y018637D02*
X018724Y018637D01*
X018724Y018559D02*
X021169Y018559D01*
X021169Y018637D02*
X020936Y018637D01*
X021094Y018716D02*
X021169Y018716D01*
X021169Y018480D02*
X018960Y018480D01*
X018985Y018402D02*
X021169Y018402D01*
X021169Y018323D02*
X018985Y018323D01*
X018985Y018245D02*
X021169Y018245D01*
X021169Y018166D02*
X018985Y018166D01*
X018985Y018088D02*
X021169Y018088D01*
X021169Y018009D02*
X018985Y018009D01*
X018953Y017931D02*
X021169Y017931D01*
X021168Y017852D02*
X016218Y017852D01*
X016152Y017774D02*
X021134Y017774D01*
X020476Y017208D02*
X020379Y017111D01*
X020304Y016931D01*
X020304Y016736D01*
X020344Y016638D01*
X019364Y015658D01*
X019364Y014650D01*
X019132Y014650D01*
X019062Y014580D01*
X019062Y014231D01*
X018719Y013888D01*
X018614Y013783D01*
X018614Y013259D01*
X018719Y013153D01*
X018824Y013049D01*
X019128Y013049D01*
X019128Y012863D01*
X019146Y012845D01*
X019128Y012827D01*
X019128Y012607D01*
X019146Y012589D01*
X019128Y012571D01*
X019128Y012352D01*
X019146Y012333D01*
X019128Y012315D01*
X019128Y012096D01*
X019146Y012077D01*
X019128Y012059D01*
X019128Y011840D01*
X019146Y011822D01*
X019128Y011803D01*
X019128Y011584D01*
X019146Y011566D01*
X019128Y011547D01*
X019128Y011328D01*
X019198Y011258D01*
X019614Y011258D01*
X019614Y009759D01*
X020344Y009028D01*
X020304Y008931D01*
X020304Y008736D01*
X020379Y008556D01*
X020516Y008418D01*
X020697Y008343D01*
X020891Y008343D01*
X021072Y008418D01*
X021169Y008515D01*
X021169Y007583D01*
X021165Y007551D01*
X021132Y007495D01*
X021076Y007463D01*
X021044Y007458D01*
X016112Y007458D01*
X016209Y007556D01*
X016250Y007653D01*
X017637Y007653D01*
X017673Y007616D01*
X018206Y007616D01*
X018276Y007687D01*
X018276Y008180D01*
X018224Y008232D01*
X018224Y008399D01*
X018364Y008259D01*
X018364Y008232D01*
X018312Y008180D01*
X018312Y007687D01*
X018382Y007616D01*
X018915Y007616D01*
X018985Y007687D01*
X018985Y008180D01*
X018915Y008250D01*
X018724Y008250D01*
X018724Y008408D01*
X018619Y008513D01*
X018474Y008658D01*
X018474Y012908D01*
X018369Y013013D01*
X018120Y013262D01*
X018120Y013304D01*
X018099Y013324D01*
X018099Y013658D01*
X017994Y013763D01*
X017994Y013763D01*
X017526Y014231D01*
X017526Y014580D01*
X017456Y014650D01*
X017224Y014650D01*
X017224Y015658D01*
X016244Y016638D01*
X016284Y016736D01*
X016284Y016931D01*
X016209Y017111D01*
X016112Y017208D01*
X020476Y017208D01*
X020414Y017146D02*
X016174Y017146D01*
X016227Y017067D02*
X020361Y017067D01*
X020328Y016989D02*
X016260Y016989D01*
X016284Y016910D02*
X020304Y016910D01*
X020304Y016832D02*
X016284Y016832D01*
X016284Y016753D02*
X020304Y016753D01*
X020329Y016675D02*
X016259Y016675D01*
X016286Y016596D02*
X020302Y016596D01*
X020224Y016518D02*
X016364Y016518D01*
X016443Y016439D02*
X020145Y016439D01*
X020067Y016361D02*
X016521Y016361D01*
X016600Y016282D02*
X019988Y016282D01*
X019910Y016204D02*
X016678Y016204D01*
X016757Y016125D02*
X019831Y016125D01*
X019753Y016047D02*
X016835Y016047D01*
X016914Y015968D02*
X019674Y015968D01*
X019596Y015890D02*
X016992Y015890D01*
X017071Y015811D02*
X019517Y015811D01*
X019439Y015733D02*
X017149Y015733D01*
X017224Y015654D02*
X019364Y015654D01*
X019364Y015576D02*
X017224Y015576D01*
X017224Y015497D02*
X019364Y015497D01*
X019364Y015419D02*
X017224Y015419D01*
X017224Y015340D02*
X019364Y015340D01*
X019364Y015262D02*
X017224Y015262D01*
X017224Y015183D02*
X019364Y015183D01*
X019364Y015105D02*
X017224Y015105D01*
X017224Y015026D02*
X019364Y015026D01*
X019364Y014948D02*
X017224Y014948D01*
X017224Y014869D02*
X019364Y014869D01*
X019364Y014791D02*
X017224Y014791D01*
X017224Y014712D02*
X019364Y014712D01*
X019116Y014634D02*
X017472Y014634D01*
X017526Y014555D02*
X019062Y014555D01*
X019062Y014477D02*
X017526Y014477D01*
X017526Y014398D02*
X019062Y014398D01*
X019062Y014320D02*
X017526Y014320D01*
X017526Y014241D02*
X019062Y014241D01*
X018994Y014163D02*
X017594Y014163D01*
X017673Y014084D02*
X018915Y014084D01*
X018837Y014006D02*
X017751Y014006D01*
X017830Y013927D02*
X018758Y013927D01*
X018680Y013849D02*
X017908Y013849D01*
X017987Y013770D02*
X018614Y013770D01*
X018614Y013692D02*
X018065Y013692D01*
X018099Y013613D02*
X018614Y013613D01*
X018614Y013535D02*
X018099Y013535D01*
X018099Y013456D02*
X018614Y013456D01*
X018614Y013378D02*
X018099Y013378D01*
X018120Y013299D02*
X018614Y013299D01*
X018652Y013221D02*
X018161Y013221D01*
X018240Y013142D02*
X018730Y013142D01*
X018719Y013153D02*
X018719Y013153D01*
X018809Y013064D02*
X018318Y013064D01*
X018397Y012985D02*
X019128Y012985D01*
X019128Y012907D02*
X018474Y012907D01*
X018474Y012828D02*
X019129Y012828D01*
X019128Y012750D02*
X018474Y012750D01*
X018474Y012671D02*
X019128Y012671D01*
X019142Y012593D02*
X018474Y012593D01*
X018474Y012514D02*
X019128Y012514D01*
X019128Y012436D02*
X018474Y012436D01*
X018474Y012357D02*
X019128Y012357D01*
X019128Y012279D02*
X018474Y012279D01*
X018474Y012200D02*
X019128Y012200D01*
X019128Y012122D02*
X018474Y012122D01*
X018474Y012043D02*
X019128Y012043D01*
X019128Y011965D02*
X018474Y011965D01*
X018474Y011886D02*
X019128Y011886D01*
X019132Y011808D02*
X018474Y011808D01*
X018474Y011729D02*
X019128Y011729D01*
X019128Y011651D02*
X018474Y011651D01*
X018474Y011572D02*
X019139Y011572D01*
X019128Y011494D02*
X018474Y011494D01*
X018474Y011415D02*
X019128Y011415D01*
X019128Y011337D02*
X018474Y011337D01*
X018474Y011258D02*
X019197Y011258D01*
X019614Y011180D02*
X018474Y011180D01*
X018474Y011101D02*
X019614Y011101D01*
X019614Y011023D02*
X018474Y011023D01*
X018474Y010944D02*
X019614Y010944D01*
X019614Y010866D02*
X018474Y010866D01*
X018474Y010787D02*
X019614Y010787D01*
X019614Y010709D02*
X018474Y010709D01*
X018474Y010630D02*
X019614Y010630D01*
X019614Y010552D02*
X018474Y010552D01*
X018474Y010473D02*
X019614Y010473D01*
X019614Y010395D02*
X018474Y010395D01*
X018474Y010316D02*
X019614Y010316D01*
X019614Y010238D02*
X018474Y010238D01*
X018474Y010159D02*
X019614Y010159D01*
X019614Y010081D02*
X018474Y010081D01*
X018474Y010002D02*
X019614Y010002D01*
X019614Y009924D02*
X018474Y009924D01*
X018474Y009845D02*
X019614Y009845D01*
X019614Y009767D02*
X018474Y009767D01*
X018474Y009688D02*
X019684Y009688D01*
X019763Y009610D02*
X018474Y009610D01*
X018474Y009531D02*
X019841Y009531D01*
X019920Y009453D02*
X018474Y009453D01*
X018474Y009374D02*
X019998Y009374D01*
X020077Y009296D02*
X018474Y009296D01*
X018474Y009217D02*
X020155Y009217D01*
X020234Y009139D02*
X018474Y009139D01*
X018474Y009060D02*
X020312Y009060D01*
X020325Y008982D02*
X018474Y008982D01*
X018474Y008903D02*
X020304Y008903D01*
X020304Y008825D02*
X018474Y008825D01*
X018474Y008746D02*
X020304Y008746D01*
X020332Y008668D02*
X018474Y008668D01*
X018543Y008589D02*
X020365Y008589D01*
X020424Y008511D02*
X018621Y008511D01*
X018700Y008432D02*
X020502Y008432D01*
X020671Y008354D02*
X018724Y008354D01*
X018724Y008275D02*
X021169Y008275D01*
X021169Y008197D02*
X018968Y008197D01*
X018985Y008118D02*
X021169Y008118D01*
X021169Y008040D02*
X018985Y008040D01*
X018985Y007961D02*
X021169Y007961D01*
X021169Y007883D02*
X018985Y007883D01*
X018985Y007804D02*
X021169Y007804D01*
X021169Y007726D02*
X018985Y007726D01*
X018945Y007647D02*
X021169Y007647D01*
X021167Y007569D02*
X016215Y007569D01*
X016247Y007647D02*
X017643Y007647D01*
X018237Y007647D02*
X018351Y007647D01*
X018312Y007726D02*
X018276Y007726D01*
X018276Y007804D02*
X018312Y007804D01*
X018312Y007883D02*
X018276Y007883D01*
X018276Y007961D02*
X018312Y007961D01*
X018312Y008040D02*
X018276Y008040D01*
X018276Y008118D02*
X018312Y008118D01*
X018329Y008197D02*
X018259Y008197D01*
X018224Y008275D02*
X018347Y008275D01*
X018269Y008354D02*
X018224Y008354D01*
X016144Y007490D02*
X021124Y007490D01*
X021169Y008354D02*
X020917Y008354D01*
X021086Y008432D02*
X021169Y008432D01*
X021164Y008511D02*
X021169Y008511D01*
X014893Y008511D02*
X014889Y008511D01*
X014893Y008515D02*
X014893Y007583D01*
X014889Y007551D01*
X014857Y007495D01*
X014801Y007463D01*
X014768Y007458D01*
X009836Y007458D01*
X009934Y007556D01*
X009974Y007653D01*
X011361Y007653D01*
X011398Y007616D01*
X011930Y007616D01*
X012001Y007687D01*
X012001Y008180D01*
X011948Y008232D01*
X011948Y008399D01*
X012088Y008259D01*
X012088Y008232D01*
X012036Y008180D01*
X012036Y007687D01*
X012106Y007616D01*
X012639Y007616D01*
X012709Y007687D01*
X012709Y008180D01*
X012639Y008250D01*
X012448Y008250D01*
X012448Y008408D01*
X012198Y008658D01*
X012198Y012908D01*
X012093Y013013D01*
X011844Y013262D01*
X011844Y013304D01*
X011823Y013324D01*
X011823Y013658D01*
X011718Y013763D01*
X011251Y014231D01*
X011251Y014580D01*
X011180Y014650D01*
X010948Y014650D01*
X010948Y015658D01*
X009968Y016638D01*
X010008Y016736D01*
X010008Y016931D01*
X009934Y017111D01*
X009836Y017208D01*
X014200Y017208D01*
X014103Y017111D01*
X014028Y016931D01*
X014028Y016736D01*
X014069Y016638D01*
X013088Y015658D01*
X013088Y014650D01*
X012856Y014650D01*
X012786Y014580D01*
X012786Y014231D01*
X012444Y013888D01*
X012338Y013783D01*
X012338Y013259D01*
X012444Y013153D01*
X012548Y013049D01*
X012852Y013049D01*
X012852Y012863D01*
X012870Y012845D01*
X012852Y012827D01*
X012852Y012607D01*
X012870Y012589D01*
X012852Y012571D01*
X012852Y012352D01*
X012870Y012333D01*
X012852Y012315D01*
X012852Y012096D01*
X012870Y012077D01*
X012852Y012059D01*
X012852Y011840D01*
X012870Y011822D01*
X012852Y011803D01*
X012852Y011584D01*
X012870Y011566D01*
X012852Y011547D01*
X012852Y011328D01*
X012922Y011258D01*
X012198Y011258D01*
X012198Y011180D02*
X013338Y011180D01*
X013338Y011258D02*
X013338Y009759D01*
X014069Y009028D01*
X014028Y008931D01*
X014028Y008736D01*
X014103Y008556D01*
X014241Y008418D01*
X014421Y008343D01*
X014616Y008343D01*
X014796Y008418D01*
X014893Y008515D01*
X014893Y008432D02*
X014810Y008432D01*
X014893Y008354D02*
X014641Y008354D01*
X014396Y008354D02*
X012448Y008354D01*
X012448Y008275D02*
X014893Y008275D01*
X014893Y008197D02*
X012692Y008197D01*
X012709Y008118D02*
X014893Y008118D01*
X014893Y008040D02*
X012709Y008040D01*
X012709Y007961D02*
X014893Y007961D01*
X014893Y007883D02*
X012709Y007883D01*
X012709Y007804D02*
X014893Y007804D01*
X014893Y007726D02*
X012709Y007726D01*
X012670Y007647D02*
X014893Y007647D01*
X014891Y007569D02*
X009939Y007569D01*
X009972Y007647D02*
X011367Y007647D01*
X011961Y007647D02*
X012076Y007647D01*
X012036Y007726D02*
X012001Y007726D01*
X012001Y007804D02*
X012036Y007804D01*
X012036Y007883D02*
X012001Y007883D01*
X012001Y007961D02*
X012036Y007961D01*
X012036Y008040D02*
X012001Y008040D01*
X012001Y008118D02*
X012036Y008118D01*
X012053Y008197D02*
X011984Y008197D01*
X011948Y008275D02*
X012072Y008275D01*
X011993Y008354D02*
X011948Y008354D01*
X012267Y008589D02*
X014089Y008589D01*
X014057Y008668D02*
X012198Y008668D01*
X012198Y008746D02*
X014028Y008746D01*
X014028Y008825D02*
X012198Y008825D01*
X012198Y008903D02*
X014028Y008903D01*
X014050Y008982D02*
X012198Y008982D01*
X012198Y009060D02*
X014037Y009060D01*
X013958Y009139D02*
X012198Y009139D01*
X012198Y009217D02*
X013880Y009217D01*
X013801Y009296D02*
X012198Y009296D01*
X012198Y009374D02*
X013723Y009374D01*
X013644Y009453D02*
X012198Y009453D01*
X012198Y009531D02*
X013566Y009531D01*
X013487Y009610D02*
X012198Y009610D01*
X012198Y009688D02*
X013409Y009688D01*
X013338Y009767D02*
X012198Y009767D01*
X012198Y009845D02*
X013338Y009845D01*
X013338Y009924D02*
X012198Y009924D01*
X012198Y010002D02*
X013338Y010002D01*
X013338Y010081D02*
X012198Y010081D01*
X012198Y010159D02*
X013338Y010159D01*
X013338Y010238D02*
X012198Y010238D01*
X012198Y010316D02*
X013338Y010316D01*
X013338Y010395D02*
X012198Y010395D01*
X012198Y010473D02*
X013338Y010473D01*
X013338Y010552D02*
X012198Y010552D01*
X012198Y010630D02*
X013338Y010630D01*
X013338Y010709D02*
X012198Y010709D01*
X012198Y010787D02*
X013338Y010787D01*
X013338Y010866D02*
X012198Y010866D01*
X012198Y010944D02*
X013338Y010944D01*
X013338Y011023D02*
X012198Y011023D01*
X012198Y011101D02*
X013338Y011101D01*
X013338Y011258D02*
X012922Y011258D01*
X012852Y011337D02*
X012198Y011337D01*
X012198Y011415D02*
X012852Y011415D01*
X012852Y011494D02*
X012198Y011494D01*
X012198Y011572D02*
X012864Y011572D01*
X012852Y011651D02*
X012198Y011651D01*
X012198Y011729D02*
X012852Y011729D01*
X012857Y011808D02*
X012198Y011808D01*
X012198Y011886D02*
X012852Y011886D01*
X012852Y011965D02*
X012198Y011965D01*
X012198Y012043D02*
X012852Y012043D01*
X012852Y012122D02*
X012198Y012122D01*
X012198Y012200D02*
X012852Y012200D01*
X012852Y012279D02*
X012198Y012279D01*
X012198Y012357D02*
X012852Y012357D01*
X012852Y012436D02*
X012198Y012436D01*
X012198Y012514D02*
X012852Y012514D01*
X012867Y012593D02*
X012198Y012593D01*
X012198Y012671D02*
X012852Y012671D01*
X012852Y012750D02*
X012198Y012750D01*
X012198Y012828D02*
X012854Y012828D01*
X012852Y012907D02*
X012198Y012907D01*
X012121Y012985D02*
X012852Y012985D01*
X012533Y013064D02*
X012042Y013064D01*
X011964Y013142D02*
X012455Y013142D01*
X012376Y013221D02*
X011885Y013221D01*
X011844Y013299D02*
X012338Y013299D01*
X012338Y013378D02*
X011823Y013378D01*
X011823Y013456D02*
X012338Y013456D01*
X012338Y013535D02*
X011823Y013535D01*
X011823Y013613D02*
X012338Y013613D01*
X012338Y013692D02*
X011789Y013692D01*
X011711Y013770D02*
X012338Y013770D01*
X012404Y013849D02*
X011632Y013849D01*
X011554Y013927D02*
X012483Y013927D01*
X012561Y014006D02*
X011475Y014006D01*
X011397Y014084D02*
X012640Y014084D01*
X012718Y014163D02*
X011318Y014163D01*
X011251Y014241D02*
X012786Y014241D01*
X012786Y014320D02*
X011251Y014320D01*
X011251Y014398D02*
X012786Y014398D01*
X012786Y014477D02*
X011251Y014477D01*
X011251Y014555D02*
X012786Y014555D01*
X012840Y014634D02*
X011197Y014634D01*
X010948Y014712D02*
X013088Y014712D01*
X013088Y014791D02*
X010948Y014791D01*
X010948Y014869D02*
X013088Y014869D01*
X013088Y014948D02*
X010948Y014948D01*
X010948Y015026D02*
X013088Y015026D01*
X013088Y015105D02*
X010948Y015105D01*
X010948Y015183D02*
X013088Y015183D01*
X013088Y015262D02*
X010948Y015262D01*
X010948Y015340D02*
X013088Y015340D01*
X013088Y015419D02*
X010948Y015419D01*
X010948Y015497D02*
X013088Y015497D01*
X013088Y015576D02*
X010948Y015576D01*
X010948Y015654D02*
X013088Y015654D01*
X013163Y015733D02*
X010873Y015733D01*
X010795Y015811D02*
X013242Y015811D01*
X013320Y015890D02*
X010716Y015890D01*
X010638Y015968D02*
X013399Y015968D01*
X013477Y016047D02*
X010559Y016047D01*
X010481Y016125D02*
X013556Y016125D01*
X013634Y016204D02*
X010402Y016204D01*
X010324Y016282D02*
X013713Y016282D01*
X013791Y016361D02*
X010245Y016361D01*
X010167Y016439D02*
X013870Y016439D01*
X013948Y016518D02*
X010088Y016518D01*
X010010Y016596D02*
X014027Y016596D01*
X014054Y016675D02*
X009983Y016675D01*
X010008Y016753D02*
X014028Y016753D01*
X014028Y016832D02*
X010008Y016832D01*
X010008Y016910D02*
X014028Y016910D01*
X014052Y016989D02*
X009984Y016989D01*
X009952Y017067D02*
X014085Y017067D01*
X014138Y017146D02*
X009899Y017146D01*
X009836Y017734D02*
X009934Y017831D01*
X009974Y017929D01*
X011361Y017929D01*
X011398Y017892D01*
X011930Y017892D01*
X012001Y017962D01*
X012001Y018455D01*
X011948Y018508D01*
X011948Y018674D01*
X012088Y018534D01*
X012088Y018508D01*
X012036Y018455D01*
X012036Y017962D01*
X012106Y017892D01*
X012639Y017892D01*
X012709Y017962D01*
X012709Y018455D01*
X012639Y018526D01*
X012448Y018526D01*
X012448Y018683D01*
X012343Y018789D01*
X012198Y018933D01*
X012198Y023183D01*
X012093Y023289D01*
X011844Y023538D01*
X011844Y023579D01*
X011823Y023600D01*
X011823Y023933D01*
X011718Y024039D01*
X011251Y024506D01*
X011251Y024855D01*
X011180Y024926D01*
X010948Y024926D01*
X010948Y025933D01*
X009968Y026914D01*
X010008Y027011D01*
X010008Y027206D01*
X009934Y027386D01*
X009836Y027484D01*
X014200Y027484D01*
X014103Y027386D01*
X014028Y027206D01*
X014028Y027011D01*
X014069Y026914D01*
X013088Y025933D01*
X013088Y024926D01*
X012856Y024926D01*
X012786Y024855D01*
X012786Y024506D01*
X012444Y024164D01*
X012338Y024058D01*
X012338Y023534D01*
X012444Y023429D01*
X012548Y023325D01*
X012852Y023325D01*
X012852Y023139D01*
X012870Y023121D01*
X012852Y023102D01*
X012852Y022883D01*
X012870Y022865D01*
X012852Y022847D01*
X012852Y022627D01*
X012870Y022609D01*
X012852Y022591D01*
X012852Y022371D01*
X012870Y022353D01*
X012852Y022335D01*
X012852Y022115D01*
X012870Y022097D01*
X012852Y022079D01*
X012852Y021859D01*
X012870Y021841D01*
X012852Y021823D01*
X012852Y021604D01*
X012922Y021533D01*
X013338Y021533D01*
X013338Y020034D01*
X014069Y019304D01*
X014028Y019206D01*
X014028Y019011D01*
X014103Y018831D01*
X014241Y018694D01*
X014421Y018619D01*
X014616Y018619D01*
X014796Y018694D01*
X014893Y018791D01*
X014893Y017859D01*
X014889Y017827D01*
X014857Y017771D01*
X014801Y017738D01*
X014768Y017734D01*
X009836Y017734D01*
X009876Y017774D02*
X014859Y017774D01*
X014893Y017852D02*
X009942Y017852D01*
X008618Y017859D02*
X008614Y017827D01*
X008581Y017771D01*
X008525Y017738D01*
X008493Y017734D01*
X003561Y017734D01*
X003658Y017831D01*
X003699Y017929D01*
X005085Y017929D01*
X005122Y017892D01*
X005655Y017892D01*
X005725Y017962D01*
X005725Y018455D01*
X005673Y018508D01*
X005673Y018674D01*
X005813Y018534D01*
X005813Y018508D01*
X005761Y018455D01*
X005761Y017962D01*
X005831Y017892D01*
X006363Y017892D01*
X006434Y017962D01*
X006434Y018455D01*
X006363Y018526D01*
X006173Y018526D01*
X006173Y018683D01*
X006067Y018789D01*
X005923Y018933D01*
X005923Y023183D01*
X005817Y023289D01*
X005568Y023538D01*
X005568Y023579D01*
X005548Y023600D01*
X005548Y023933D01*
X005442Y024039D01*
X004975Y024506D01*
X004975Y024855D01*
X004905Y024926D01*
X004673Y024926D01*
X004673Y025933D01*
X003692Y026914D01*
X003733Y027011D01*
X003733Y027206D01*
X003658Y027386D01*
X003561Y027484D01*
X007925Y027484D01*
X007827Y027386D01*
X007753Y027206D01*
X007753Y027011D01*
X007793Y026914D01*
X006813Y025933D01*
X006813Y024926D01*
X006581Y024926D01*
X006511Y024855D01*
X006511Y024506D01*
X006168Y024164D01*
X006063Y024058D01*
X006063Y023534D01*
X006273Y023325D01*
X006577Y023325D01*
X006577Y023139D01*
X006595Y023121D01*
X006577Y023102D01*
X006577Y022883D01*
X006595Y022865D01*
X006577Y022847D01*
X006577Y022627D01*
X006595Y022609D01*
X006577Y022591D01*
X006577Y022371D01*
X006595Y022353D01*
X006577Y022335D01*
X006577Y022115D01*
X006595Y022097D01*
X006577Y022079D01*
X006577Y021859D01*
X006595Y021841D01*
X006577Y021823D01*
X006577Y021604D01*
X006647Y021533D01*
X007063Y021533D01*
X007063Y020034D01*
X007793Y019304D01*
X007753Y019206D01*
X007753Y019011D01*
X007827Y018831D01*
X007965Y018694D01*
X008145Y018619D01*
X008340Y018619D01*
X008520Y018694D01*
X008618Y018791D01*
X008618Y017859D01*
X008617Y017852D02*
X003667Y017852D01*
X003601Y017774D02*
X008583Y017774D01*
X008618Y017931D02*
X006402Y017931D01*
X006434Y018009D02*
X008618Y018009D01*
X008618Y018088D02*
X006434Y018088D01*
X006434Y018166D02*
X008618Y018166D01*
X008618Y018245D02*
X006434Y018245D01*
X006434Y018323D02*
X008618Y018323D01*
X008618Y018402D02*
X006434Y018402D01*
X006409Y018480D02*
X008618Y018480D01*
X008618Y018559D02*
X006173Y018559D01*
X006173Y018637D02*
X008101Y018637D01*
X007943Y018716D02*
X006140Y018716D01*
X006062Y018794D02*
X007864Y018794D01*
X007810Y018873D02*
X005983Y018873D01*
X005923Y018951D02*
X007778Y018951D01*
X007753Y019030D02*
X005923Y019030D01*
X005923Y019108D02*
X007753Y019108D01*
X007753Y019187D02*
X005923Y019187D01*
X005923Y019265D02*
X007777Y019265D01*
X007753Y019344D02*
X005923Y019344D01*
X005923Y019422D02*
X007675Y019422D01*
X007596Y019501D02*
X005923Y019501D01*
X005923Y019579D02*
X007518Y019579D01*
X007439Y019658D02*
X005923Y019658D01*
X005923Y019736D02*
X007361Y019736D01*
X007282Y019815D02*
X005923Y019815D01*
X005923Y019893D02*
X007204Y019893D01*
X007125Y019972D02*
X005923Y019972D01*
X005923Y020050D02*
X007063Y020050D01*
X007063Y020129D02*
X005923Y020129D01*
X005923Y020207D02*
X007063Y020207D01*
X007063Y020286D02*
X005923Y020286D01*
X005923Y020364D02*
X007063Y020364D01*
X007063Y020443D02*
X005923Y020443D01*
X005923Y020521D02*
X007063Y020521D01*
X007063Y020600D02*
X005923Y020600D01*
X005923Y020678D02*
X007063Y020678D01*
X007063Y020757D02*
X005923Y020757D01*
X005923Y020835D02*
X007063Y020835D01*
X007063Y020914D02*
X005923Y020914D01*
X005923Y020992D02*
X007063Y020992D01*
X007063Y021071D02*
X005923Y021071D01*
X005923Y021149D02*
X007063Y021149D01*
X007063Y021228D02*
X005923Y021228D01*
X005923Y021306D02*
X007063Y021306D01*
X007063Y021385D02*
X005923Y021385D01*
X005923Y021463D02*
X007063Y021463D01*
X006638Y021542D02*
X005923Y021542D01*
X005923Y021620D02*
X006577Y021620D01*
X006577Y021699D02*
X005923Y021699D01*
X005923Y021777D02*
X006577Y021777D01*
X006580Y021856D02*
X005923Y021856D01*
X005923Y021934D02*
X006577Y021934D01*
X006577Y022013D02*
X005923Y022013D01*
X005923Y022091D02*
X006589Y022091D01*
X006577Y022170D02*
X005923Y022170D01*
X005923Y022248D02*
X006577Y022248D01*
X006577Y022327D02*
X005923Y022327D01*
X005923Y022405D02*
X006577Y022405D01*
X006577Y022484D02*
X005923Y022484D01*
X005923Y022562D02*
X006577Y022562D01*
X006577Y022641D02*
X005923Y022641D01*
X005923Y022719D02*
X006577Y022719D01*
X006577Y022798D02*
X005923Y022798D01*
X005923Y022876D02*
X006583Y022876D01*
X006577Y022955D02*
X005923Y022955D01*
X005923Y023033D02*
X006577Y023033D01*
X006586Y023112D02*
X005923Y023112D01*
X005916Y023190D02*
X006577Y023190D01*
X006577Y023269D02*
X005837Y023269D01*
X005759Y023347D02*
X006250Y023347D01*
X006171Y023426D02*
X005680Y023426D01*
X005602Y023504D02*
X006093Y023504D01*
X006063Y023583D02*
X005565Y023583D01*
X005548Y023661D02*
X006063Y023661D01*
X006063Y023740D02*
X005548Y023740D01*
X005548Y023818D02*
X006063Y023818D01*
X006063Y023897D02*
X005548Y023897D01*
X005506Y023975D02*
X006063Y023975D01*
X006063Y024054D02*
X005427Y024054D01*
X005349Y024132D02*
X006137Y024132D01*
X006168Y024164D02*
X006168Y024164D01*
X006215Y024211D02*
X005270Y024211D01*
X005192Y024289D02*
X006294Y024289D01*
X006372Y024368D02*
X005113Y024368D01*
X005035Y024446D02*
X006451Y024446D01*
X006511Y024525D02*
X004975Y024525D01*
X004975Y024603D02*
X006511Y024603D01*
X006511Y024682D02*
X004975Y024682D01*
X004975Y024760D02*
X006511Y024760D01*
X006511Y024839D02*
X004975Y024839D01*
X004913Y024917D02*
X006573Y024917D01*
X006813Y024996D02*
X004673Y024996D01*
X004673Y025074D02*
X006813Y025074D01*
X006813Y025153D02*
X004673Y025153D01*
X004673Y025231D02*
X006813Y025231D01*
X006813Y025310D02*
X004673Y025310D01*
X004673Y025388D02*
X006813Y025388D01*
X006813Y025467D02*
X004673Y025467D01*
X004673Y025545D02*
X006813Y025545D01*
X006813Y025624D02*
X004673Y025624D01*
X004673Y025702D02*
X006813Y025702D01*
X006813Y025781D02*
X004673Y025781D01*
X004673Y025859D02*
X006813Y025859D01*
X006817Y025938D02*
X004668Y025938D01*
X004590Y026016D02*
X006896Y026016D01*
X006974Y026095D02*
X004511Y026095D01*
X004433Y026173D02*
X007053Y026173D01*
X007131Y026252D02*
X004354Y026252D01*
X004276Y026330D02*
X007210Y026330D01*
X007288Y026409D02*
X004197Y026409D01*
X004119Y026487D02*
X007367Y026487D01*
X007445Y026566D02*
X004040Y026566D01*
X003962Y026644D02*
X007524Y026644D01*
X007602Y026723D02*
X003883Y026723D01*
X003805Y026801D02*
X007681Y026801D01*
X007759Y026880D02*
X003726Y026880D01*
X003711Y026958D02*
X007775Y026958D01*
X007753Y027037D02*
X003733Y027037D01*
X003733Y027115D02*
X007753Y027115D01*
X007753Y027194D02*
X003733Y027194D01*
X003705Y027272D02*
X007780Y027272D01*
X007813Y027351D02*
X003673Y027351D01*
X003615Y027429D02*
X007870Y027429D01*
X008493Y028010D02*
X003561Y028010D01*
X003658Y028107D01*
X003699Y028205D01*
X005085Y028205D01*
X005122Y028168D01*
X005655Y028168D01*
X005725Y028238D01*
X005725Y028731D01*
X005673Y028783D01*
X005673Y028950D01*
X005813Y028810D01*
X005813Y028783D01*
X005761Y028731D01*
X005761Y028238D01*
X005831Y028168D01*
X006363Y028168D01*
X006434Y028238D01*
X006434Y028731D01*
X006363Y028801D01*
X006173Y028801D01*
X006173Y028959D01*
X006067Y029065D01*
X005923Y029209D01*
X005923Y033459D01*
X005817Y033565D01*
X005568Y033813D01*
X005568Y033855D01*
X005548Y033875D01*
X005548Y034209D01*
X005442Y034315D01*
X004975Y034782D01*
X004975Y035131D01*
X004905Y035201D01*
X006580Y035201D01*
X006581Y035201D02*
X006511Y035131D01*
X006511Y034782D01*
X006168Y034440D01*
X006063Y034334D01*
X006063Y033810D01*
X006168Y033705D01*
X006273Y033600D01*
X006577Y033600D01*
X006577Y033415D01*
X006595Y033396D01*
X006577Y033378D01*
X006577Y033159D01*
X006595Y033140D01*
X006577Y033122D01*
X006577Y032903D01*
X006595Y032885D01*
X006577Y032866D01*
X006577Y032647D01*
X006595Y032629D01*
X006577Y032610D01*
X005923Y032610D01*
X005923Y032532D02*
X006577Y032532D01*
X006577Y032610D02*
X006577Y032391D01*
X006595Y032373D01*
X006577Y032354D01*
X006577Y032135D01*
X006595Y032117D01*
X006577Y032099D01*
X006577Y031879D01*
X006647Y031809D01*
X007063Y031809D01*
X007063Y030310D01*
X007793Y029580D01*
X007753Y029482D01*
X007753Y029287D01*
X007827Y029107D01*
X007965Y028969D01*
X008145Y028895D01*
X008340Y028895D01*
X008520Y028969D01*
X008618Y029067D01*
X008618Y028135D01*
X008614Y028102D01*
X008581Y028046D01*
X008525Y028014D01*
X008493Y028010D01*
X008588Y028057D02*
X003609Y028057D01*
X003670Y028136D02*
X008618Y028136D01*
X008618Y028214D02*
X006410Y028214D01*
X006434Y028293D02*
X008618Y028293D01*
X008618Y028371D02*
X006434Y028371D01*
X006434Y028450D02*
X008618Y028450D01*
X008618Y028528D02*
X006434Y028528D01*
X006434Y028607D02*
X008618Y028607D01*
X008618Y028685D02*
X006434Y028685D01*
X006401Y028764D02*
X008618Y028764D01*
X008618Y028842D02*
X006173Y028842D01*
X006173Y028921D02*
X008082Y028921D01*
X007935Y028999D02*
X006132Y028999D01*
X006054Y029078D02*
X007856Y029078D01*
X007807Y029156D02*
X005975Y029156D01*
X005923Y029235D02*
X007774Y029235D01*
X007753Y029313D02*
X005923Y029313D01*
X005923Y029392D02*
X007753Y029392D01*
X007753Y029470D02*
X005923Y029470D01*
X005923Y029549D02*
X007781Y029549D01*
X007745Y029627D02*
X005923Y029627D01*
X005923Y029706D02*
X007667Y029706D01*
X007588Y029784D02*
X005923Y029784D01*
X005923Y029863D02*
X007510Y029863D01*
X007431Y029941D02*
X005923Y029941D01*
X005923Y030020D02*
X007353Y030020D01*
X007274Y030098D02*
X005923Y030098D01*
X005923Y030177D02*
X007196Y030177D01*
X007117Y030255D02*
X005923Y030255D01*
X005923Y030334D02*
X007063Y030334D01*
X007063Y030412D02*
X005923Y030412D01*
X005923Y030491D02*
X007063Y030491D01*
X007063Y030569D02*
X005923Y030569D01*
X005923Y030648D02*
X007063Y030648D01*
X007063Y030726D02*
X005923Y030726D01*
X005923Y030805D02*
X007063Y030805D01*
X007063Y030883D02*
X005923Y030883D01*
X005923Y030962D02*
X007063Y030962D01*
X007063Y031040D02*
X005923Y031040D01*
X005923Y031119D02*
X007063Y031119D01*
X007063Y031197D02*
X005923Y031197D01*
X005923Y031276D02*
X007063Y031276D01*
X007063Y031354D02*
X005923Y031354D01*
X005923Y031433D02*
X007063Y031433D01*
X007063Y031511D02*
X005923Y031511D01*
X005923Y031590D02*
X007063Y031590D01*
X007063Y031668D02*
X005923Y031668D01*
X005923Y031747D02*
X007063Y031747D01*
X006630Y031825D02*
X005923Y031825D01*
X005923Y031904D02*
X006577Y031904D01*
X006577Y031982D02*
X005923Y031982D01*
X005923Y032061D02*
X006577Y032061D01*
X006577Y032139D02*
X005923Y032139D01*
X005923Y032218D02*
X006577Y032218D01*
X006577Y032296D02*
X005923Y032296D01*
X005923Y032375D02*
X006593Y032375D01*
X006577Y032453D02*
X005923Y032453D01*
X005923Y032689D02*
X006577Y032689D01*
X006577Y032767D02*
X005923Y032767D01*
X005923Y032846D02*
X006577Y032846D01*
X006577Y032924D02*
X005923Y032924D01*
X005923Y033003D02*
X006577Y033003D01*
X006577Y033081D02*
X005923Y033081D01*
X005923Y033160D02*
X006577Y033160D01*
X006577Y033238D02*
X005923Y033238D01*
X005923Y033317D02*
X006577Y033317D01*
X006594Y033395D02*
X005923Y033395D01*
X005908Y033474D02*
X006577Y033474D01*
X006577Y033552D02*
X005829Y033552D01*
X005751Y033631D02*
X006242Y033631D01*
X006163Y033709D02*
X005672Y033709D01*
X005594Y033788D02*
X006085Y033788D01*
X006063Y033866D02*
X005557Y033866D01*
X005548Y033945D02*
X006063Y033945D01*
X006063Y034023D02*
X005548Y034023D01*
X005548Y034102D02*
X006063Y034102D01*
X006063Y034180D02*
X005548Y034180D01*
X005498Y034259D02*
X006063Y034259D01*
X006066Y034337D02*
X005419Y034337D01*
X005341Y034416D02*
X006145Y034416D01*
X006223Y034494D02*
X005262Y034494D01*
X005184Y034573D02*
X006302Y034573D01*
X006380Y034651D02*
X005105Y034651D01*
X005027Y034730D02*
X006459Y034730D01*
X006511Y034808D02*
X004975Y034808D01*
X004975Y034887D02*
X006511Y034887D01*
X006511Y034965D02*
X004975Y034965D01*
X004975Y035044D02*
X006511Y035044D01*
X006511Y035122D02*
X004975Y035122D01*
X004905Y035201D02*
X004673Y035201D01*
X004673Y036209D01*
X003692Y037189D01*
X003733Y037287D01*
X003733Y037482D01*
X003658Y037662D01*
X003561Y037760D01*
X007925Y037760D01*
X007827Y037662D01*
X007753Y037482D01*
X007753Y037287D01*
X007793Y037189D01*
X006813Y036209D01*
X006813Y035201D01*
X006581Y035201D01*
X006813Y035279D02*
X004673Y035279D01*
X004673Y035358D02*
X006813Y035358D01*
X006813Y035436D02*
X004673Y035436D01*
X004673Y035515D02*
X006813Y035515D01*
X006813Y035593D02*
X004673Y035593D01*
X004673Y035672D02*
X006813Y035672D01*
X006813Y035750D02*
X004673Y035750D01*
X004673Y035829D02*
X006813Y035829D01*
X006813Y035907D02*
X004673Y035907D01*
X004673Y035986D02*
X006813Y035986D01*
X006813Y036064D02*
X004673Y036064D01*
X004673Y036143D02*
X006813Y036143D01*
X006825Y036221D02*
X004660Y036221D01*
X004582Y036300D02*
X006904Y036300D01*
X006982Y036378D02*
X004503Y036378D01*
X004425Y036457D02*
X007061Y036457D01*
X007139Y036535D02*
X004346Y036535D01*
X004268Y036614D02*
X007218Y036614D01*
X007296Y036692D02*
X004189Y036692D01*
X004111Y036771D02*
X007375Y036771D01*
X007453Y036849D02*
X004032Y036849D01*
X003954Y036928D02*
X007532Y036928D01*
X007610Y037006D02*
X003875Y037006D01*
X003797Y037085D02*
X007689Y037085D01*
X007767Y037163D02*
X003718Y037163D01*
X003714Y037242D02*
X007771Y037242D01*
X007753Y037320D02*
X003733Y037320D01*
X003733Y037399D02*
X007753Y037399D01*
X007753Y037477D02*
X003733Y037477D01*
X003702Y037556D02*
X007783Y037556D01*
X007816Y037634D02*
X003670Y037634D01*
X003607Y037713D02*
X007878Y037713D01*
X009836Y037760D02*
X014200Y037760D01*
X014103Y037662D01*
X014028Y037482D01*
X014028Y037287D01*
X014069Y037189D01*
X013088Y036209D01*
X013088Y035201D01*
X012856Y035201D01*
X011181Y035201D01*
X011180Y035201D02*
X010948Y035201D01*
X010948Y036209D01*
X009968Y037189D01*
X010008Y037287D01*
X010008Y037482D01*
X009934Y037662D01*
X009836Y037760D01*
X009883Y037713D02*
X014154Y037713D01*
X014092Y037634D02*
X009945Y037634D01*
X009978Y037556D02*
X014059Y037556D01*
X014028Y037477D02*
X010008Y037477D01*
X010008Y037399D02*
X014028Y037399D01*
X014028Y037320D02*
X010008Y037320D01*
X009990Y037242D02*
X014047Y037242D01*
X014043Y037163D02*
X009994Y037163D01*
X010073Y037085D02*
X013964Y037085D01*
X013886Y037006D02*
X010151Y037006D01*
X010230Y036928D02*
X013807Y036928D01*
X013729Y036849D02*
X010308Y036849D01*
X010387Y036771D02*
X013650Y036771D01*
X013572Y036692D02*
X010465Y036692D01*
X010544Y036614D02*
X013493Y036614D01*
X013415Y036535D02*
X010622Y036535D01*
X010701Y036457D02*
X013336Y036457D01*
X013258Y036378D02*
X010779Y036378D01*
X010858Y036300D02*
X013179Y036300D01*
X013101Y036221D02*
X010936Y036221D01*
X010948Y036143D02*
X013088Y036143D01*
X013088Y036064D02*
X010948Y036064D01*
X010948Y035986D02*
X013088Y035986D01*
X013088Y035907D02*
X010948Y035907D01*
X010948Y035829D02*
X013088Y035829D01*
X013088Y035750D02*
X010948Y035750D01*
X010948Y035672D02*
X013088Y035672D01*
X013088Y035593D02*
X010948Y035593D01*
X010948Y035515D02*
X013088Y035515D01*
X013088Y035436D02*
X010948Y035436D01*
X010948Y035358D02*
X013088Y035358D01*
X013088Y035279D02*
X010948Y035279D01*
X011180Y035201D02*
X011251Y035131D01*
X011251Y034782D01*
X011718Y034315D01*
X011823Y034209D01*
X011823Y033875D01*
X011844Y033855D01*
X011844Y033813D01*
X012093Y033565D01*
X012198Y033459D01*
X012198Y029209D01*
X012343Y029065D01*
X012448Y028959D01*
X012448Y028801D01*
X012639Y028801D01*
X012709Y028731D01*
X012709Y028238D01*
X012639Y028168D01*
X012106Y028168D01*
X012036Y028238D01*
X012036Y028731D01*
X012088Y028783D01*
X012088Y028810D01*
X011948Y028950D01*
X011948Y028783D01*
X012001Y028731D01*
X012001Y028238D01*
X011930Y028168D01*
X011398Y028168D01*
X011361Y028205D01*
X009974Y028205D01*
X009934Y028107D01*
X009836Y028010D01*
X014768Y028010D01*
X014801Y028014D01*
X014857Y028046D01*
X014889Y028102D01*
X014893Y028135D01*
X014893Y029067D01*
X014796Y028969D01*
X014616Y028895D01*
X014421Y028895D01*
X014241Y028969D01*
X014103Y029107D01*
X014028Y029287D01*
X014028Y029482D01*
X014069Y029580D01*
X013338Y030310D01*
X013338Y031809D01*
X012922Y031809D01*
X012852Y031879D01*
X012852Y032099D01*
X012870Y032117D01*
X012852Y032135D01*
X012852Y032354D01*
X012870Y032373D01*
X012852Y032391D01*
X012852Y032610D01*
X012870Y032629D01*
X012852Y032647D01*
X012852Y032866D01*
X012870Y032885D01*
X012852Y032903D01*
X012852Y033122D01*
X012870Y033140D01*
X012852Y033159D01*
X012852Y033378D01*
X012870Y033396D01*
X012852Y033415D01*
X012852Y033600D01*
X012548Y033600D01*
X012444Y033705D01*
X012338Y033810D01*
X012338Y034334D01*
X012444Y034440D01*
X012786Y034782D01*
X012786Y035131D01*
X012856Y035201D01*
X012786Y035122D02*
X011251Y035122D01*
X011251Y035044D02*
X012786Y035044D01*
X012786Y034965D02*
X011251Y034965D01*
X011251Y034887D02*
X012786Y034887D01*
X012786Y034808D02*
X011251Y034808D01*
X011303Y034730D02*
X012734Y034730D01*
X012656Y034651D02*
X011381Y034651D01*
X011460Y034573D02*
X012577Y034573D01*
X012499Y034494D02*
X011538Y034494D01*
X011617Y034416D02*
X012420Y034416D01*
X012342Y034337D02*
X011695Y034337D01*
X011774Y034259D02*
X012338Y034259D01*
X012338Y034180D02*
X011823Y034180D01*
X011823Y034102D02*
X012338Y034102D01*
X012338Y034023D02*
X011823Y034023D01*
X011823Y033945D02*
X012338Y033945D01*
X012338Y033866D02*
X011832Y033866D01*
X011870Y033788D02*
X012360Y033788D01*
X012439Y033709D02*
X011948Y033709D01*
X012027Y033631D02*
X012517Y033631D01*
X012852Y033552D02*
X012105Y033552D01*
X012184Y033474D02*
X012852Y033474D01*
X012869Y033395D02*
X012198Y033395D01*
X012198Y033317D02*
X012852Y033317D01*
X012852Y033238D02*
X012198Y033238D01*
X012198Y033160D02*
X012852Y033160D01*
X012852Y033081D02*
X012198Y033081D01*
X012198Y033003D02*
X012852Y033003D01*
X012852Y032924D02*
X012198Y032924D01*
X012198Y032846D02*
X012852Y032846D01*
X012852Y032767D02*
X012198Y032767D01*
X012198Y032689D02*
X012852Y032689D01*
X012852Y032610D02*
X012198Y032610D01*
X012198Y032532D02*
X012852Y032532D01*
X012852Y032453D02*
X012198Y032453D01*
X012198Y032375D02*
X012868Y032375D01*
X012852Y032296D02*
X012198Y032296D01*
X012198Y032218D02*
X012852Y032218D01*
X012852Y032139D02*
X012198Y032139D01*
X012198Y032061D02*
X012852Y032061D01*
X012852Y031982D02*
X012198Y031982D01*
X012198Y031904D02*
X012852Y031904D01*
X012906Y031825D02*
X012198Y031825D01*
X012198Y031747D02*
X013338Y031747D01*
X013338Y031668D02*
X012198Y031668D01*
X012198Y031590D02*
X013338Y031590D01*
X013338Y031511D02*
X012198Y031511D01*
X012198Y031433D02*
X013338Y031433D01*
X013338Y031354D02*
X012198Y031354D01*
X012198Y031276D02*
X013338Y031276D01*
X013338Y031197D02*
X012198Y031197D01*
X012198Y031119D02*
X013338Y031119D01*
X013338Y031040D02*
X012198Y031040D01*
X012198Y030962D02*
X013338Y030962D01*
X013338Y030883D02*
X012198Y030883D01*
X012198Y030805D02*
X013338Y030805D01*
X013338Y030726D02*
X012198Y030726D01*
X012198Y030648D02*
X013338Y030648D01*
X013338Y030569D02*
X012198Y030569D01*
X012198Y030491D02*
X013338Y030491D01*
X013338Y030412D02*
X012198Y030412D01*
X012198Y030334D02*
X013338Y030334D01*
X013393Y030255D02*
X012198Y030255D01*
X012198Y030177D02*
X013471Y030177D01*
X013550Y030098D02*
X012198Y030098D01*
X012198Y030020D02*
X013628Y030020D01*
X013707Y029941D02*
X012198Y029941D01*
X012198Y029863D02*
X013785Y029863D01*
X013864Y029784D02*
X012198Y029784D01*
X012198Y029706D02*
X013942Y029706D01*
X014021Y029627D02*
X012198Y029627D01*
X012198Y029549D02*
X014056Y029549D01*
X014028Y029470D02*
X012198Y029470D01*
X012198Y029392D02*
X014028Y029392D01*
X014028Y029313D02*
X012198Y029313D01*
X012198Y029235D02*
X014050Y029235D01*
X014083Y029156D02*
X012251Y029156D01*
X012330Y029078D02*
X014132Y029078D01*
X014211Y028999D02*
X012408Y028999D01*
X012448Y028921D02*
X014357Y028921D01*
X014680Y028921D02*
X014893Y028921D01*
X014893Y028999D02*
X014826Y028999D01*
X014893Y028842D02*
X012448Y028842D01*
X012676Y028764D02*
X014893Y028764D01*
X014893Y028685D02*
X012709Y028685D01*
X012709Y028607D02*
X014893Y028607D01*
X014893Y028528D02*
X012709Y028528D01*
X012709Y028450D02*
X014893Y028450D01*
X014893Y028371D02*
X012709Y028371D01*
X012709Y028293D02*
X014893Y028293D01*
X014893Y028214D02*
X012686Y028214D01*
X012060Y028214D02*
X011977Y028214D01*
X012001Y028293D02*
X012036Y028293D01*
X012036Y028371D02*
X012001Y028371D01*
X012001Y028450D02*
X012036Y028450D01*
X012036Y028528D02*
X012001Y028528D01*
X012001Y028607D02*
X012036Y028607D01*
X012036Y028685D02*
X012001Y028685D01*
X011968Y028764D02*
X012069Y028764D01*
X012056Y028842D02*
X011948Y028842D01*
X011948Y028921D02*
X011977Y028921D01*
X009946Y028136D02*
X014893Y028136D01*
X014863Y028057D02*
X009884Y028057D01*
X009891Y027429D02*
X014146Y027429D01*
X014088Y027351D02*
X009949Y027351D01*
X009981Y027272D02*
X014056Y027272D01*
X014028Y027194D02*
X010008Y027194D01*
X010008Y027115D02*
X014028Y027115D01*
X014028Y027037D02*
X010008Y027037D01*
X009986Y026958D02*
X014050Y026958D01*
X014035Y026880D02*
X010002Y026880D01*
X010080Y026801D02*
X013956Y026801D01*
X013878Y026723D02*
X010159Y026723D01*
X010237Y026644D02*
X013799Y026644D01*
X013721Y026566D02*
X010316Y026566D01*
X010394Y026487D02*
X013642Y026487D01*
X013564Y026409D02*
X010473Y026409D01*
X010551Y026330D02*
X013485Y026330D01*
X013407Y026252D02*
X010630Y026252D01*
X010708Y026173D02*
X013328Y026173D01*
X013250Y026095D02*
X010787Y026095D01*
X010865Y026016D02*
X013171Y026016D01*
X013093Y025938D02*
X010944Y025938D01*
X010948Y025859D02*
X013088Y025859D01*
X013088Y025781D02*
X010948Y025781D01*
X010948Y025702D02*
X013088Y025702D01*
X013088Y025624D02*
X010948Y025624D01*
X010948Y025545D02*
X013088Y025545D01*
X013088Y025467D02*
X010948Y025467D01*
X010948Y025388D02*
X013088Y025388D01*
X013088Y025310D02*
X010948Y025310D01*
X010948Y025231D02*
X013088Y025231D01*
X013088Y025153D02*
X010948Y025153D01*
X010948Y025074D02*
X013088Y025074D01*
X013088Y024996D02*
X010948Y024996D01*
X011189Y024917D02*
X012848Y024917D01*
X012786Y024839D02*
X011251Y024839D01*
X011251Y024760D02*
X012786Y024760D01*
X012786Y024682D02*
X011251Y024682D01*
X011251Y024603D02*
X012786Y024603D01*
X012786Y024525D02*
X011251Y024525D01*
X011310Y024446D02*
X012726Y024446D01*
X012648Y024368D02*
X011389Y024368D01*
X011467Y024289D02*
X012569Y024289D01*
X012491Y024211D02*
X011546Y024211D01*
X011624Y024132D02*
X012412Y024132D01*
X012338Y024054D02*
X011703Y024054D01*
X011781Y023975D02*
X012338Y023975D01*
X012338Y023897D02*
X011823Y023897D01*
X011823Y023818D02*
X012338Y023818D01*
X012338Y023740D02*
X011823Y023740D01*
X011823Y023661D02*
X012338Y023661D01*
X012338Y023583D02*
X011840Y023583D01*
X011877Y023504D02*
X012368Y023504D01*
X012447Y023426D02*
X011956Y023426D01*
X012034Y023347D02*
X012525Y023347D01*
X012852Y023269D02*
X012113Y023269D01*
X012191Y023190D02*
X012852Y023190D01*
X012862Y023112D02*
X012198Y023112D01*
X012198Y023033D02*
X012852Y023033D01*
X012852Y022955D02*
X012198Y022955D01*
X012198Y022876D02*
X012859Y022876D01*
X012852Y022798D02*
X012198Y022798D01*
X012198Y022719D02*
X012852Y022719D01*
X012852Y022641D02*
X012198Y022641D01*
X012198Y022562D02*
X012852Y022562D01*
X012852Y022484D02*
X012198Y022484D01*
X012198Y022405D02*
X012852Y022405D01*
X012852Y022327D02*
X012198Y022327D01*
X012198Y022248D02*
X012852Y022248D01*
X012852Y022170D02*
X012198Y022170D01*
X012198Y022091D02*
X012865Y022091D01*
X012852Y022013D02*
X012198Y022013D01*
X012198Y021934D02*
X012852Y021934D01*
X012856Y021856D02*
X012198Y021856D01*
X012198Y021777D02*
X012852Y021777D01*
X012852Y021699D02*
X012198Y021699D01*
X012198Y021620D02*
X012852Y021620D01*
X012914Y021542D02*
X012198Y021542D01*
X012198Y021463D02*
X013338Y021463D01*
X013338Y021385D02*
X012198Y021385D01*
X012198Y021306D02*
X013338Y021306D01*
X013338Y021228D02*
X012198Y021228D01*
X012198Y021149D02*
X013338Y021149D01*
X013338Y021071D02*
X012198Y021071D01*
X012198Y020992D02*
X013338Y020992D01*
X013338Y020914D02*
X012198Y020914D01*
X012198Y020835D02*
X013338Y020835D01*
X013338Y020757D02*
X012198Y020757D01*
X012198Y020678D02*
X013338Y020678D01*
X013338Y020600D02*
X012198Y020600D01*
X012198Y020521D02*
X013338Y020521D01*
X013338Y020443D02*
X012198Y020443D01*
X012198Y020364D02*
X013338Y020364D01*
X013338Y020286D02*
X012198Y020286D01*
X012198Y020207D02*
X013338Y020207D01*
X013338Y020129D02*
X012198Y020129D01*
X012198Y020050D02*
X013338Y020050D01*
X013401Y019972D02*
X012198Y019972D01*
X012198Y019893D02*
X013479Y019893D01*
X013558Y019815D02*
X012198Y019815D01*
X012198Y019736D02*
X013636Y019736D01*
X013715Y019658D02*
X012198Y019658D01*
X012198Y019579D02*
X013793Y019579D01*
X013872Y019501D02*
X012198Y019501D01*
X012198Y019422D02*
X013950Y019422D01*
X014029Y019344D02*
X012198Y019344D01*
X012198Y019265D02*
X014053Y019265D01*
X014028Y019187D02*
X012198Y019187D01*
X012198Y019108D02*
X014028Y019108D01*
X014028Y019030D02*
X012198Y019030D01*
X012198Y018951D02*
X014053Y018951D01*
X014086Y018873D02*
X012259Y018873D01*
X012337Y018794D02*
X014140Y018794D01*
X014218Y018716D02*
X012416Y018716D01*
X012448Y018637D02*
X014376Y018637D01*
X014660Y018637D02*
X014893Y018637D01*
X014893Y018559D02*
X012448Y018559D01*
X012684Y018480D02*
X014893Y018480D01*
X014893Y018402D02*
X012709Y018402D01*
X012709Y018323D02*
X014893Y018323D01*
X014893Y018245D02*
X012709Y018245D01*
X012709Y018166D02*
X014893Y018166D01*
X014893Y018088D02*
X012709Y018088D01*
X012709Y018009D02*
X014893Y018009D01*
X014893Y017931D02*
X012678Y017931D01*
X012068Y017931D02*
X011969Y017931D01*
X012001Y018009D02*
X012036Y018009D01*
X012036Y018088D02*
X012001Y018088D01*
X012001Y018166D02*
X012036Y018166D01*
X012036Y018245D02*
X012001Y018245D01*
X012001Y018323D02*
X012036Y018323D01*
X012036Y018402D02*
X012001Y018402D01*
X011976Y018480D02*
X012061Y018480D01*
X012064Y018559D02*
X011948Y018559D01*
X011948Y018637D02*
X011985Y018637D01*
X014818Y018716D02*
X014893Y018716D01*
X018224Y018637D02*
X018261Y018637D01*
X018224Y018559D02*
X018339Y018559D01*
X018337Y018480D02*
X018251Y018480D01*
X018276Y018402D02*
X018312Y018402D01*
X018312Y018323D02*
X018276Y018323D01*
X018276Y018245D02*
X018312Y018245D01*
X018312Y018166D02*
X018276Y018166D01*
X018276Y018088D02*
X018312Y018088D01*
X018312Y018009D02*
X018276Y018009D01*
X018245Y017931D02*
X018343Y017931D01*
X024500Y018559D02*
X024615Y018559D01*
X024612Y018480D02*
X024527Y018480D01*
X024552Y018402D02*
X024587Y018402D01*
X024587Y018323D02*
X024552Y018323D01*
X024552Y018245D02*
X024587Y018245D01*
X024587Y018166D02*
X024552Y018166D01*
X024552Y018088D02*
X024587Y018088D01*
X024587Y018009D02*
X024552Y018009D01*
X024520Y017931D02*
X024619Y017931D01*
X024537Y018637D02*
X024500Y018637D01*
X031164Y018794D02*
X032967Y018794D01*
X033045Y018716D02*
X031243Y018716D01*
X031275Y018637D02*
X033203Y018637D01*
X033487Y018637D02*
X033720Y018637D01*
X033720Y018559D02*
X031275Y018559D01*
X031511Y018480D02*
X033720Y018480D01*
X033720Y018402D02*
X031536Y018402D01*
X031536Y018323D02*
X033720Y018323D01*
X033720Y018245D02*
X031536Y018245D01*
X031536Y018166D02*
X033720Y018166D01*
X033720Y018088D02*
X031536Y018088D01*
X031536Y018009D02*
X033720Y018009D01*
X033720Y017931D02*
X031505Y017931D01*
X033645Y018716D02*
X033720Y018716D01*
X033716Y008511D02*
X033720Y008511D01*
X033720Y008432D02*
X033637Y008432D01*
X033720Y008354D02*
X033468Y008354D01*
X033222Y008354D02*
X031275Y008354D01*
X031275Y008275D02*
X033720Y008275D01*
X033720Y008197D02*
X031519Y008197D01*
X031536Y008118D02*
X033720Y008118D01*
X033720Y008040D02*
X031536Y008040D01*
X031536Y007961D02*
X033720Y007961D01*
X033720Y007883D02*
X031536Y007883D01*
X031536Y007804D02*
X033720Y007804D01*
X033720Y007726D02*
X031536Y007726D01*
X031497Y007647D02*
X033720Y007647D01*
X033718Y007569D02*
X028766Y007569D01*
X028695Y007490D02*
X033676Y007490D01*
X033053Y008432D02*
X031251Y008432D01*
X031172Y008511D02*
X032975Y008511D01*
X014849Y007490D02*
X009868Y007490D01*
X008618Y007583D02*
X008618Y008515D01*
X008520Y008418D01*
X008340Y008343D01*
X008145Y008343D01*
X007965Y008418D01*
X007827Y008556D01*
X007753Y008736D01*
X007753Y008931D01*
X007793Y009028D01*
X007063Y009759D01*
X007063Y011258D01*
X006647Y011258D01*
X006577Y011328D01*
X006577Y011547D01*
X006595Y011566D01*
X006577Y011584D01*
X006577Y011803D01*
X006595Y011822D01*
X006577Y011840D01*
X006577Y012059D01*
X006595Y012077D01*
X006577Y012096D01*
X006577Y012315D01*
X006595Y012333D01*
X006577Y012352D01*
X006577Y012571D01*
X006595Y012589D01*
X006577Y012607D01*
X006577Y012827D01*
X006595Y012845D01*
X006577Y012863D01*
X006577Y013049D01*
X006273Y013049D01*
X006168Y013153D01*
X006063Y013259D01*
X006063Y013783D01*
X006168Y013888D01*
X006511Y014231D01*
X006511Y014580D01*
X006581Y014650D01*
X006813Y014650D01*
X006813Y015658D01*
X007793Y016638D01*
X007753Y016736D01*
X007753Y016931D01*
X007827Y017111D01*
X007925Y017208D01*
X003561Y017208D01*
X003658Y017111D01*
X003733Y016931D01*
X003733Y016736D01*
X003692Y016638D01*
X004673Y015658D01*
X004673Y014650D01*
X004905Y014650D01*
X004975Y014580D01*
X004975Y014231D01*
X005442Y013763D01*
X005548Y013658D01*
X005548Y013324D01*
X005568Y013304D01*
X005568Y013262D01*
X005817Y013013D01*
X005817Y013013D01*
X005923Y012908D01*
X005923Y008658D01*
X006067Y008513D01*
X006173Y008408D01*
X006173Y008250D01*
X006363Y008250D01*
X006434Y008180D01*
X006434Y007687D01*
X006363Y007616D01*
X005831Y007616D01*
X005761Y007687D01*
X005761Y008180D01*
X005813Y008232D01*
X005813Y008259D01*
X005673Y008399D01*
X005673Y008232D01*
X005725Y008180D01*
X005725Y007687D01*
X005655Y007616D01*
X005122Y007616D01*
X005085Y007653D01*
X003699Y007653D01*
X003658Y007556D01*
X003561Y007458D01*
X008493Y007458D01*
X008525Y007463D01*
X008581Y007495D01*
X008614Y007551D01*
X008618Y007583D01*
X008616Y007569D02*
X003664Y007569D01*
X003696Y007647D02*
X005091Y007647D01*
X005686Y007647D02*
X005800Y007647D01*
X005761Y007726D02*
X005725Y007726D01*
X005725Y007804D02*
X005761Y007804D01*
X005761Y007883D02*
X005725Y007883D01*
X005725Y007961D02*
X005761Y007961D01*
X005761Y008040D02*
X005725Y008040D01*
X005725Y008118D02*
X005761Y008118D01*
X005778Y008197D02*
X005708Y008197D01*
X005673Y008275D02*
X005796Y008275D01*
X005718Y008354D02*
X005673Y008354D01*
X005991Y008589D02*
X007813Y008589D01*
X007781Y008668D02*
X005923Y008668D01*
X005923Y008746D02*
X007753Y008746D01*
X007753Y008825D02*
X005923Y008825D01*
X005923Y008903D02*
X007753Y008903D01*
X007774Y008982D02*
X005923Y008982D01*
X005923Y009060D02*
X007761Y009060D01*
X007683Y009139D02*
X005923Y009139D01*
X005923Y009217D02*
X007604Y009217D01*
X007526Y009296D02*
X005923Y009296D01*
X005923Y009374D02*
X007447Y009374D01*
X007369Y009453D02*
X005923Y009453D01*
X005923Y009531D02*
X007290Y009531D01*
X007212Y009610D02*
X005923Y009610D01*
X005923Y009688D02*
X007133Y009688D01*
X007063Y009767D02*
X005923Y009767D01*
X005923Y009845D02*
X007063Y009845D01*
X007063Y009924D02*
X005923Y009924D01*
X005923Y010002D02*
X007063Y010002D01*
X007063Y010081D02*
X005923Y010081D01*
X005923Y010159D02*
X007063Y010159D01*
X007063Y010238D02*
X005923Y010238D01*
X005923Y010316D02*
X007063Y010316D01*
X007063Y010395D02*
X005923Y010395D01*
X005923Y010473D02*
X007063Y010473D01*
X007063Y010552D02*
X005923Y010552D01*
X005923Y010630D02*
X007063Y010630D01*
X007063Y010709D02*
X005923Y010709D01*
X005923Y010787D02*
X007063Y010787D01*
X007063Y010866D02*
X005923Y010866D01*
X005923Y010944D02*
X007063Y010944D01*
X007063Y011023D02*
X005923Y011023D01*
X005923Y011101D02*
X007063Y011101D01*
X007063Y011180D02*
X005923Y011180D01*
X005923Y011258D02*
X006646Y011258D01*
X006577Y011337D02*
X005923Y011337D01*
X005923Y011415D02*
X006577Y011415D01*
X006577Y011494D02*
X005923Y011494D01*
X005923Y011572D02*
X006588Y011572D01*
X006577Y011651D02*
X005923Y011651D01*
X005923Y011729D02*
X006577Y011729D01*
X006581Y011808D02*
X005923Y011808D01*
X005923Y011886D02*
X006577Y011886D01*
X006577Y011965D02*
X005923Y011965D01*
X005923Y012043D02*
X006577Y012043D01*
X006577Y012122D02*
X005923Y012122D01*
X005923Y012200D02*
X006577Y012200D01*
X006577Y012279D02*
X005923Y012279D01*
X005923Y012357D02*
X006577Y012357D01*
X006577Y012436D02*
X005923Y012436D01*
X005923Y012514D02*
X006577Y012514D01*
X006591Y012593D02*
X005923Y012593D01*
X005923Y012671D02*
X006577Y012671D01*
X006577Y012750D02*
X005923Y012750D01*
X005923Y012828D02*
X006578Y012828D01*
X006577Y012907D02*
X005923Y012907D01*
X005845Y012985D02*
X006577Y012985D01*
X006258Y013064D02*
X005767Y013064D01*
X005688Y013142D02*
X006179Y013142D01*
X006101Y013221D02*
X005610Y013221D01*
X005568Y013299D02*
X006063Y013299D01*
X006063Y013378D02*
X005548Y013378D01*
X005548Y013456D02*
X006063Y013456D01*
X006063Y013535D02*
X005548Y013535D01*
X005548Y013613D02*
X006063Y013613D01*
X006063Y013692D02*
X005514Y013692D01*
X005435Y013770D02*
X006063Y013770D01*
X006129Y013849D02*
X005357Y013849D01*
X005278Y013927D02*
X006207Y013927D01*
X006286Y014006D02*
X005200Y014006D01*
X005121Y014084D02*
X006364Y014084D01*
X006443Y014163D02*
X005043Y014163D01*
X004975Y014241D02*
X006511Y014241D01*
X006511Y014320D02*
X004975Y014320D01*
X004975Y014398D02*
X006511Y014398D01*
X006511Y014477D02*
X004975Y014477D01*
X004975Y014555D02*
X006511Y014555D01*
X006565Y014634D02*
X004921Y014634D01*
X004673Y014712D02*
X006813Y014712D01*
X006813Y014791D02*
X004673Y014791D01*
X004673Y014869D02*
X006813Y014869D01*
X006813Y014948D02*
X004673Y014948D01*
X004673Y015026D02*
X006813Y015026D01*
X006813Y015105D02*
X004673Y015105D01*
X004673Y015183D02*
X006813Y015183D01*
X006813Y015262D02*
X004673Y015262D01*
X004673Y015340D02*
X006813Y015340D01*
X006813Y015419D02*
X004673Y015419D01*
X004673Y015497D02*
X006813Y015497D01*
X006813Y015576D02*
X004673Y015576D01*
X004673Y015654D02*
X006813Y015654D01*
X006888Y015733D02*
X004598Y015733D01*
X004519Y015811D02*
X006966Y015811D01*
X007045Y015890D02*
X004441Y015890D01*
X004362Y015968D02*
X007123Y015968D01*
X007202Y016047D02*
X004284Y016047D01*
X004205Y016125D02*
X007280Y016125D01*
X007359Y016204D02*
X004127Y016204D01*
X004048Y016282D02*
X007437Y016282D01*
X007516Y016361D02*
X003970Y016361D01*
X003891Y016439D02*
X007594Y016439D01*
X007673Y016518D02*
X003813Y016518D01*
X003734Y016596D02*
X007751Y016596D01*
X007778Y016675D02*
X003708Y016675D01*
X003733Y016753D02*
X007753Y016753D01*
X007753Y016832D02*
X003733Y016832D01*
X003733Y016910D02*
X007753Y016910D01*
X007777Y016989D02*
X003709Y016989D01*
X003676Y017067D02*
X007809Y017067D01*
X007862Y017146D02*
X003623Y017146D01*
X005693Y017931D02*
X005792Y017931D01*
X005761Y018009D02*
X005725Y018009D01*
X005725Y018088D02*
X005761Y018088D01*
X005761Y018166D02*
X005725Y018166D01*
X005725Y018245D02*
X005761Y018245D01*
X005761Y018323D02*
X005725Y018323D01*
X005725Y018402D02*
X005761Y018402D01*
X005785Y018480D02*
X005700Y018480D01*
X005673Y018559D02*
X005788Y018559D01*
X005710Y018637D02*
X005673Y018637D01*
X008385Y018637D02*
X008618Y018637D01*
X008618Y018716D02*
X008543Y018716D01*
X005784Y028214D02*
X005701Y028214D01*
X005725Y028293D02*
X005761Y028293D01*
X005761Y028371D02*
X005725Y028371D01*
X005725Y028450D02*
X005761Y028450D01*
X005761Y028528D02*
X005725Y028528D01*
X005725Y028607D02*
X005761Y028607D01*
X005761Y028685D02*
X005725Y028685D01*
X005692Y028764D02*
X005793Y028764D01*
X005780Y028842D02*
X005673Y028842D01*
X005673Y028921D02*
X005702Y028921D01*
X008404Y028921D02*
X008618Y028921D01*
X008618Y028999D02*
X008551Y028999D01*
X018224Y028921D02*
X018253Y028921D01*
X018224Y028842D02*
X018332Y028842D01*
X018345Y028764D02*
X018243Y028764D01*
X018276Y028685D02*
X018312Y028685D01*
X018312Y028607D02*
X018276Y028607D01*
X018276Y028528D02*
X018312Y028528D01*
X018312Y028450D02*
X018276Y028450D01*
X018276Y028371D02*
X018312Y028371D01*
X018312Y028293D02*
X018276Y028293D01*
X018253Y028214D02*
X018335Y028214D01*
X014148Y008511D02*
X012345Y008511D01*
X012424Y008432D02*
X014226Y008432D01*
X008618Y008432D02*
X008535Y008432D01*
X008613Y008511D02*
X008618Y008511D01*
X008618Y008354D02*
X008366Y008354D01*
X008120Y008354D02*
X006173Y008354D01*
X006173Y008275D02*
X008618Y008275D01*
X008618Y008197D02*
X006417Y008197D01*
X006434Y008118D02*
X008618Y008118D01*
X008618Y008040D02*
X006434Y008040D01*
X006434Y007961D02*
X008618Y007961D01*
X008618Y007883D02*
X006434Y007883D01*
X006434Y007804D02*
X008618Y007804D01*
X008618Y007726D02*
X006434Y007726D01*
X006394Y007647D02*
X008618Y007647D01*
X008573Y007490D02*
X003593Y007490D01*
X006070Y008511D02*
X007872Y008511D01*
X007951Y008432D02*
X006148Y008432D01*
M02*
