G75*
%MOIN*%
%OFA0B0*%
%FSLAX24Y24*%
%IPPOS*%
%LPD*%
%AMOC8*
5,1,8,0,0,1.08239X$1,22.5*
%
%ADD10C,0.0010*%
%ADD11C,0.0080*%
D10*
X005367Y009131D02*
X005641Y009131D01*
X005641Y009405D01*
X005591Y009429D01*
X005591Y009713D01*
X005639Y009753D01*
X005669Y009753D01*
X005669Y009871D01*
X005691Y009893D01*
X005817Y009893D01*
X005845Y009867D01*
X005845Y009775D01*
X005867Y009775D01*
X005867Y009753D01*
X005845Y009753D01*
X005671Y009753D01*
X005671Y009769D01*
X005871Y009769D01*
X005871Y009751D01*
X005919Y009711D01*
X005919Y009429D01*
X005869Y009403D01*
X005869Y009133D01*
X006143Y009133D01*
X006143Y010061D01*
X005367Y010061D01*
X005367Y009131D01*
X005367Y009135D02*
X005641Y009135D01*
X005641Y009144D02*
X005367Y009144D01*
X005367Y009152D02*
X005641Y009152D01*
X005641Y009161D02*
X005367Y009161D01*
X005367Y009169D02*
X005641Y009169D01*
X005641Y009178D02*
X005367Y009178D01*
X005367Y009186D02*
X005641Y009186D01*
X005641Y009195D02*
X005367Y009195D01*
X005367Y009203D02*
X005641Y009203D01*
X005641Y009212D02*
X005367Y009212D01*
X005367Y009220D02*
X005641Y009220D01*
X005641Y009229D02*
X005367Y009229D01*
X005367Y009237D02*
X005641Y009237D01*
X005641Y009246D02*
X005367Y009246D01*
X005367Y009254D02*
X005641Y009254D01*
X005641Y009263D02*
X005367Y009263D01*
X005367Y009271D02*
X005641Y009271D01*
X005641Y009280D02*
X005367Y009280D01*
X005367Y009288D02*
X005641Y009288D01*
X005641Y009297D02*
X005367Y009297D01*
X005367Y009305D02*
X005641Y009305D01*
X005641Y009314D02*
X005367Y009314D01*
X005367Y009322D02*
X005641Y009322D01*
X005641Y009331D02*
X005367Y009331D01*
X005367Y009339D02*
X005641Y009339D01*
X005641Y009348D02*
X005367Y009348D01*
X005367Y009356D02*
X005641Y009356D01*
X005641Y009365D02*
X005367Y009365D01*
X005367Y009373D02*
X005641Y009373D01*
X005641Y009382D02*
X005367Y009382D01*
X005367Y009390D02*
X005641Y009390D01*
X005641Y009399D02*
X005367Y009399D01*
X005367Y009407D02*
X005637Y009407D01*
X005619Y009416D02*
X005367Y009416D01*
X005367Y009424D02*
X005601Y009424D01*
X005591Y009433D02*
X005367Y009433D01*
X005367Y009441D02*
X005591Y009441D01*
X005591Y009450D02*
X005367Y009450D01*
X005367Y009458D02*
X005591Y009458D01*
X005591Y009467D02*
X005367Y009467D01*
X005367Y009475D02*
X005591Y009475D01*
X005591Y009484D02*
X005367Y009484D01*
X005367Y009492D02*
X005591Y009492D01*
X005591Y009501D02*
X005367Y009501D01*
X005367Y009509D02*
X005591Y009509D01*
X005591Y009518D02*
X005367Y009518D01*
X005367Y009526D02*
X005591Y009526D01*
X005591Y009535D02*
X005367Y009535D01*
X005367Y009543D02*
X005591Y009543D01*
X005591Y009552D02*
X005367Y009552D01*
X005367Y009560D02*
X005591Y009560D01*
X005591Y009569D02*
X005367Y009569D01*
X005367Y009577D02*
X005591Y009577D01*
X005591Y009586D02*
X005367Y009586D01*
X005367Y009594D02*
X005591Y009594D01*
X005591Y009603D02*
X005367Y009603D01*
X005367Y009611D02*
X005591Y009611D01*
X005591Y009620D02*
X005367Y009620D01*
X005367Y009628D02*
X005591Y009628D01*
X005591Y009637D02*
X005367Y009637D01*
X005367Y009645D02*
X005591Y009645D01*
X005591Y009654D02*
X005367Y009654D01*
X005367Y009662D02*
X005591Y009662D01*
X005591Y009671D02*
X005367Y009671D01*
X005367Y009679D02*
X005591Y009679D01*
X005591Y009688D02*
X005367Y009688D01*
X005367Y009696D02*
X005591Y009696D01*
X005591Y009705D02*
X005367Y009705D01*
X005367Y009713D02*
X005591Y009713D01*
X005601Y009722D02*
X005367Y009722D01*
X005367Y009730D02*
X005611Y009730D01*
X005621Y009739D02*
X005367Y009739D01*
X005367Y009747D02*
X005632Y009747D01*
X005669Y009756D02*
X005367Y009756D01*
X005367Y009764D02*
X005669Y009764D01*
X005671Y009764D02*
X005867Y009764D01*
X005871Y009764D02*
X006143Y009764D01*
X006143Y009756D02*
X005871Y009756D01*
X005867Y009756D02*
X005671Y009756D01*
X005669Y009773D02*
X005367Y009773D01*
X005367Y009781D02*
X005669Y009781D01*
X005669Y009790D02*
X005367Y009790D01*
X005367Y009798D02*
X005669Y009798D01*
X005669Y009807D02*
X005367Y009807D01*
X005367Y009815D02*
X005669Y009815D01*
X005669Y009824D02*
X005367Y009824D01*
X005367Y009832D02*
X005669Y009832D01*
X005669Y009841D02*
X005367Y009841D01*
X005367Y009849D02*
X005669Y009849D01*
X005669Y009858D02*
X005367Y009858D01*
X005367Y009866D02*
X005669Y009866D01*
X005672Y009875D02*
X005367Y009875D01*
X005367Y009883D02*
X005681Y009883D01*
X005689Y009892D02*
X005367Y009892D01*
X005367Y009900D02*
X006143Y009900D01*
X006143Y009892D02*
X005818Y009892D01*
X005827Y009883D02*
X006143Y009883D01*
X006143Y009875D02*
X005837Y009875D01*
X005845Y009866D02*
X006143Y009866D01*
X006143Y009858D02*
X005845Y009858D01*
X005845Y009849D02*
X006143Y009849D01*
X006143Y009841D02*
X005845Y009841D01*
X005845Y009832D02*
X006143Y009832D01*
X006143Y009824D02*
X005845Y009824D01*
X005845Y009815D02*
X006143Y009815D01*
X006143Y009807D02*
X005845Y009807D01*
X005845Y009798D02*
X006143Y009798D01*
X006143Y009790D02*
X005845Y009790D01*
X005845Y009781D02*
X006143Y009781D01*
X006143Y009773D02*
X005867Y009773D01*
X005876Y009747D02*
X006143Y009747D01*
X006143Y009739D02*
X005886Y009739D01*
X005896Y009730D02*
X006143Y009730D01*
X006143Y009722D02*
X005906Y009722D01*
X005916Y009713D02*
X006143Y009713D01*
X006143Y009705D02*
X005919Y009705D01*
X005919Y009696D02*
X006143Y009696D01*
X006143Y009688D02*
X005919Y009688D01*
X005919Y009679D02*
X006143Y009679D01*
X006143Y009671D02*
X005919Y009671D01*
X005919Y009662D02*
X006143Y009662D01*
X006143Y009654D02*
X005919Y009654D01*
X005919Y009645D02*
X006143Y009645D01*
X006143Y009637D02*
X005919Y009637D01*
X005919Y009628D02*
X006143Y009628D01*
X006143Y009620D02*
X005919Y009620D01*
X005919Y009611D02*
X006143Y009611D01*
X006143Y009603D02*
X005919Y009603D01*
X005919Y009594D02*
X006143Y009594D01*
X006143Y009586D02*
X005919Y009586D01*
X005919Y009577D02*
X006143Y009577D01*
X006143Y009569D02*
X005919Y009569D01*
X005919Y009560D02*
X006143Y009560D01*
X006143Y009552D02*
X005919Y009552D01*
X005919Y009543D02*
X006143Y009543D01*
X006143Y009535D02*
X005919Y009535D01*
X005919Y009526D02*
X006143Y009526D01*
X006143Y009518D02*
X005919Y009518D01*
X005919Y009509D02*
X006143Y009509D01*
X006143Y009501D02*
X005919Y009501D01*
X005919Y009492D02*
X006143Y009492D01*
X006143Y009484D02*
X005919Y009484D01*
X005919Y009475D02*
X006143Y009475D01*
X006143Y009467D02*
X005919Y009467D01*
X005919Y009458D02*
X006143Y009458D01*
X006143Y009450D02*
X005919Y009450D01*
X005919Y009441D02*
X006143Y009441D01*
X006143Y009433D02*
X005919Y009433D01*
X005909Y009424D02*
X006143Y009424D01*
X006143Y009416D02*
X005893Y009416D01*
X005877Y009407D02*
X006143Y009407D01*
X006143Y009399D02*
X005869Y009399D01*
X005869Y009390D02*
X006143Y009390D01*
X006143Y009382D02*
X005869Y009382D01*
X005869Y009373D02*
X006143Y009373D01*
X006143Y009365D02*
X005869Y009365D01*
X005869Y009356D02*
X006143Y009356D01*
X006143Y009348D02*
X005869Y009348D01*
X005869Y009339D02*
X006143Y009339D01*
X006143Y009331D02*
X005869Y009331D01*
X005869Y009322D02*
X006143Y009322D01*
X006143Y009314D02*
X005869Y009314D01*
X005869Y009305D02*
X006143Y009305D01*
X006143Y009297D02*
X005869Y009297D01*
X005869Y009288D02*
X006143Y009288D01*
X006143Y009280D02*
X005869Y009280D01*
X005869Y009271D02*
X006143Y009271D01*
X006143Y009263D02*
X005869Y009263D01*
X005869Y009254D02*
X006143Y009254D01*
X006143Y009246D02*
X005869Y009246D01*
X005869Y009237D02*
X006143Y009237D01*
X006143Y009229D02*
X005869Y009229D01*
X005869Y009220D02*
X006143Y009220D01*
X006143Y009212D02*
X005869Y009212D01*
X005869Y009203D02*
X006143Y009203D01*
X006143Y009195D02*
X005869Y009195D01*
X005869Y009186D02*
X006143Y009186D01*
X006143Y009178D02*
X005869Y009178D01*
X005869Y009169D02*
X006143Y009169D01*
X006143Y009161D02*
X005869Y009161D01*
X005869Y009152D02*
X006143Y009152D01*
X006143Y009144D02*
X005869Y009144D01*
X005869Y009135D02*
X006143Y009135D01*
X006143Y009909D02*
X005367Y009909D01*
X005367Y009917D02*
X006143Y009917D01*
X006143Y009926D02*
X005367Y009926D01*
X005367Y009934D02*
X006143Y009934D01*
X006143Y009943D02*
X005367Y009943D01*
X005367Y009951D02*
X006143Y009951D01*
X006143Y009960D02*
X005367Y009960D01*
X005367Y009968D02*
X006143Y009968D01*
X006143Y009977D02*
X005367Y009977D01*
X005367Y009985D02*
X006143Y009985D01*
X006143Y009994D02*
X005367Y009994D01*
X005367Y010002D02*
X006143Y010002D01*
X006143Y010011D02*
X005367Y010011D01*
X005367Y010019D02*
X006143Y010019D01*
X006143Y010028D02*
X005367Y010028D01*
X005367Y010036D02*
X006143Y010036D01*
X006143Y010045D02*
X005367Y010045D01*
X005367Y010053D02*
X006143Y010053D01*
X011642Y010053D02*
X012418Y010053D01*
X012418Y010045D02*
X011642Y010045D01*
X011642Y010036D02*
X012418Y010036D01*
X012418Y010028D02*
X011642Y010028D01*
X011642Y010019D02*
X012418Y010019D01*
X012418Y010011D02*
X011642Y010011D01*
X011642Y010002D02*
X012418Y010002D01*
X012418Y009994D02*
X011642Y009994D01*
X011642Y009985D02*
X012418Y009985D01*
X012418Y009977D02*
X011642Y009977D01*
X011642Y009968D02*
X012418Y009968D01*
X012418Y009960D02*
X011642Y009960D01*
X011642Y009951D02*
X012418Y009951D01*
X012418Y009943D02*
X011642Y009943D01*
X011642Y009934D02*
X012418Y009934D01*
X012418Y009926D02*
X011642Y009926D01*
X011642Y009917D02*
X012418Y009917D01*
X012418Y009909D02*
X011642Y009909D01*
X011642Y009900D02*
X012418Y009900D01*
X012418Y009892D02*
X012094Y009892D01*
X012092Y009893D02*
X012120Y009867D01*
X012120Y009775D01*
X012142Y009775D01*
X012142Y009753D01*
X012120Y009753D01*
X011946Y009753D01*
X011946Y009769D01*
X012146Y009769D01*
X012146Y009751D01*
X012194Y009711D01*
X012194Y009429D01*
X012144Y009403D01*
X012144Y009133D01*
X012418Y009133D01*
X012418Y010061D01*
X011642Y010061D01*
X011642Y009131D01*
X011916Y009131D01*
X011916Y009405D01*
X011866Y009429D01*
X011866Y009713D01*
X011914Y009753D01*
X011944Y009753D01*
X011944Y009871D01*
X011966Y009893D01*
X012092Y009893D01*
X012103Y009883D02*
X012418Y009883D01*
X012418Y009875D02*
X012112Y009875D01*
X012120Y009866D02*
X012418Y009866D01*
X012418Y009858D02*
X012120Y009858D01*
X012120Y009849D02*
X012418Y009849D01*
X012418Y009841D02*
X012120Y009841D01*
X012120Y009832D02*
X012418Y009832D01*
X012418Y009824D02*
X012120Y009824D01*
X012120Y009815D02*
X012418Y009815D01*
X012418Y009807D02*
X012120Y009807D01*
X012120Y009798D02*
X012418Y009798D01*
X012418Y009790D02*
X012120Y009790D01*
X012120Y009781D02*
X012418Y009781D01*
X012418Y009773D02*
X012142Y009773D01*
X012142Y009764D02*
X011946Y009764D01*
X011944Y009764D02*
X011642Y009764D01*
X011642Y009756D02*
X011944Y009756D01*
X011946Y009756D02*
X012142Y009756D01*
X012146Y009756D02*
X012418Y009756D01*
X012418Y009764D02*
X012146Y009764D01*
X012151Y009747D02*
X012418Y009747D01*
X012418Y009739D02*
X012161Y009739D01*
X012172Y009730D02*
X012418Y009730D01*
X012418Y009722D02*
X012182Y009722D01*
X012192Y009713D02*
X012418Y009713D01*
X012418Y009705D02*
X012194Y009705D01*
X012194Y009696D02*
X012418Y009696D01*
X012418Y009688D02*
X012194Y009688D01*
X012194Y009679D02*
X012418Y009679D01*
X012418Y009671D02*
X012194Y009671D01*
X012194Y009662D02*
X012418Y009662D01*
X012418Y009654D02*
X012194Y009654D01*
X012194Y009645D02*
X012418Y009645D01*
X012418Y009637D02*
X012194Y009637D01*
X012194Y009628D02*
X012418Y009628D01*
X012418Y009620D02*
X012194Y009620D01*
X012194Y009611D02*
X012418Y009611D01*
X012418Y009603D02*
X012194Y009603D01*
X012194Y009594D02*
X012418Y009594D01*
X012418Y009586D02*
X012194Y009586D01*
X012194Y009577D02*
X012418Y009577D01*
X012418Y009569D02*
X012194Y009569D01*
X012194Y009560D02*
X012418Y009560D01*
X012418Y009552D02*
X012194Y009552D01*
X012194Y009543D02*
X012418Y009543D01*
X012418Y009535D02*
X012194Y009535D01*
X012194Y009526D02*
X012418Y009526D01*
X012418Y009518D02*
X012194Y009518D01*
X012194Y009509D02*
X012418Y009509D01*
X012418Y009501D02*
X012194Y009501D01*
X012194Y009492D02*
X012418Y009492D01*
X012418Y009484D02*
X012194Y009484D01*
X012194Y009475D02*
X012418Y009475D01*
X012418Y009467D02*
X012194Y009467D01*
X012194Y009458D02*
X012418Y009458D01*
X012418Y009450D02*
X012194Y009450D01*
X012194Y009441D02*
X012418Y009441D01*
X012418Y009433D02*
X012194Y009433D01*
X012185Y009424D02*
X012418Y009424D01*
X012418Y009416D02*
X012169Y009416D01*
X012152Y009407D02*
X012418Y009407D01*
X012418Y009399D02*
X012144Y009399D01*
X012144Y009390D02*
X012418Y009390D01*
X012418Y009382D02*
X012144Y009382D01*
X012144Y009373D02*
X012418Y009373D01*
X012418Y009365D02*
X012144Y009365D01*
X012144Y009356D02*
X012418Y009356D01*
X012418Y009348D02*
X012144Y009348D01*
X012144Y009339D02*
X012418Y009339D01*
X012418Y009331D02*
X012144Y009331D01*
X012144Y009322D02*
X012418Y009322D01*
X012418Y009314D02*
X012144Y009314D01*
X012144Y009305D02*
X012418Y009305D01*
X012418Y009297D02*
X012144Y009297D01*
X012144Y009288D02*
X012418Y009288D01*
X012418Y009280D02*
X012144Y009280D01*
X012144Y009271D02*
X012418Y009271D01*
X012418Y009263D02*
X012144Y009263D01*
X012144Y009254D02*
X012418Y009254D01*
X012418Y009246D02*
X012144Y009246D01*
X012144Y009237D02*
X012418Y009237D01*
X012418Y009229D02*
X012144Y009229D01*
X012144Y009220D02*
X012418Y009220D01*
X012418Y009212D02*
X012144Y009212D01*
X012144Y009203D02*
X012418Y009203D01*
X012418Y009195D02*
X012144Y009195D01*
X012144Y009186D02*
X012418Y009186D01*
X012418Y009178D02*
X012144Y009178D01*
X012144Y009169D02*
X012418Y009169D01*
X012418Y009161D02*
X012144Y009161D01*
X012144Y009152D02*
X012418Y009152D01*
X012418Y009144D02*
X012144Y009144D01*
X012144Y009135D02*
X012418Y009135D01*
X011916Y009135D02*
X011642Y009135D01*
X011642Y009144D02*
X011916Y009144D01*
X011916Y009152D02*
X011642Y009152D01*
X011642Y009161D02*
X011916Y009161D01*
X011916Y009169D02*
X011642Y009169D01*
X011642Y009178D02*
X011916Y009178D01*
X011916Y009186D02*
X011642Y009186D01*
X011642Y009195D02*
X011916Y009195D01*
X011916Y009203D02*
X011642Y009203D01*
X011642Y009212D02*
X011916Y009212D01*
X011916Y009220D02*
X011642Y009220D01*
X011642Y009229D02*
X011916Y009229D01*
X011916Y009237D02*
X011642Y009237D01*
X011642Y009246D02*
X011916Y009246D01*
X011916Y009254D02*
X011642Y009254D01*
X011642Y009263D02*
X011916Y009263D01*
X011916Y009271D02*
X011642Y009271D01*
X011642Y009280D02*
X011916Y009280D01*
X011916Y009288D02*
X011642Y009288D01*
X011642Y009297D02*
X011916Y009297D01*
X011916Y009305D02*
X011642Y009305D01*
X011642Y009314D02*
X011916Y009314D01*
X011916Y009322D02*
X011642Y009322D01*
X011642Y009331D02*
X011916Y009331D01*
X011916Y009339D02*
X011642Y009339D01*
X011642Y009348D02*
X011916Y009348D01*
X011916Y009356D02*
X011642Y009356D01*
X011642Y009365D02*
X011916Y009365D01*
X011916Y009373D02*
X011642Y009373D01*
X011642Y009382D02*
X011916Y009382D01*
X011916Y009390D02*
X011642Y009390D01*
X011642Y009399D02*
X011916Y009399D01*
X011912Y009407D02*
X011642Y009407D01*
X011642Y009416D02*
X011894Y009416D01*
X011877Y009424D02*
X011642Y009424D01*
X011642Y009433D02*
X011866Y009433D01*
X011866Y009441D02*
X011642Y009441D01*
X011642Y009450D02*
X011866Y009450D01*
X011866Y009458D02*
X011642Y009458D01*
X011642Y009467D02*
X011866Y009467D01*
X011866Y009475D02*
X011642Y009475D01*
X011642Y009484D02*
X011866Y009484D01*
X011866Y009492D02*
X011642Y009492D01*
X011642Y009501D02*
X011866Y009501D01*
X011866Y009509D02*
X011642Y009509D01*
X011642Y009518D02*
X011866Y009518D01*
X011866Y009526D02*
X011642Y009526D01*
X011642Y009535D02*
X011866Y009535D01*
X011866Y009543D02*
X011642Y009543D01*
X011642Y009552D02*
X011866Y009552D01*
X011866Y009560D02*
X011642Y009560D01*
X011642Y009569D02*
X011866Y009569D01*
X011866Y009577D02*
X011642Y009577D01*
X011642Y009586D02*
X011866Y009586D01*
X011866Y009594D02*
X011642Y009594D01*
X011642Y009603D02*
X011866Y009603D01*
X011866Y009611D02*
X011642Y009611D01*
X011642Y009620D02*
X011866Y009620D01*
X011866Y009628D02*
X011642Y009628D01*
X011642Y009637D02*
X011866Y009637D01*
X011866Y009645D02*
X011642Y009645D01*
X011642Y009654D02*
X011866Y009654D01*
X011866Y009662D02*
X011642Y009662D01*
X011642Y009671D02*
X011866Y009671D01*
X011866Y009679D02*
X011642Y009679D01*
X011642Y009688D02*
X011866Y009688D01*
X011866Y009696D02*
X011642Y009696D01*
X011642Y009705D02*
X011866Y009705D01*
X011866Y009713D02*
X011642Y009713D01*
X011642Y009722D02*
X011877Y009722D01*
X011887Y009730D02*
X011642Y009730D01*
X011642Y009739D02*
X011897Y009739D01*
X011907Y009747D02*
X011642Y009747D01*
X011642Y009773D02*
X011944Y009773D01*
X011944Y009781D02*
X011642Y009781D01*
X011642Y009790D02*
X011944Y009790D01*
X011944Y009798D02*
X011642Y009798D01*
X011642Y009807D02*
X011944Y009807D01*
X011944Y009815D02*
X011642Y009815D01*
X011642Y009824D02*
X011944Y009824D01*
X011944Y009832D02*
X011642Y009832D01*
X011642Y009841D02*
X011944Y009841D01*
X011944Y009849D02*
X011642Y009849D01*
X011642Y009858D02*
X011944Y009858D01*
X011944Y009866D02*
X011642Y009866D01*
X011642Y009875D02*
X011948Y009875D01*
X011956Y009883D02*
X011642Y009883D01*
X011642Y009892D02*
X011965Y009892D01*
X017918Y009892D02*
X018241Y009892D01*
X018242Y009893D02*
X018368Y009893D01*
X018396Y009867D01*
X018396Y009775D01*
X018418Y009775D01*
X018418Y009753D01*
X018396Y009753D01*
X018222Y009753D01*
X018222Y009769D01*
X018422Y009769D01*
X018422Y009751D01*
X018470Y009711D01*
X018470Y009429D01*
X018420Y009403D01*
X018420Y009133D01*
X018694Y009133D01*
X018694Y010061D01*
X017918Y010061D01*
X017918Y009131D01*
X018192Y009131D01*
X018192Y009405D01*
X018142Y009429D01*
X018142Y009713D01*
X018190Y009753D01*
X018220Y009753D01*
X018220Y009871D01*
X018242Y009893D01*
X018232Y009883D02*
X017918Y009883D01*
X017918Y009875D02*
X018224Y009875D01*
X018220Y009866D02*
X017918Y009866D01*
X017918Y009858D02*
X018220Y009858D01*
X018220Y009849D02*
X017918Y009849D01*
X017918Y009841D02*
X018220Y009841D01*
X018220Y009832D02*
X017918Y009832D01*
X017918Y009824D02*
X018220Y009824D01*
X018220Y009815D02*
X017918Y009815D01*
X017918Y009807D02*
X018220Y009807D01*
X018220Y009798D02*
X017918Y009798D01*
X017918Y009790D02*
X018220Y009790D01*
X018220Y009781D02*
X017918Y009781D01*
X017918Y009773D02*
X018220Y009773D01*
X018220Y009764D02*
X017918Y009764D01*
X017918Y009756D02*
X018220Y009756D01*
X018222Y009756D02*
X018418Y009756D01*
X018422Y009756D02*
X018694Y009756D01*
X018694Y009764D02*
X018422Y009764D01*
X018418Y009764D02*
X018222Y009764D01*
X018183Y009747D02*
X017918Y009747D01*
X017918Y009739D02*
X018173Y009739D01*
X018162Y009730D02*
X017918Y009730D01*
X017918Y009722D02*
X018152Y009722D01*
X018142Y009713D02*
X017918Y009713D01*
X017918Y009705D02*
X018142Y009705D01*
X018142Y009696D02*
X017918Y009696D01*
X017918Y009688D02*
X018142Y009688D01*
X018142Y009679D02*
X017918Y009679D01*
X017918Y009671D02*
X018142Y009671D01*
X018142Y009662D02*
X017918Y009662D01*
X017918Y009654D02*
X018142Y009654D01*
X018142Y009645D02*
X017918Y009645D01*
X017918Y009637D02*
X018142Y009637D01*
X018142Y009628D02*
X017918Y009628D01*
X017918Y009620D02*
X018142Y009620D01*
X018142Y009611D02*
X017918Y009611D01*
X017918Y009603D02*
X018142Y009603D01*
X018142Y009594D02*
X017918Y009594D01*
X017918Y009586D02*
X018142Y009586D01*
X018142Y009577D02*
X017918Y009577D01*
X017918Y009569D02*
X018142Y009569D01*
X018142Y009560D02*
X017918Y009560D01*
X017918Y009552D02*
X018142Y009552D01*
X018142Y009543D02*
X017918Y009543D01*
X017918Y009535D02*
X018142Y009535D01*
X018142Y009526D02*
X017918Y009526D01*
X017918Y009518D02*
X018142Y009518D01*
X018142Y009509D02*
X017918Y009509D01*
X017918Y009501D02*
X018142Y009501D01*
X018142Y009492D02*
X017918Y009492D01*
X017918Y009484D02*
X018142Y009484D01*
X018142Y009475D02*
X017918Y009475D01*
X017918Y009467D02*
X018142Y009467D01*
X018142Y009458D02*
X017918Y009458D01*
X017918Y009450D02*
X018142Y009450D01*
X018142Y009441D02*
X017918Y009441D01*
X017918Y009433D02*
X018142Y009433D01*
X018152Y009424D02*
X017918Y009424D01*
X017918Y009416D02*
X018170Y009416D01*
X018188Y009407D02*
X017918Y009407D01*
X017918Y009399D02*
X018192Y009399D01*
X018192Y009390D02*
X017918Y009390D01*
X017918Y009382D02*
X018192Y009382D01*
X018192Y009373D02*
X017918Y009373D01*
X017918Y009365D02*
X018192Y009365D01*
X018192Y009356D02*
X017918Y009356D01*
X017918Y009348D02*
X018192Y009348D01*
X018192Y009339D02*
X017918Y009339D01*
X017918Y009331D02*
X018192Y009331D01*
X018192Y009322D02*
X017918Y009322D01*
X017918Y009314D02*
X018192Y009314D01*
X018192Y009305D02*
X017918Y009305D01*
X017918Y009297D02*
X018192Y009297D01*
X018192Y009288D02*
X017918Y009288D01*
X017918Y009280D02*
X018192Y009280D01*
X018192Y009271D02*
X017918Y009271D01*
X017918Y009263D02*
X018192Y009263D01*
X018192Y009254D02*
X017918Y009254D01*
X017918Y009246D02*
X018192Y009246D01*
X018192Y009237D02*
X017918Y009237D01*
X017918Y009229D02*
X018192Y009229D01*
X018192Y009220D02*
X017918Y009220D01*
X017918Y009212D02*
X018192Y009212D01*
X018192Y009203D02*
X017918Y009203D01*
X017918Y009195D02*
X018192Y009195D01*
X018192Y009186D02*
X017918Y009186D01*
X017918Y009178D02*
X018192Y009178D01*
X018192Y009169D02*
X017918Y009169D01*
X017918Y009161D02*
X018192Y009161D01*
X018192Y009152D02*
X017918Y009152D01*
X017918Y009144D02*
X018192Y009144D01*
X018192Y009135D02*
X017918Y009135D01*
X018420Y009135D02*
X018694Y009135D01*
X018694Y009144D02*
X018420Y009144D01*
X018420Y009152D02*
X018694Y009152D01*
X018694Y009161D02*
X018420Y009161D01*
X018420Y009169D02*
X018694Y009169D01*
X018694Y009178D02*
X018420Y009178D01*
X018420Y009186D02*
X018694Y009186D01*
X018694Y009195D02*
X018420Y009195D01*
X018420Y009203D02*
X018694Y009203D01*
X018694Y009212D02*
X018420Y009212D01*
X018420Y009220D02*
X018694Y009220D01*
X018694Y009229D02*
X018420Y009229D01*
X018420Y009237D02*
X018694Y009237D01*
X018694Y009246D02*
X018420Y009246D01*
X018420Y009254D02*
X018694Y009254D01*
X018694Y009263D02*
X018420Y009263D01*
X018420Y009271D02*
X018694Y009271D01*
X018694Y009280D02*
X018420Y009280D01*
X018420Y009288D02*
X018694Y009288D01*
X018694Y009297D02*
X018420Y009297D01*
X018420Y009305D02*
X018694Y009305D01*
X018694Y009314D02*
X018420Y009314D01*
X018420Y009322D02*
X018694Y009322D01*
X018694Y009331D02*
X018420Y009331D01*
X018420Y009339D02*
X018694Y009339D01*
X018694Y009348D02*
X018420Y009348D01*
X018420Y009356D02*
X018694Y009356D01*
X018694Y009365D02*
X018420Y009365D01*
X018420Y009373D02*
X018694Y009373D01*
X018694Y009382D02*
X018420Y009382D01*
X018420Y009390D02*
X018694Y009390D01*
X018694Y009399D02*
X018420Y009399D01*
X018428Y009407D02*
X018694Y009407D01*
X018694Y009416D02*
X018444Y009416D01*
X018460Y009424D02*
X018694Y009424D01*
X018694Y009433D02*
X018470Y009433D01*
X018470Y009441D02*
X018694Y009441D01*
X018694Y009450D02*
X018470Y009450D01*
X018470Y009458D02*
X018694Y009458D01*
X018694Y009467D02*
X018470Y009467D01*
X018470Y009475D02*
X018694Y009475D01*
X018694Y009484D02*
X018470Y009484D01*
X018470Y009492D02*
X018694Y009492D01*
X018694Y009501D02*
X018470Y009501D01*
X018470Y009509D02*
X018694Y009509D01*
X018694Y009518D02*
X018470Y009518D01*
X018470Y009526D02*
X018694Y009526D01*
X018694Y009535D02*
X018470Y009535D01*
X018470Y009543D02*
X018694Y009543D01*
X018694Y009552D02*
X018470Y009552D01*
X018470Y009560D02*
X018694Y009560D01*
X018694Y009569D02*
X018470Y009569D01*
X018470Y009577D02*
X018694Y009577D01*
X018694Y009586D02*
X018470Y009586D01*
X018470Y009594D02*
X018694Y009594D01*
X018694Y009603D02*
X018470Y009603D01*
X018470Y009611D02*
X018694Y009611D01*
X018694Y009620D02*
X018470Y009620D01*
X018470Y009628D02*
X018694Y009628D01*
X018694Y009637D02*
X018470Y009637D01*
X018470Y009645D02*
X018694Y009645D01*
X018694Y009654D02*
X018470Y009654D01*
X018470Y009662D02*
X018694Y009662D01*
X018694Y009671D02*
X018470Y009671D01*
X018470Y009679D02*
X018694Y009679D01*
X018694Y009688D02*
X018470Y009688D01*
X018470Y009696D02*
X018694Y009696D01*
X018694Y009705D02*
X018470Y009705D01*
X018467Y009713D02*
X018694Y009713D01*
X018694Y009722D02*
X018457Y009722D01*
X018447Y009730D02*
X018694Y009730D01*
X018694Y009739D02*
X018437Y009739D01*
X018427Y009747D02*
X018694Y009747D01*
X018694Y009773D02*
X018418Y009773D01*
X018396Y009781D02*
X018694Y009781D01*
X018694Y009790D02*
X018396Y009790D01*
X018396Y009798D02*
X018694Y009798D01*
X018694Y009807D02*
X018396Y009807D01*
X018396Y009815D02*
X018694Y009815D01*
X018694Y009824D02*
X018396Y009824D01*
X018396Y009832D02*
X018694Y009832D01*
X018694Y009841D02*
X018396Y009841D01*
X018396Y009849D02*
X018694Y009849D01*
X018694Y009858D02*
X018396Y009858D01*
X018396Y009866D02*
X018694Y009866D01*
X018694Y009875D02*
X018388Y009875D01*
X018379Y009883D02*
X018694Y009883D01*
X018694Y009892D02*
X018370Y009892D01*
X018694Y009900D02*
X017918Y009900D01*
X017918Y009909D02*
X018694Y009909D01*
X018694Y009917D02*
X017918Y009917D01*
X017918Y009926D02*
X018694Y009926D01*
X018694Y009934D02*
X017918Y009934D01*
X017918Y009943D02*
X018694Y009943D01*
X018694Y009951D02*
X017918Y009951D01*
X017918Y009960D02*
X018694Y009960D01*
X018694Y009968D02*
X017918Y009968D01*
X017918Y009977D02*
X018694Y009977D01*
X018694Y009985D02*
X017918Y009985D01*
X017918Y009994D02*
X018694Y009994D01*
X018694Y010002D02*
X017918Y010002D01*
X017918Y010011D02*
X018694Y010011D01*
X018694Y010019D02*
X017918Y010019D01*
X017918Y010028D02*
X018694Y010028D01*
X018694Y010036D02*
X017918Y010036D01*
X017918Y010045D02*
X018694Y010045D01*
X018694Y010053D02*
X017918Y010053D01*
X024194Y010053D02*
X024970Y010053D01*
X024970Y010045D02*
X024194Y010045D01*
X024194Y010036D02*
X024970Y010036D01*
X024970Y010028D02*
X024194Y010028D01*
X024194Y010019D02*
X024970Y010019D01*
X024970Y010011D02*
X024194Y010011D01*
X024194Y010002D02*
X024970Y010002D01*
X024970Y009994D02*
X024194Y009994D01*
X024194Y009985D02*
X024970Y009985D01*
X024970Y009977D02*
X024194Y009977D01*
X024194Y009968D02*
X024970Y009968D01*
X024970Y009960D02*
X024194Y009960D01*
X024194Y009951D02*
X024970Y009951D01*
X024970Y009943D02*
X024194Y009943D01*
X024194Y009934D02*
X024970Y009934D01*
X024970Y009926D02*
X024194Y009926D01*
X024194Y009917D02*
X024970Y009917D01*
X024970Y009909D02*
X024194Y009909D01*
X024194Y009900D02*
X024970Y009900D01*
X024970Y009892D02*
X024645Y009892D01*
X024644Y009893D02*
X024672Y009867D01*
X024672Y009775D01*
X024694Y009775D01*
X024694Y009753D01*
X024672Y009753D01*
X024498Y009753D01*
X024498Y009769D01*
X024698Y009769D01*
X024698Y009751D01*
X024746Y009711D01*
X024746Y009429D01*
X024696Y009403D01*
X024696Y009133D01*
X024970Y009133D01*
X024970Y010061D01*
X024194Y010061D01*
X024194Y009131D01*
X024468Y009131D01*
X024468Y009405D01*
X024418Y009429D01*
X024418Y009713D01*
X024194Y009713D01*
X024194Y009705D02*
X024418Y009705D01*
X024418Y009713D02*
X024466Y009753D01*
X024496Y009753D01*
X024496Y009871D01*
X024518Y009893D01*
X024644Y009893D01*
X024654Y009883D02*
X024970Y009883D01*
X024970Y009875D02*
X024663Y009875D01*
X024672Y009866D02*
X024970Y009866D01*
X024970Y009858D02*
X024672Y009858D01*
X024672Y009849D02*
X024970Y009849D01*
X024970Y009841D02*
X024672Y009841D01*
X024672Y009832D02*
X024970Y009832D01*
X024970Y009824D02*
X024672Y009824D01*
X024672Y009815D02*
X024970Y009815D01*
X024970Y009807D02*
X024672Y009807D01*
X024672Y009798D02*
X024970Y009798D01*
X024970Y009790D02*
X024672Y009790D01*
X024672Y009781D02*
X024970Y009781D01*
X024970Y009773D02*
X024694Y009773D01*
X024694Y009764D02*
X024498Y009764D01*
X024496Y009764D02*
X024194Y009764D01*
X024194Y009756D02*
X024496Y009756D01*
X024498Y009756D02*
X024694Y009756D01*
X024698Y009756D02*
X024970Y009756D01*
X024970Y009764D02*
X024698Y009764D01*
X024702Y009747D02*
X024970Y009747D01*
X024970Y009739D02*
X024712Y009739D01*
X024723Y009730D02*
X024970Y009730D01*
X024970Y009722D02*
X024733Y009722D01*
X024743Y009713D02*
X024970Y009713D01*
X024970Y009705D02*
X024746Y009705D01*
X024746Y009696D02*
X024970Y009696D01*
X024970Y009688D02*
X024746Y009688D01*
X024746Y009679D02*
X024970Y009679D01*
X024970Y009671D02*
X024746Y009671D01*
X024746Y009662D02*
X024970Y009662D01*
X024970Y009654D02*
X024746Y009654D01*
X024746Y009645D02*
X024970Y009645D01*
X024970Y009637D02*
X024746Y009637D01*
X024746Y009628D02*
X024970Y009628D01*
X024970Y009620D02*
X024746Y009620D01*
X024746Y009611D02*
X024970Y009611D01*
X024970Y009603D02*
X024746Y009603D01*
X024746Y009594D02*
X024970Y009594D01*
X024970Y009586D02*
X024746Y009586D01*
X024746Y009577D02*
X024970Y009577D01*
X024970Y009569D02*
X024746Y009569D01*
X024746Y009560D02*
X024970Y009560D01*
X024970Y009552D02*
X024746Y009552D01*
X024746Y009543D02*
X024970Y009543D01*
X024970Y009535D02*
X024746Y009535D01*
X024746Y009526D02*
X024970Y009526D01*
X024970Y009518D02*
X024746Y009518D01*
X024746Y009509D02*
X024970Y009509D01*
X024970Y009501D02*
X024746Y009501D01*
X024746Y009492D02*
X024970Y009492D01*
X024970Y009484D02*
X024746Y009484D01*
X024746Y009475D02*
X024970Y009475D01*
X024970Y009467D02*
X024746Y009467D01*
X024746Y009458D02*
X024970Y009458D01*
X024970Y009450D02*
X024746Y009450D01*
X024746Y009441D02*
X024970Y009441D01*
X024970Y009433D02*
X024746Y009433D01*
X024736Y009424D02*
X024970Y009424D01*
X024970Y009416D02*
X024720Y009416D01*
X024703Y009407D02*
X024970Y009407D01*
X024970Y009399D02*
X024696Y009399D01*
X024696Y009390D02*
X024970Y009390D01*
X024970Y009382D02*
X024696Y009382D01*
X024696Y009373D02*
X024970Y009373D01*
X024970Y009365D02*
X024696Y009365D01*
X024696Y009356D02*
X024970Y009356D01*
X024970Y009348D02*
X024696Y009348D01*
X024696Y009339D02*
X024970Y009339D01*
X024970Y009331D02*
X024696Y009331D01*
X024696Y009322D02*
X024970Y009322D01*
X024970Y009314D02*
X024696Y009314D01*
X024696Y009305D02*
X024970Y009305D01*
X024970Y009297D02*
X024696Y009297D01*
X024696Y009288D02*
X024970Y009288D01*
X024970Y009280D02*
X024696Y009280D01*
X024696Y009271D02*
X024970Y009271D01*
X024970Y009263D02*
X024696Y009263D01*
X024696Y009254D02*
X024970Y009254D01*
X024970Y009246D02*
X024696Y009246D01*
X024696Y009237D02*
X024970Y009237D01*
X024970Y009229D02*
X024696Y009229D01*
X024696Y009220D02*
X024970Y009220D01*
X024970Y009212D02*
X024696Y009212D01*
X024696Y009203D02*
X024970Y009203D01*
X024970Y009195D02*
X024696Y009195D01*
X024696Y009186D02*
X024970Y009186D01*
X024970Y009178D02*
X024696Y009178D01*
X024696Y009169D02*
X024970Y009169D01*
X024970Y009161D02*
X024696Y009161D01*
X024696Y009152D02*
X024970Y009152D01*
X024970Y009144D02*
X024696Y009144D01*
X024696Y009135D02*
X024970Y009135D01*
X024468Y009135D02*
X024194Y009135D01*
X024194Y009144D02*
X024468Y009144D01*
X024468Y009152D02*
X024194Y009152D01*
X024194Y009161D02*
X024468Y009161D01*
X024468Y009169D02*
X024194Y009169D01*
X024194Y009178D02*
X024468Y009178D01*
X024468Y009186D02*
X024194Y009186D01*
X024194Y009195D02*
X024468Y009195D01*
X024468Y009203D02*
X024194Y009203D01*
X024194Y009212D02*
X024468Y009212D01*
X024468Y009220D02*
X024194Y009220D01*
X024194Y009229D02*
X024468Y009229D01*
X024468Y009237D02*
X024194Y009237D01*
X024194Y009246D02*
X024468Y009246D01*
X024468Y009254D02*
X024194Y009254D01*
X024194Y009263D02*
X024468Y009263D01*
X024468Y009271D02*
X024194Y009271D01*
X024194Y009280D02*
X024468Y009280D01*
X024468Y009288D02*
X024194Y009288D01*
X024194Y009297D02*
X024468Y009297D01*
X024468Y009305D02*
X024194Y009305D01*
X024194Y009314D02*
X024468Y009314D01*
X024468Y009322D02*
X024194Y009322D01*
X024194Y009331D02*
X024468Y009331D01*
X024468Y009339D02*
X024194Y009339D01*
X024194Y009348D02*
X024468Y009348D01*
X024468Y009356D02*
X024194Y009356D01*
X024194Y009365D02*
X024468Y009365D01*
X024468Y009373D02*
X024194Y009373D01*
X024194Y009382D02*
X024468Y009382D01*
X024468Y009390D02*
X024194Y009390D01*
X024194Y009399D02*
X024468Y009399D01*
X024463Y009407D02*
X024194Y009407D01*
X024194Y009416D02*
X024446Y009416D01*
X024428Y009424D02*
X024194Y009424D01*
X024194Y009433D02*
X024418Y009433D01*
X024418Y009441D02*
X024194Y009441D01*
X024194Y009450D02*
X024418Y009450D01*
X024418Y009458D02*
X024194Y009458D01*
X024194Y009467D02*
X024418Y009467D01*
X024418Y009475D02*
X024194Y009475D01*
X024194Y009484D02*
X024418Y009484D01*
X024418Y009492D02*
X024194Y009492D01*
X024194Y009501D02*
X024418Y009501D01*
X024418Y009509D02*
X024194Y009509D01*
X024194Y009518D02*
X024418Y009518D01*
X024418Y009526D02*
X024194Y009526D01*
X024194Y009535D02*
X024418Y009535D01*
X024418Y009543D02*
X024194Y009543D01*
X024194Y009552D02*
X024418Y009552D01*
X024418Y009560D02*
X024194Y009560D01*
X024194Y009569D02*
X024418Y009569D01*
X024418Y009577D02*
X024194Y009577D01*
X024194Y009586D02*
X024418Y009586D01*
X024418Y009594D02*
X024194Y009594D01*
X024194Y009603D02*
X024418Y009603D01*
X024418Y009611D02*
X024194Y009611D01*
X024194Y009620D02*
X024418Y009620D01*
X024418Y009628D02*
X024194Y009628D01*
X024194Y009637D02*
X024418Y009637D01*
X024418Y009645D02*
X024194Y009645D01*
X024194Y009654D02*
X024418Y009654D01*
X024418Y009662D02*
X024194Y009662D01*
X024194Y009671D02*
X024418Y009671D01*
X024418Y009679D02*
X024194Y009679D01*
X024194Y009688D02*
X024418Y009688D01*
X024418Y009696D02*
X024194Y009696D01*
X024194Y009722D02*
X024428Y009722D01*
X024438Y009730D02*
X024194Y009730D01*
X024194Y009739D02*
X024448Y009739D01*
X024458Y009747D02*
X024194Y009747D01*
X024194Y009773D02*
X024496Y009773D01*
X024496Y009781D02*
X024194Y009781D01*
X024194Y009790D02*
X024496Y009790D01*
X024496Y009798D02*
X024194Y009798D01*
X024194Y009807D02*
X024496Y009807D01*
X024496Y009815D02*
X024194Y009815D01*
X024194Y009824D02*
X024496Y009824D01*
X024496Y009832D02*
X024194Y009832D01*
X024194Y009841D02*
X024496Y009841D01*
X024496Y009849D02*
X024194Y009849D01*
X024194Y009858D02*
X024496Y009858D01*
X024496Y009866D02*
X024194Y009866D01*
X024194Y009875D02*
X024499Y009875D01*
X024508Y009883D02*
X024194Y009883D01*
X024194Y009892D02*
X024516Y009892D01*
X030469Y009892D02*
X030792Y009892D01*
X030793Y009893D02*
X030919Y009893D01*
X030947Y009867D01*
X030947Y009775D01*
X030969Y009775D01*
X030969Y009753D01*
X030947Y009753D01*
X030773Y009753D01*
X030773Y009769D01*
X030973Y009769D01*
X030973Y009751D01*
X031021Y009711D01*
X031021Y009429D01*
X030971Y009403D01*
X030971Y009133D01*
X031245Y009133D01*
X031245Y010061D01*
X030469Y010061D01*
X030469Y009131D01*
X030743Y009131D01*
X030743Y009405D01*
X030693Y009429D01*
X030693Y009713D01*
X030741Y009753D01*
X030771Y009753D01*
X030771Y009871D01*
X030793Y009893D01*
X030783Y009883D02*
X030469Y009883D01*
X030469Y009875D02*
X030775Y009875D01*
X030771Y009866D02*
X030469Y009866D01*
X030469Y009858D02*
X030771Y009858D01*
X030771Y009849D02*
X030469Y009849D01*
X030469Y009841D02*
X030771Y009841D01*
X030771Y009832D02*
X030469Y009832D01*
X030469Y009824D02*
X030771Y009824D01*
X030771Y009815D02*
X030469Y009815D01*
X030469Y009807D02*
X030771Y009807D01*
X030771Y009798D02*
X030469Y009798D01*
X030469Y009790D02*
X030771Y009790D01*
X030771Y009781D02*
X030469Y009781D01*
X030469Y009773D02*
X030771Y009773D01*
X030771Y009764D02*
X030469Y009764D01*
X030469Y009756D02*
X030771Y009756D01*
X030773Y009756D02*
X030969Y009756D01*
X030973Y009756D02*
X031245Y009756D01*
X031245Y009764D02*
X030973Y009764D01*
X030969Y009764D02*
X030773Y009764D01*
X030734Y009747D02*
X030469Y009747D01*
X030469Y009739D02*
X030724Y009739D01*
X030714Y009730D02*
X030469Y009730D01*
X030469Y009722D02*
X030703Y009722D01*
X030693Y009713D02*
X030469Y009713D01*
X030469Y009705D02*
X030693Y009705D01*
X030693Y009696D02*
X030469Y009696D01*
X030469Y009688D02*
X030693Y009688D01*
X030693Y009679D02*
X030469Y009679D01*
X030469Y009671D02*
X030693Y009671D01*
X030693Y009662D02*
X030469Y009662D01*
X030469Y009654D02*
X030693Y009654D01*
X030693Y009645D02*
X030469Y009645D01*
X030469Y009637D02*
X030693Y009637D01*
X030693Y009628D02*
X030469Y009628D01*
X030469Y009620D02*
X030693Y009620D01*
X030693Y009611D02*
X030469Y009611D01*
X030469Y009603D02*
X030693Y009603D01*
X030693Y009594D02*
X030469Y009594D01*
X030469Y009586D02*
X030693Y009586D01*
X030693Y009577D02*
X030469Y009577D01*
X030469Y009569D02*
X030693Y009569D01*
X030693Y009560D02*
X030469Y009560D01*
X030469Y009552D02*
X030693Y009552D01*
X030693Y009543D02*
X030469Y009543D01*
X030469Y009535D02*
X030693Y009535D01*
X030693Y009526D02*
X030469Y009526D01*
X030469Y009518D02*
X030693Y009518D01*
X030693Y009509D02*
X030469Y009509D01*
X030469Y009501D02*
X030693Y009501D01*
X030693Y009492D02*
X030469Y009492D01*
X030469Y009484D02*
X030693Y009484D01*
X030693Y009475D02*
X030469Y009475D01*
X030469Y009467D02*
X030693Y009467D01*
X030693Y009458D02*
X030469Y009458D01*
X030469Y009450D02*
X030693Y009450D01*
X030693Y009441D02*
X030469Y009441D01*
X030469Y009433D02*
X030693Y009433D01*
X030703Y009424D02*
X030469Y009424D01*
X030469Y009416D02*
X030721Y009416D01*
X030739Y009407D02*
X030469Y009407D01*
X030469Y009399D02*
X030743Y009399D01*
X030743Y009390D02*
X030469Y009390D01*
X030469Y009382D02*
X030743Y009382D01*
X030743Y009373D02*
X030469Y009373D01*
X030469Y009365D02*
X030743Y009365D01*
X030743Y009356D02*
X030469Y009356D01*
X030469Y009348D02*
X030743Y009348D01*
X030743Y009339D02*
X030469Y009339D01*
X030469Y009331D02*
X030743Y009331D01*
X030743Y009322D02*
X030469Y009322D01*
X030469Y009314D02*
X030743Y009314D01*
X030743Y009305D02*
X030469Y009305D01*
X030469Y009297D02*
X030743Y009297D01*
X030743Y009288D02*
X030469Y009288D01*
X030469Y009280D02*
X030743Y009280D01*
X030743Y009271D02*
X030469Y009271D01*
X030469Y009263D02*
X030743Y009263D01*
X030743Y009254D02*
X030469Y009254D01*
X030469Y009246D02*
X030743Y009246D01*
X030743Y009237D02*
X030469Y009237D01*
X030469Y009229D02*
X030743Y009229D01*
X030743Y009220D02*
X030469Y009220D01*
X030469Y009212D02*
X030743Y009212D01*
X030743Y009203D02*
X030469Y009203D01*
X030469Y009195D02*
X030743Y009195D01*
X030743Y009186D02*
X030469Y009186D01*
X030469Y009178D02*
X030743Y009178D01*
X030743Y009169D02*
X030469Y009169D01*
X030469Y009161D02*
X030743Y009161D01*
X030743Y009152D02*
X030469Y009152D01*
X030469Y009144D02*
X030743Y009144D01*
X030743Y009135D02*
X030469Y009135D01*
X030971Y009135D02*
X031245Y009135D01*
X031245Y009144D02*
X030971Y009144D01*
X030971Y009152D02*
X031245Y009152D01*
X031245Y009161D02*
X030971Y009161D01*
X030971Y009169D02*
X031245Y009169D01*
X031245Y009178D02*
X030971Y009178D01*
X030971Y009186D02*
X031245Y009186D01*
X031245Y009195D02*
X030971Y009195D01*
X030971Y009203D02*
X031245Y009203D01*
X031245Y009212D02*
X030971Y009212D01*
X030971Y009220D02*
X031245Y009220D01*
X031245Y009229D02*
X030971Y009229D01*
X030971Y009237D02*
X031245Y009237D01*
X031245Y009246D02*
X030971Y009246D01*
X030971Y009254D02*
X031245Y009254D01*
X031245Y009263D02*
X030971Y009263D01*
X030971Y009271D02*
X031245Y009271D01*
X031245Y009280D02*
X030971Y009280D01*
X030971Y009288D02*
X031245Y009288D01*
X031245Y009297D02*
X030971Y009297D01*
X030971Y009305D02*
X031245Y009305D01*
X031245Y009314D02*
X030971Y009314D01*
X030971Y009322D02*
X031245Y009322D01*
X031245Y009331D02*
X030971Y009331D01*
X030971Y009339D02*
X031245Y009339D01*
X031245Y009348D02*
X030971Y009348D01*
X030971Y009356D02*
X031245Y009356D01*
X031245Y009365D02*
X030971Y009365D01*
X030971Y009373D02*
X031245Y009373D01*
X031245Y009382D02*
X030971Y009382D01*
X030971Y009390D02*
X031245Y009390D01*
X031245Y009399D02*
X030971Y009399D01*
X030979Y009407D02*
X031245Y009407D01*
X031245Y009416D02*
X030995Y009416D01*
X031012Y009424D02*
X031245Y009424D01*
X031245Y009433D02*
X031021Y009433D01*
X031021Y009441D02*
X031245Y009441D01*
X031245Y009450D02*
X031021Y009450D01*
X031021Y009458D02*
X031245Y009458D01*
X031245Y009467D02*
X031021Y009467D01*
X031021Y009475D02*
X031245Y009475D01*
X031245Y009484D02*
X031021Y009484D01*
X031021Y009492D02*
X031245Y009492D01*
X031245Y009501D02*
X031021Y009501D01*
X031021Y009509D02*
X031245Y009509D01*
X031245Y009518D02*
X031021Y009518D01*
X031021Y009526D02*
X031245Y009526D01*
X031245Y009535D02*
X031021Y009535D01*
X031021Y009543D02*
X031245Y009543D01*
X031245Y009552D02*
X031021Y009552D01*
X031021Y009560D02*
X031245Y009560D01*
X031245Y009569D02*
X031021Y009569D01*
X031021Y009577D02*
X031245Y009577D01*
X031245Y009586D02*
X031021Y009586D01*
X031021Y009594D02*
X031245Y009594D01*
X031245Y009603D02*
X031021Y009603D01*
X031021Y009611D02*
X031245Y009611D01*
X031245Y009620D02*
X031021Y009620D01*
X031021Y009628D02*
X031245Y009628D01*
X031245Y009637D02*
X031021Y009637D01*
X031021Y009645D02*
X031245Y009645D01*
X031245Y009654D02*
X031021Y009654D01*
X031021Y009662D02*
X031245Y009662D01*
X031245Y009671D02*
X031021Y009671D01*
X031021Y009679D02*
X031245Y009679D01*
X031245Y009688D02*
X031021Y009688D01*
X031021Y009696D02*
X031245Y009696D01*
X031245Y009705D02*
X031021Y009705D01*
X031019Y009713D02*
X031245Y009713D01*
X031245Y009722D02*
X031008Y009722D01*
X030998Y009730D02*
X031245Y009730D01*
X031245Y009739D02*
X030988Y009739D01*
X030978Y009747D02*
X031245Y009747D01*
X031245Y009773D02*
X030969Y009773D01*
X030947Y009781D02*
X031245Y009781D01*
X031245Y009790D02*
X030947Y009790D01*
X030947Y009798D02*
X031245Y009798D01*
X031245Y009807D02*
X030947Y009807D01*
X030947Y009815D02*
X031245Y009815D01*
X031245Y009824D02*
X030947Y009824D01*
X030947Y009832D02*
X031245Y009832D01*
X031245Y009841D02*
X030947Y009841D01*
X030947Y009849D02*
X031245Y009849D01*
X031245Y009858D02*
X030947Y009858D01*
X030947Y009866D02*
X031245Y009866D01*
X031245Y009875D02*
X030939Y009875D01*
X030930Y009883D02*
X031245Y009883D01*
X031245Y009892D02*
X030921Y009892D01*
X031245Y009900D02*
X030469Y009900D01*
X030469Y009909D02*
X031245Y009909D01*
X031245Y009917D02*
X030469Y009917D01*
X030469Y009926D02*
X031245Y009926D01*
X031245Y009934D02*
X030469Y009934D01*
X030469Y009943D02*
X031245Y009943D01*
X031245Y009951D02*
X030469Y009951D01*
X030469Y009960D02*
X031245Y009960D01*
X031245Y009968D02*
X030469Y009968D01*
X030469Y009977D02*
X031245Y009977D01*
X031245Y009985D02*
X030469Y009985D01*
X030469Y009994D02*
X031245Y009994D01*
X031245Y010002D02*
X030469Y010002D01*
X030469Y010011D02*
X031245Y010011D01*
X031245Y010019D02*
X030469Y010019D01*
X030469Y010028D02*
X031245Y010028D01*
X031245Y010036D02*
X030469Y010036D01*
X030469Y010045D02*
X031245Y010045D01*
X031245Y010053D02*
X030469Y010053D01*
X030469Y019407D02*
X030743Y019407D01*
X030743Y019681D01*
X030693Y019705D01*
X030693Y019989D01*
X030741Y020029D01*
X030771Y020029D01*
X030771Y020147D01*
X030793Y020169D01*
X030919Y020169D01*
X030947Y020143D01*
X030947Y020051D01*
X030969Y020051D01*
X030969Y020029D01*
X030947Y020029D01*
X030773Y020029D01*
X030773Y020045D01*
X030973Y020045D01*
X030973Y020027D01*
X031021Y019987D01*
X031021Y019705D01*
X030971Y019679D01*
X030971Y019409D01*
X031245Y019409D01*
X031245Y020337D01*
X030469Y020337D01*
X030469Y019407D01*
X030469Y019412D02*
X030743Y019412D01*
X030743Y019421D02*
X030469Y019421D01*
X030469Y019429D02*
X030743Y019429D01*
X030743Y019438D02*
X030469Y019438D01*
X030469Y019446D02*
X030743Y019446D01*
X030743Y019455D02*
X030469Y019455D01*
X030469Y019463D02*
X030743Y019463D01*
X030743Y019472D02*
X030469Y019472D01*
X030469Y019480D02*
X030743Y019480D01*
X030743Y019489D02*
X030469Y019489D01*
X030469Y019497D02*
X030743Y019497D01*
X030743Y019506D02*
X030469Y019506D01*
X030469Y019514D02*
X030743Y019514D01*
X030743Y019523D02*
X030469Y019523D01*
X030469Y019531D02*
X030743Y019531D01*
X030743Y019540D02*
X030469Y019540D01*
X030469Y019548D02*
X030743Y019548D01*
X030743Y019557D02*
X030469Y019557D01*
X030469Y019565D02*
X030743Y019565D01*
X030743Y019574D02*
X030469Y019574D01*
X030469Y019582D02*
X030743Y019582D01*
X030743Y019591D02*
X030469Y019591D01*
X030469Y019599D02*
X030743Y019599D01*
X030743Y019608D02*
X030469Y019608D01*
X030469Y019616D02*
X030743Y019616D01*
X030743Y019625D02*
X030469Y019625D01*
X030469Y019633D02*
X030743Y019633D01*
X030743Y019642D02*
X030469Y019642D01*
X030469Y019650D02*
X030743Y019650D01*
X030743Y019659D02*
X030469Y019659D01*
X030469Y019667D02*
X030743Y019667D01*
X030743Y019676D02*
X030469Y019676D01*
X030469Y019684D02*
X030736Y019684D01*
X030719Y019693D02*
X030469Y019693D01*
X030469Y019701D02*
X030701Y019701D01*
X030693Y019710D02*
X030469Y019710D01*
X030469Y019718D02*
X030693Y019718D01*
X030693Y019727D02*
X030469Y019727D01*
X030469Y019735D02*
X030693Y019735D01*
X030693Y019744D02*
X030469Y019744D01*
X030469Y019752D02*
X030693Y019752D01*
X030693Y019761D02*
X030469Y019761D01*
X030469Y019769D02*
X030693Y019769D01*
X030693Y019778D02*
X030469Y019778D01*
X030469Y019786D02*
X030693Y019786D01*
X030693Y019795D02*
X030469Y019795D01*
X030469Y019803D02*
X030693Y019803D01*
X030693Y019812D02*
X030469Y019812D01*
X030469Y019820D02*
X030693Y019820D01*
X030693Y019829D02*
X030469Y019829D01*
X030469Y019837D02*
X030693Y019837D01*
X030693Y019846D02*
X030469Y019846D01*
X030469Y019854D02*
X030693Y019854D01*
X030693Y019863D02*
X030469Y019863D01*
X030469Y019871D02*
X030693Y019871D01*
X030693Y019880D02*
X030469Y019880D01*
X030469Y019888D02*
X030693Y019888D01*
X030693Y019897D02*
X030469Y019897D01*
X030469Y019905D02*
X030693Y019905D01*
X030693Y019914D02*
X030469Y019914D01*
X030469Y019922D02*
X030693Y019922D01*
X030693Y019931D02*
X030469Y019931D01*
X030469Y019939D02*
X030693Y019939D01*
X030693Y019948D02*
X030469Y019948D01*
X030469Y019956D02*
X030693Y019956D01*
X030693Y019965D02*
X030469Y019965D01*
X030469Y019973D02*
X030693Y019973D01*
X030693Y019982D02*
X030469Y019982D01*
X030469Y019990D02*
X030695Y019990D01*
X030705Y019999D02*
X030469Y019999D01*
X030469Y020007D02*
X030715Y020007D01*
X030725Y020016D02*
X030469Y020016D01*
X030469Y020024D02*
X030735Y020024D01*
X030771Y020033D02*
X030469Y020033D01*
X030469Y020041D02*
X030771Y020041D01*
X030773Y020041D02*
X030969Y020041D01*
X030973Y020041D02*
X031245Y020041D01*
X031245Y020033D02*
X030973Y020033D01*
X030969Y020033D02*
X030773Y020033D01*
X030771Y020050D02*
X030469Y020050D01*
X030469Y020058D02*
X030771Y020058D01*
X030771Y020067D02*
X030469Y020067D01*
X030469Y020075D02*
X030771Y020075D01*
X030771Y020084D02*
X030469Y020084D01*
X030469Y020092D02*
X030771Y020092D01*
X030771Y020101D02*
X030469Y020101D01*
X030469Y020109D02*
X030771Y020109D01*
X030771Y020118D02*
X030469Y020118D01*
X030469Y020126D02*
X030771Y020126D01*
X030771Y020135D02*
X030469Y020135D01*
X030469Y020143D02*
X030771Y020143D01*
X030776Y020152D02*
X030469Y020152D01*
X030469Y020160D02*
X030784Y020160D01*
X030793Y020169D02*
X030469Y020169D01*
X030469Y020177D02*
X031245Y020177D01*
X031245Y020169D02*
X030919Y020169D01*
X030929Y020160D02*
X031245Y020160D01*
X031245Y020152D02*
X030938Y020152D01*
X030947Y020143D02*
X031245Y020143D01*
X031245Y020135D02*
X030947Y020135D01*
X030947Y020126D02*
X031245Y020126D01*
X031245Y020118D02*
X030947Y020118D01*
X030947Y020109D02*
X031245Y020109D01*
X031245Y020101D02*
X030947Y020101D01*
X030947Y020092D02*
X031245Y020092D01*
X031245Y020084D02*
X030947Y020084D01*
X030947Y020075D02*
X031245Y020075D01*
X031245Y020067D02*
X030947Y020067D01*
X030947Y020058D02*
X031245Y020058D01*
X031245Y020050D02*
X030969Y020050D01*
X030976Y020024D02*
X031245Y020024D01*
X031245Y020016D02*
X030987Y020016D01*
X030997Y020007D02*
X031245Y020007D01*
X031245Y019999D02*
X031007Y019999D01*
X031017Y019990D02*
X031245Y019990D01*
X031245Y019982D02*
X031021Y019982D01*
X031021Y019973D02*
X031245Y019973D01*
X031245Y019965D02*
X031021Y019965D01*
X031021Y019956D02*
X031245Y019956D01*
X031245Y019948D02*
X031021Y019948D01*
X031021Y019939D02*
X031245Y019939D01*
X031245Y019931D02*
X031021Y019931D01*
X031021Y019922D02*
X031245Y019922D01*
X031245Y019914D02*
X031021Y019914D01*
X031021Y019905D02*
X031245Y019905D01*
X031245Y019897D02*
X031021Y019897D01*
X031021Y019888D02*
X031245Y019888D01*
X031245Y019880D02*
X031021Y019880D01*
X031021Y019871D02*
X031245Y019871D01*
X031245Y019863D02*
X031021Y019863D01*
X031021Y019854D02*
X031245Y019854D01*
X031245Y019846D02*
X031021Y019846D01*
X031021Y019837D02*
X031245Y019837D01*
X031245Y019829D02*
X031021Y019829D01*
X031021Y019820D02*
X031245Y019820D01*
X031245Y019812D02*
X031021Y019812D01*
X031021Y019803D02*
X031245Y019803D01*
X031245Y019795D02*
X031021Y019795D01*
X031021Y019786D02*
X031245Y019786D01*
X031245Y019778D02*
X031021Y019778D01*
X031021Y019769D02*
X031245Y019769D01*
X031245Y019761D02*
X031021Y019761D01*
X031021Y019752D02*
X031245Y019752D01*
X031245Y019744D02*
X031021Y019744D01*
X031021Y019735D02*
X031245Y019735D01*
X031245Y019727D02*
X031021Y019727D01*
X031021Y019718D02*
X031245Y019718D01*
X031245Y019710D02*
X031021Y019710D01*
X031014Y019701D02*
X031245Y019701D01*
X031245Y019693D02*
X030998Y019693D01*
X030981Y019684D02*
X031245Y019684D01*
X031245Y019676D02*
X030971Y019676D01*
X030971Y019667D02*
X031245Y019667D01*
X031245Y019659D02*
X030971Y019659D01*
X030971Y019650D02*
X031245Y019650D01*
X031245Y019642D02*
X030971Y019642D01*
X030971Y019633D02*
X031245Y019633D01*
X031245Y019625D02*
X030971Y019625D01*
X030971Y019616D02*
X031245Y019616D01*
X031245Y019608D02*
X030971Y019608D01*
X030971Y019599D02*
X031245Y019599D01*
X031245Y019591D02*
X030971Y019591D01*
X030971Y019582D02*
X031245Y019582D01*
X031245Y019574D02*
X030971Y019574D01*
X030971Y019565D02*
X031245Y019565D01*
X031245Y019557D02*
X030971Y019557D01*
X030971Y019548D02*
X031245Y019548D01*
X031245Y019540D02*
X030971Y019540D01*
X030971Y019531D02*
X031245Y019531D01*
X031245Y019523D02*
X030971Y019523D01*
X030971Y019514D02*
X031245Y019514D01*
X031245Y019506D02*
X030971Y019506D01*
X030971Y019497D02*
X031245Y019497D01*
X031245Y019489D02*
X030971Y019489D01*
X030971Y019480D02*
X031245Y019480D01*
X031245Y019472D02*
X030971Y019472D01*
X030971Y019463D02*
X031245Y019463D01*
X031245Y019455D02*
X030971Y019455D01*
X030971Y019446D02*
X031245Y019446D01*
X031245Y019438D02*
X030971Y019438D01*
X030971Y019429D02*
X031245Y019429D01*
X031245Y019421D02*
X030971Y019421D01*
X030971Y019412D02*
X031245Y019412D01*
X031245Y020186D02*
X030469Y020186D01*
X030469Y020194D02*
X031245Y020194D01*
X031245Y020203D02*
X030469Y020203D01*
X030469Y020211D02*
X031245Y020211D01*
X031245Y020220D02*
X030469Y020220D01*
X030469Y020228D02*
X031245Y020228D01*
X031245Y020237D02*
X030469Y020237D01*
X030469Y020245D02*
X031245Y020245D01*
X031245Y020254D02*
X030469Y020254D01*
X030469Y020262D02*
X031245Y020262D01*
X031245Y020271D02*
X030469Y020271D01*
X030469Y020279D02*
X031245Y020279D01*
X031245Y020288D02*
X030469Y020288D01*
X030469Y020296D02*
X031245Y020296D01*
X031245Y020305D02*
X030469Y020305D01*
X030469Y020313D02*
X031245Y020313D01*
X031245Y020322D02*
X030469Y020322D01*
X030469Y020330D02*
X031245Y020330D01*
X024970Y020330D02*
X024194Y020330D01*
X024194Y020337D02*
X024194Y019407D01*
X024468Y019407D01*
X024468Y019681D01*
X024418Y019705D01*
X024418Y019989D01*
X024466Y020029D01*
X024496Y020029D01*
X024496Y020147D01*
X024518Y020169D01*
X024644Y020169D01*
X024970Y020169D01*
X024970Y020177D02*
X024194Y020177D01*
X024194Y020169D02*
X024517Y020169D01*
X024509Y020160D02*
X024194Y020160D01*
X024194Y020152D02*
X024500Y020152D01*
X024496Y020143D02*
X024194Y020143D01*
X024194Y020135D02*
X024496Y020135D01*
X024496Y020126D02*
X024194Y020126D01*
X024194Y020118D02*
X024496Y020118D01*
X024496Y020109D02*
X024194Y020109D01*
X024194Y020101D02*
X024496Y020101D01*
X024496Y020092D02*
X024194Y020092D01*
X024194Y020084D02*
X024496Y020084D01*
X024496Y020075D02*
X024194Y020075D01*
X024194Y020067D02*
X024496Y020067D01*
X024496Y020058D02*
X024194Y020058D01*
X024194Y020050D02*
X024496Y020050D01*
X024498Y020045D02*
X024698Y020045D01*
X024698Y020027D01*
X024746Y019987D01*
X024746Y019705D01*
X024696Y019679D01*
X024696Y019409D01*
X024970Y019409D01*
X024970Y020337D01*
X024194Y020337D01*
X024194Y020322D02*
X024970Y020322D01*
X024970Y020313D02*
X024194Y020313D01*
X024194Y020305D02*
X024970Y020305D01*
X024970Y020296D02*
X024194Y020296D01*
X024194Y020288D02*
X024970Y020288D01*
X024970Y020279D02*
X024194Y020279D01*
X024194Y020271D02*
X024970Y020271D01*
X024970Y020262D02*
X024194Y020262D01*
X024194Y020254D02*
X024970Y020254D01*
X024970Y020245D02*
X024194Y020245D01*
X024194Y020237D02*
X024970Y020237D01*
X024970Y020228D02*
X024194Y020228D01*
X024194Y020220D02*
X024970Y020220D01*
X024970Y020211D02*
X024194Y020211D01*
X024194Y020203D02*
X024970Y020203D01*
X024970Y020194D02*
X024194Y020194D01*
X024194Y020186D02*
X024970Y020186D01*
X024970Y020160D02*
X024653Y020160D01*
X024662Y020152D02*
X024970Y020152D01*
X024970Y020143D02*
X024671Y020143D01*
X024672Y020143D02*
X024672Y020051D01*
X024694Y020051D01*
X024694Y020029D01*
X024672Y020029D01*
X024498Y020029D01*
X024498Y020045D01*
X024498Y020041D02*
X024694Y020041D01*
X024698Y020041D02*
X024970Y020041D01*
X024970Y020033D02*
X024698Y020033D01*
X024694Y020033D02*
X024498Y020033D01*
X024496Y020033D02*
X024194Y020033D01*
X024194Y020041D02*
X024496Y020041D01*
X024460Y020024D02*
X024194Y020024D01*
X024194Y020016D02*
X024450Y020016D01*
X024439Y020007D02*
X024194Y020007D01*
X024194Y019999D02*
X024429Y019999D01*
X024419Y019990D02*
X024194Y019990D01*
X024194Y019982D02*
X024418Y019982D01*
X024418Y019973D02*
X024194Y019973D01*
X024194Y019965D02*
X024418Y019965D01*
X024418Y019956D02*
X024194Y019956D01*
X024194Y019948D02*
X024418Y019948D01*
X024418Y019939D02*
X024194Y019939D01*
X024194Y019931D02*
X024418Y019931D01*
X024418Y019922D02*
X024194Y019922D01*
X024194Y019914D02*
X024418Y019914D01*
X024418Y019905D02*
X024194Y019905D01*
X024194Y019897D02*
X024418Y019897D01*
X024418Y019888D02*
X024194Y019888D01*
X024194Y019880D02*
X024418Y019880D01*
X024418Y019871D02*
X024194Y019871D01*
X024194Y019863D02*
X024418Y019863D01*
X024418Y019854D02*
X024194Y019854D01*
X024194Y019846D02*
X024418Y019846D01*
X024418Y019837D02*
X024194Y019837D01*
X024194Y019829D02*
X024418Y019829D01*
X024418Y019820D02*
X024194Y019820D01*
X024194Y019812D02*
X024418Y019812D01*
X024418Y019803D02*
X024194Y019803D01*
X024194Y019795D02*
X024418Y019795D01*
X024418Y019786D02*
X024194Y019786D01*
X024194Y019778D02*
X024418Y019778D01*
X024418Y019769D02*
X024194Y019769D01*
X024194Y019761D02*
X024418Y019761D01*
X024418Y019752D02*
X024194Y019752D01*
X024194Y019744D02*
X024418Y019744D01*
X024418Y019735D02*
X024194Y019735D01*
X024194Y019727D02*
X024418Y019727D01*
X024418Y019718D02*
X024194Y019718D01*
X024194Y019710D02*
X024418Y019710D01*
X024425Y019701D02*
X024194Y019701D01*
X024194Y019693D02*
X024443Y019693D01*
X024461Y019684D02*
X024194Y019684D01*
X024194Y019676D02*
X024468Y019676D01*
X024468Y019667D02*
X024194Y019667D01*
X024194Y019659D02*
X024468Y019659D01*
X024468Y019650D02*
X024194Y019650D01*
X024194Y019642D02*
X024468Y019642D01*
X024468Y019633D02*
X024194Y019633D01*
X024194Y019625D02*
X024468Y019625D01*
X024468Y019616D02*
X024194Y019616D01*
X024194Y019608D02*
X024468Y019608D01*
X024468Y019599D02*
X024194Y019599D01*
X024194Y019591D02*
X024468Y019591D01*
X024468Y019582D02*
X024194Y019582D01*
X024194Y019574D02*
X024468Y019574D01*
X024468Y019565D02*
X024194Y019565D01*
X024194Y019557D02*
X024468Y019557D01*
X024468Y019548D02*
X024194Y019548D01*
X024194Y019540D02*
X024468Y019540D01*
X024468Y019531D02*
X024194Y019531D01*
X024194Y019523D02*
X024468Y019523D01*
X024468Y019514D02*
X024194Y019514D01*
X024194Y019506D02*
X024468Y019506D01*
X024468Y019497D02*
X024194Y019497D01*
X024194Y019489D02*
X024468Y019489D01*
X024468Y019480D02*
X024194Y019480D01*
X024194Y019472D02*
X024468Y019472D01*
X024468Y019463D02*
X024194Y019463D01*
X024194Y019455D02*
X024468Y019455D01*
X024468Y019446D02*
X024194Y019446D01*
X024194Y019438D02*
X024468Y019438D01*
X024468Y019429D02*
X024194Y019429D01*
X024194Y019421D02*
X024468Y019421D01*
X024468Y019412D02*
X024194Y019412D01*
X024696Y019412D02*
X024970Y019412D01*
X024970Y019421D02*
X024696Y019421D01*
X024696Y019429D02*
X024970Y019429D01*
X024970Y019438D02*
X024696Y019438D01*
X024696Y019446D02*
X024970Y019446D01*
X024970Y019455D02*
X024696Y019455D01*
X024696Y019463D02*
X024970Y019463D01*
X024970Y019472D02*
X024696Y019472D01*
X024696Y019480D02*
X024970Y019480D01*
X024970Y019489D02*
X024696Y019489D01*
X024696Y019497D02*
X024970Y019497D01*
X024970Y019506D02*
X024696Y019506D01*
X024696Y019514D02*
X024970Y019514D01*
X024970Y019523D02*
X024696Y019523D01*
X024696Y019531D02*
X024970Y019531D01*
X024970Y019540D02*
X024696Y019540D01*
X024696Y019548D02*
X024970Y019548D01*
X024970Y019557D02*
X024696Y019557D01*
X024696Y019565D02*
X024970Y019565D01*
X024970Y019574D02*
X024696Y019574D01*
X024696Y019582D02*
X024970Y019582D01*
X024970Y019591D02*
X024696Y019591D01*
X024696Y019599D02*
X024970Y019599D01*
X024970Y019608D02*
X024696Y019608D01*
X024696Y019616D02*
X024970Y019616D01*
X024970Y019625D02*
X024696Y019625D01*
X024696Y019633D02*
X024970Y019633D01*
X024970Y019642D02*
X024696Y019642D01*
X024696Y019650D02*
X024970Y019650D01*
X024970Y019659D02*
X024696Y019659D01*
X024696Y019667D02*
X024970Y019667D01*
X024970Y019676D02*
X024696Y019676D01*
X024706Y019684D02*
X024970Y019684D01*
X024970Y019693D02*
X024722Y019693D01*
X024738Y019701D02*
X024970Y019701D01*
X024970Y019710D02*
X024746Y019710D01*
X024746Y019718D02*
X024970Y019718D01*
X024970Y019727D02*
X024746Y019727D01*
X024746Y019735D02*
X024970Y019735D01*
X024970Y019744D02*
X024746Y019744D01*
X024746Y019752D02*
X024970Y019752D01*
X024970Y019761D02*
X024746Y019761D01*
X024746Y019769D02*
X024970Y019769D01*
X024970Y019778D02*
X024746Y019778D01*
X024746Y019786D02*
X024970Y019786D01*
X024970Y019795D02*
X024746Y019795D01*
X024746Y019803D02*
X024970Y019803D01*
X024970Y019812D02*
X024746Y019812D01*
X024746Y019820D02*
X024970Y019820D01*
X024970Y019829D02*
X024746Y019829D01*
X024746Y019837D02*
X024970Y019837D01*
X024970Y019846D02*
X024746Y019846D01*
X024746Y019854D02*
X024970Y019854D01*
X024970Y019863D02*
X024746Y019863D01*
X024746Y019871D02*
X024970Y019871D01*
X024970Y019880D02*
X024746Y019880D01*
X024746Y019888D02*
X024970Y019888D01*
X024970Y019897D02*
X024746Y019897D01*
X024746Y019905D02*
X024970Y019905D01*
X024970Y019914D02*
X024746Y019914D01*
X024746Y019922D02*
X024970Y019922D01*
X024970Y019931D02*
X024746Y019931D01*
X024746Y019939D02*
X024970Y019939D01*
X024970Y019948D02*
X024746Y019948D01*
X024746Y019956D02*
X024970Y019956D01*
X024970Y019965D02*
X024746Y019965D01*
X024746Y019973D02*
X024970Y019973D01*
X024970Y019982D02*
X024746Y019982D01*
X024742Y019990D02*
X024970Y019990D01*
X024970Y019999D02*
X024731Y019999D01*
X024721Y020007D02*
X024970Y020007D01*
X024970Y020016D02*
X024711Y020016D01*
X024701Y020024D02*
X024970Y020024D01*
X024970Y020050D02*
X024694Y020050D01*
X024672Y020058D02*
X024970Y020058D01*
X024970Y020067D02*
X024672Y020067D01*
X024672Y020075D02*
X024970Y020075D01*
X024970Y020084D02*
X024672Y020084D01*
X024672Y020092D02*
X024970Y020092D01*
X024970Y020101D02*
X024672Y020101D01*
X024672Y020109D02*
X024970Y020109D01*
X024970Y020118D02*
X024672Y020118D01*
X024672Y020126D02*
X024970Y020126D01*
X024970Y020135D02*
X024672Y020135D01*
X024672Y020143D02*
X024644Y020169D01*
X018694Y020169D02*
X018368Y020169D01*
X018396Y020143D01*
X018396Y020051D01*
X018418Y020051D01*
X018418Y020029D01*
X018396Y020029D01*
X018222Y020029D01*
X018222Y020045D01*
X018422Y020045D01*
X018422Y020027D01*
X018470Y019987D01*
X018470Y019705D01*
X018420Y019679D01*
X018420Y019409D01*
X018694Y019409D01*
X018694Y020337D01*
X017918Y020337D01*
X017918Y019407D01*
X018192Y019407D01*
X018192Y019681D01*
X018142Y019705D01*
X018142Y019989D01*
X018190Y020029D01*
X018220Y020029D01*
X018220Y020147D01*
X018242Y020169D01*
X018368Y020169D01*
X018377Y020160D02*
X018694Y020160D01*
X018694Y020152D02*
X018387Y020152D01*
X018396Y020143D02*
X018694Y020143D01*
X018694Y020135D02*
X018396Y020135D01*
X018396Y020126D02*
X018694Y020126D01*
X018694Y020118D02*
X018396Y020118D01*
X018396Y020109D02*
X018694Y020109D01*
X018694Y020101D02*
X018396Y020101D01*
X018396Y020092D02*
X018694Y020092D01*
X018694Y020084D02*
X018396Y020084D01*
X018396Y020075D02*
X018694Y020075D01*
X018694Y020067D02*
X018396Y020067D01*
X018396Y020058D02*
X018694Y020058D01*
X018694Y020050D02*
X018418Y020050D01*
X018418Y020041D02*
X018222Y020041D01*
X018220Y020041D02*
X017918Y020041D01*
X017918Y020033D02*
X018220Y020033D01*
X018222Y020033D02*
X018418Y020033D01*
X018422Y020033D02*
X018694Y020033D01*
X018694Y020041D02*
X018422Y020041D01*
X018425Y020024D02*
X018694Y020024D01*
X018694Y020016D02*
X018435Y020016D01*
X018446Y020007D02*
X018694Y020007D01*
X018694Y019999D02*
X018456Y019999D01*
X018466Y019990D02*
X018694Y019990D01*
X018694Y019982D02*
X018470Y019982D01*
X018470Y019973D02*
X018694Y019973D01*
X018694Y019965D02*
X018470Y019965D01*
X018470Y019956D02*
X018694Y019956D01*
X018694Y019948D02*
X018470Y019948D01*
X018470Y019939D02*
X018694Y019939D01*
X018694Y019931D02*
X018470Y019931D01*
X018470Y019922D02*
X018694Y019922D01*
X018694Y019914D02*
X018470Y019914D01*
X018470Y019905D02*
X018694Y019905D01*
X018694Y019897D02*
X018470Y019897D01*
X018470Y019888D02*
X018694Y019888D01*
X018694Y019880D02*
X018470Y019880D01*
X018470Y019871D02*
X018694Y019871D01*
X018694Y019863D02*
X018470Y019863D01*
X018470Y019854D02*
X018694Y019854D01*
X018694Y019846D02*
X018470Y019846D01*
X018470Y019837D02*
X018694Y019837D01*
X018694Y019829D02*
X018470Y019829D01*
X018470Y019820D02*
X018694Y019820D01*
X018694Y019812D02*
X018470Y019812D01*
X018470Y019803D02*
X018694Y019803D01*
X018694Y019795D02*
X018470Y019795D01*
X018470Y019786D02*
X018694Y019786D01*
X018694Y019778D02*
X018470Y019778D01*
X018470Y019769D02*
X018694Y019769D01*
X018694Y019761D02*
X018470Y019761D01*
X018470Y019752D02*
X018694Y019752D01*
X018694Y019744D02*
X018470Y019744D01*
X018470Y019735D02*
X018694Y019735D01*
X018694Y019727D02*
X018470Y019727D01*
X018470Y019718D02*
X018694Y019718D01*
X018694Y019710D02*
X018470Y019710D01*
X018463Y019701D02*
X018694Y019701D01*
X018694Y019693D02*
X018446Y019693D01*
X018430Y019684D02*
X018694Y019684D01*
X018694Y019676D02*
X018420Y019676D01*
X018420Y019667D02*
X018694Y019667D01*
X018694Y019659D02*
X018420Y019659D01*
X018420Y019650D02*
X018694Y019650D01*
X018694Y019642D02*
X018420Y019642D01*
X018420Y019633D02*
X018694Y019633D01*
X018694Y019625D02*
X018420Y019625D01*
X018420Y019616D02*
X018694Y019616D01*
X018694Y019608D02*
X018420Y019608D01*
X018420Y019599D02*
X018694Y019599D01*
X018694Y019591D02*
X018420Y019591D01*
X018420Y019582D02*
X018694Y019582D01*
X018694Y019574D02*
X018420Y019574D01*
X018420Y019565D02*
X018694Y019565D01*
X018694Y019557D02*
X018420Y019557D01*
X018420Y019548D02*
X018694Y019548D01*
X018694Y019540D02*
X018420Y019540D01*
X018420Y019531D02*
X018694Y019531D01*
X018694Y019523D02*
X018420Y019523D01*
X018420Y019514D02*
X018694Y019514D01*
X018694Y019506D02*
X018420Y019506D01*
X018420Y019497D02*
X018694Y019497D01*
X018694Y019489D02*
X018420Y019489D01*
X018420Y019480D02*
X018694Y019480D01*
X018694Y019472D02*
X018420Y019472D01*
X018420Y019463D02*
X018694Y019463D01*
X018694Y019455D02*
X018420Y019455D01*
X018420Y019446D02*
X018694Y019446D01*
X018694Y019438D02*
X018420Y019438D01*
X018420Y019429D02*
X018694Y019429D01*
X018694Y019421D02*
X018420Y019421D01*
X018420Y019412D02*
X018694Y019412D01*
X018192Y019412D02*
X017918Y019412D01*
X017918Y019421D02*
X018192Y019421D01*
X018192Y019429D02*
X017918Y019429D01*
X017918Y019438D02*
X018192Y019438D01*
X018192Y019446D02*
X017918Y019446D01*
X017918Y019455D02*
X018192Y019455D01*
X018192Y019463D02*
X017918Y019463D01*
X017918Y019472D02*
X018192Y019472D01*
X018192Y019480D02*
X017918Y019480D01*
X017918Y019489D02*
X018192Y019489D01*
X018192Y019497D02*
X017918Y019497D01*
X017918Y019506D02*
X018192Y019506D01*
X018192Y019514D02*
X017918Y019514D01*
X017918Y019523D02*
X018192Y019523D01*
X018192Y019531D02*
X017918Y019531D01*
X017918Y019540D02*
X018192Y019540D01*
X018192Y019548D02*
X017918Y019548D01*
X017918Y019557D02*
X018192Y019557D01*
X018192Y019565D02*
X017918Y019565D01*
X017918Y019574D02*
X018192Y019574D01*
X018192Y019582D02*
X017918Y019582D01*
X017918Y019591D02*
X018192Y019591D01*
X018192Y019599D02*
X017918Y019599D01*
X017918Y019608D02*
X018192Y019608D01*
X018192Y019616D02*
X017918Y019616D01*
X017918Y019625D02*
X018192Y019625D01*
X018192Y019633D02*
X017918Y019633D01*
X017918Y019642D02*
X018192Y019642D01*
X018192Y019650D02*
X017918Y019650D01*
X017918Y019659D02*
X018192Y019659D01*
X018192Y019667D02*
X017918Y019667D01*
X017918Y019676D02*
X018192Y019676D01*
X018185Y019684D02*
X017918Y019684D01*
X017918Y019693D02*
X018167Y019693D01*
X018150Y019701D02*
X017918Y019701D01*
X017918Y019710D02*
X018142Y019710D01*
X018142Y019718D02*
X017918Y019718D01*
X017918Y019727D02*
X018142Y019727D01*
X018142Y019735D02*
X017918Y019735D01*
X017918Y019744D02*
X018142Y019744D01*
X018142Y019752D02*
X017918Y019752D01*
X017918Y019761D02*
X018142Y019761D01*
X018142Y019769D02*
X017918Y019769D01*
X017918Y019778D02*
X018142Y019778D01*
X018142Y019786D02*
X017918Y019786D01*
X017918Y019795D02*
X018142Y019795D01*
X018142Y019803D02*
X017918Y019803D01*
X017918Y019812D02*
X018142Y019812D01*
X018142Y019820D02*
X017918Y019820D01*
X017918Y019829D02*
X018142Y019829D01*
X018142Y019837D02*
X017918Y019837D01*
X017918Y019846D02*
X018142Y019846D01*
X018142Y019854D02*
X017918Y019854D01*
X017918Y019863D02*
X018142Y019863D01*
X018142Y019871D02*
X017918Y019871D01*
X017918Y019880D02*
X018142Y019880D01*
X018142Y019888D02*
X017918Y019888D01*
X017918Y019897D02*
X018142Y019897D01*
X018142Y019905D02*
X017918Y019905D01*
X017918Y019914D02*
X018142Y019914D01*
X018142Y019922D02*
X017918Y019922D01*
X017918Y019931D02*
X018142Y019931D01*
X018142Y019939D02*
X017918Y019939D01*
X017918Y019948D02*
X018142Y019948D01*
X018142Y019956D02*
X017918Y019956D01*
X017918Y019965D02*
X018142Y019965D01*
X018142Y019973D02*
X017918Y019973D01*
X017918Y019982D02*
X018142Y019982D01*
X018144Y019990D02*
X017918Y019990D01*
X017918Y019999D02*
X018154Y019999D01*
X018164Y020007D02*
X017918Y020007D01*
X017918Y020016D02*
X018174Y020016D01*
X018184Y020024D02*
X017918Y020024D01*
X017918Y020050D02*
X018220Y020050D01*
X018220Y020058D02*
X017918Y020058D01*
X017918Y020067D02*
X018220Y020067D01*
X018220Y020075D02*
X017918Y020075D01*
X017918Y020084D02*
X018220Y020084D01*
X018220Y020092D02*
X017918Y020092D01*
X017918Y020101D02*
X018220Y020101D01*
X018220Y020109D02*
X017918Y020109D01*
X017918Y020118D02*
X018220Y020118D01*
X018220Y020126D02*
X017918Y020126D01*
X017918Y020135D02*
X018220Y020135D01*
X018220Y020143D02*
X017918Y020143D01*
X017918Y020152D02*
X018225Y020152D01*
X018233Y020160D02*
X017918Y020160D01*
X017918Y020169D02*
X018242Y020169D01*
X017918Y020177D02*
X018694Y020177D01*
X018694Y020186D02*
X017918Y020186D01*
X017918Y020194D02*
X018694Y020194D01*
X018694Y020203D02*
X017918Y020203D01*
X017918Y020211D02*
X018694Y020211D01*
X018694Y020220D02*
X017918Y020220D01*
X017918Y020228D02*
X018694Y020228D01*
X018694Y020237D02*
X017918Y020237D01*
X017918Y020245D02*
X018694Y020245D01*
X018694Y020254D02*
X017918Y020254D01*
X017918Y020262D02*
X018694Y020262D01*
X018694Y020271D02*
X017918Y020271D01*
X017918Y020279D02*
X018694Y020279D01*
X018694Y020288D02*
X017918Y020288D01*
X017918Y020296D02*
X018694Y020296D01*
X018694Y020305D02*
X017918Y020305D01*
X017918Y020313D02*
X018694Y020313D01*
X018694Y020322D02*
X017918Y020322D01*
X017918Y020330D02*
X018694Y020330D01*
X012418Y020330D02*
X011642Y020330D01*
X011642Y020337D02*
X011642Y019407D01*
X011916Y019407D01*
X011916Y019681D01*
X011866Y019705D01*
X011866Y019989D01*
X011914Y020029D01*
X011944Y020029D01*
X011944Y020147D01*
X011966Y020169D01*
X011642Y020169D01*
X011642Y020177D02*
X012418Y020177D01*
X012418Y020169D02*
X012093Y020169D01*
X012092Y020169D02*
X012120Y020143D01*
X012418Y020143D01*
X012418Y020135D02*
X012120Y020135D01*
X012120Y020143D02*
X012120Y020051D01*
X012142Y020051D01*
X012142Y020029D01*
X012120Y020029D01*
X011946Y020029D01*
X011946Y020045D01*
X012146Y020045D01*
X012146Y020027D01*
X012194Y019987D01*
X012194Y019705D01*
X012144Y019679D01*
X012144Y019409D01*
X012418Y019409D01*
X012418Y020337D01*
X011642Y020337D01*
X011642Y020322D02*
X012418Y020322D01*
X012418Y020313D02*
X011642Y020313D01*
X011642Y020305D02*
X012418Y020305D01*
X012418Y020296D02*
X011642Y020296D01*
X011642Y020288D02*
X012418Y020288D01*
X012418Y020279D02*
X011642Y020279D01*
X011642Y020271D02*
X012418Y020271D01*
X012418Y020262D02*
X011642Y020262D01*
X011642Y020254D02*
X012418Y020254D01*
X012418Y020245D02*
X011642Y020245D01*
X011642Y020237D02*
X012418Y020237D01*
X012418Y020228D02*
X011642Y020228D01*
X011642Y020220D02*
X012418Y020220D01*
X012418Y020211D02*
X011642Y020211D01*
X011642Y020203D02*
X012418Y020203D01*
X012418Y020194D02*
X011642Y020194D01*
X011642Y020186D02*
X012418Y020186D01*
X012418Y020160D02*
X012102Y020160D01*
X012111Y020152D02*
X012418Y020152D01*
X012418Y020126D02*
X012120Y020126D01*
X012120Y020118D02*
X012418Y020118D01*
X012418Y020109D02*
X012120Y020109D01*
X012120Y020101D02*
X012418Y020101D01*
X012418Y020092D02*
X012120Y020092D01*
X012120Y020084D02*
X012418Y020084D01*
X012418Y020075D02*
X012120Y020075D01*
X012120Y020067D02*
X012418Y020067D01*
X012418Y020058D02*
X012120Y020058D01*
X012142Y020050D02*
X012418Y020050D01*
X012418Y020041D02*
X012146Y020041D01*
X012142Y020041D02*
X011946Y020041D01*
X011944Y020041D02*
X011642Y020041D01*
X011642Y020033D02*
X011944Y020033D01*
X011946Y020033D02*
X012142Y020033D01*
X012146Y020033D02*
X012418Y020033D01*
X012418Y020024D02*
X012150Y020024D01*
X012160Y020016D02*
X012418Y020016D01*
X012418Y020007D02*
X012170Y020007D01*
X012180Y019999D02*
X012418Y019999D01*
X012418Y019990D02*
X012190Y019990D01*
X012194Y019982D02*
X012418Y019982D01*
X012418Y019973D02*
X012194Y019973D01*
X012194Y019965D02*
X012418Y019965D01*
X012418Y019956D02*
X012194Y019956D01*
X012194Y019948D02*
X012418Y019948D01*
X012418Y019939D02*
X012194Y019939D01*
X012194Y019931D02*
X012418Y019931D01*
X012418Y019922D02*
X012194Y019922D01*
X012194Y019914D02*
X012418Y019914D01*
X012418Y019905D02*
X012194Y019905D01*
X012194Y019897D02*
X012418Y019897D01*
X012418Y019888D02*
X012194Y019888D01*
X012194Y019880D02*
X012418Y019880D01*
X012418Y019871D02*
X012194Y019871D01*
X012194Y019863D02*
X012418Y019863D01*
X012418Y019854D02*
X012194Y019854D01*
X012194Y019846D02*
X012418Y019846D01*
X012418Y019837D02*
X012194Y019837D01*
X012194Y019829D02*
X012418Y019829D01*
X012418Y019820D02*
X012194Y019820D01*
X012194Y019812D02*
X012418Y019812D01*
X012418Y019803D02*
X012194Y019803D01*
X012194Y019795D02*
X012418Y019795D01*
X012418Y019786D02*
X012194Y019786D01*
X012194Y019778D02*
X012418Y019778D01*
X012418Y019769D02*
X012194Y019769D01*
X012194Y019761D02*
X012418Y019761D01*
X012418Y019752D02*
X012194Y019752D01*
X012194Y019744D02*
X012418Y019744D01*
X012418Y019735D02*
X012194Y019735D01*
X012194Y019727D02*
X012418Y019727D01*
X012418Y019718D02*
X012194Y019718D01*
X012194Y019710D02*
X012418Y019710D01*
X012418Y019701D02*
X012187Y019701D01*
X012171Y019693D02*
X012418Y019693D01*
X012418Y019684D02*
X012155Y019684D01*
X012144Y019676D02*
X012418Y019676D01*
X012418Y019667D02*
X012144Y019667D01*
X012144Y019659D02*
X012418Y019659D01*
X012418Y019650D02*
X012144Y019650D01*
X012144Y019642D02*
X012418Y019642D01*
X012418Y019633D02*
X012144Y019633D01*
X012144Y019625D02*
X012418Y019625D01*
X012418Y019616D02*
X012144Y019616D01*
X012144Y019608D02*
X012418Y019608D01*
X012418Y019599D02*
X012144Y019599D01*
X012144Y019591D02*
X012418Y019591D01*
X012418Y019582D02*
X012144Y019582D01*
X012144Y019574D02*
X012418Y019574D01*
X012418Y019565D02*
X012144Y019565D01*
X012144Y019557D02*
X012418Y019557D01*
X012418Y019548D02*
X012144Y019548D01*
X012144Y019540D02*
X012418Y019540D01*
X012418Y019531D02*
X012144Y019531D01*
X012144Y019523D02*
X012418Y019523D01*
X012418Y019514D02*
X012144Y019514D01*
X012144Y019506D02*
X012418Y019506D01*
X012418Y019497D02*
X012144Y019497D01*
X012144Y019489D02*
X012418Y019489D01*
X012418Y019480D02*
X012144Y019480D01*
X012144Y019472D02*
X012418Y019472D01*
X012418Y019463D02*
X012144Y019463D01*
X012144Y019455D02*
X012418Y019455D01*
X012418Y019446D02*
X012144Y019446D01*
X012144Y019438D02*
X012418Y019438D01*
X012418Y019429D02*
X012144Y019429D01*
X012144Y019421D02*
X012418Y019421D01*
X012418Y019412D02*
X012144Y019412D01*
X011916Y019412D02*
X011642Y019412D01*
X011642Y019421D02*
X011916Y019421D01*
X011916Y019429D02*
X011642Y019429D01*
X011642Y019438D02*
X011916Y019438D01*
X011916Y019446D02*
X011642Y019446D01*
X011642Y019455D02*
X011916Y019455D01*
X011916Y019463D02*
X011642Y019463D01*
X011642Y019472D02*
X011916Y019472D01*
X011916Y019480D02*
X011642Y019480D01*
X011642Y019489D02*
X011916Y019489D01*
X011916Y019497D02*
X011642Y019497D01*
X011642Y019506D02*
X011916Y019506D01*
X011916Y019514D02*
X011642Y019514D01*
X011642Y019523D02*
X011916Y019523D01*
X011916Y019531D02*
X011642Y019531D01*
X011642Y019540D02*
X011916Y019540D01*
X011916Y019548D02*
X011642Y019548D01*
X011642Y019557D02*
X011916Y019557D01*
X011916Y019565D02*
X011642Y019565D01*
X011642Y019574D02*
X011916Y019574D01*
X011916Y019582D02*
X011642Y019582D01*
X011642Y019591D02*
X011916Y019591D01*
X011916Y019599D02*
X011642Y019599D01*
X011642Y019608D02*
X011916Y019608D01*
X011916Y019616D02*
X011642Y019616D01*
X011642Y019625D02*
X011916Y019625D01*
X011916Y019633D02*
X011642Y019633D01*
X011642Y019642D02*
X011916Y019642D01*
X011916Y019650D02*
X011642Y019650D01*
X011642Y019659D02*
X011916Y019659D01*
X011916Y019667D02*
X011642Y019667D01*
X011642Y019676D02*
X011916Y019676D01*
X011910Y019684D02*
X011642Y019684D01*
X011642Y019693D02*
X011892Y019693D01*
X011874Y019701D02*
X011642Y019701D01*
X011642Y019710D02*
X011866Y019710D01*
X011866Y019718D02*
X011642Y019718D01*
X011642Y019727D02*
X011866Y019727D01*
X011866Y019735D02*
X011642Y019735D01*
X011642Y019744D02*
X011866Y019744D01*
X011866Y019752D02*
X011642Y019752D01*
X011642Y019761D02*
X011866Y019761D01*
X011866Y019769D02*
X011642Y019769D01*
X011642Y019778D02*
X011866Y019778D01*
X011866Y019786D02*
X011642Y019786D01*
X011642Y019795D02*
X011866Y019795D01*
X011866Y019803D02*
X011642Y019803D01*
X011642Y019812D02*
X011866Y019812D01*
X011866Y019820D02*
X011642Y019820D01*
X011642Y019829D02*
X011866Y019829D01*
X011866Y019837D02*
X011642Y019837D01*
X011642Y019846D02*
X011866Y019846D01*
X011866Y019854D02*
X011642Y019854D01*
X011642Y019863D02*
X011866Y019863D01*
X011866Y019871D02*
X011642Y019871D01*
X011642Y019880D02*
X011866Y019880D01*
X011866Y019888D02*
X011642Y019888D01*
X011642Y019897D02*
X011866Y019897D01*
X011866Y019905D02*
X011642Y019905D01*
X011642Y019914D02*
X011866Y019914D01*
X011866Y019922D02*
X011642Y019922D01*
X011642Y019931D02*
X011866Y019931D01*
X011866Y019939D02*
X011642Y019939D01*
X011642Y019948D02*
X011866Y019948D01*
X011866Y019956D02*
X011642Y019956D01*
X011642Y019965D02*
X011866Y019965D01*
X011866Y019973D02*
X011642Y019973D01*
X011642Y019982D02*
X011866Y019982D01*
X011868Y019990D02*
X011642Y019990D01*
X011642Y019999D02*
X011878Y019999D01*
X011888Y020007D02*
X011642Y020007D01*
X011642Y020016D02*
X011899Y020016D01*
X011909Y020024D02*
X011642Y020024D01*
X011642Y020050D02*
X011944Y020050D01*
X011944Y020058D02*
X011642Y020058D01*
X011642Y020067D02*
X011944Y020067D01*
X011944Y020075D02*
X011642Y020075D01*
X011642Y020084D02*
X011944Y020084D01*
X011944Y020092D02*
X011642Y020092D01*
X011642Y020101D02*
X011944Y020101D01*
X011944Y020109D02*
X011642Y020109D01*
X011642Y020118D02*
X011944Y020118D01*
X011944Y020126D02*
X011642Y020126D01*
X011642Y020135D02*
X011944Y020135D01*
X011944Y020143D02*
X011642Y020143D01*
X011642Y020152D02*
X011949Y020152D01*
X011958Y020160D02*
X011642Y020160D01*
X011966Y020169D02*
X012092Y020169D01*
X006143Y020169D02*
X005817Y020169D01*
X005845Y020143D01*
X005845Y020051D01*
X005867Y020051D01*
X005867Y020029D01*
X005845Y020029D01*
X005671Y020029D01*
X005671Y020045D01*
X005871Y020045D01*
X005871Y020027D01*
X005919Y019987D01*
X005919Y019705D01*
X005869Y019679D01*
X005869Y019409D01*
X006143Y019409D01*
X006143Y020337D01*
X005367Y020337D01*
X005367Y019407D01*
X005641Y019407D01*
X005641Y019681D01*
X005591Y019705D01*
X005591Y019989D01*
X005639Y020029D01*
X005669Y020029D01*
X005669Y020147D01*
X005691Y020169D01*
X005817Y020169D01*
X005826Y020160D02*
X006143Y020160D01*
X006143Y020152D02*
X005835Y020152D01*
X005844Y020143D02*
X006143Y020143D01*
X006143Y020135D02*
X005845Y020135D01*
X005845Y020126D02*
X006143Y020126D01*
X006143Y020118D02*
X005845Y020118D01*
X005845Y020109D02*
X006143Y020109D01*
X006143Y020101D02*
X005845Y020101D01*
X005845Y020092D02*
X006143Y020092D01*
X006143Y020084D02*
X005845Y020084D01*
X005845Y020075D02*
X006143Y020075D01*
X006143Y020067D02*
X005845Y020067D01*
X005845Y020058D02*
X006143Y020058D01*
X006143Y020050D02*
X005867Y020050D01*
X005867Y020041D02*
X005671Y020041D01*
X005669Y020041D02*
X005367Y020041D01*
X005367Y020033D02*
X005669Y020033D01*
X005671Y020033D02*
X005867Y020033D01*
X005871Y020033D02*
X006143Y020033D01*
X006143Y020041D02*
X005871Y020041D01*
X005874Y020024D02*
X006143Y020024D01*
X006143Y020016D02*
X005884Y020016D01*
X005894Y020007D02*
X006143Y020007D01*
X006143Y019999D02*
X005905Y019999D01*
X005915Y019990D02*
X006143Y019990D01*
X006143Y019982D02*
X005919Y019982D01*
X005919Y019973D02*
X006143Y019973D01*
X006143Y019965D02*
X005919Y019965D01*
X005919Y019956D02*
X006143Y019956D01*
X006143Y019948D02*
X005919Y019948D01*
X005919Y019939D02*
X006143Y019939D01*
X006143Y019931D02*
X005919Y019931D01*
X005919Y019922D02*
X006143Y019922D01*
X006143Y019914D02*
X005919Y019914D01*
X005919Y019905D02*
X006143Y019905D01*
X006143Y019897D02*
X005919Y019897D01*
X005919Y019888D02*
X006143Y019888D01*
X006143Y019880D02*
X005919Y019880D01*
X005919Y019871D02*
X006143Y019871D01*
X006143Y019863D02*
X005919Y019863D01*
X005919Y019854D02*
X006143Y019854D01*
X006143Y019846D02*
X005919Y019846D01*
X005919Y019837D02*
X006143Y019837D01*
X006143Y019829D02*
X005919Y019829D01*
X005919Y019820D02*
X006143Y019820D01*
X006143Y019812D02*
X005919Y019812D01*
X005919Y019803D02*
X006143Y019803D01*
X006143Y019795D02*
X005919Y019795D01*
X005919Y019786D02*
X006143Y019786D01*
X006143Y019778D02*
X005919Y019778D01*
X005919Y019769D02*
X006143Y019769D01*
X006143Y019761D02*
X005919Y019761D01*
X005919Y019752D02*
X006143Y019752D01*
X006143Y019744D02*
X005919Y019744D01*
X005919Y019735D02*
X006143Y019735D01*
X006143Y019727D02*
X005919Y019727D01*
X005919Y019718D02*
X006143Y019718D01*
X006143Y019710D02*
X005919Y019710D01*
X005912Y019701D02*
X006143Y019701D01*
X006143Y019693D02*
X005895Y019693D01*
X005879Y019684D02*
X006143Y019684D01*
X006143Y019676D02*
X005869Y019676D01*
X005869Y019667D02*
X006143Y019667D01*
X006143Y019659D02*
X005869Y019659D01*
X005869Y019650D02*
X006143Y019650D01*
X006143Y019642D02*
X005869Y019642D01*
X005869Y019633D02*
X006143Y019633D01*
X006143Y019625D02*
X005869Y019625D01*
X005869Y019616D02*
X006143Y019616D01*
X006143Y019608D02*
X005869Y019608D01*
X005869Y019599D02*
X006143Y019599D01*
X006143Y019591D02*
X005869Y019591D01*
X005869Y019582D02*
X006143Y019582D01*
X006143Y019574D02*
X005869Y019574D01*
X005869Y019565D02*
X006143Y019565D01*
X006143Y019557D02*
X005869Y019557D01*
X005869Y019548D02*
X006143Y019548D01*
X006143Y019540D02*
X005869Y019540D01*
X005869Y019531D02*
X006143Y019531D01*
X006143Y019523D02*
X005869Y019523D01*
X005869Y019514D02*
X006143Y019514D01*
X006143Y019506D02*
X005869Y019506D01*
X005869Y019497D02*
X006143Y019497D01*
X006143Y019489D02*
X005869Y019489D01*
X005869Y019480D02*
X006143Y019480D01*
X006143Y019472D02*
X005869Y019472D01*
X005869Y019463D02*
X006143Y019463D01*
X006143Y019455D02*
X005869Y019455D01*
X005869Y019446D02*
X006143Y019446D01*
X006143Y019438D02*
X005869Y019438D01*
X005869Y019429D02*
X006143Y019429D01*
X006143Y019421D02*
X005869Y019421D01*
X005869Y019412D02*
X006143Y019412D01*
X005641Y019412D02*
X005367Y019412D01*
X005367Y019421D02*
X005641Y019421D01*
X005641Y019429D02*
X005367Y019429D01*
X005367Y019438D02*
X005641Y019438D01*
X005641Y019446D02*
X005367Y019446D01*
X005367Y019455D02*
X005641Y019455D01*
X005641Y019463D02*
X005367Y019463D01*
X005367Y019472D02*
X005641Y019472D01*
X005641Y019480D02*
X005367Y019480D01*
X005367Y019489D02*
X005641Y019489D01*
X005641Y019497D02*
X005367Y019497D01*
X005367Y019506D02*
X005641Y019506D01*
X005641Y019514D02*
X005367Y019514D01*
X005367Y019523D02*
X005641Y019523D01*
X005641Y019531D02*
X005367Y019531D01*
X005367Y019540D02*
X005641Y019540D01*
X005641Y019548D02*
X005367Y019548D01*
X005367Y019557D02*
X005641Y019557D01*
X005641Y019565D02*
X005367Y019565D01*
X005367Y019574D02*
X005641Y019574D01*
X005641Y019582D02*
X005367Y019582D01*
X005367Y019591D02*
X005641Y019591D01*
X005641Y019599D02*
X005367Y019599D01*
X005367Y019608D02*
X005641Y019608D01*
X005641Y019616D02*
X005367Y019616D01*
X005367Y019625D02*
X005641Y019625D01*
X005641Y019633D02*
X005367Y019633D01*
X005367Y019642D02*
X005641Y019642D01*
X005641Y019650D02*
X005367Y019650D01*
X005367Y019659D02*
X005641Y019659D01*
X005641Y019667D02*
X005367Y019667D01*
X005367Y019676D02*
X005641Y019676D01*
X005634Y019684D02*
X005367Y019684D01*
X005367Y019693D02*
X005616Y019693D01*
X005599Y019701D02*
X005367Y019701D01*
X005367Y019710D02*
X005591Y019710D01*
X005591Y019718D02*
X005367Y019718D01*
X005367Y019727D02*
X005591Y019727D01*
X005591Y019735D02*
X005367Y019735D01*
X005367Y019744D02*
X005591Y019744D01*
X005591Y019752D02*
X005367Y019752D01*
X005367Y019761D02*
X005591Y019761D01*
X005591Y019769D02*
X005367Y019769D01*
X005367Y019778D02*
X005591Y019778D01*
X005591Y019786D02*
X005367Y019786D01*
X005367Y019795D02*
X005591Y019795D01*
X005591Y019803D02*
X005367Y019803D01*
X005367Y019812D02*
X005591Y019812D01*
X005591Y019820D02*
X005367Y019820D01*
X005367Y019829D02*
X005591Y019829D01*
X005591Y019837D02*
X005367Y019837D01*
X005367Y019846D02*
X005591Y019846D01*
X005591Y019854D02*
X005367Y019854D01*
X005367Y019863D02*
X005591Y019863D01*
X005591Y019871D02*
X005367Y019871D01*
X005367Y019880D02*
X005591Y019880D01*
X005591Y019888D02*
X005367Y019888D01*
X005367Y019897D02*
X005591Y019897D01*
X005591Y019905D02*
X005367Y019905D01*
X005367Y019914D02*
X005591Y019914D01*
X005591Y019922D02*
X005367Y019922D01*
X005367Y019931D02*
X005591Y019931D01*
X005591Y019939D02*
X005367Y019939D01*
X005367Y019948D02*
X005591Y019948D01*
X005591Y019956D02*
X005367Y019956D01*
X005367Y019965D02*
X005591Y019965D01*
X005591Y019973D02*
X005367Y019973D01*
X005367Y019982D02*
X005591Y019982D01*
X005592Y019990D02*
X005367Y019990D01*
X005367Y019999D02*
X005603Y019999D01*
X005613Y020007D02*
X005367Y020007D01*
X005367Y020016D02*
X005623Y020016D01*
X005633Y020024D02*
X005367Y020024D01*
X005367Y020050D02*
X005669Y020050D01*
X005669Y020058D02*
X005367Y020058D01*
X005367Y020067D02*
X005669Y020067D01*
X005669Y020075D02*
X005367Y020075D01*
X005367Y020084D02*
X005669Y020084D01*
X005669Y020092D02*
X005367Y020092D01*
X005367Y020101D02*
X005669Y020101D01*
X005669Y020109D02*
X005367Y020109D01*
X005367Y020118D02*
X005669Y020118D01*
X005669Y020126D02*
X005367Y020126D01*
X005367Y020135D02*
X005669Y020135D01*
X005669Y020143D02*
X005367Y020143D01*
X005367Y020152D02*
X005674Y020152D01*
X005682Y020160D02*
X005367Y020160D01*
X005367Y020169D02*
X005691Y020169D01*
X005367Y020177D02*
X006143Y020177D01*
X006143Y020186D02*
X005367Y020186D01*
X005367Y020194D02*
X006143Y020194D01*
X006143Y020203D02*
X005367Y020203D01*
X005367Y020211D02*
X006143Y020211D01*
X006143Y020220D02*
X005367Y020220D01*
X005367Y020228D02*
X006143Y020228D01*
X006143Y020237D02*
X005367Y020237D01*
X005367Y020245D02*
X006143Y020245D01*
X006143Y020254D02*
X005367Y020254D01*
X005367Y020262D02*
X006143Y020262D01*
X006143Y020271D02*
X005367Y020271D01*
X005367Y020279D02*
X006143Y020279D01*
X006143Y020288D02*
X005367Y020288D01*
X005367Y020296D02*
X006143Y020296D01*
X006143Y020305D02*
X005367Y020305D01*
X005367Y020313D02*
X006143Y020313D01*
X006143Y020322D02*
X005367Y020322D01*
X005367Y020330D02*
X006143Y020330D01*
X006143Y029685D02*
X006143Y030613D01*
X005367Y030613D01*
X005367Y029683D01*
X005641Y029683D01*
X005641Y029957D01*
X005591Y029981D01*
X005591Y030265D01*
X005639Y030305D01*
X005669Y030305D01*
X005669Y030423D01*
X005691Y030445D01*
X005817Y030445D01*
X005845Y030419D01*
X005845Y030327D01*
X005867Y030327D01*
X005867Y030305D01*
X005845Y030305D01*
X005671Y030305D01*
X005671Y030321D01*
X005871Y030321D01*
X005871Y030303D01*
X005919Y030263D01*
X005919Y029981D01*
X005869Y029955D01*
X005869Y029685D01*
X006143Y029685D01*
X006143Y029689D02*
X005869Y029689D01*
X005869Y029697D02*
X006143Y029697D01*
X006143Y029706D02*
X005869Y029706D01*
X005869Y029714D02*
X006143Y029714D01*
X006143Y029723D02*
X005869Y029723D01*
X005869Y029731D02*
X006143Y029731D01*
X006143Y029740D02*
X005869Y029740D01*
X005869Y029748D02*
X006143Y029748D01*
X006143Y029757D02*
X005869Y029757D01*
X005869Y029765D02*
X006143Y029765D01*
X006143Y029774D02*
X005869Y029774D01*
X005869Y029782D02*
X006143Y029782D01*
X006143Y029791D02*
X005869Y029791D01*
X005869Y029799D02*
X006143Y029799D01*
X006143Y029808D02*
X005869Y029808D01*
X005869Y029816D02*
X006143Y029816D01*
X006143Y029825D02*
X005869Y029825D01*
X005869Y029833D02*
X006143Y029833D01*
X006143Y029842D02*
X005869Y029842D01*
X005869Y029850D02*
X006143Y029850D01*
X006143Y029859D02*
X005869Y029859D01*
X005869Y029867D02*
X006143Y029867D01*
X006143Y029876D02*
X005869Y029876D01*
X005869Y029884D02*
X006143Y029884D01*
X006143Y029893D02*
X005869Y029893D01*
X005869Y029901D02*
X006143Y029901D01*
X006143Y029910D02*
X005869Y029910D01*
X005869Y029918D02*
X006143Y029918D01*
X006143Y029927D02*
X005869Y029927D01*
X005869Y029935D02*
X006143Y029935D01*
X006143Y029944D02*
X005869Y029944D01*
X005869Y029952D02*
X006143Y029952D01*
X006143Y029961D02*
X005881Y029961D01*
X005898Y029969D02*
X006143Y029969D01*
X006143Y029978D02*
X005914Y029978D01*
X005919Y029986D02*
X006143Y029986D01*
X006143Y029995D02*
X005919Y029995D01*
X005919Y030003D02*
X006143Y030003D01*
X006143Y030012D02*
X005919Y030012D01*
X005919Y030020D02*
X006143Y030020D01*
X006143Y030029D02*
X005919Y030029D01*
X005919Y030037D02*
X006143Y030037D01*
X006143Y030046D02*
X005919Y030046D01*
X005919Y030054D02*
X006143Y030054D01*
X006143Y030063D02*
X005919Y030063D01*
X005919Y030071D02*
X006143Y030071D01*
X006143Y030080D02*
X005919Y030080D01*
X005919Y030088D02*
X006143Y030088D01*
X006143Y030097D02*
X005919Y030097D01*
X005919Y030105D02*
X006143Y030105D01*
X006143Y030114D02*
X005919Y030114D01*
X005919Y030122D02*
X006143Y030122D01*
X006143Y030131D02*
X005919Y030131D01*
X005919Y030139D02*
X006143Y030139D01*
X006143Y030148D02*
X005919Y030148D01*
X005919Y030156D02*
X006143Y030156D01*
X006143Y030165D02*
X005919Y030165D01*
X005919Y030173D02*
X006143Y030173D01*
X006143Y030182D02*
X005919Y030182D01*
X005919Y030190D02*
X006143Y030190D01*
X006143Y030199D02*
X005919Y030199D01*
X005919Y030207D02*
X006143Y030207D01*
X006143Y030216D02*
X005919Y030216D01*
X005919Y030224D02*
X006143Y030224D01*
X006143Y030233D02*
X005919Y030233D01*
X005919Y030241D02*
X006143Y030241D01*
X006143Y030250D02*
X005919Y030250D01*
X005919Y030258D02*
X006143Y030258D01*
X006143Y030267D02*
X005913Y030267D01*
X005903Y030275D02*
X006143Y030275D01*
X006143Y030284D02*
X005893Y030284D01*
X005883Y030292D02*
X006143Y030292D01*
X006143Y030301D02*
X005873Y030301D01*
X005871Y030309D02*
X006143Y030309D01*
X006143Y030318D02*
X005871Y030318D01*
X005867Y030318D02*
X005671Y030318D01*
X005669Y030318D02*
X005367Y030318D01*
X005367Y030326D02*
X005669Y030326D01*
X005669Y030335D02*
X005367Y030335D01*
X005367Y030343D02*
X005669Y030343D01*
X005669Y030352D02*
X005367Y030352D01*
X005367Y030360D02*
X005669Y030360D01*
X005669Y030369D02*
X005367Y030369D01*
X005367Y030378D02*
X005669Y030378D01*
X005669Y030386D02*
X005367Y030386D01*
X005367Y030395D02*
X005669Y030395D01*
X005669Y030403D02*
X005367Y030403D01*
X005367Y030412D02*
X005669Y030412D01*
X005669Y030420D02*
X005367Y030420D01*
X005367Y030429D02*
X005675Y030429D01*
X005683Y030437D02*
X005367Y030437D01*
X005367Y030446D02*
X006143Y030446D01*
X006143Y030454D02*
X005367Y030454D01*
X005367Y030463D02*
X006143Y030463D01*
X006143Y030471D02*
X005367Y030471D01*
X005367Y030480D02*
X006143Y030480D01*
X006143Y030488D02*
X005367Y030488D01*
X005367Y030497D02*
X006143Y030497D01*
X006143Y030505D02*
X005367Y030505D01*
X005367Y030514D02*
X006143Y030514D01*
X006143Y030522D02*
X005367Y030522D01*
X005367Y030531D02*
X006143Y030531D01*
X006143Y030539D02*
X005367Y030539D01*
X005367Y030548D02*
X006143Y030548D01*
X006143Y030556D02*
X005367Y030556D01*
X005367Y030565D02*
X006143Y030565D01*
X006143Y030573D02*
X005367Y030573D01*
X005367Y030582D02*
X006143Y030582D01*
X006143Y030590D02*
X005367Y030590D01*
X005367Y030599D02*
X006143Y030599D01*
X006143Y030607D02*
X005367Y030607D01*
X005367Y030309D02*
X005669Y030309D01*
X005671Y030309D02*
X005867Y030309D01*
X005867Y030326D02*
X006143Y030326D01*
X006143Y030335D02*
X005845Y030335D01*
X005845Y030343D02*
X006143Y030343D01*
X006143Y030352D02*
X005845Y030352D01*
X005845Y030360D02*
X006143Y030360D01*
X006143Y030369D02*
X005845Y030369D01*
X005845Y030378D02*
X006143Y030378D01*
X006143Y030386D02*
X005845Y030386D01*
X005845Y030395D02*
X006143Y030395D01*
X006143Y030403D02*
X005845Y030403D01*
X005845Y030412D02*
X006143Y030412D01*
X006143Y030420D02*
X005843Y030420D01*
X005834Y030429D02*
X006143Y030429D01*
X006143Y030437D02*
X005825Y030437D01*
X005635Y030301D02*
X005367Y030301D01*
X005367Y030292D02*
X005624Y030292D01*
X005614Y030284D02*
X005367Y030284D01*
X005367Y030275D02*
X005604Y030275D01*
X005594Y030267D02*
X005367Y030267D01*
X005367Y030258D02*
X005591Y030258D01*
X005591Y030250D02*
X005367Y030250D01*
X005367Y030241D02*
X005591Y030241D01*
X005591Y030233D02*
X005367Y030233D01*
X005367Y030224D02*
X005591Y030224D01*
X005591Y030216D02*
X005367Y030216D01*
X005367Y030207D02*
X005591Y030207D01*
X005591Y030199D02*
X005367Y030199D01*
X005367Y030190D02*
X005591Y030190D01*
X005591Y030182D02*
X005367Y030182D01*
X005367Y030173D02*
X005591Y030173D01*
X005591Y030165D02*
X005367Y030165D01*
X005367Y030156D02*
X005591Y030156D01*
X005591Y030148D02*
X005367Y030148D01*
X005367Y030139D02*
X005591Y030139D01*
X005591Y030131D02*
X005367Y030131D01*
X005367Y030122D02*
X005591Y030122D01*
X005591Y030114D02*
X005367Y030114D01*
X005367Y030105D02*
X005591Y030105D01*
X005591Y030097D02*
X005367Y030097D01*
X005367Y030088D02*
X005591Y030088D01*
X005591Y030080D02*
X005367Y030080D01*
X005367Y030071D02*
X005591Y030071D01*
X005591Y030063D02*
X005367Y030063D01*
X005367Y030054D02*
X005591Y030054D01*
X005591Y030046D02*
X005367Y030046D01*
X005367Y030037D02*
X005591Y030037D01*
X005591Y030029D02*
X005367Y030029D01*
X005367Y030020D02*
X005591Y030020D01*
X005591Y030012D02*
X005367Y030012D01*
X005367Y030003D02*
X005591Y030003D01*
X005591Y029995D02*
X005367Y029995D01*
X005367Y029986D02*
X005591Y029986D01*
X005596Y029978D02*
X005367Y029978D01*
X005367Y029969D02*
X005614Y029969D01*
X005631Y029961D02*
X005367Y029961D01*
X005367Y029952D02*
X005641Y029952D01*
X005641Y029944D02*
X005367Y029944D01*
X005367Y029935D02*
X005641Y029935D01*
X005641Y029927D02*
X005367Y029927D01*
X005367Y029918D02*
X005641Y029918D01*
X005641Y029910D02*
X005367Y029910D01*
X005367Y029901D02*
X005641Y029901D01*
X005641Y029893D02*
X005367Y029893D01*
X005367Y029884D02*
X005641Y029884D01*
X005641Y029876D02*
X005367Y029876D01*
X005367Y029867D02*
X005641Y029867D01*
X005641Y029859D02*
X005367Y029859D01*
X005367Y029850D02*
X005641Y029850D01*
X005641Y029842D02*
X005367Y029842D01*
X005367Y029833D02*
X005641Y029833D01*
X005641Y029825D02*
X005367Y029825D01*
X005367Y029816D02*
X005641Y029816D01*
X005641Y029808D02*
X005367Y029808D01*
X005367Y029799D02*
X005641Y029799D01*
X005641Y029791D02*
X005367Y029791D01*
X005367Y029782D02*
X005641Y029782D01*
X005641Y029774D02*
X005367Y029774D01*
X005367Y029765D02*
X005641Y029765D01*
X005641Y029757D02*
X005367Y029757D01*
X005367Y029748D02*
X005641Y029748D01*
X005641Y029740D02*
X005367Y029740D01*
X005367Y029731D02*
X005641Y029731D01*
X005641Y029723D02*
X005367Y029723D01*
X005367Y029714D02*
X005641Y029714D01*
X005641Y029706D02*
X005367Y029706D01*
X005367Y029697D02*
X005641Y029697D01*
X005641Y029689D02*
X005367Y029689D01*
X011642Y029689D02*
X011916Y029689D01*
X011916Y029683D02*
X011642Y029683D01*
X011642Y030613D01*
X012418Y030613D01*
X012418Y029685D01*
X012144Y029685D01*
X012144Y029955D01*
X012194Y029981D01*
X012194Y030263D01*
X012146Y030303D01*
X012146Y030321D01*
X011946Y030321D01*
X011946Y030305D01*
X012120Y030305D01*
X012142Y030305D01*
X012142Y030327D01*
X012120Y030327D01*
X012120Y030419D01*
X012092Y030445D01*
X011966Y030445D01*
X011944Y030423D01*
X011944Y030305D01*
X011914Y030305D01*
X011866Y030265D01*
X011866Y029981D01*
X011916Y029957D01*
X011916Y029683D01*
X011916Y029697D02*
X011642Y029697D01*
X011642Y029706D02*
X011916Y029706D01*
X011916Y029714D02*
X011642Y029714D01*
X011642Y029723D02*
X011916Y029723D01*
X011916Y029731D02*
X011642Y029731D01*
X011642Y029740D02*
X011916Y029740D01*
X011916Y029748D02*
X011642Y029748D01*
X011642Y029757D02*
X011916Y029757D01*
X011916Y029765D02*
X011642Y029765D01*
X011642Y029774D02*
X011916Y029774D01*
X011916Y029782D02*
X011642Y029782D01*
X011642Y029791D02*
X011916Y029791D01*
X011916Y029799D02*
X011642Y029799D01*
X011642Y029808D02*
X011916Y029808D01*
X011916Y029816D02*
X011642Y029816D01*
X011642Y029825D02*
X011916Y029825D01*
X011916Y029833D02*
X011642Y029833D01*
X011642Y029842D02*
X011916Y029842D01*
X011916Y029850D02*
X011642Y029850D01*
X011642Y029859D02*
X011916Y029859D01*
X011916Y029867D02*
X011642Y029867D01*
X011642Y029876D02*
X011916Y029876D01*
X011916Y029884D02*
X011642Y029884D01*
X011642Y029893D02*
X011916Y029893D01*
X011916Y029901D02*
X011642Y029901D01*
X011642Y029910D02*
X011916Y029910D01*
X011916Y029918D02*
X011642Y029918D01*
X011642Y029927D02*
X011916Y029927D01*
X011916Y029935D02*
X011642Y029935D01*
X011642Y029944D02*
X011916Y029944D01*
X011916Y029952D02*
X011642Y029952D01*
X011642Y029961D02*
X011907Y029961D01*
X011889Y029969D02*
X011642Y029969D01*
X011642Y029978D02*
X011872Y029978D01*
X011866Y029986D02*
X011642Y029986D01*
X011642Y029995D02*
X011866Y029995D01*
X011866Y030003D02*
X011642Y030003D01*
X011642Y030012D02*
X011866Y030012D01*
X011866Y030020D02*
X011642Y030020D01*
X011642Y030029D02*
X011866Y030029D01*
X011866Y030037D02*
X011642Y030037D01*
X011642Y030046D02*
X011866Y030046D01*
X011866Y030054D02*
X011642Y030054D01*
X011642Y030063D02*
X011866Y030063D01*
X011866Y030071D02*
X011642Y030071D01*
X011642Y030080D02*
X011866Y030080D01*
X011866Y030088D02*
X011642Y030088D01*
X011642Y030097D02*
X011866Y030097D01*
X011866Y030105D02*
X011642Y030105D01*
X011642Y030114D02*
X011866Y030114D01*
X011866Y030122D02*
X011642Y030122D01*
X011642Y030131D02*
X011866Y030131D01*
X011866Y030139D02*
X011642Y030139D01*
X011642Y030148D02*
X011866Y030148D01*
X011866Y030156D02*
X011642Y030156D01*
X011642Y030165D02*
X011866Y030165D01*
X011866Y030173D02*
X011642Y030173D01*
X011642Y030182D02*
X011866Y030182D01*
X011866Y030190D02*
X011642Y030190D01*
X011642Y030199D02*
X011866Y030199D01*
X011866Y030207D02*
X011642Y030207D01*
X011642Y030216D02*
X011866Y030216D01*
X011866Y030224D02*
X011642Y030224D01*
X011642Y030233D02*
X011866Y030233D01*
X011866Y030241D02*
X011642Y030241D01*
X011642Y030250D02*
X011866Y030250D01*
X011866Y030258D02*
X011642Y030258D01*
X011642Y030267D02*
X011869Y030267D01*
X011880Y030275D02*
X011642Y030275D01*
X011642Y030284D02*
X011890Y030284D01*
X011900Y030292D02*
X011642Y030292D01*
X011642Y030301D02*
X011910Y030301D01*
X011944Y030309D02*
X011642Y030309D01*
X011642Y030318D02*
X011944Y030318D01*
X011946Y030318D02*
X012142Y030318D01*
X012146Y030318D02*
X012418Y030318D01*
X012418Y030326D02*
X012142Y030326D01*
X012142Y030309D02*
X011946Y030309D01*
X011944Y030326D02*
X011642Y030326D01*
X011642Y030335D02*
X011944Y030335D01*
X011944Y030343D02*
X011642Y030343D01*
X011642Y030352D02*
X011944Y030352D01*
X011944Y030360D02*
X011642Y030360D01*
X011642Y030369D02*
X011944Y030369D01*
X011944Y030378D02*
X011642Y030378D01*
X011642Y030386D02*
X011944Y030386D01*
X011944Y030395D02*
X011642Y030395D01*
X011642Y030403D02*
X011944Y030403D01*
X011944Y030412D02*
X011642Y030412D01*
X011642Y030420D02*
X011944Y030420D01*
X011950Y030429D02*
X011642Y030429D01*
X011642Y030437D02*
X011959Y030437D01*
X012100Y030437D02*
X012418Y030437D01*
X012418Y030429D02*
X012110Y030429D01*
X012119Y030420D02*
X012418Y030420D01*
X012418Y030412D02*
X012120Y030412D01*
X012120Y030403D02*
X012418Y030403D01*
X012418Y030395D02*
X012120Y030395D01*
X012120Y030386D02*
X012418Y030386D01*
X012418Y030378D02*
X012120Y030378D01*
X012120Y030369D02*
X012418Y030369D01*
X012418Y030360D02*
X012120Y030360D01*
X012120Y030352D02*
X012418Y030352D01*
X012418Y030343D02*
X012120Y030343D01*
X012120Y030335D02*
X012418Y030335D01*
X012418Y030309D02*
X012146Y030309D01*
X012148Y030301D02*
X012418Y030301D01*
X012418Y030292D02*
X012158Y030292D01*
X012169Y030284D02*
X012418Y030284D01*
X012418Y030275D02*
X012179Y030275D01*
X012189Y030267D02*
X012418Y030267D01*
X012418Y030258D02*
X012194Y030258D01*
X012194Y030250D02*
X012418Y030250D01*
X012418Y030241D02*
X012194Y030241D01*
X012194Y030233D02*
X012418Y030233D01*
X012418Y030224D02*
X012194Y030224D01*
X012194Y030216D02*
X012418Y030216D01*
X012418Y030207D02*
X012194Y030207D01*
X012194Y030199D02*
X012418Y030199D01*
X012418Y030190D02*
X012194Y030190D01*
X012194Y030182D02*
X012418Y030182D01*
X012418Y030173D02*
X012194Y030173D01*
X012194Y030165D02*
X012418Y030165D01*
X012418Y030156D02*
X012194Y030156D01*
X012194Y030148D02*
X012418Y030148D01*
X012418Y030139D02*
X012194Y030139D01*
X012194Y030131D02*
X012418Y030131D01*
X012418Y030122D02*
X012194Y030122D01*
X012194Y030114D02*
X012418Y030114D01*
X012418Y030105D02*
X012194Y030105D01*
X012194Y030097D02*
X012418Y030097D01*
X012418Y030088D02*
X012194Y030088D01*
X012194Y030080D02*
X012418Y030080D01*
X012418Y030071D02*
X012194Y030071D01*
X012194Y030063D02*
X012418Y030063D01*
X012418Y030054D02*
X012194Y030054D01*
X012194Y030046D02*
X012418Y030046D01*
X012418Y030037D02*
X012194Y030037D01*
X012194Y030029D02*
X012418Y030029D01*
X012418Y030020D02*
X012194Y030020D01*
X012194Y030012D02*
X012418Y030012D01*
X012418Y030003D02*
X012194Y030003D01*
X012194Y029995D02*
X012418Y029995D01*
X012418Y029986D02*
X012194Y029986D01*
X012190Y029978D02*
X012418Y029978D01*
X012418Y029969D02*
X012173Y029969D01*
X012157Y029961D02*
X012418Y029961D01*
X012418Y029952D02*
X012144Y029952D01*
X012144Y029944D02*
X012418Y029944D01*
X012418Y029935D02*
X012144Y029935D01*
X012144Y029927D02*
X012418Y029927D01*
X012418Y029918D02*
X012144Y029918D01*
X012144Y029910D02*
X012418Y029910D01*
X012418Y029901D02*
X012144Y029901D01*
X012144Y029893D02*
X012418Y029893D01*
X012418Y029884D02*
X012144Y029884D01*
X012144Y029876D02*
X012418Y029876D01*
X012418Y029867D02*
X012144Y029867D01*
X012144Y029859D02*
X012418Y029859D01*
X012418Y029850D02*
X012144Y029850D01*
X012144Y029842D02*
X012418Y029842D01*
X012418Y029833D02*
X012144Y029833D01*
X012144Y029825D02*
X012418Y029825D01*
X012418Y029816D02*
X012144Y029816D01*
X012144Y029808D02*
X012418Y029808D01*
X012418Y029799D02*
X012144Y029799D01*
X012144Y029791D02*
X012418Y029791D01*
X012418Y029782D02*
X012144Y029782D01*
X012144Y029774D02*
X012418Y029774D01*
X012418Y029765D02*
X012144Y029765D01*
X012144Y029757D02*
X012418Y029757D01*
X012418Y029748D02*
X012144Y029748D01*
X012144Y029740D02*
X012418Y029740D01*
X012418Y029731D02*
X012144Y029731D01*
X012144Y029723D02*
X012418Y029723D01*
X012418Y029714D02*
X012144Y029714D01*
X012144Y029706D02*
X012418Y029706D01*
X012418Y029697D02*
X012144Y029697D01*
X012144Y029689D02*
X012418Y029689D01*
X012418Y030446D02*
X011642Y030446D01*
X011642Y030454D02*
X012418Y030454D01*
X012418Y030463D02*
X011642Y030463D01*
X011642Y030471D02*
X012418Y030471D01*
X012418Y030480D02*
X011642Y030480D01*
X011642Y030488D02*
X012418Y030488D01*
X012418Y030497D02*
X011642Y030497D01*
X011642Y030505D02*
X012418Y030505D01*
X012418Y030514D02*
X011642Y030514D01*
X011642Y030522D02*
X012418Y030522D01*
X012418Y030531D02*
X011642Y030531D01*
X011642Y030539D02*
X012418Y030539D01*
X012418Y030548D02*
X011642Y030548D01*
X011642Y030556D02*
X012418Y030556D01*
X012418Y030565D02*
X011642Y030565D01*
X011642Y030573D02*
X012418Y030573D01*
X012418Y030582D02*
X011642Y030582D01*
X011642Y030590D02*
X012418Y030590D01*
X012418Y030599D02*
X011642Y030599D01*
X011642Y030607D02*
X012418Y030607D01*
X017918Y030607D02*
X018694Y030607D01*
X018694Y030613D02*
X017918Y030613D01*
X017918Y029683D01*
X018192Y029683D01*
X018192Y029957D01*
X018142Y029981D01*
X018142Y030265D01*
X018190Y030305D01*
X018220Y030305D01*
X018220Y030423D01*
X018242Y030445D01*
X018368Y030445D01*
X018396Y030419D01*
X018396Y030327D01*
X018418Y030327D01*
X018418Y030305D01*
X018396Y030305D01*
X018222Y030305D01*
X018222Y030321D01*
X018422Y030321D01*
X018422Y030303D01*
X018470Y030263D01*
X018470Y029981D01*
X018420Y029955D01*
X018420Y029685D01*
X018694Y029685D01*
X018694Y030613D01*
X018694Y030599D02*
X017918Y030599D01*
X017918Y030590D02*
X018694Y030590D01*
X018694Y030582D02*
X017918Y030582D01*
X017918Y030573D02*
X018694Y030573D01*
X018694Y030565D02*
X017918Y030565D01*
X017918Y030556D02*
X018694Y030556D01*
X018694Y030548D02*
X017918Y030548D01*
X017918Y030539D02*
X018694Y030539D01*
X018694Y030531D02*
X017918Y030531D01*
X017918Y030522D02*
X018694Y030522D01*
X018694Y030514D02*
X017918Y030514D01*
X017918Y030505D02*
X018694Y030505D01*
X018694Y030497D02*
X017918Y030497D01*
X017918Y030488D02*
X018694Y030488D01*
X018694Y030480D02*
X017918Y030480D01*
X017918Y030471D02*
X018694Y030471D01*
X018694Y030463D02*
X017918Y030463D01*
X017918Y030454D02*
X018694Y030454D01*
X018694Y030446D02*
X017918Y030446D01*
X017918Y030437D02*
X018234Y030437D01*
X018226Y030429D02*
X017918Y030429D01*
X017918Y030420D02*
X018220Y030420D01*
X018220Y030412D02*
X017918Y030412D01*
X017918Y030403D02*
X018220Y030403D01*
X018220Y030395D02*
X017918Y030395D01*
X017918Y030386D02*
X018220Y030386D01*
X018220Y030378D02*
X017918Y030378D01*
X017918Y030369D02*
X018220Y030369D01*
X018220Y030360D02*
X017918Y030360D01*
X017918Y030352D02*
X018220Y030352D01*
X018220Y030343D02*
X017918Y030343D01*
X017918Y030335D02*
X018220Y030335D01*
X018220Y030326D02*
X017918Y030326D01*
X017918Y030318D02*
X018220Y030318D01*
X018222Y030318D02*
X018418Y030318D01*
X018422Y030318D02*
X018694Y030318D01*
X018694Y030326D02*
X018418Y030326D01*
X018418Y030309D02*
X018222Y030309D01*
X018220Y030309D02*
X017918Y030309D01*
X017918Y030301D02*
X018186Y030301D01*
X018176Y030292D02*
X017918Y030292D01*
X017918Y030284D02*
X018165Y030284D01*
X018155Y030275D02*
X017918Y030275D01*
X017918Y030267D02*
X018145Y030267D01*
X018142Y030258D02*
X017918Y030258D01*
X017918Y030250D02*
X018142Y030250D01*
X018142Y030241D02*
X017918Y030241D01*
X017918Y030233D02*
X018142Y030233D01*
X018142Y030224D02*
X017918Y030224D01*
X017918Y030216D02*
X018142Y030216D01*
X018142Y030207D02*
X017918Y030207D01*
X017918Y030199D02*
X018142Y030199D01*
X018142Y030190D02*
X017918Y030190D01*
X017918Y030182D02*
X018142Y030182D01*
X018142Y030173D02*
X017918Y030173D01*
X017918Y030165D02*
X018142Y030165D01*
X018142Y030156D02*
X017918Y030156D01*
X017918Y030148D02*
X018142Y030148D01*
X018142Y030139D02*
X017918Y030139D01*
X017918Y030131D02*
X018142Y030131D01*
X018142Y030122D02*
X017918Y030122D01*
X017918Y030114D02*
X018142Y030114D01*
X018142Y030105D02*
X017918Y030105D01*
X017918Y030097D02*
X018142Y030097D01*
X018142Y030088D02*
X017918Y030088D01*
X017918Y030080D02*
X018142Y030080D01*
X018142Y030071D02*
X017918Y030071D01*
X017918Y030063D02*
X018142Y030063D01*
X018142Y030054D02*
X017918Y030054D01*
X017918Y030046D02*
X018142Y030046D01*
X018142Y030037D02*
X017918Y030037D01*
X017918Y030029D02*
X018142Y030029D01*
X018142Y030020D02*
X017918Y030020D01*
X017918Y030012D02*
X018142Y030012D01*
X018142Y030003D02*
X017918Y030003D01*
X017918Y029995D02*
X018142Y029995D01*
X018142Y029986D02*
X017918Y029986D01*
X017918Y029978D02*
X018147Y029978D01*
X018165Y029969D02*
X017918Y029969D01*
X017918Y029961D02*
X018183Y029961D01*
X018192Y029952D02*
X017918Y029952D01*
X017918Y029944D02*
X018192Y029944D01*
X018192Y029935D02*
X017918Y029935D01*
X017918Y029927D02*
X018192Y029927D01*
X018192Y029918D02*
X017918Y029918D01*
X017918Y029910D02*
X018192Y029910D01*
X018192Y029901D02*
X017918Y029901D01*
X017918Y029893D02*
X018192Y029893D01*
X018192Y029884D02*
X017918Y029884D01*
X017918Y029876D02*
X018192Y029876D01*
X018192Y029867D02*
X017918Y029867D01*
X017918Y029859D02*
X018192Y029859D01*
X018192Y029850D02*
X017918Y029850D01*
X017918Y029842D02*
X018192Y029842D01*
X018192Y029833D02*
X017918Y029833D01*
X017918Y029825D02*
X018192Y029825D01*
X018192Y029816D02*
X017918Y029816D01*
X017918Y029808D02*
X018192Y029808D01*
X018192Y029799D02*
X017918Y029799D01*
X017918Y029791D02*
X018192Y029791D01*
X018192Y029782D02*
X017918Y029782D01*
X017918Y029774D02*
X018192Y029774D01*
X018192Y029765D02*
X017918Y029765D01*
X017918Y029757D02*
X018192Y029757D01*
X018192Y029748D02*
X017918Y029748D01*
X017918Y029740D02*
X018192Y029740D01*
X018192Y029731D02*
X017918Y029731D01*
X017918Y029723D02*
X018192Y029723D01*
X018192Y029714D02*
X017918Y029714D01*
X017918Y029706D02*
X018192Y029706D01*
X018192Y029697D02*
X017918Y029697D01*
X017918Y029689D02*
X018192Y029689D01*
X018420Y029689D02*
X018694Y029689D01*
X018694Y029697D02*
X018420Y029697D01*
X018420Y029706D02*
X018694Y029706D01*
X018694Y029714D02*
X018420Y029714D01*
X018420Y029723D02*
X018694Y029723D01*
X018694Y029731D02*
X018420Y029731D01*
X018420Y029740D02*
X018694Y029740D01*
X018694Y029748D02*
X018420Y029748D01*
X018420Y029757D02*
X018694Y029757D01*
X018694Y029765D02*
X018420Y029765D01*
X018420Y029774D02*
X018694Y029774D01*
X018694Y029782D02*
X018420Y029782D01*
X018420Y029791D02*
X018694Y029791D01*
X018694Y029799D02*
X018420Y029799D01*
X018420Y029808D02*
X018694Y029808D01*
X018694Y029816D02*
X018420Y029816D01*
X018420Y029825D02*
X018694Y029825D01*
X018694Y029833D02*
X018420Y029833D01*
X018420Y029842D02*
X018694Y029842D01*
X018694Y029850D02*
X018420Y029850D01*
X018420Y029859D02*
X018694Y029859D01*
X018694Y029867D02*
X018420Y029867D01*
X018420Y029876D02*
X018694Y029876D01*
X018694Y029884D02*
X018420Y029884D01*
X018420Y029893D02*
X018694Y029893D01*
X018694Y029901D02*
X018420Y029901D01*
X018420Y029910D02*
X018694Y029910D01*
X018694Y029918D02*
X018420Y029918D01*
X018420Y029927D02*
X018694Y029927D01*
X018694Y029935D02*
X018420Y029935D01*
X018420Y029944D02*
X018694Y029944D01*
X018694Y029952D02*
X018420Y029952D01*
X018432Y029961D02*
X018694Y029961D01*
X018694Y029969D02*
X018449Y029969D01*
X018465Y029978D02*
X018694Y029978D01*
X018694Y029986D02*
X018470Y029986D01*
X018470Y029995D02*
X018694Y029995D01*
X018694Y030003D02*
X018470Y030003D01*
X018470Y030012D02*
X018694Y030012D01*
X018694Y030020D02*
X018470Y030020D01*
X018470Y030029D02*
X018694Y030029D01*
X018694Y030037D02*
X018470Y030037D01*
X018470Y030046D02*
X018694Y030046D01*
X018694Y030054D02*
X018470Y030054D01*
X018470Y030063D02*
X018694Y030063D01*
X018694Y030071D02*
X018470Y030071D01*
X018470Y030080D02*
X018694Y030080D01*
X018694Y030088D02*
X018470Y030088D01*
X018470Y030097D02*
X018694Y030097D01*
X018694Y030105D02*
X018470Y030105D01*
X018470Y030114D02*
X018694Y030114D01*
X018694Y030122D02*
X018470Y030122D01*
X018470Y030131D02*
X018694Y030131D01*
X018694Y030139D02*
X018470Y030139D01*
X018470Y030148D02*
X018694Y030148D01*
X018694Y030156D02*
X018470Y030156D01*
X018470Y030165D02*
X018694Y030165D01*
X018694Y030173D02*
X018470Y030173D01*
X018470Y030182D02*
X018694Y030182D01*
X018694Y030190D02*
X018470Y030190D01*
X018470Y030199D02*
X018694Y030199D01*
X018694Y030207D02*
X018470Y030207D01*
X018470Y030216D02*
X018694Y030216D01*
X018694Y030224D02*
X018470Y030224D01*
X018470Y030233D02*
X018694Y030233D01*
X018694Y030241D02*
X018470Y030241D01*
X018470Y030250D02*
X018694Y030250D01*
X018694Y030258D02*
X018470Y030258D01*
X018465Y030267D02*
X018694Y030267D01*
X018694Y030275D02*
X018454Y030275D01*
X018444Y030284D02*
X018694Y030284D01*
X018694Y030292D02*
X018434Y030292D01*
X018424Y030301D02*
X018694Y030301D01*
X018694Y030309D02*
X018422Y030309D01*
X018396Y030335D02*
X018694Y030335D01*
X018694Y030343D02*
X018396Y030343D01*
X018396Y030352D02*
X018694Y030352D01*
X018694Y030360D02*
X018396Y030360D01*
X018396Y030369D02*
X018694Y030369D01*
X018694Y030378D02*
X018396Y030378D01*
X018396Y030386D02*
X018694Y030386D01*
X018694Y030395D02*
X018396Y030395D01*
X018396Y030403D02*
X018694Y030403D01*
X018694Y030412D02*
X018396Y030412D01*
X018394Y030420D02*
X018694Y030420D01*
X018694Y030429D02*
X018385Y030429D01*
X018376Y030437D02*
X018694Y030437D01*
X024194Y030437D02*
X024510Y030437D01*
X024518Y030445D02*
X024496Y030423D01*
X024496Y030305D01*
X024466Y030305D01*
X024418Y030265D01*
X024418Y029981D01*
X024468Y029957D01*
X024468Y029683D01*
X024194Y029683D01*
X024194Y030613D01*
X024970Y030613D01*
X024970Y029685D01*
X024696Y029685D01*
X024696Y029955D01*
X024746Y029981D01*
X024746Y030263D01*
X024698Y030303D01*
X024698Y030321D01*
X024498Y030321D01*
X024498Y030305D01*
X024672Y030305D01*
X024694Y030305D01*
X024694Y030327D01*
X024672Y030327D01*
X024672Y030419D01*
X024644Y030445D01*
X024518Y030445D01*
X024502Y030429D02*
X024194Y030429D01*
X024194Y030420D02*
X024496Y030420D01*
X024496Y030412D02*
X024194Y030412D01*
X024194Y030403D02*
X024496Y030403D01*
X024496Y030395D02*
X024194Y030395D01*
X024194Y030386D02*
X024496Y030386D01*
X024496Y030378D02*
X024194Y030378D01*
X024194Y030369D02*
X024496Y030369D01*
X024496Y030360D02*
X024194Y030360D01*
X024194Y030352D02*
X024496Y030352D01*
X024496Y030343D02*
X024194Y030343D01*
X024194Y030335D02*
X024496Y030335D01*
X024496Y030326D02*
X024194Y030326D01*
X024194Y030318D02*
X024496Y030318D01*
X024498Y030318D02*
X024694Y030318D01*
X024698Y030318D02*
X024970Y030318D01*
X024970Y030326D02*
X024694Y030326D01*
X024694Y030309D02*
X024498Y030309D01*
X024496Y030309D02*
X024194Y030309D01*
X024194Y030301D02*
X024461Y030301D01*
X024451Y030292D02*
X024194Y030292D01*
X024194Y030284D02*
X024441Y030284D01*
X024431Y030275D02*
X024194Y030275D01*
X024194Y030267D02*
X024421Y030267D01*
X024418Y030258D02*
X024194Y030258D01*
X024194Y030250D02*
X024418Y030250D01*
X024418Y030241D02*
X024194Y030241D01*
X024194Y030233D02*
X024418Y030233D01*
X024418Y030224D02*
X024194Y030224D01*
X024194Y030216D02*
X024418Y030216D01*
X024418Y030207D02*
X024194Y030207D01*
X024194Y030199D02*
X024418Y030199D01*
X024418Y030190D02*
X024194Y030190D01*
X024194Y030182D02*
X024418Y030182D01*
X024418Y030173D02*
X024194Y030173D01*
X024194Y030165D02*
X024418Y030165D01*
X024418Y030156D02*
X024194Y030156D01*
X024194Y030148D02*
X024418Y030148D01*
X024418Y030139D02*
X024194Y030139D01*
X024194Y030131D02*
X024418Y030131D01*
X024418Y030122D02*
X024194Y030122D01*
X024194Y030114D02*
X024418Y030114D01*
X024418Y030105D02*
X024194Y030105D01*
X024194Y030097D02*
X024418Y030097D01*
X024418Y030088D02*
X024194Y030088D01*
X024194Y030080D02*
X024418Y030080D01*
X024418Y030071D02*
X024194Y030071D01*
X024194Y030063D02*
X024418Y030063D01*
X024418Y030054D02*
X024194Y030054D01*
X024194Y030046D02*
X024418Y030046D01*
X024418Y030037D02*
X024194Y030037D01*
X024194Y030029D02*
X024418Y030029D01*
X024418Y030020D02*
X024194Y030020D01*
X024194Y030012D02*
X024418Y030012D01*
X024418Y030003D02*
X024194Y030003D01*
X024194Y029995D02*
X024418Y029995D01*
X024418Y029986D02*
X024194Y029986D01*
X024194Y029978D02*
X024423Y029978D01*
X024441Y029969D02*
X024194Y029969D01*
X024194Y029961D02*
X024458Y029961D01*
X024468Y029952D02*
X024194Y029952D01*
X024194Y029944D02*
X024468Y029944D01*
X024468Y029935D02*
X024194Y029935D01*
X024194Y029927D02*
X024468Y029927D01*
X024468Y029918D02*
X024194Y029918D01*
X024194Y029910D02*
X024468Y029910D01*
X024468Y029901D02*
X024194Y029901D01*
X024194Y029893D02*
X024468Y029893D01*
X024468Y029884D02*
X024194Y029884D01*
X024194Y029876D02*
X024468Y029876D01*
X024468Y029867D02*
X024194Y029867D01*
X024194Y029859D02*
X024468Y029859D01*
X024468Y029850D02*
X024194Y029850D01*
X024194Y029842D02*
X024468Y029842D01*
X024468Y029833D02*
X024194Y029833D01*
X024194Y029825D02*
X024468Y029825D01*
X024468Y029816D02*
X024194Y029816D01*
X024194Y029808D02*
X024468Y029808D01*
X024468Y029799D02*
X024194Y029799D01*
X024194Y029791D02*
X024468Y029791D01*
X024468Y029782D02*
X024194Y029782D01*
X024194Y029774D02*
X024468Y029774D01*
X024468Y029765D02*
X024194Y029765D01*
X024194Y029757D02*
X024468Y029757D01*
X024468Y029748D02*
X024194Y029748D01*
X024194Y029740D02*
X024468Y029740D01*
X024468Y029731D02*
X024194Y029731D01*
X024194Y029723D02*
X024468Y029723D01*
X024468Y029714D02*
X024194Y029714D01*
X024194Y029706D02*
X024468Y029706D01*
X024468Y029697D02*
X024194Y029697D01*
X024194Y029689D02*
X024468Y029689D01*
X024696Y029689D02*
X024970Y029689D01*
X024970Y029697D02*
X024696Y029697D01*
X024696Y029706D02*
X024970Y029706D01*
X024970Y029714D02*
X024696Y029714D01*
X024696Y029723D02*
X024970Y029723D01*
X024970Y029731D02*
X024696Y029731D01*
X024696Y029740D02*
X024970Y029740D01*
X024970Y029748D02*
X024696Y029748D01*
X024696Y029757D02*
X024970Y029757D01*
X024970Y029765D02*
X024696Y029765D01*
X024696Y029774D02*
X024970Y029774D01*
X024970Y029782D02*
X024696Y029782D01*
X024696Y029791D02*
X024970Y029791D01*
X024970Y029799D02*
X024696Y029799D01*
X024696Y029808D02*
X024970Y029808D01*
X024970Y029816D02*
X024696Y029816D01*
X024696Y029825D02*
X024970Y029825D01*
X024970Y029833D02*
X024696Y029833D01*
X024696Y029842D02*
X024970Y029842D01*
X024970Y029850D02*
X024696Y029850D01*
X024696Y029859D02*
X024970Y029859D01*
X024970Y029867D02*
X024696Y029867D01*
X024696Y029876D02*
X024970Y029876D01*
X024970Y029884D02*
X024696Y029884D01*
X024696Y029893D02*
X024970Y029893D01*
X024970Y029901D02*
X024696Y029901D01*
X024696Y029910D02*
X024970Y029910D01*
X024970Y029918D02*
X024696Y029918D01*
X024696Y029927D02*
X024970Y029927D01*
X024970Y029935D02*
X024696Y029935D01*
X024696Y029944D02*
X024970Y029944D01*
X024970Y029952D02*
X024696Y029952D01*
X024708Y029961D02*
X024970Y029961D01*
X024970Y029969D02*
X024724Y029969D01*
X024741Y029978D02*
X024970Y029978D01*
X024970Y029986D02*
X024746Y029986D01*
X024746Y029995D02*
X024970Y029995D01*
X024970Y030003D02*
X024746Y030003D01*
X024746Y030012D02*
X024970Y030012D01*
X024970Y030020D02*
X024746Y030020D01*
X024746Y030029D02*
X024970Y030029D01*
X024970Y030037D02*
X024746Y030037D01*
X024746Y030046D02*
X024970Y030046D01*
X024970Y030054D02*
X024746Y030054D01*
X024746Y030063D02*
X024970Y030063D01*
X024970Y030071D02*
X024746Y030071D01*
X024746Y030080D02*
X024970Y030080D01*
X024970Y030088D02*
X024746Y030088D01*
X024746Y030097D02*
X024970Y030097D01*
X024970Y030105D02*
X024746Y030105D01*
X024746Y030114D02*
X024970Y030114D01*
X024970Y030122D02*
X024746Y030122D01*
X024746Y030131D02*
X024970Y030131D01*
X024970Y030139D02*
X024746Y030139D01*
X024746Y030148D02*
X024970Y030148D01*
X024970Y030156D02*
X024746Y030156D01*
X024746Y030165D02*
X024970Y030165D01*
X024970Y030173D02*
X024746Y030173D01*
X024746Y030182D02*
X024970Y030182D01*
X024970Y030190D02*
X024746Y030190D01*
X024746Y030199D02*
X024970Y030199D01*
X024970Y030207D02*
X024746Y030207D01*
X024746Y030216D02*
X024970Y030216D01*
X024970Y030224D02*
X024746Y030224D01*
X024746Y030233D02*
X024970Y030233D01*
X024970Y030241D02*
X024746Y030241D01*
X024746Y030250D02*
X024970Y030250D01*
X024970Y030258D02*
X024746Y030258D01*
X024740Y030267D02*
X024970Y030267D01*
X024970Y030275D02*
X024730Y030275D01*
X024720Y030284D02*
X024970Y030284D01*
X024970Y030292D02*
X024710Y030292D01*
X024699Y030301D02*
X024970Y030301D01*
X024970Y030309D02*
X024698Y030309D01*
X024672Y030335D02*
X024970Y030335D01*
X024970Y030343D02*
X024672Y030343D01*
X024672Y030352D02*
X024970Y030352D01*
X024970Y030360D02*
X024672Y030360D01*
X024672Y030369D02*
X024970Y030369D01*
X024970Y030378D02*
X024672Y030378D01*
X024672Y030386D02*
X024970Y030386D01*
X024970Y030395D02*
X024672Y030395D01*
X024672Y030403D02*
X024970Y030403D01*
X024970Y030412D02*
X024672Y030412D01*
X024670Y030420D02*
X024970Y030420D01*
X024970Y030429D02*
X024661Y030429D01*
X024652Y030437D02*
X024970Y030437D01*
X024970Y030446D02*
X024194Y030446D01*
X024194Y030454D02*
X024970Y030454D01*
X024970Y030463D02*
X024194Y030463D01*
X024194Y030471D02*
X024970Y030471D01*
X024970Y030480D02*
X024194Y030480D01*
X024194Y030488D02*
X024970Y030488D01*
X024970Y030497D02*
X024194Y030497D01*
X024194Y030505D02*
X024970Y030505D01*
X024970Y030514D02*
X024194Y030514D01*
X024194Y030522D02*
X024970Y030522D01*
X024970Y030531D02*
X024194Y030531D01*
X024194Y030539D02*
X024970Y030539D01*
X024970Y030548D02*
X024194Y030548D01*
X024194Y030556D02*
X024970Y030556D01*
X024970Y030565D02*
X024194Y030565D01*
X024194Y030573D02*
X024970Y030573D01*
X024970Y030582D02*
X024194Y030582D01*
X024194Y030590D02*
X024970Y030590D01*
X024970Y030599D02*
X024194Y030599D01*
X024194Y030607D02*
X024970Y030607D01*
X030469Y030607D02*
X031245Y030607D01*
X031245Y030613D02*
X030469Y030613D01*
X030469Y029683D01*
X030743Y029683D01*
X030743Y029957D01*
X030693Y029981D01*
X030693Y030265D01*
X030741Y030305D01*
X030771Y030305D01*
X030771Y030423D01*
X030793Y030445D01*
X030919Y030445D01*
X030947Y030419D01*
X030947Y030327D01*
X030969Y030327D01*
X030969Y030305D01*
X030947Y030305D01*
X030773Y030305D01*
X030773Y030321D01*
X030973Y030321D01*
X030973Y030303D01*
X031021Y030263D01*
X031021Y029981D01*
X030971Y029955D01*
X030971Y029685D01*
X031245Y029685D01*
X031245Y030613D01*
X031245Y030599D02*
X030469Y030599D01*
X030469Y030590D02*
X031245Y030590D01*
X031245Y030582D02*
X030469Y030582D01*
X030469Y030573D02*
X031245Y030573D01*
X031245Y030565D02*
X030469Y030565D01*
X030469Y030556D02*
X031245Y030556D01*
X031245Y030548D02*
X030469Y030548D01*
X030469Y030539D02*
X031245Y030539D01*
X031245Y030531D02*
X030469Y030531D01*
X030469Y030522D02*
X031245Y030522D01*
X031245Y030514D02*
X030469Y030514D01*
X030469Y030505D02*
X031245Y030505D01*
X031245Y030497D02*
X030469Y030497D01*
X030469Y030488D02*
X031245Y030488D01*
X031245Y030480D02*
X030469Y030480D01*
X030469Y030471D02*
X031245Y030471D01*
X031245Y030463D02*
X030469Y030463D01*
X030469Y030454D02*
X031245Y030454D01*
X031245Y030446D02*
X030469Y030446D01*
X030469Y030437D02*
X030786Y030437D01*
X030777Y030429D02*
X030469Y030429D01*
X030469Y030420D02*
X030771Y030420D01*
X030771Y030412D02*
X030469Y030412D01*
X030469Y030403D02*
X030771Y030403D01*
X030771Y030395D02*
X030469Y030395D01*
X030469Y030386D02*
X030771Y030386D01*
X030771Y030378D02*
X030469Y030378D01*
X030469Y030369D02*
X030771Y030369D01*
X030771Y030360D02*
X030469Y030360D01*
X030469Y030352D02*
X030771Y030352D01*
X030771Y030343D02*
X030469Y030343D01*
X030469Y030335D02*
X030771Y030335D01*
X030771Y030326D02*
X030469Y030326D01*
X030469Y030318D02*
X030771Y030318D01*
X030773Y030318D02*
X030969Y030318D01*
X030973Y030318D02*
X031245Y030318D01*
X031245Y030326D02*
X030969Y030326D01*
X030969Y030309D02*
X030773Y030309D01*
X030771Y030309D02*
X030469Y030309D01*
X030469Y030301D02*
X030737Y030301D01*
X030727Y030292D02*
X030469Y030292D01*
X030469Y030284D02*
X030717Y030284D01*
X030706Y030275D02*
X030469Y030275D01*
X030469Y030267D02*
X030696Y030267D01*
X030693Y030258D02*
X030469Y030258D01*
X030469Y030250D02*
X030693Y030250D01*
X030693Y030241D02*
X030469Y030241D01*
X030469Y030233D02*
X030693Y030233D01*
X030693Y030224D02*
X030469Y030224D01*
X030469Y030216D02*
X030693Y030216D01*
X030693Y030207D02*
X030469Y030207D01*
X030469Y030199D02*
X030693Y030199D01*
X030693Y030190D02*
X030469Y030190D01*
X030469Y030182D02*
X030693Y030182D01*
X030693Y030173D02*
X030469Y030173D01*
X030469Y030165D02*
X030693Y030165D01*
X030693Y030156D02*
X030469Y030156D01*
X030469Y030148D02*
X030693Y030148D01*
X030693Y030139D02*
X030469Y030139D01*
X030469Y030131D02*
X030693Y030131D01*
X030693Y030122D02*
X030469Y030122D01*
X030469Y030114D02*
X030693Y030114D01*
X030693Y030105D02*
X030469Y030105D01*
X030469Y030097D02*
X030693Y030097D01*
X030693Y030088D02*
X030469Y030088D01*
X030469Y030080D02*
X030693Y030080D01*
X030693Y030071D02*
X030469Y030071D01*
X030469Y030063D02*
X030693Y030063D01*
X030693Y030054D02*
X030469Y030054D01*
X030469Y030046D02*
X030693Y030046D01*
X030693Y030037D02*
X030469Y030037D01*
X030469Y030029D02*
X030693Y030029D01*
X030693Y030020D02*
X030469Y030020D01*
X030469Y030012D02*
X030693Y030012D01*
X030693Y030003D02*
X030469Y030003D01*
X030469Y029995D02*
X030693Y029995D01*
X030693Y029986D02*
X030469Y029986D01*
X030469Y029978D02*
X030698Y029978D01*
X030716Y029969D02*
X030469Y029969D01*
X030469Y029961D02*
X030734Y029961D01*
X030743Y029952D02*
X030469Y029952D01*
X030469Y029944D02*
X030743Y029944D01*
X030743Y029935D02*
X030469Y029935D01*
X030469Y029927D02*
X030743Y029927D01*
X030743Y029918D02*
X030469Y029918D01*
X030469Y029910D02*
X030743Y029910D01*
X030743Y029901D02*
X030469Y029901D01*
X030469Y029893D02*
X030743Y029893D01*
X030743Y029884D02*
X030469Y029884D01*
X030469Y029876D02*
X030743Y029876D01*
X030743Y029867D02*
X030469Y029867D01*
X030469Y029859D02*
X030743Y029859D01*
X030743Y029850D02*
X030469Y029850D01*
X030469Y029842D02*
X030743Y029842D01*
X030743Y029833D02*
X030469Y029833D01*
X030469Y029825D02*
X030743Y029825D01*
X030743Y029816D02*
X030469Y029816D01*
X030469Y029808D02*
X030743Y029808D01*
X030743Y029799D02*
X030469Y029799D01*
X030469Y029791D02*
X030743Y029791D01*
X030743Y029782D02*
X030469Y029782D01*
X030469Y029774D02*
X030743Y029774D01*
X030743Y029765D02*
X030469Y029765D01*
X030469Y029757D02*
X030743Y029757D01*
X030743Y029748D02*
X030469Y029748D01*
X030469Y029740D02*
X030743Y029740D01*
X030743Y029731D02*
X030469Y029731D01*
X030469Y029723D02*
X030743Y029723D01*
X030743Y029714D02*
X030469Y029714D01*
X030469Y029706D02*
X030743Y029706D01*
X030743Y029697D02*
X030469Y029697D01*
X030469Y029689D02*
X030743Y029689D01*
X030971Y029689D02*
X031245Y029689D01*
X031245Y029697D02*
X030971Y029697D01*
X030971Y029706D02*
X031245Y029706D01*
X031245Y029714D02*
X030971Y029714D01*
X030971Y029723D02*
X031245Y029723D01*
X031245Y029731D02*
X030971Y029731D01*
X030971Y029740D02*
X031245Y029740D01*
X031245Y029748D02*
X030971Y029748D01*
X030971Y029757D02*
X031245Y029757D01*
X031245Y029765D02*
X030971Y029765D01*
X030971Y029774D02*
X031245Y029774D01*
X031245Y029782D02*
X030971Y029782D01*
X030971Y029791D02*
X031245Y029791D01*
X031245Y029799D02*
X030971Y029799D01*
X030971Y029808D02*
X031245Y029808D01*
X031245Y029816D02*
X030971Y029816D01*
X030971Y029825D02*
X031245Y029825D01*
X031245Y029833D02*
X030971Y029833D01*
X030971Y029842D02*
X031245Y029842D01*
X031245Y029850D02*
X030971Y029850D01*
X030971Y029859D02*
X031245Y029859D01*
X031245Y029867D02*
X030971Y029867D01*
X030971Y029876D02*
X031245Y029876D01*
X031245Y029884D02*
X030971Y029884D01*
X030971Y029893D02*
X031245Y029893D01*
X031245Y029901D02*
X030971Y029901D01*
X030971Y029910D02*
X031245Y029910D01*
X031245Y029918D02*
X030971Y029918D01*
X030971Y029927D02*
X031245Y029927D01*
X031245Y029935D02*
X030971Y029935D01*
X030971Y029944D02*
X031245Y029944D01*
X031245Y029952D02*
X030971Y029952D01*
X030984Y029961D02*
X031245Y029961D01*
X031245Y029969D02*
X031000Y029969D01*
X031016Y029978D02*
X031245Y029978D01*
X031245Y029986D02*
X031021Y029986D01*
X031021Y029995D02*
X031245Y029995D01*
X031245Y030003D02*
X031021Y030003D01*
X031021Y030012D02*
X031245Y030012D01*
X031245Y030020D02*
X031021Y030020D01*
X031021Y030029D02*
X031245Y030029D01*
X031245Y030037D02*
X031021Y030037D01*
X031021Y030046D02*
X031245Y030046D01*
X031245Y030054D02*
X031021Y030054D01*
X031021Y030063D02*
X031245Y030063D01*
X031245Y030071D02*
X031021Y030071D01*
X031021Y030080D02*
X031245Y030080D01*
X031245Y030088D02*
X031021Y030088D01*
X031021Y030097D02*
X031245Y030097D01*
X031245Y030105D02*
X031021Y030105D01*
X031021Y030114D02*
X031245Y030114D01*
X031245Y030122D02*
X031021Y030122D01*
X031021Y030131D02*
X031245Y030131D01*
X031245Y030139D02*
X031021Y030139D01*
X031021Y030148D02*
X031245Y030148D01*
X031245Y030156D02*
X031021Y030156D01*
X031021Y030165D02*
X031245Y030165D01*
X031245Y030173D02*
X031021Y030173D01*
X031021Y030182D02*
X031245Y030182D01*
X031245Y030190D02*
X031021Y030190D01*
X031021Y030199D02*
X031245Y030199D01*
X031245Y030207D02*
X031021Y030207D01*
X031021Y030216D02*
X031245Y030216D01*
X031245Y030224D02*
X031021Y030224D01*
X031021Y030233D02*
X031245Y030233D01*
X031245Y030241D02*
X031021Y030241D01*
X031021Y030250D02*
X031245Y030250D01*
X031245Y030258D02*
X031021Y030258D01*
X031016Y030267D02*
X031245Y030267D01*
X031245Y030275D02*
X031006Y030275D01*
X030995Y030284D02*
X031245Y030284D01*
X031245Y030292D02*
X030985Y030292D01*
X030975Y030301D02*
X031245Y030301D01*
X031245Y030309D02*
X030973Y030309D01*
X030947Y030335D02*
X031245Y030335D01*
X031245Y030343D02*
X030947Y030343D01*
X030947Y030352D02*
X031245Y030352D01*
X031245Y030360D02*
X030947Y030360D01*
X030947Y030369D02*
X031245Y030369D01*
X031245Y030378D02*
X030947Y030378D01*
X030947Y030386D02*
X031245Y030386D01*
X031245Y030395D02*
X030947Y030395D01*
X030947Y030403D02*
X031245Y030403D01*
X031245Y030412D02*
X030947Y030412D01*
X030946Y030420D02*
X031245Y030420D01*
X031245Y030429D02*
X030936Y030429D01*
X030927Y030437D02*
X031245Y030437D01*
D11*
X003743Y007333D02*
X002743Y007333D01*
X002743Y017333D01*
X003743Y017333D01*
X003743Y007333D01*
X007743Y007333D02*
X008743Y007333D01*
X008743Y017333D01*
X007743Y017333D01*
X007743Y007333D01*
X009018Y007333D02*
X010018Y007333D01*
X010018Y017333D01*
X009018Y017333D01*
X009018Y007333D01*
X014018Y007333D02*
X015018Y007333D01*
X015018Y017333D01*
X014018Y017333D01*
X014018Y007333D01*
X015294Y007333D02*
X016294Y007333D01*
X016294Y017333D01*
X015294Y017333D01*
X015294Y007333D01*
X020294Y007333D02*
X021294Y007333D01*
X021294Y017333D01*
X020294Y017333D01*
X020294Y007333D01*
X021570Y007333D02*
X022570Y007333D01*
X022570Y017333D01*
X021570Y017333D01*
X021570Y007333D01*
X026570Y007333D02*
X027570Y007333D01*
X027570Y017333D01*
X026570Y017333D01*
X026570Y007333D01*
X027845Y007333D02*
X028845Y007333D01*
X028845Y017333D01*
X027845Y017333D01*
X027845Y007333D01*
X032845Y007333D02*
X033845Y007333D01*
X033845Y017333D01*
X032845Y017333D01*
X032845Y007333D01*
X032845Y017609D02*
X033845Y017609D01*
X033845Y027609D01*
X032845Y027609D01*
X032845Y017609D01*
X028845Y017609D02*
X027845Y017609D01*
X027845Y027609D01*
X028845Y027609D01*
X028845Y017609D01*
X027570Y017609D02*
X027570Y027609D01*
X026570Y027609D01*
X026570Y017609D01*
X027570Y017609D01*
X022570Y017609D02*
X021570Y017609D01*
X021570Y027609D01*
X022570Y027609D01*
X022570Y017609D01*
X021294Y017609D02*
X021294Y027609D01*
X020294Y027609D01*
X020294Y017609D01*
X021294Y017609D01*
X016294Y017609D02*
X015294Y017609D01*
X015294Y027609D01*
X016294Y027609D01*
X016294Y017609D01*
X015018Y017609D02*
X015018Y027609D01*
X014018Y027609D01*
X014018Y017609D01*
X015018Y017609D01*
X010018Y017609D02*
X009018Y017609D01*
X009018Y027609D01*
X010018Y027609D01*
X010018Y017609D01*
X008743Y017609D02*
X008743Y027609D01*
X007743Y027609D01*
X007743Y017609D01*
X008743Y017609D01*
X003743Y017609D02*
X002743Y017609D01*
X002743Y027609D01*
X003743Y027609D01*
X003743Y017609D01*
X003743Y027885D02*
X002743Y027885D01*
X002743Y037885D01*
X003743Y037885D01*
X003743Y027885D01*
X007743Y027885D02*
X008743Y027885D01*
X008743Y037885D01*
X007743Y037885D01*
X007743Y027885D01*
X009018Y027885D02*
X010018Y027885D01*
X010018Y037885D01*
X009018Y037885D01*
X009018Y027885D01*
X014018Y027885D02*
X015018Y027885D01*
X015018Y037885D01*
X014018Y037885D01*
X014018Y027885D01*
X015294Y027885D02*
X016294Y027885D01*
X016294Y037885D01*
X015294Y037885D01*
X015294Y027885D01*
X020294Y027885D02*
X021294Y027885D01*
X021294Y037885D01*
X020294Y037885D01*
X020294Y027885D01*
X021570Y027885D02*
X022570Y027885D01*
X022570Y037885D01*
X021570Y037885D01*
X021570Y027885D01*
X026570Y027885D02*
X027570Y027885D01*
X027570Y037885D01*
X026570Y037885D01*
X026570Y027885D01*
X027845Y027885D02*
X028845Y027885D01*
X028845Y037885D01*
X027845Y037885D01*
X027845Y027885D01*
X032845Y027885D02*
X033845Y027885D01*
X033845Y037885D01*
X032845Y037885D01*
X032845Y027885D01*
M02*
