G75*
%MOIN*%
%OFA0B0*%
%FSLAX24Y24*%
%IPPOS*%
%LPD*%
%AMOC8*
5,1,8,0,0,1.08239X$1,22.5*
%
%ADD10C,0.0740*%
%ADD11C,0.0080*%
D10*
X000640Y000775D03*
X000640Y001775D03*
X000640Y002775D03*
X000640Y003775D03*
X000640Y004775D03*
X000640Y005775D03*
X000640Y006775D03*
X000640Y007775D03*
X000640Y008775D03*
X000640Y009775D03*
X005640Y009775D03*
X005640Y008775D03*
X005640Y007775D03*
X005640Y006775D03*
X005640Y005775D03*
X005640Y004775D03*
X005640Y003775D03*
X005640Y002775D03*
X005640Y001775D03*
X005640Y000775D03*
D11*
X005600Y000746D02*
X001130Y000746D01*
X001130Y000715D02*
X001130Y000872D01*
X001055Y001053D01*
X000918Y001190D01*
X000737Y001265D01*
X000580Y001265D01*
X000580Y001285D01*
X000737Y001285D01*
X000918Y001360D01*
X001055Y001497D01*
X001130Y001678D01*
X001130Y001872D01*
X001055Y002053D01*
X000918Y002190D01*
X000737Y002265D01*
X000580Y002265D01*
X000580Y002285D01*
X000737Y002285D01*
X000918Y002360D01*
X001055Y002497D01*
X001130Y002678D01*
X001130Y002872D01*
X001055Y003053D01*
X000918Y003190D01*
X000737Y003265D01*
X000580Y003265D01*
X000580Y003285D01*
X000737Y003285D01*
X000918Y003360D01*
X001055Y003497D01*
X001130Y003678D01*
X001130Y003872D01*
X001055Y004053D01*
X000918Y004190D01*
X000737Y004265D01*
X000580Y004265D01*
X000580Y004285D01*
X000737Y004285D01*
X000918Y004360D01*
X001055Y004497D01*
X001130Y004678D01*
X001130Y004872D01*
X001055Y005053D01*
X000918Y005190D01*
X000737Y005265D01*
X000580Y005265D01*
X000580Y005285D01*
X000737Y005285D01*
X000918Y005360D01*
X001055Y005497D01*
X001130Y005678D01*
X001130Y005872D01*
X001055Y006053D01*
X000918Y006190D01*
X000737Y006265D01*
X000580Y006265D01*
X000580Y006285D01*
X000737Y006285D01*
X000918Y006360D01*
X001055Y006497D01*
X001130Y006678D01*
X001130Y006872D01*
X001055Y007053D01*
X000918Y007190D01*
X000737Y007265D01*
X000580Y007265D01*
X000580Y007285D01*
X000737Y007285D01*
X000918Y007360D01*
X001055Y007497D01*
X005225Y007497D01*
X005362Y007360D01*
X005543Y007285D01*
X005700Y007285D01*
X005700Y007265D01*
X005543Y007265D01*
X005362Y007190D01*
X005225Y007053D01*
X005150Y006872D01*
X005150Y006678D01*
X005225Y006497D01*
X005362Y006360D01*
X005543Y006285D01*
X005700Y006285D01*
X005700Y006265D01*
X005543Y006265D01*
X005362Y006190D01*
X005225Y006053D01*
X005150Y005872D01*
X005150Y005678D01*
X005225Y005497D01*
X005362Y005360D01*
X005543Y005285D01*
X005700Y005285D01*
X005700Y005265D01*
X005543Y005265D01*
X005362Y005190D01*
X005225Y005053D01*
X005150Y004872D01*
X005150Y004678D01*
X005225Y004497D01*
X005362Y004360D01*
X005543Y004285D01*
X005700Y004285D01*
X005700Y004265D01*
X005543Y004265D01*
X005362Y004190D01*
X005225Y004053D01*
X005150Y003872D01*
X005150Y003678D01*
X005225Y003497D01*
X005362Y003360D01*
X005543Y003285D01*
X005700Y003285D01*
X005700Y003265D01*
X005543Y003265D01*
X005362Y003190D01*
X005225Y003053D01*
X005150Y002872D01*
X005150Y002678D01*
X005225Y002497D01*
X005362Y002360D01*
X005543Y002285D01*
X005700Y002285D01*
X005700Y002265D01*
X005543Y002265D01*
X005362Y002190D01*
X005225Y002053D01*
X005150Y001872D01*
X005150Y001678D01*
X005225Y001497D01*
X005362Y001360D01*
X005543Y001285D01*
X005700Y001285D01*
X005700Y001282D01*
X005680Y001285D01*
X005680Y000815D01*
X005600Y000815D01*
X005600Y001285D01*
X005600Y001285D01*
X005521Y001272D01*
X005444Y001248D01*
X005373Y001211D01*
X005308Y001164D01*
X005251Y001107D01*
X005204Y001042D01*
X005167Y000971D01*
X005143Y000894D01*
X005130Y000815D01*
X005600Y000815D01*
X005600Y000735D01*
X005130Y000735D01*
X005130Y000735D01*
X005133Y000715D01*
X001130Y000715D01*
X001130Y000825D02*
X005131Y000825D01*
X005130Y000815D02*
X005130Y000815D01*
X005145Y000903D02*
X001117Y000903D01*
X001085Y000982D02*
X005173Y000982D01*
X005217Y001060D02*
X001048Y001060D01*
X000969Y001139D02*
X005282Y001139D01*
X005384Y001217D02*
X000853Y001217D01*
X000763Y001296D02*
X005517Y001296D01*
X005600Y001217D02*
X005680Y001217D01*
X005680Y001285D02*
X005680Y001285D01*
X005680Y001139D02*
X005600Y001139D01*
X005600Y001060D02*
X005680Y001060D01*
X005680Y000982D02*
X005600Y000982D01*
X005600Y000903D02*
X005680Y000903D01*
X005680Y000825D02*
X005600Y000825D01*
X005348Y001374D02*
X000932Y001374D01*
X001010Y001453D02*
X005270Y001453D01*
X005211Y001531D02*
X001069Y001531D01*
X001102Y001610D02*
X005178Y001610D01*
X005150Y001688D02*
X001130Y001688D01*
X001130Y001767D02*
X005150Y001767D01*
X005150Y001845D02*
X001130Y001845D01*
X001109Y001924D02*
X005171Y001924D01*
X005204Y002002D02*
X001076Y002002D01*
X001027Y002081D02*
X005253Y002081D01*
X005331Y002159D02*
X000949Y002159D01*
X000952Y002395D02*
X005328Y002395D01*
X005249Y002473D02*
X001031Y002473D01*
X001078Y002552D02*
X005202Y002552D01*
X005170Y002630D02*
X001110Y002630D01*
X001130Y002709D02*
X005150Y002709D01*
X005150Y002787D02*
X001130Y002787D01*
X001130Y002866D02*
X005150Y002866D01*
X005180Y002944D02*
X001100Y002944D01*
X001068Y003023D02*
X005212Y003023D01*
X005273Y003101D02*
X001007Y003101D01*
X000928Y003180D02*
X005352Y003180D01*
X005418Y003337D02*
X000862Y003337D01*
X000754Y003258D02*
X005526Y003258D01*
X005307Y003415D02*
X000973Y003415D01*
X001051Y003494D02*
X005229Y003494D01*
X005194Y003572D02*
X001086Y003572D01*
X001119Y003651D02*
X005161Y003651D01*
X005150Y003729D02*
X001130Y003729D01*
X001130Y003808D02*
X005150Y003808D01*
X005156Y003886D02*
X001124Y003886D01*
X001092Y003965D02*
X005188Y003965D01*
X005221Y004043D02*
X001059Y004043D01*
X000986Y004122D02*
X005294Y004122D01*
X005386Y004200D02*
X000894Y004200D01*
X000911Y004357D02*
X005369Y004357D01*
X005287Y004436D02*
X000993Y004436D01*
X001062Y004514D02*
X005218Y004514D01*
X005185Y004593D02*
X001095Y004593D01*
X001127Y004671D02*
X005153Y004671D01*
X005150Y004750D02*
X001130Y004750D01*
X001130Y004828D02*
X005150Y004828D01*
X005164Y004907D02*
X001116Y004907D01*
X001083Y004985D02*
X005197Y004985D01*
X005236Y005064D02*
X001044Y005064D01*
X000966Y005142D02*
X005314Y005142D01*
X005435Y005221D02*
X000845Y005221D01*
X000771Y005299D02*
X005509Y005299D01*
X005345Y005378D02*
X000935Y005378D01*
X001014Y005456D02*
X005266Y005456D01*
X005209Y005535D02*
X001071Y005535D01*
X001103Y005613D02*
X005177Y005613D01*
X005150Y005692D02*
X001130Y005692D01*
X001130Y005770D02*
X005150Y005770D01*
X005150Y005849D02*
X001130Y005849D01*
X001107Y005927D02*
X005173Y005927D01*
X005205Y006006D02*
X001075Y006006D01*
X001024Y006084D02*
X005256Y006084D01*
X005335Y006163D02*
X000945Y006163D01*
X000821Y006320D02*
X005459Y006320D01*
X005485Y006241D02*
X000795Y006241D01*
X000956Y006398D02*
X005324Y006398D01*
X005246Y006477D02*
X001034Y006477D01*
X001079Y006555D02*
X005201Y006555D01*
X005168Y006634D02*
X001112Y006634D01*
X001130Y006712D02*
X005150Y006712D01*
X005150Y006791D02*
X001130Y006791D01*
X001130Y006869D02*
X005150Y006869D01*
X005181Y006948D02*
X001099Y006948D01*
X001066Y007026D02*
X005214Y007026D01*
X005277Y007105D02*
X001003Y007105D01*
X000925Y007183D02*
X005355Y007183D01*
X005410Y007340D02*
X000870Y007340D01*
X000976Y007419D02*
X005304Y007419D01*
X005225Y007497D02*
X005150Y007678D01*
X005150Y007872D01*
X005225Y008053D01*
X005362Y008190D01*
X005543Y008265D01*
X005700Y008265D01*
X005700Y008285D01*
X005543Y008285D01*
X005362Y008360D01*
X005225Y008497D01*
X005150Y008678D01*
X005150Y008872D01*
X005225Y009053D01*
X005362Y009190D01*
X005543Y009265D01*
X005700Y009265D01*
X005700Y009285D01*
X005543Y009285D01*
X005362Y009360D01*
X005225Y009497D01*
X005150Y009678D01*
X005150Y009835D01*
X001130Y009835D01*
X001130Y009678D01*
X001055Y009497D01*
X000918Y009360D01*
X000737Y009285D01*
X000580Y009285D01*
X000580Y009265D01*
X000737Y009265D01*
X000918Y009190D01*
X001055Y009053D01*
X001130Y008872D01*
X001130Y008678D01*
X001055Y008497D01*
X000918Y008360D01*
X000737Y008285D01*
X000580Y008285D01*
X000580Y008265D01*
X000737Y008265D01*
X000918Y008190D01*
X001055Y008053D01*
X001130Y007872D01*
X001130Y007678D01*
X001055Y007497D01*
X001088Y007576D02*
X005192Y007576D01*
X005160Y007654D02*
X001120Y007654D01*
X001130Y007733D02*
X005150Y007733D01*
X005150Y007811D02*
X001130Y007811D01*
X001123Y007890D02*
X005157Y007890D01*
X005190Y007968D02*
X001090Y007968D01*
X001058Y008047D02*
X005222Y008047D01*
X005297Y008125D02*
X000983Y008125D01*
X000886Y008204D02*
X005394Y008204D01*
X005362Y008361D02*
X000918Y008361D01*
X000997Y008439D02*
X005283Y008439D01*
X005216Y008518D02*
X001064Y008518D01*
X001096Y008596D02*
X005184Y008596D01*
X005151Y008675D02*
X001129Y008675D01*
X001130Y008753D02*
X005150Y008753D01*
X005150Y008832D02*
X001130Y008832D01*
X001114Y008910D02*
X005166Y008910D01*
X005198Y008989D02*
X001082Y008989D01*
X001041Y009067D02*
X005239Y009067D01*
X005318Y009146D02*
X000962Y009146D01*
X000836Y009224D02*
X005444Y009224D01*
X005500Y009303D02*
X000780Y009303D01*
X000939Y009381D02*
X005341Y009381D01*
X005263Y009460D02*
X001017Y009460D01*
X001072Y009538D02*
X005208Y009538D01*
X005175Y009617D02*
X001105Y009617D01*
X001130Y009695D02*
X005150Y009695D01*
X005150Y009774D02*
X001130Y009774D01*
X000580Y008282D02*
X005700Y008282D01*
X005534Y007262D02*
X000746Y007262D01*
X000580Y004279D02*
X005700Y004279D01*
X005468Y002316D02*
X000812Y002316D01*
X000804Y002238D02*
X005476Y002238D01*
M02*
