%
M48
M72
T01C0.0400
%
T01
X3243Y7833
X3243Y8833
X3243Y9833
X3243Y10833
X3243Y11833
X3243Y12833
X3243Y13833
X3243Y14833
X3243Y15833
X3243Y16833
X3243Y18109
X3243Y19109
X3243Y20109
X3243Y21109
X3243Y22109
X3243Y23109
X3243Y24109
X3243Y25109
X3243Y26109
X3243Y27109
X3243Y28385
X3243Y29385
X3243Y30385
X3243Y31385
X3243Y32385
X3243Y33385
X3243Y34385
X3243Y35385
X3243Y36385
X3243Y37385
X8243Y37385
X8243Y36385
X8243Y35385
X8243Y34385
X8243Y33385
X8243Y32385
X8243Y31385
X8243Y30385
X8243Y29385
X8243Y28385
X8243Y27109
X8243Y26109
X8243Y25109
X8243Y24109
X8243Y23109
X8243Y22109
X8243Y21109
X8243Y20109
X8243Y19109
X8243Y18109
X8243Y16833
X8243Y15833
X8243Y14833
X8243Y13833
X8243Y12833
X8243Y11833
X8243Y10833
X8243Y9833
X8243Y8833
X8243Y7833
X9518Y7833
X9518Y8833
X9518Y9833
X9518Y10833
X9518Y11833
X9518Y12833
X9518Y13833
X9518Y14833
X9518Y15833
X9518Y16833
X9518Y18109
X9518Y19109
X9518Y20109
X9518Y21109
X9518Y22109
X9518Y23109
X9518Y24109
X9518Y25109
X9518Y26109
X9518Y27109
X9518Y28385
X9518Y29385
X9518Y30385
X9518Y31385
X9518Y32385
X9518Y33385
X9518Y34385
X9518Y35385
X9518Y36385
X9518Y37385
X14518Y37385
X14518Y36385
X14518Y35385
X14518Y34385
X14518Y33385
X14518Y32385
X14518Y31385
X14518Y30385
X14518Y29385
X14518Y28385
X14518Y27109
X14518Y26109
X14518Y25109
X14518Y24109
X14518Y23109
X14518Y22109
X14518Y21109
X14518Y20109
X14518Y19109
X14518Y18109
X14518Y16833
X14518Y15833
X14518Y14833
X14518Y13833
X14518Y12833
X14518Y11833
X14518Y10833
X14518Y9833
X14518Y8833
X14518Y7833
X15794Y7833
X15794Y8833
X15794Y9833
X15794Y10833
X15794Y11833
X15794Y12833
X15794Y13833
X15794Y14833
X15794Y15833
X15794Y16833
X15794Y18109
X15794Y19109
X15794Y20109
X15794Y21109
X15794Y22109
X15794Y23109
X15794Y24109
X15794Y25109
X15794Y26109
X15794Y27109
X15794Y28385
X15794Y29385
X15794Y30385
X15794Y31385
X15794Y32385
X15794Y33385
X15794Y34385
X15794Y35385
X15794Y36385
X15794Y37385
X20794Y37385
X20794Y36385
X20794Y35385
X20794Y34385
X20794Y33385
X20794Y32385
X20794Y31385
X20794Y30385
X20794Y29385
X20794Y28385
X20794Y27109
X20794Y26109
X20794Y25109
X20794Y24109
X20794Y23109
X20794Y22109
X20794Y21109
X20794Y20109
X20794Y19109
X20794Y18109
X20794Y16833
X20794Y15833
X20794Y14833
X20794Y13833
X20794Y12833
X20794Y11833
X20794Y10833
X20794Y9833
X20794Y8833
X20794Y7833
X22070Y7833
X22070Y8833
X22070Y9833
X22070Y10833
X22070Y11833
X22070Y12833
X22070Y13833
X22070Y14833
X22070Y15833
X22070Y16833
X22070Y18109
X22070Y19109
X22070Y20109
X22070Y21109
X22070Y22109
X22070Y23109
X22070Y24109
X22070Y25109
X22070Y26109
X22070Y27109
X22070Y28385
X22070Y29385
X22070Y30385
X22070Y31385
X22070Y32385
X22070Y33385
X22070Y34385
X22070Y35385
X22070Y36385
X22070Y37385
X27070Y37385
X27070Y36385
X27070Y35385
X27070Y34385
X27070Y33385
X27070Y32385
X27070Y31385
X27070Y30385
X27070Y29385
X27070Y28385
X27070Y27109
X27070Y26109
X27070Y25109
X27070Y24109
X27070Y23109
X27070Y22109
X27070Y21109
X27070Y20109
X27070Y19109
X27070Y18109
X27070Y16833
X27070Y15833
X27070Y14833
X27070Y13833
X27070Y12833
X27070Y11833
X27070Y10833
X27070Y9833
X27070Y8833
X27070Y7833
X28345Y7833
X28345Y8833
X28345Y9833
X28345Y10833
X28345Y11833
X28345Y12833
X28345Y13833
X28345Y14833
X28345Y15833
X28345Y16833
X28345Y18109
X28345Y19109
X28345Y20109
X28345Y21109
X28345Y22109
X28345Y23109
X28345Y24109
X28345Y25109
X28345Y26109
X28345Y27109
X28345Y28385
X28345Y29385
X28345Y30385
X28345Y31385
X28345Y32385
X28345Y33385
X28345Y34385
X28345Y35385
X28345Y36385
X28345Y37385
X33345Y37385
X33345Y36385
X33345Y35385
X33345Y34385
X33345Y33385
X33345Y32385
X33345Y31385
X33345Y30385
X33345Y29385
X33345Y28385
X33345Y27109
X33345Y26109
X33345Y25109
X33345Y24109
X33345Y23109
X33345Y22109
X33345Y21109
X33345Y20109
X33345Y19109
X33345Y18109
X33345Y16833
X33345Y15833
X33345Y14833
X33345Y13833
X33345Y12833
X33345Y11833
X33345Y10833
X33345Y9833
X33345Y8833
X33345Y7833
M30
