G75*
%MOIN*%
%OFA0B0*%
%FSLAX24Y24*%
%IPPOS*%
%LPD*%
%AMOC8*
5,1,8,0,0,1.08239X$1,22.5*
%
%ADD10R,0.0390X0.0120*%
%ADD11R,0.0433X0.0394*%
D10*
X004594Y011182D03*
X004594Y011438D03*
X004594Y011694D03*
X004594Y011949D03*
X004594Y012205D03*
X004594Y012461D03*
X004594Y012717D03*
X004594Y012973D03*
X004594Y013229D03*
X004594Y013485D03*
X006892Y013485D03*
X006892Y013229D03*
X006892Y012973D03*
X006892Y012717D03*
X006892Y012461D03*
X006892Y012205D03*
X006892Y011949D03*
X006892Y011694D03*
X006892Y011438D03*
X006892Y011182D03*
X010870Y011182D03*
X010870Y011438D03*
X010870Y011694D03*
X010870Y011949D03*
X010870Y012205D03*
X010870Y012461D03*
X010870Y012717D03*
X010870Y012973D03*
X010870Y013229D03*
X010870Y013485D03*
X013167Y013485D03*
X013167Y013229D03*
X013167Y012973D03*
X013167Y012717D03*
X013167Y012461D03*
X013167Y012205D03*
X013167Y011949D03*
X013167Y011694D03*
X013167Y011438D03*
X013167Y011182D03*
X017145Y011182D03*
X017145Y011438D03*
X017145Y011694D03*
X017145Y011949D03*
X017145Y012205D03*
X017145Y012461D03*
X017145Y012717D03*
X017145Y012973D03*
X017145Y013229D03*
X017145Y013485D03*
X019443Y013485D03*
X019443Y013229D03*
X019443Y012973D03*
X019443Y012717D03*
X019443Y012461D03*
X019443Y012205D03*
X019443Y011949D03*
X019443Y011694D03*
X019443Y011438D03*
X019443Y011182D03*
X023421Y011182D03*
X023421Y011438D03*
X023421Y011694D03*
X023421Y011949D03*
X023421Y012205D03*
X023421Y012461D03*
X023421Y012717D03*
X023421Y012973D03*
X023421Y013229D03*
X023421Y013485D03*
X025718Y013485D03*
X025718Y013229D03*
X025718Y012973D03*
X025718Y012717D03*
X025718Y012461D03*
X025718Y012205D03*
X025718Y011949D03*
X025718Y011694D03*
X025718Y011438D03*
X025718Y011182D03*
X029696Y011182D03*
X029696Y011438D03*
X029696Y011694D03*
X029696Y011949D03*
X029696Y012205D03*
X029696Y012461D03*
X029696Y012717D03*
X029696Y012973D03*
X029696Y013229D03*
X029696Y013485D03*
X031994Y013485D03*
X031994Y013229D03*
X031994Y012973D03*
X031994Y012717D03*
X031994Y012461D03*
X031994Y012205D03*
X031994Y011949D03*
X031994Y011694D03*
X031994Y011438D03*
X031994Y011182D03*
X031994Y021457D03*
X031994Y021713D03*
X031994Y021969D03*
X031994Y022225D03*
X031994Y022481D03*
X031994Y022737D03*
X031994Y022993D03*
X031994Y023249D03*
X031994Y023505D03*
X031994Y023760D03*
X029696Y023760D03*
X029696Y023505D03*
X029696Y023249D03*
X029696Y022993D03*
X029696Y022737D03*
X029696Y022481D03*
X029696Y022225D03*
X029696Y021969D03*
X029696Y021713D03*
X029696Y021457D03*
X025718Y021457D03*
X025718Y021713D03*
X025718Y021969D03*
X025718Y022225D03*
X025718Y022481D03*
X025718Y022737D03*
X025718Y022993D03*
X025718Y023249D03*
X025718Y023505D03*
X025718Y023760D03*
X023421Y023760D03*
X023421Y023505D03*
X023421Y023249D03*
X023421Y022993D03*
X023421Y022737D03*
X023421Y022481D03*
X023421Y022225D03*
X023421Y021969D03*
X023421Y021713D03*
X023421Y021457D03*
X019443Y021457D03*
X019443Y021713D03*
X019443Y021969D03*
X019443Y022225D03*
X019443Y022481D03*
X019443Y022737D03*
X019443Y022993D03*
X019443Y023249D03*
X019443Y023505D03*
X019443Y023760D03*
X017145Y023760D03*
X017145Y023505D03*
X017145Y023249D03*
X017145Y022993D03*
X017145Y022737D03*
X017145Y022481D03*
X017145Y022225D03*
X017145Y021969D03*
X017145Y021713D03*
X017145Y021457D03*
X013167Y021457D03*
X013167Y021713D03*
X013167Y021969D03*
X013167Y022225D03*
X013167Y022481D03*
X013167Y022737D03*
X013167Y022993D03*
X013167Y023249D03*
X013167Y023505D03*
X013167Y023760D03*
X010870Y023760D03*
X010870Y023505D03*
X010870Y023249D03*
X010870Y022993D03*
X010870Y022737D03*
X010870Y022481D03*
X010870Y022225D03*
X010870Y021969D03*
X010870Y021713D03*
X010870Y021457D03*
X006892Y021457D03*
X006892Y021713D03*
X006892Y021969D03*
X006892Y022225D03*
X006892Y022481D03*
X006892Y022737D03*
X006892Y022993D03*
X006892Y023249D03*
X006892Y023505D03*
X006892Y023760D03*
X004594Y023760D03*
X004594Y023505D03*
X004594Y023249D03*
X004594Y022993D03*
X004594Y022737D03*
X004594Y022481D03*
X004594Y022225D03*
X004594Y021969D03*
X004594Y021713D03*
X004594Y021457D03*
X004594Y031733D03*
X004594Y031989D03*
X004594Y032245D03*
X004594Y032501D03*
X004594Y032757D03*
X004594Y033012D03*
X004594Y033268D03*
X004594Y033524D03*
X004594Y033780D03*
X004594Y034036D03*
X006892Y034036D03*
X006892Y033780D03*
X006892Y033524D03*
X006892Y033268D03*
X006892Y033012D03*
X006892Y032757D03*
X006892Y032501D03*
X006892Y032245D03*
X006892Y031989D03*
X006892Y031733D03*
X010870Y031733D03*
X010870Y031989D03*
X010870Y032245D03*
X010870Y032501D03*
X010870Y032757D03*
X010870Y033012D03*
X010870Y033268D03*
X010870Y033524D03*
X010870Y033780D03*
X010870Y034036D03*
X013167Y034036D03*
X013167Y033780D03*
X013167Y033524D03*
X013167Y033268D03*
X013167Y033012D03*
X013167Y032757D03*
X013167Y032501D03*
X013167Y032245D03*
X013167Y031989D03*
X013167Y031733D03*
X017145Y031733D03*
X017145Y031989D03*
X017145Y032245D03*
X017145Y032501D03*
X017145Y032757D03*
X017145Y033012D03*
X017145Y033268D03*
X017145Y033524D03*
X017145Y033780D03*
X017145Y034036D03*
X019443Y034036D03*
X019443Y033780D03*
X019443Y033524D03*
X019443Y033268D03*
X019443Y033012D03*
X019443Y032757D03*
X019443Y032501D03*
X019443Y032245D03*
X019443Y031989D03*
X019443Y031733D03*
X023421Y031733D03*
X023421Y031989D03*
X023421Y032245D03*
X023421Y032501D03*
X023421Y032757D03*
X023421Y033012D03*
X023421Y033268D03*
X023421Y033524D03*
X023421Y033780D03*
X023421Y034036D03*
X025718Y034036D03*
X025718Y033780D03*
X025718Y033524D03*
X025718Y033268D03*
X025718Y033012D03*
X025718Y032757D03*
X025718Y032501D03*
X025718Y032245D03*
X025718Y031989D03*
X025718Y031733D03*
X029696Y031733D03*
X029696Y031989D03*
X029696Y032245D03*
X029696Y032501D03*
X029696Y032757D03*
X029696Y033012D03*
X029696Y033268D03*
X029696Y033524D03*
X029696Y033780D03*
X029696Y034036D03*
X031994Y034036D03*
X031994Y033780D03*
X031994Y033524D03*
X031994Y033268D03*
X031994Y033012D03*
X031994Y032757D03*
X031994Y032501D03*
X031994Y032245D03*
X031994Y031989D03*
X031994Y031733D03*
D11*
X005388Y007933D03*
X006097Y007933D03*
X011664Y007933D03*
X012373Y007933D03*
X017940Y007933D03*
X018648Y007933D03*
X024215Y007933D03*
X024924Y007933D03*
X030491Y007933D03*
X031199Y007933D03*
X031241Y014333D03*
X031949Y014333D03*
X030449Y014333D03*
X029741Y014333D03*
X030491Y018209D03*
X031199Y018209D03*
X025674Y014333D03*
X024965Y014333D03*
X024174Y014333D03*
X023465Y014333D03*
X024215Y018209D03*
X024924Y018209D03*
X019398Y014333D03*
X018690Y014333D03*
X017898Y014333D03*
X017190Y014333D03*
X017940Y018209D03*
X018648Y018209D03*
X013123Y014333D03*
X012414Y014333D03*
X011623Y014333D03*
X010914Y014333D03*
X011664Y018209D03*
X012373Y018209D03*
X006847Y014333D03*
X006138Y014333D03*
X005347Y014333D03*
X004638Y014333D03*
X005388Y018209D03*
X006097Y018209D03*
X006138Y024609D03*
X006847Y024609D03*
X005347Y024609D03*
X004638Y024609D03*
X005388Y028485D03*
X006097Y028485D03*
X010914Y024609D03*
X011623Y024609D03*
X012414Y024609D03*
X013123Y024609D03*
X012373Y028485D03*
X011664Y028485D03*
X017190Y024609D03*
X017898Y024609D03*
X018690Y024609D03*
X019398Y024609D03*
X018648Y028485D03*
X017940Y028485D03*
X023465Y024609D03*
X024174Y024609D03*
X024965Y024609D03*
X025674Y024609D03*
X024924Y028485D03*
X024215Y028485D03*
X029741Y024609D03*
X030449Y024609D03*
X031241Y024609D03*
X031949Y024609D03*
X031199Y028485D03*
X030491Y028485D03*
X030449Y034885D03*
X029741Y034885D03*
X031241Y034885D03*
X031949Y034885D03*
X025674Y034885D03*
X024965Y034885D03*
X024174Y034885D03*
X023465Y034885D03*
X019398Y034885D03*
X018690Y034885D03*
X017898Y034885D03*
X017190Y034885D03*
X013123Y034885D03*
X012414Y034885D03*
X011623Y034885D03*
X010914Y034885D03*
X006847Y034885D03*
X006138Y034885D03*
X005347Y034885D03*
X004638Y034885D03*
M02*
